<?xml version="1.0" encoding="UTF-8"?>
<svg width="88px" height="88px" viewBox="0 0 88 88" version="1.1" xmlns="http://www.w3.org/2000/svg" xmlns:xlink="http://www.w3.org/1999/xlink">
    <!-- Generator: Sketch 52.6 (67491) - http://www.bohemiancoding.com/sketch -->
    <title>Green</title>
    <desc>Created with Sketch.</desc>
    <g id="Symbols" stroke="none" stroke-width="1" fill="none" fill-rule="evenodd">
        <g id="Illustration/Status/Completed">
            <g id="Green">
                <g id="fill" transform="translate(6.000000, 2.345700)">
                    <path d="M76.4516,44.7717 C75.7566,43.7107 74.5606,43.0077 73.1976,43.0077 L68.5106,43.0077 C65.1956,43.0077 62.5106,40.3217 62.5106,37.0067 C62.5106,33.6937 65.1956,31.0067 68.5106,31.0067 L69.5336,31.0067 C72.8476,31.0067 75.5336,28.3207 75.5336,25.0067 C75.5336,21.6927 72.8476,19.0057 69.5336,19.0057 L61.8086,19.0057 L20.0276,19.0057 L9.7176,19.0057 C7.5676,19.0057 5.8246,20.7487 5.8246,22.8977 C5.8246,25.0477 7.5676,26.7907 9.7176,26.7907 L12.4656,26.7907 C15.7786,26.7907 18.4656,29.4767 18.4656,32.7917 C18.4656,36.1047 15.7786,38.7917 12.4656,38.7917 L5.5136,38.7917 C3.5066,38.7917 1.7346,39.7797 0.6456,41.2927 C5.5296,42.4097 9.4486,46.0577 10.9296,50.7927 L18.1016,50.7927 L61.8086,50.7927 L69.9726,50.7927 C71.3136,48.0697 73.6186,45.9127 76.4516,44.7717" id="Fill-1" fill="#EBEBEB"></path>
                    <path d="M39.6898,10.8381 C41.8258,13.7201 42.9778,17.2121 42.9778,20.7991 L42.9778,45.1101 C42.9778,47.0451 41.4098,48.6121 39.4748,48.6121 L48.5008,48.6121 C50.4348,48.6121 52.0028,47.0451 52.0028,45.1101 L52.0028,20.7991 C52.0028,17.2121 50.8498,13.7201 48.7148,10.8381 L47.2548,8.8661 L38.2308,8.8661 L39.6898,10.8381 Z" id="Fill-5" fill="#EBEBEB"></path>
                    <path d="M42.9779,41.0969 L42.9779,45.1109 C42.9779,47.0449 41.4099,48.6129 39.4749,48.6129 L48.4999,48.6129 C50.4349,48.6129 52.0019,47.0449 52.0019,45.1109 L52.0019,41.0969 L42.9779,41.0969 Z" id="Fill-7" fill="#CCCCCC"></path>
                    <path d="M42.9779,45.1105 L42.9779,20.7985 C42.9779,17.2125 41.8259,13.7195 39.6899,10.8385 L38.2309,8.8665 L29.2059,8.8665 L27.7459,10.8385 C25.6109,13.7195 24.4579,17.2125 24.4579,20.7985 L24.4579,45.1105 C24.4579,47.0455 26.0259,48.6125 27.9599,48.6125 L39.4749,48.6125 C41.4099,48.6125 42.9779,47.0455 42.9779,45.1105" id="Fill-9" fill="#FFFFFF"></path>
                    <path d="M34.1293,2.2199 L33.7183,2.7759 L38.2313,8.8659 L47.2553,8.8659 L42.3313,2.2199 C40.2913,-0.5341 36.1693,-0.5341 34.1293,2.2199" id="Fill-11" fill="#64AF73"></path>
                    <path d="M52.0023,26.8381 L60.8553,41.4381 C61.9703,43.2751 60.6473,45.6261 58.4963,45.6261 L52.0023,45.6261 L52.0023,26.8381 Z" id="Fill-13" fill="#C42F2D"></path>
                    <path d="M52.0023,26.8381 L60.8553,41.4381 C61.9703,43.2751 60.6473,45.6261 58.4963,45.6261 L52.0023,45.6261 L52.0023,26.8381 Z" id="Fill-15" fill="#437F4F"></path>
                    <path d="M24.4584,26.8381 L15.6044,41.4381 C14.4904,43.2751 15.8134,45.6261 17.9644,45.6261 L24.4584,45.6261 L24.4584,26.8381 Z" id="Fill-17" fill="#79E893"></path>
                    <path d="M20.3549,42.6213 L20.3549,45.6263 L24.4589,45.6263 L24.4589,33.0803 L21.7929,37.4743 C20.8529,39.0263 20.3549,40.8073 20.3549,42.6213" id="Fill-19" fill="#64AF73"></path>
                    <path d="M56.1059,42.6213 L56.1059,45.6263 L52.0019,45.6263 L52.0019,33.0803 L54.6679,37.4743 C55.6079,39.0263 56.1059,40.8073 56.1059,42.6213" id="Fill-21" fill="#64AF73"></path>
                    <polygon id="Fill-23" fill="#79E893" points="38.2309 8.8664 33.7179 2.7754 29.2059 8.8664"></polygon>
                    <path d="M24.4584,41.0969 L24.4584,45.1109 C24.4584,47.0449 26.0254,48.6129 27.9604,48.6129 L39.4754,48.6129 C41.4094,48.6129 42.9784,47.0449 42.9784,45.1109 L42.9784,41.0969 L24.4584,41.0969 Z" id="Fill-25" fill="#EBEBEB"></path>
                    <path d="M28.5111,48.6135 L28.5111,51.0535 C28.5111,52.1015 29.3611,52.9525 30.4091,52.9525 L46.0511,52.9525 C47.0991,52.9525 47.9491,52.1015 47.9491,51.0535 L47.9491,48.6135 L28.5111,48.6135 Z" id="Fill-27" fill="#CCCCCC"></path>
                    <polygon id="Fill-29" fill="#6E6F72" points="28.512 50.668 47.95 50.668 47.95 48.613 28.512 48.613"></polygon>
                    <path d="M46.059,26.1203 C46.059,21.7973 42.554,18.2923 38.23,18.2923 C33.907,18.2923 30.402,21.7973 30.402,26.1203 C30.402,30.4443 33.907,33.9493 38.23,33.9493 C42.554,33.9493 46.059,30.4443 46.059,26.1203" id="Fill-31" fill="#FFFFFF"></path>
                    <path d="M33.0385,26.1203 C33.0385,28.9883 35.3625,31.3123 38.2295,31.3123 C41.0985,31.3123 43.4225,28.9883 43.4225,26.1203 C43.4225,23.2533 41.0985,20.9293 38.2295,20.9293 C35.3625,20.9293 33.0385,23.2533 33.0385,26.1203" id="Fill-33" fill="#CCCCCC"></path>
                    <path d="M38.9965,21.006 C39.5535,21.727 39.8965,22.619 39.8965,23.6 C39.8965,25.957 37.9865,27.867 35.6295,27.867 C34.6935,27.867 33.8355,27.558 33.1315,27.047 C33.5695,29.471 35.6805,31.313 38.2305,31.313 C41.0985,31.313 43.4225,28.988 43.4225,26.121 C43.4225,23.516 41.4985,21.379 38.9965,21.006" id="Fill-34" fill="#6E6F72"></path>
                    <path d="M33.4008,22.5187 C33.4008,21.8317 33.9588,21.2737 34.6458,21.2737 C35.3348,21.2737 35.8918,21.8317 35.8918,22.5187 C35.8918,23.2067 35.3348,23.7647 34.6458,23.7647 C33.9588,23.7647 33.4008,23.2067 33.4008,22.5187" id="Fill-35" fill="#FFFFFF"></path>
                </g>
                <g id="outline" transform="translate(3.003300, 2.345900)" stroke="#1D1D1B">
                    <path d="M51.4971,48.6133 L30.9571,48.6133 C29.0221,48.6133 27.4551,47.0453 27.4551,45.1103 L27.4551,20.7993 C27.4551,17.2123 28.6071,13.7193 30.7421,10.8383 L37.1261,2.2193 C39.1661,-0.5337 43.2881,-0.5337 45.3281,2.2193 L51.7121,10.8383 C53.8471,13.7193 54.9991,17.2123 54.9991,20.7993 L54.9991,45.1103 C54.9991,47.0453 53.4321,48.6133 51.4971,48.6133 Z" id="Stroke-37" stroke-linecap="round" stroke-linejoin="round"></path>
                    <path d="M50.9463,48.6133 L50.9463,51.0533 C50.9463,52.1013 50.0953,52.9523 49.0483,52.9523 L33.4063,52.9523 C32.3573,52.9523 31.5083,52.1013 31.5083,51.0533 L31.5083,48.6133" id="Stroke-45" stroke-linecap="round" stroke-linejoin="round"></path>
                    <path d="M41.2266,55.1963 L41.2266,70.6313" id="Stroke-55" stroke-linecap="round" stroke-linejoin="round"></path>
                    <path d="M45.8614,52.9521 L45.8614,63.8161" id="Stroke-57" stroke-linecap="round" stroke-linejoin="round"></path>
                    <path d="M36.5928,52.9521 L36.5928,63.8161" id="Stroke-59" stroke-linecap="round" stroke-linejoin="round"></path>
                    <path d="M74.9063,70.293 C72.7103,68.576 69.9443,67.553 66.9403,67.553 C59.7903,67.553 53.9933,73.35 53.9933,80.5 L46.2583,80.5" id="Stroke-69" stroke-linecap="round" stroke-linejoin="round"></path>
                    <path d="M26.001,80.5 L36.825,80.5 C39.256,80.5 41.228,78.529 41.228,76.098 L41.228,74.984" id="Stroke-73" stroke-linecap="round" stroke-linejoin="round"></path>
                    <path d="M31,84.5 L49.056,84.5" id="Stroke-75" stroke-linecap="round" stroke-linejoin="round"></path>
                    <path d="M32.2022,8.8662 L50.2522,8.8662" id="Stroke-39" stroke-linecap="round" stroke-linejoin="round"></path>
                    <path d="M49.0557,26.1201 C49.0557,21.7971 45.5507,18.2921 41.2267,18.2921 C36.9037,18.2921 33.3987,21.7971 33.3987,26.1201 C33.3987,30.4441 36.9037,33.9491 41.2267,33.9491 C45.5507,33.9491 49.0557,30.4441 49.0557,26.1201 Z" id="Stroke-41" stroke-linecap="round" stroke-linejoin="round"></path>
                    <path d="M41.2266,31.2353 C44.0516,31.2353 46.3416,28.9453 46.3416,26.1203" id="Stroke-43" stroke-linecap="round" stroke-linejoin="round"></path>
                    <path d="M54.999,26.8379 L63.852,41.4379 C64.967,43.2749 63.644,45.6259 61.493,45.6259 L54.999,45.6259 L54.999,26.8379 Z" id="Stroke-47" stroke-linecap="round" stroke-linejoin="round"></path>
                    <path d="M27.4551,26.8379 L18.6011,41.4379 C17.4871,43.2749 18.8101,45.6259 20.9611,45.6259 L27.4551,45.6259 L27.4551,26.8379 Z" id="Stroke-49" stroke-linecap="round" stroke-linejoin="round"></path>
                    <path d="M15.9151,68.6308 C15.7501,65.6488 13.2791,63.2808 10.2551,63.2808 C8.9311,63.2808 7.7121,63.7348 6.7461,64.4968" id="Stroke-63" stroke-linecap="round" stroke-linejoin="round"></path>
                    <path d="M81.5694,44.124 C75.9294,45.278 71.6874,50.269 71.6874,56.249 C71.6874,59.371 72.8434,62.223 74.7514,64.4" id="Stroke-65" stroke-linecap="round" stroke-linejoin="round"></path>
                    <path d="M11.7207,63.4765 C13.5057,61.1185 14.5647,58.1795 14.5647,54.9945 C14.5647,47.2245 8.2667,40.9255 0.4967,40.9255" id="Stroke-67" stroke-linecap="round" stroke-linejoin="round"></path>
                    <path d="M28.7559,75.8115 C27.5789,71.5305 23.6579,68.3855 19.0039,68.3855 C16.6569,68.3855 14.4969,69.1855 12.7799,70.5265" id="Stroke-71" stroke-linecap="round" stroke-linejoin="round"></path>
                    <path d="M49.0557,26.1201 C49.0557,21.7971 45.5507,18.2921 41.2267,18.2921 C36.9037,18.2921 33.3987,21.7971 33.3987,26.1201 C33.3987,30.4441 36.9037,33.9491 41.2267,33.9491 C45.5507,33.9491 49.0557,30.4441 49.0557,26.1201 Z" id="Stroke-32"></path>
                    <path d="M27.4551,41.1299 L48.5041,41.1299" id="Stroke-51" stroke-linecap="round"></path>
                    <path d="M52.3037,41.1299 L54.9987,41.1299" id="Stroke-53" stroke-linecap="round"></path>
                    <path d="M76.1846,64.2431 C73.7846,64.2431 71.8176,66.0981 71.6386,68.4531" id="Stroke-61" stroke-linecap="round"></path>
                </g>
                <g id="Sparks">
                    <path d="M32,6.99948573 C32,5.89483158 31.1043702,5 30,5 C28.8946015,5 28,5.89483158 28,6.99948573 C28,8.10413988 28.8946015,9 30,9 C31.1043702,9 32,8.10413988 32,6.99948573" id="Fill-24" fill="#79E893"></path>
                    <path d="M4,1.99900448 C4,0.893977103 3.1060229,-7.10542736e-15 2.00099552,-7.10542736e-15 C0.895968143,-7.10542736e-15 0,0.893977103 0,1.99900448 C0,3.10403186 0.895968143,4 2.00099552,4 C3.1060229,4 4,3.10403186 4,1.99900448" id="Fill-26" fill="#79E893"></path>
                    <path d="M88,86.9996641 C88,86.4474303 87.5525697,86 87.0003359,86 C86.4481021,86 86,86.4474303 86,86.9996641 C86,87.5512261 86.4481021,87.9993282 87.0003359,87.9993282 C87.5525697,87.9993282 88,87.5512261 88,86.9996641" id="Fill-28" fill="#64AF73"></path>
                    <path d="M12.6088,23.5720007 C12.6088,23.0200473 12.1615847,22.5720007 11.6088,22.5720007 C11.0568466,22.5720007 10.6088,23.0200473 10.6088,23.5720007 C10.6088,24.1247854 11.0568466,24.572832 11.6088,24.572832 C12.1615847,24.572832 12.6088,24.1247854 12.6088,23.5720007" id="Fill-31" fill="#64AF73"></path>
                    <path d="M63.9554,14.8101062 C63.9554,14.2578869 63.5076193,13.8088007 62.9554,13.8088007 C62.4044862,13.8088007 61.9554,14.2578869 61.9554,14.8101062 C61.9554,15.3623255 62.4044862,15.8101062 62.9554,15.8101062 C63.5076193,15.8101062 63.9554,15.3623255 63.9554,14.8101062" id="Fill-33" fill="#64AF73"></path>
                    <path d="M59.6751,69.1184007 C59.6751,68.5661814 59.2273193,68.1184007 58.6751,68.1184007 C58.1228807,68.1184007 57.6751,68.5661814 57.6751,69.1184007 C57.6751,69.6719255 58.1228807,70.1197062 58.6751,70.1197062 C59.2273193,70.1197062 59.6751,69.6719255 59.6751,69.1184007" id="Fill-35" fill="#64AF73"></path>
                    <path d="M85.9458062,29.5646841 C86.2576023,27.9379621 85.1922989,26.3669179 83.5655768,26.0541938 C81.9388548,25.7423977 80.3668826,26.8077011 80.0541585,28.4344232 C79.7423624,30.0611452 80.8085938,31.6331174 82.4353159,31.9449135 C84.0620379,32.2567096 85.6340101,31.1914062 85.9458062,29.5646841" id="Fill-41" fill="#D6F1DC"></path>
                    <path d="M29.9458062,64.5647842 C30.2576023,62.9377253 29.1922989,61.3663558 27.5655768,61.0544951 C25.9388548,60.7417062 24.3659547,61.8072303 24.0541585,63.4342892 C23.7423624,65.0613481 24.8085938,66.6336457 26.4353159,66.9455064 C28.0620379,67.2582953 29.6330821,66.1927712 29.9458062,64.5647842" id="Fill-44" fill="#D6F1DC"></path>
                </g>
                <g id="Status-Ok" transform="translate(11.000000, 27.000000)">
                    <path d="M23.7807658,7.55775015 C21.1167658,1.26175015 13.8527658,-1.68224985 7.55676579,0.981750149 C1.26176579,3.64575015 -1.68223421,10.9097501 0.981765793,17.2047501 C3.64576579,23.5007501 10.9097658,26.4457501 17.2057658,23.7817501 C23.5017658,21.1167501 26.4447658,13.8537501 23.7807658,7.55775015" id="Fill-17" fill="#64AF73"></path>
                    <path d="M18.2075658,1.98455015 C18.1075658,1.74855015 17.9895658,1.52655015 17.8765658,1.29955015 C14.7585658,-0.244449851 11.0145658,-0.481449851 7.55856579,0.981550149 C1.26156579,3.64555015 -1.68243421,10.9095501 0.981565793,17.2055501 C1.08156579,17.4415501 1.20056579,17.6625501 1.31256579,17.8885501 C4.43156579,19.4335501 8.17556579,19.6705501 11.6325658,18.2075501 C17.9275658,15.5435501 20.8715658,8.27955015 18.2075658,1.98455015" id="Fill-19" fill="#79E893"></path>
                    <path d="M11.6941606,17.3797553 C11.6868177,17.3874076 11.6793861,17.3950063 11.6718658,17.4025501 L11.5943658,17.4795501 C11.5915052,17.4824107 11.5887377,17.4851601 11.5859634,17.4878983 L11.5168658,17.5565501 C10.8788658,18.1955501 9.84186579,18.1955501 9.20386579,17.5565501 L9.15604911,17.5087464 C9.14603516,17.4991897 9.13610655,17.4894909 9.12626579,17.4796501 C9.11685714,17.4702277 9.10757848,17.4607245 9.09842981,17.4511428 L5.51586579,13.8695501 C4.87786579,13.2305501 4.87786579,12.1945501 5.51586579,11.5555501 L5.67086579,11.4015501 C6.30886579,10.7615501 7.34486579,10.7615501 7.98486579,11.4015501 L10.3601158,13.7768001 L17.5432658,6.59365015 C18.2252658,5.91265015 19.3302658,5.91265015 20.0122658,6.59365015 C20.6942658,7.27565015 20.6942658,8.37965015 20.0122658,9.06165015 L11.6941606,17.3797553 Z" id="Combined-Shape" fill="#FFFFFF"></path>
                    <path d="M23.7807658,7.55775015 C21.1167658,1.26175015 13.8527658,-1.68224985 7.55676579,0.981750149 C1.26176579,3.64575015 -1.68223421,10.9097501 0.981765793,17.2047501 C3.64576579,23.5007501 10.9097658,26.4457501 17.2057658,23.7817501 C23.5017658,21.1167501 26.4447658,13.8537501 23.7807658,7.55775015 Z" id="Stroke-47" stroke="#1D1D1B" stroke-linecap="round"></path>
                </g>
            </g>
        </g>
    </g>
</svg>