<?xml version="1.0" encoding="UTF-8"?>
<svg width="49px" height="48px" viewBox="0 0 49 48" version="1.1" xmlns="http://www.w3.org/2000/svg" xmlns:xlink="http://www.w3.org/1999/xlink">
    <!-- Generator: sketchtool 60.1 (101010) - https://sketch.com -->
    <title>68442B53-56B9-4FDF-92E6-C3F1129A9C13</title>
    <desc>Created with sketchtool.</desc>
    <defs>
        <path d="M44.6444153,45.332 C44.6444153,46.054 44.0589335,46.641 43.338801,46.641 L4.66109929,46.641 C3.94096672,46.641 3.35548498,46.054 3.35548498,45.332 L3.35548498,42.386 C3.35548498,40.437 4.39379246,38.607 6.06446012,37.611 L16.9173167,31.137 C18.977973,32.411 21.3996931,33.16 23.9999501,33.16 C26.5992098,33.16 29.0219272,32.411 31.0825836,31.137 L41.9484065,37.618 C43.6110949,38.61 44.6444153,40.432 44.6444153,42.371 L44.6444153,45.332 Z M11.8853655,19.761 L11.8853655,13.399 C11.8853655,6.761 17.3192743,1.359 23.9999501,1.359 C30.6806259,1.359 36.1145348,6.761 36.1145348,13.399 L36.1145348,19.761 C36.1145348,26.399 30.6806259,31.801 23.9999501,31.801 C17.3192743,31.801 11.8853655,26.399 11.8853655,19.761 L11.8853655,19.761 Z M42.6416089,36.45 L32.3084048,30.286 C35.4452703,27.831 37.4710172,24.03 37.4710172,19.761 L37.4710172,13.399 C37.4710172,6.011 31.4276887,0 23.9999501,0 C16.5722116,0 10.5288831,6.011 10.5288831,13.399 L10.5288831,19.761 C10.5288831,24.03 12.5546299,27.831 15.6914955,30.286 L5.37125772,36.442 C3.29165052,37.684 2,39.961 2,42.386 L2,45.332 C2,46.803 3.19390399,48 4.66109929,48 L43.338801,48 C44.8059963,48 45.9999003,46.803 45.9999003,45.332 L45.9999003,42.371 C45.9999003,39.955 44.7132368,37.686 42.6416089,36.45 L42.6416089,36.45 Z" id="path-1"></path>
    </defs>
    <g id="Asset-Artboard-Page" stroke="none" stroke-width="1" fill="none" fill-rule="evenodd">
        <g id="icons/products/red/E-people/e09-new-neutral-user" transform="translate(0.382023, 0.000000)">
            <g>
                <polygon id="Rectangle-path" fill-opacity="0" fill="#FFFFFF" fill-rule="nonzero" points="0 0 48 0 48 48 0 48"></polygon>
                <mask id="mask-2" fill="white">
                    <use xlink:href="#path-1"></use>
                </mask>
                <use id="09-nutral-profile" fill="#C5281C" xlink:href="#path-1"></use>
            </g>
        </g>
    </g>
</svg>