<?xml version="1.0" encoding="UTF-8"?>
<svg width="51px" height="50px" viewBox="0 0 51 50" version="1.1" xmlns="http://www.w3.org/2000/svg" xmlns:xlink="http://www.w3.org/1999/xlink">
    <!-- Generator: sketchtool 60 (101010) - https://sketch.com -->
    <title>F5984DE4-D643-432D-B004-18D341CF8FA4</title>
    <desc>Created with sketchtool.</desc>
    <defs>
        <path d="M46.543225,47.2385427 C46.543225,48.0010427 45.9229008,48.621876 45.1623024,48.621876 L4.83707453,48.621876 C4.07647604,48.621876 3.45615186,48.0010427 3.45615186,47.2385427 L3.45615186,44.1677093 C3.45615186,42.1291676 4.54197894,40.215626 6.28969295,39.1729176 L17.6155448,32.4166675 C19.7633003,33.7479176 22.288238,34.5302092 25.000208,34.5302092 C27.7111389,34.5302092 30.2360765,33.7479176 32.3838321,32.4166675 L43.7221528,39.1812509 C45.4615542,40.218751 46.543225,42.1229176 46.543225,44.1520843 L46.543225,47.2385427 Z M12.3485046,20.5802082 L12.3485046,16.9364581 C14.4443067,18.3083331 16.9152127,19.0583331 19.4422284,19.0583331 C23.3626356,19.0583331 27.0243147,17.3124998 29.4900253,14.267708 C29.7549879,13.939583 30.1456778,13.752083 30.5613054,13.752083 L30.5623445,13.752083 C30.9748549,13.752083 31.3593104,13.9354163 31.6201167,14.2572913 C33.1984625,16.2052081 35.2766004,17.6218748 37.6498339,18.3979165 L37.6498339,20.5802082 C37.6498339,27.5125001 31.9744392,33.1520836 25.0002083,33.1520836 C18.0249384,33.1520836 12.3485046,27.5125001 12.3485046,20.5802082 L12.3485046,20.5802082 Z M25.0002083,1.37916667 C31.9744392,1.37916667 37.6498339,7.01770839 37.6498339,13.9500001 L37.6498339,16.9489585 C35.7046968,16.2302085 34.0027018,15.0125001 32.6862015,13.3885418 C32.1635498,12.7437501 31.3894434,12.3729168 30.5623445,12.3729168 L30.5602664,12.3729168 C29.7290112,12.3739585 28.9486704,12.7479168 28.4229015,13.3989585 C26.2200753,16.1197918 22.945969,17.6802085 19.4422284,17.6802085 C16.8705327,17.6802085 14.3663765,16.8135418 12.3485046,15.2468751 L12.3485046,13.9500001 C12.3485046,7.01770839 18.0249384,1.37916667 25.0002083,1.37916667 L25.0002083,1.37916667 Z M44.4245641,37.996875 L33.6265592,31.5552083 C36.9058609,29 39.0245226,25.0364583 39.0245226,20.5802083 L39.0245226,13.95 C39.0245226,6.25833333 32.7329598,-1.11041664e-13 25.0002084,-1.11041664e-13 C17.2664178,-1.11041664e-13 10.9758942,6.25833333 10.9758942,13.95 L10.9758942,20.5802083 C10.9758942,25.0364583 13.0935168,29 16.3728185,31.5552083 L5.58728235,37.9885417 C3.42497977,39.278125 2.0835417,41.6458333 2.0835417,44.1677083 L2.0835417,47.2385417 C2.0835417,48.7614583 3.31795567,50 4.83707454,50 L45.1623031,50 C46.681422,50 47.916875,48.7614583 47.916875,47.2385417 L47.916875,44.1520833 C47.916875,41.6395833 46.5785542,39.28125 44.4245641,37.996875 L44.4245641,37.996875 Z" id="path-1"></path>
    </defs>
    <g id="Asset-Artboard-Page" stroke="none" stroke-width="1" fill="none" fill-rule="evenodd">
        <g id="icons/products/white/E-people/e11-man-profile" transform="translate(0.422812, 0.000000)">
            <g>
                <rect id="Rectangle-path" fill-opacity="0" fill="#FFFFFF" fill-rule="nonzero" x="-3.6979168e-14" y="0" width="50" height="50"></rect>
                <mask id="mask-2" fill="white">
                    <use xlink:href="#path-1"></use>
                </mask>
                <use id="Mask" fill="#FFFFFF" xlink:href="#path-1"></use>
                <polygon id="Color-Style" fill="#FFFFFF" mask="url(#mask-2)" points="0 -1.93642034e-17 50 -1.93642034e-17 50 50 0 50"></polygon>
            </g>
        </g>
    </g>
</svg>