<?xml version="1.0" encoding="UTF-8"?>
<svg width="49px" height="48px" viewBox="0 0 49 48" version="1.1" xmlns="http://www.w3.org/2000/svg" xmlns:xlink="http://www.w3.org/1999/xlink">
    <!-- Generator: sketchtool 60.1 (101010) - https://sketch.com -->
    <title>21E84F14-1277-4735-A067-C4636A295C0D</title>
    <desc>Created with sketchtool.</desc>
    <defs>
        <path d="M46.651,29.0409453 C46.651,29.3139442 46.429,29.5377632 46.156,29.5377632 L30.263,29.5377632 C29.975,26.8559502 28.003,24.6739661 25.423,24.0557038 L30.572,20.9814549 C31.797,21.7061064 33.223,22.1306599 34.75,22.1306599 C36.276,22.1306599 37.702,21.7061064 38.927,20.9814549 L45.196,24.7241497 C46.092,25.2601109 46.651,26.2447136 46.651,27.2935514 L46.651,29.0409453 Z M28.952,30.8927211 L28.952,30.8987431 L28.943,30.8927211 C28.397,30.6076781 27.907,30.2232715 27.512,29.734483 C27.451,29.6592076 27.38,29.5979835 27.307,29.5377632 C26.999,29.2848377 26.602,29.1734301 26.209,29.1965145 C25.882,29.216588 25.565,29.3289993 25.309,29.5377632 C25.234,29.5989872 25.162,29.6632222 25.099,29.7395014 C24.708,30.2242752 24.227,30.6086818 23.694,30.8927211 C23.047,31.2369808 22.321,31.4266749 21.564,31.4266749 C20.825,31.4266749 20.106,31.2339698 19.462,30.8927211 C19.274,30.7933575 19.091,30.6869682 18.92,30.5625128 L18.92,30.2162458 C18.92,29.9833938 18.957,29.7615822 18.988,29.5377632 C19.223,27.8435639 20.303,26.4253747 21.804,25.7187892 C22.383,25.4457903 23.021,25.2852027 23.696,25.2530852 C23.777,25.2490705 23.853,25.2279933 23.935,25.2279933 C23.943,25.2279933 23.951,25.2310044 23.959,25.2310044 C24.631,25.2340154 25.274,25.3695112 25.861,25.6134036 C27.47,26.2808458 28.637,27.7642738 28.883,29.5377632 C28.915,29.7615822 28.952,29.9833938 28.952,30.2162458 L28.952,30.8927211 Z M28.952,33.0486097 C28.952,35.7986724 26.701,38.0358585 23.935,38.0358585 C21.17,38.0358585 18.92,35.7986724 18.92,33.0486097 L18.92,32.137275 C19.737,32.5467734 20.639,32.7826365 21.564,32.7826365 C23.217,32.7826365 24.764,32.0931134 25.878,30.8927211 C25.968,30.7943612 26.062,30.6980086 26.148,30.5936267 C26.267,30.4450831 26.371,30.4741896 26.464,30.5886083 C26.552,30.6970049 26.652,30.7913502 26.747,30.8927211 C27.363,31.5491229 28.111,32.0529665 28.952,32.3731381 L28.952,33.0486097 Z M31.729,41.3238897 C32.357,41.6982595 32.747,42.3867789 32.747,43.1184562 L32.747,44.4372819 C32.747,44.5517005 32.654,44.6460458 32.54,44.6460458 L15.333,44.6460458 C15.218,44.6460458 15.125,44.5517005 15.125,44.4372819 L15.125,43.1254819 C15.125,42.3897899 15.516,41.6972559 16.147,41.3208787 L20.784,38.5517462 C21.714,39.0826889 22.789,39.3918201 23.935,39.3918201 C25.083,39.3918201 26.157,39.0826889 27.088,38.5517462 L31.729,41.3238897 Z M1.835,29.5377632 C1.567,29.5377632 1.35,29.3189626 1.35,29.0519857 L1.35,27.3256689 C1.35,26.2898789 1.9,25.3183239 2.787,24.7893884 L8.982,21.0888478 C10.195,21.80547 11.605,22.2250051 13.116,22.2250051 C14.626,22.2250051 16.035,21.80547 17.248,21.0888478 L22.286,24.0968544 C19.787,24.7673076 17.889,26.9121558 17.607,29.5377632 L1.835,29.5377632 Z M1.593,21.115947 C1.521,20.8810876 1.643,20.6201328 1.863,20.5338169 C3.463,19.9085289 4.789,18.6459089 5.569,17.1424074 C6.055,18.3397888 6.82,19.3936449 7.784,20.2287005 L2.854,23.172472 C2.271,22.6003787 1.833,21.9028263 1.593,21.115947 L1.593,21.115947 Z M6.326,12.3187573 L8.765,12.3187573 C9.378,12.3187573 9.947,12.0136408 10.288,11.5037752 L11.468,9.74132622 C11.599,9.54561007 11.794,9.52553662 11.872,9.52553662 C11.949,9.52553662 12.143,9.54561007 12.273,9.74032254 L13.456,11.5047788 C13.797,12.0136408 14.366,12.3187573 14.977,12.3187573 L19.905,12.3187573 L19.905,14.1173384 C19.905,17.8409635 16.859,20.8690435 13.116,20.8690435 C9.372,20.8690435 6.326,17.8409635 6.326,14.1173384 L6.326,12.3187573 Z M6.326,10.4027464 C6.326,6.67912133 9.372,3.65003764 13.116,3.65003764 C16.859,3.65003764 19.905,6.67912133 19.905,10.4027464 L19.905,10.9637994 L14.977,10.9637994 C14.816,10.9637994 14.665,10.8835056 14.575,10.7480098 L13.393,8.98455713 C13.052,8.47569516 12.484,8.17057871 11.872,8.17057871 C11.259,8.17057871 10.691,8.47469148 10.349,8.98455713 L9.168,10.7480098 C9.078,10.8835056 8.927,10.9637994 8.765,10.9637994 L6.326,10.9637994 L6.326,10.4027464 Z M24.418,20.5338169 C24.639,20.6201328 24.76,20.8810876 24.688,21.115947 C24.446,21.9108556 24.001,22.6164374 23.408,23.1915418 L18.447,20.2287005 C19.424,19.3805972 20.197,18.3066676 20.681,17.0862018 C21.458,18.614795 22.798,19.9015032 24.418,20.5338169 L24.418,20.5338169 Z M27.879,13.9426994 L27.879,12.3920254 C29.009,13.0273501 30.295,13.3685987 31.605,13.3685987 C33.911,13.3685987 36.063,12.3398344 37.511,10.5482789 C37.643,10.3866877 37.809,10.3625995 37.897,10.3625995 C37.983,10.3625995 38.146,10.385684 38.273,10.5422569 C39.155,11.6322453 40.311,12.4251466 41.621,12.8938616 L41.621,13.9426994 C41.621,17.7104861 38.538,20.775702 34.75,20.775702 C30.962,20.775702 27.879,17.7104861 27.879,13.9426994 L27.879,13.9426994 Z M27.879,10.1879605 C27.879,6.42017382 30.962,3.35395424 34.75,3.35395424 C38.538,3.35395424 41.621,6.42017382 41.621,10.1879605 L41.621,11.4555989 C40.729,11.0571409 39.944,10.4579484 39.32,9.68913524 C38.618,8.81995483 37.168,8.82296585 36.463,9.69515728 C35.272,11.1675449 33.502,12.0126371 31.605,12.0126371 C30.258,12.0126371 28.952,11.5609845 27.879,10.7620612 L27.879,10.1879605 Z M45.885,23.5598896 L40.127,20.1213075 C41.864,18.6188097 42.969,16.4087228 42.969,13.9426994 L42.969,10.1879605 C42.969,5.67243778 39.283,2 34.75,2 C30.216,2 26.53,5.67243778 26.53,10.1879605 L26.53,13.9426994 C26.53,16.4087228 27.634,18.6188097 29.373,20.1213075 L25.651,22.3434385 C25.777,22.0754579 25.891,21.799448 25.979,21.5123976 C26.257,20.5990556 25.788,19.6144529 24.909,19.2722006 C22.821,18.4562148 21.255,16.3143776 21.255,14.1795661 L21.255,14.1173384 L21.255,12.3187573 L21.255,10.9637994 L21.255,10.4027464 C21.255,5.93238897 17.603,2.2960834 13.116,2.2960834 C8.628,2.2960834 4.976,5.93238897 4.976,10.4027464 L4.976,10.9637994 L4.976,12.3187573 L4.976,14.1173384 C4.976,14.1384156 4.979,14.158489 4.979,14.1795661 L4.976,14.1795661 C4.976,16.3143776 3.461,18.4562148 1.374,19.2722006 C0.495,19.6144529 0.025,20.5990556 0.302,21.5123976 C0.577,22.4126919 1.047,23.2296813 1.675,23.9161933 C0.632,24.7241497 0,25.9877734 0,27.3256689 L0,29.0519857 C0,30.0666986 0.823,30.8927211 1.835,30.8927211 L17.569,30.8927211 L17.569,33.0486097 C17.569,34.877301 18.355,36.5223203 19.602,37.6805584 L15.458,40.1566185 C14.42,40.7758845 13.775,41.9140491 13.775,43.1254819 L13.775,44.4372819 C13.775,45.2994366 14.473,46 15.333,46 L32.54,46 C33.398,46 34.096,45.2994366 34.096,44.4372819 L34.096,43.1184562 C34.096,41.9110381 33.454,40.7768882 32.42,40.1596296 L28.269,37.6805584 C29.516,36.5223203 30.301,34.8762974 30.301,33.0486097 L30.301,30.8927211 L46.156,30.8927211 C47.172,30.8927211 48,30.0626839 48,29.0409453 L48,27.2935514 C48,25.7699765 47.19,24.3387395 45.885,23.5598896 L45.885,23.5598896 Z" id="path-1"></path>
    </defs>
    <g id="Asset-Artboard-Page" stroke="none" stroke-width="1" fill="none" fill-rule="evenodd">
        <g id="icons/products/red/E-people/e14-family" transform="translate(0.382023, 0.000000)">
            <g>
                <polygon id="Rectangle-path" fill-opacity="0" fill="#FFFFFF" fill-rule="nonzero" points="0 0 48 0 48 48 0 48"></polygon>
                <mask id="mask-2" fill="white">
                    <use xlink:href="#path-1"></use>
                </mask>
                <use id="e14-family" fill="#AEB0B1" xlink:href="#path-1"></use>
            </g>
        </g>
    </g>
</svg>