<?xml version="1.0" encoding="UTF-8"?>
<svg width="32px" height="32px" viewBox="0 0 32 32" version="1.1" xmlns="http://www.w3.org/2000/svg" xmlns:xlink="http://www.w3.org/1999/xlink">
    <!-- Generator: Sketch 52.6 (67491) - http://www.bohemiancoding.com/sketch -->
    <title>Combined Shape</title>
    <desc>Created with Sketch.</desc>
    <g id="Symbols" stroke="none" stroke-width="1" fill="none" fill-rule="evenodd">
        <g id="06_List_Items/05_Actions/06.05.06_Emergency_Footer/S" transform="translate(-172.000000, -16.000000)" fill="#FFFFFF" fill-rule="nonzero">
            <path d="M188,48 C179.163444,48 172,40.836556 172,32 C172,23.163444 179.163444,16 188,16 C196.836556,16 204,23.163444 204,32 C204,40.836556 196.836556,48 188,48 Z M180.306785,36.4972593 C182.403708,36.4972593 183.522967,35.4386836 183.509482,34.0092694 C183.509482,32.2562142 181.776654,31.8988606 181.210282,31.7572677 C179.275179,31.2650637 178.904341,31.2448362 178.904341,30.5908117 C178.904341,29.9367873 179.524652,29.7142841 180.077539,29.7142841 C180.798989,29.7142841 181.399073,29.9233023 181.560893,30.5975543 C181.606841,30.7597672 181.756427,30.8705716 181.924989,30.8672551 L182.909397,30.8672551 C183.009995,30.85393 183.100995,30.8006733 183.161881,30.719492 C183.222767,30.6383107 183.248414,30.5360388 183.233038,30.4357338 C183.010535,28.999577 181.567636,28.4129778 180.171934,28.4129778 C178.776233,28.4129778 177.279393,29.16814 177.279393,30.7526322 C177.279393,32.1955315 178.445849,32.6405378 179.585335,32.9439512 C180.724821,33.2473646 181.884534,33.4226701 181.884534,34.2182875 C181.884534,35.0139049 180.974294,35.1824679 180.380952,35.1824679 C179.565107,35.1824679 178.836915,34.8723119 178.68858,34.056467 C178.659538,33.8843673 178.512455,33.7570845 178.337969,33.7530536 L177.346818,33.7530536 C177.148727,33.7842473 177.009574,33.9648495 177.02992,34.1643473 C177.232196,35.7758096 178.722292,36.4972593 180.306785,36.4972593 Z M195.753898,36.4972593 C197.857564,36.4972593 198.97008,35.4386836 198.99705,34.0294969 C198.99705,32.2764417 197.264223,31.9123457 196.704593,31.7774953 C194.762748,31.2785488 194.391909,31.2515787 194.391909,30.6042968 C194.391909,29.9570149 195.012221,29.7277692 195.565107,29.7277692 C196.279815,29.7277692 196.873156,29.9165597 197.041719,30.5908117 C197.087778,30.7691985 197.248549,30.8939341 197.432786,30.8942251 L198.322798,30.8942251 C198.545548,30.8595875 198.698908,30.6521002 198.666667,30.4289913 C198.423936,28.986092 197.001264,28.4062352 195.605563,28.4062352 C194.209861,28.4062352 192.713021,29.1613975 192.713021,30.7458897 C192.713021,32.188789 193.88622,32.6405378 195.025706,32.9439512 C196.165192,33.2473646 197.324905,33.4226701 197.324905,34.2182875 C197.324905,35.0139049 196.414665,35.1824679 195.821323,35.1824679 C195.005478,35.1824679 194.277286,34.8723119 194.135693,34.056467 C194.106187,33.8818973 193.955384,33.7538563 193.77834,33.7530536 L192.800674,33.7530536 C192.703757,33.7647898 192.615614,33.8149548 192.556029,33.8922874 C192.496445,33.96962 192.470413,34.0676414 192.483776,34.1643473 C192.686051,35.7758096 194.176148,36.4972593 195.753898,36.4972593 Z M187.993257,28.3994927 C185.599663,28.3994927 184.190476,30.1862605 184.190476,32.4787173 C184.190476,34.7711741 185.599663,36.5242293 187.993257,36.5242293 C190.386852,36.5242293 191.796039,34.7442041 191.796039,32.4787173 C191.796039,30.2132306 190.386852,28.3994927 187.993257,28.3994927 Z M187.993257,35.0745875 C186.462705,35.0745875 185.889591,33.7732812 185.889591,32.4787173 C185.889591,31.1841535 186.462705,29.828907 187.993257,29.828907 C189.52381,29.828907 190.090181,31.1302133 190.090181,32.4787173 C190.090181,33.8272213 189.52381,35.0745875 187.993257,35.0745875 Z" id="Combined-Shape"></path>
        </g>
    </g>
</svg>