<?xml version="1.0" encoding="UTF-8"?>
<svg width="33px" height="32px" viewBox="0 0 33 32" version="1.1" xmlns="http://www.w3.org/2000/svg" xmlns:xlink="http://www.w3.org/1999/xlink">
    <!-- Generator: sketchtool 62 (101010) - https://sketch.com -->
    <title>4C3EFBBC-9ECF-4A6A-ACD7-DDB95CA59BCD</title>
    <desc>Created with sketchtool.</desc>
    <defs>
        <path d="M30.9068658,29.0675751 L21.5575328,19.6652956 C21.0395328,20.3196814 20.4575328,20.9212078 19.8181995,21.4558236 L29.1308659,30.8935658 L30.9068658,29.0675751 Z M12.0895335,23.3547454 C14.5775335,23.3547454 16.8775335,22.5344214 18.7368669,21.1500409 C18.8308669,21.0797847 18.8868669,21.0202343 18.9828669,20.9586765 C19.8162002,20.3016144 20.5542002,19.5287968 21.1728669,18.6636427 C21.1782002,18.6582898 21.1795336,18.6509297 21.1848669,18.6455768 C21.1855336,18.6449077 21.1862002,18.6449077 21.1868669,18.6442386 C22.4962003,16.8068733 23.2695336,14.5600151 23.2695336,12.1338364 C23.2695336,5.94594339 18.2542002,0.912258342 12.0895335,0.912258342 C5.92486674,0.912258342 0.90886669,5.94594339 0.90886669,12.1338364 C0.90886669,18.3210604 5.92486674,23.3547454 12.0895335,23.3547454 L12.0895335,23.3547454 Z M31.8675344,28.7417199 C32.0435344,28.9183639 32.0448677,29.2040722 31.8708677,29.3827235 L29.4582009,31.8624308 C29.3728676,31.9500837 29.2568676,31.9995976 29.1348676,32.0002667 L29.1328676,32.0002667 C29.0115343,32.0002667 28.8955343,31.9514219 28.8102009,31.8651072 L19.0915339,22.0151961 C17.1142005,23.4310246 14.6982005,24.2674073 12.0895337,24.2674073 C5.42353351,24.2674073 0.000200000009,18.824229 0.000200000009,12.133837 C0.000200000009,5.44277581 5.42353351,0.00026666666 12.0895337,0.00026666666 C18.7555339,0.00026666666 24.1788674,5.44277581 24.1788674,12.133837 C24.1788674,14.6469995 23.4128674,16.9841872 22.103534,18.9232567 L31.8675344,28.7417199 Z M12.5441998,21.2918923 C12.5441998,21.5441453 12.3408665,21.7482226 12.0895332,21.7482226 C6.8075333,21.7482226 2.51020007,17.4351646 2.51020007,12.1338368 C2.51020007,11.8815838 2.7135334,11.6775064 2.96420006,11.6775064 C3.21553339,11.6775064 3.41886671,11.8815838 3.41886671,12.1338368 C3.41886671,16.9319968 7.30886662,20.8355619 12.0895332,20.8355619 C12.3408665,20.8355619 12.5441998,21.0396392 12.5441998,21.2918923 L12.5441998,21.2918923 Z" id="path-1"></path>
    </defs>
    <g id="Asset-Artboard-Page" stroke="none" stroke-width="1" fill="none" fill-rule="evenodd">
        <g id="icons/products/red/A-car-home/a07-household-content-insurance-icons/products/white/F-action-navigation/f11-search" transform="translate(0.347175, 0.000000)">
            <g id="icons/products/white/F-action-navigation/f11-search">
                <polygon id="Rectangle-path" fill-opacity="0" fill="#FFFFFF" fill-rule="nonzero" points="-5.4466667e-14 0 32 0 32 32 -5.4466667e-14 32"></polygon>
                <mask id="mask-2" fill="white">
                    <use xlink:href="#path-1"></use>
                </mask>
                <use id="Mask" fill="#FFFFFF" xlink:href="#path-1"></use>
                <polygon id="Color-Style" fill="#FFFFFF" mask="url(#mask-2)" points="0 0 32 0 32 32 0 32"></polygon>
            </g>
        </g>
    </g>
</svg>