<?xml version="1.0" encoding="UTF-8"?>
<svg width="44px" height="44px" viewBox="0 0 44 44" version="1.1" xmlns="http://www.w3.org/2000/svg" xmlns:xlink="http://www.w3.org/1999/xlink">
    <!-- Generator: Sketch 52.6 (67491) - http://www.bohemiancoding.com/sketch -->
    <title>99/Pieces/Items/Action button</title>
    <desc>Created with Sketch.</desc>
    <defs>
        <path d="M23.6594,14.2940902 C23.4709,14.2940902 23.3184,14.4480469 23.3184,14.6383474 L23.3184,20.7118118 C23.3184,21.0429448 23.0469,21.3114856 22.7129,21.3114856 L1.2754,21.3114856 C0.9484,21.3114856 0.6819,21.0429448 0.6819,20.7118118 L0.6819,14.6383474 C0.6819,14.4480469 0.5294,14.2940902 0.3409,14.2940902 C0.1524,14.2940902 -0.0001,14.4480469 -0.0001,14.6383474 L-0.0001,20.7118118 C-0.0001,21.4225363 0.5719,22 1.2754,22 L22.7129,22 C23.4229,22 24.0004,21.4225363 24.0004,20.7118118 L24.0004,14.6383474 C24.0004,14.4480469 23.8474,14.2940902 23.6594,14.2940902 Z M11.1869,16.9572882 C11.4319,17.2046284 11.7539,17.3414227 12.0939,17.3414227 C12.4329,17.3414227 12.7549,17.2046284 13.0149,16.9421449 L16.9169,12.4839637 C17.0419,12.3411121 17.0284,12.1235536 16.8874,11.9978644 C16.7459,11.8721752 16.5309,11.8852994 16.4064,12.0276462 L12.5184,16.4706842 C12.2819,16.7089384 11.8934,16.6973286 11.6799,16.482294 L7.6609,12.0241128 C7.5344,11.8832803 7.3189,11.8731847 7.1794,12.0013978 C7.0404,12.1291062 7.0304,12.3466646 7.1569,12.4874971 L11.1869,16.9572882 Z M11.6474,13.1760115 L11.6474,2.84375243 C11.6474,2.65395667 11.7999,2.5 11.9884,2.5 C12.1769,2.5 12.3294,2.65395667 12.3294,2.84375243 L12.3294,13.1760115 C12.3294,13.3658073 12.1769,13.5197639 11.9884,13.5197639 C11.7999,13.5197639 11.6474,13.3658073 11.6474,13.1760115 Z" id="path-1"></path>
    </defs>
    <g id="Breakpoint-S" stroke="none" stroke-width="1" fill="none" fill-rule="evenodd">
        <g id="02_Details-S" transform="translate(-166.000000, -216.000000)">
            <g id="11_Covers/02_Special_Pages/11.02.09_Cover_Smart_Home/S" transform="translate(0.000000, 64.000000)">
                <g id="Action-2" transform="translate(144.000000, 152.000000)">
                    <g id="99/Pieces/Items/Action-button" transform="translate(22.000000, 0.000000)">
                        <g id="Group">
                            <circle id="circle" fill="#FFFFFF" cx="22" cy="22" r="22"></circle>
                            <g id="icons/products/red/F-action-navigation/f12-download-arrow" transform="translate(10.000000, 10.000000)">
                                <g>
                                    <polygon id="Rectangle-path" fill-opacity="0" fill="#FFFFFF" fill-rule="nonzero" points="0 0 24 0 24 24 0 24"></polygon>
                                    <mask id="mask-2" fill="white">
                                        <use xlink:href="#path-1"></use>
                                    </mask>
                                    <use id="f12-download-arrow" fill="#C5281C" xlink:href="#path-1"></use>
                                </g>
                            </g>
                        </g>
                    </g>
                </g>
            </g>
        </g>
    </g>
</svg>