<?xml version="1.0" encoding="UTF-8"?>
<svg width="33px" height="32px" viewBox="0 0 33 32" version="1.1" xmlns="http://www.w3.org/2000/svg" xmlns:xlink="http://www.w3.org/1999/xlink">
    <!-- Generator: sketchtool 60.1 (101010) - https://sketch.com -->
    <title>5E9CC1C3-CD43-4FCD-AA2E-669D7E23E4C9</title>
    <desc>Created with sketchtool.</desc>
    <defs>
        <path d="M24.3884696,26.1747458 C24.2011363,25.9180791 23.9651363,25.6940791 23.6771363,25.5287458 L17.7704697,22.1207459 C16.8651364,21.5914126 15.7198031,21.7460793 14.9891365,22.4934126 L13.8984698,23.5867459 C13.8951365,23.5907459 13.8911365,23.5940792 13.8878032,23.5980792 L13.8244698,23.6620792 C13.5511365,23.9360792 12.6018032,24.5327459 12.2691365,24.5860792 C11.3611365,23.8514125 10.4964699,23.0667459 9.69513658,22.2527459 C8.84246993,21.396746 8.06113662,20.5300793 7.3698033,19.6720794 C7.42446996,19.3394127 8.00780328,18.4060794 8.29046994,18.1114127 L8.29313661,18.1087461 L9.45580325,16.9427461 C10.1871366,16.2087461 10.3404699,15.0634128 9.82780324,14.1554129 L6.42980332,8.23007975 C6.36246999,8.11274642 6.27846999,8.01141309 6.19580332,7.91007976 C6.20913666,7.89207976 6.22713666,7.87941309 6.23780332,7.85874643 C9.71380325,1.43274665 17.7538031,-0.975919935 24.1578029,2.49074661 C27.2658029,4.17207989 29.5318028,6.96674646 30.5404695,10.3607463 C31.5484694,13.7580796 31.1758028,17.3460794 29.4891361,20.4640793 C29.3038028,20.808746 28.7464695,21.6194126 28.4211362,22.0920793 L27.4284695,19.378746 L24.3884696,26.1747458 Z M23.5278031,28.5280801 L23.2851365,28.7720801 C21.8224698,28.1294134 16.901803,25.1794135 14.9164696,23.8480801 L15.6318029,23.1307468 C16.0744696,22.6774135 16.7664696,22.5827468 17.3171363,22.9054135 L23.2271365,26.3147468 C23.6104698,26.5354134 23.8618032,26.9087468 23.9158032,27.3394134 C23.9704698,27.7747468 23.8251365,28.2120801 23.5278031,28.5280801 L23.5278031,28.5280801 Z M21.7751358,30.2867474 C20.6884692,31.3767475 18.5251359,31.3347475 15.9644694,30.2500808 C13.2751362,29.1134141 10.3191363,27.0087473 7.64113645,24.3234139 C4.96113658,21.6467472 2.86313668,18.6827471 1.73513673,15.978747 C0.631136781,13.3014136 0.617803448,11.2307469 1.69713673,10.1487468 L2.3311367,9.51274681 C3.24580332,11.4294135 6.06980319,16.1434137 7.38713646,17.7987471 C6.94646982,18.3807471 6.14046985,19.5974138 6.60980316,20.1707471 C7.33313646,21.0740805 8.15580309,21.9907472 9.05446972,22.8914139 C9.89780301,23.7487472 10.811803,24.5747473 11.7671363,25.3440806 C12.3804696,25.8487473 13.7144695,24.9027473 14.2418028,24.4854139 C15.9858027,25.6720806 20.6544692,28.503414 22.6064691,29.4527474 L21.7751358,30.2867474 Z M3.45046996,8.39007993 C3.75913661,8.08007993 4.18513659,7.93274659 4.6244699,7.98941326 C5.05380322,8.04341326 5.4258032,8.2947466 5.64580319,8.6807466 L9.04313636,14.6054133 C9.35513635,15.1574134 9.26180302,15.8547467 8.81646971,16.3014134 L8.00113641,17.1194134 C6.58580314,15.2954134 3.58846995,10.17608 3.01180331,8.83007994 L3.45046996,8.39007993 Z M29.1711365,22.5980792 C29.6138031,21.9540792 30.0911365,21.2534126 30.2838031,20.8960792 C32.0851364,17.564746 32.4844698,13.7314128 31.4064698,10.1027463 C30.3291365,6.47607977 27.9071365,3.48941321 24.5871365,1.69274661 C17.7738032,-1.99391993 9.23313665,0.543413316 5.49513669,7.34141307 C5.25980336,7.21874641 5.00913669,7.12407974 4.73647003,7.09007974 C4.02180337,6.99874641 3.31913671,7.24007974 2.81113671,7.74874639 L1.05780339,9.50807966 C-0.296196593,10.8660796 -0.352196593,13.2874129 0.900470062,16.3274127 C2.07380338,19.1394126 4.2411367,22.2074125 7.00313667,24.9654124 C9.76113665,27.7314123 12.8191366,29.9047456 15.6138033,31.0854122 C17.0458032,31.6920788 18.3538032,32.0000788 19.4998032,32.0000788 C20.7238032,32.0000788 21.7044699,31.6394122 22.4138032,30.9280789 L23.7064699,29.6307456 C23.7124699,29.6247456 23.7184699,29.6194123 23.7244699,29.6127456 L24.1764698,29.1594123 C24.6684698,28.6354123 24.9004698,27.9314123 24.8124698,27.2267457 C24.7651365,26.846079 24.6211365,26.4974124 24.4064698,26.1967457 L31.8611364,23.2674125 L29.1711365,22.5980792 Z" id="path-1"></path>
    </defs>
    <g id="Asset-Artboard-Page" stroke="none" stroke-width="1" fill="none" fill-rule="evenodd">
        <g id="icons/products/red/F-action-navigation/f22-callback" transform="translate(0.420028, 0.000000)">
            <g>
                <polygon id="Rectangle-path" fill-opacity="0" fill="#FFFFFF" fill-rule="nonzero" points="0 0 32 0 32 32 0 32"></polygon>
                <mask id="mask-2" fill="white">
                    <use xlink:href="#path-1"></use>
                </mask>
                <use id="f22-callback" fill="#C5281C" xlink:href="#path-1"></use>
            </g>
        </g>
    </g>
</svg>