<?xml version="1.0" encoding="UTF-8"?>
<svg width="49px" height="48px" viewBox="0 0 49 48" version="1.1" xmlns="http://www.w3.org/2000/svg" xmlns:xlink="http://www.w3.org/1999/xlink">
    <!-- Generator: sketchtool 60.1 (101010) - https://sketch.com -->
    <title>E8DC308A-A3DF-47EE-A7C9-94B156920307</title>
    <desc>Created with sketchtool.</desc>
    <defs>
        <path d="M47.6403,7.78368826 C47.6403,6.44739869 46.5513,5.35997681 45.2143,5.35997681 L4.7863,5.35997681 C3.4483,5.35997681 2.3603,6.44739869 2.3603,7.78368826 L2.3603,39.7157117 C2.3603,41.0530008 3.4483,42.1394232 4.7863,42.1394232 L45.2143,42.1394232 C46.5513,42.1394232 47.6403,41.0530008 47.6403,39.7157117 L47.6403,7.78368826 Z M48.9993,7.78368826 L48.9993,39.7157117 C48.9993,41.8026023 47.3023,43.4997 45.2143,43.4997 L4.7863,43.4997 C2.6983,43.4997 0.9993,41.8026023 0.9993,39.7157117 L0.9993,7.78368826 C0.9993,5.69779721 2.6983,3.9997 4.7863,3.9997 L45.2143,3.9997 C47.3023,3.9997 48.9993,5.69779721 48.9993,7.78368826 L48.9993,7.78368826 Z M22.2003,31.166257 C22.2003,27.4512321 19.1753,24.4298384 15.4593,24.4298384 C11.7443,24.4298384 8.7203,27.4512321 8.7203,31.166257 L8.7203,31.5450556 L22.2003,31.5450556 L22.2003,31.166257 Z M15.4593,23.0695616 C16.8383,23.0695616 17.9593,21.9491573 17.9593,20.57089 L17.9593,18.4520165 C17.9593,17.0747487 16.8383,15.9543444 15.4593,15.9543444 C14.0813,15.9543444 12.9593,17.0747487 12.9593,18.4520165 L12.9593,20.57089 C12.9593,21.9491573 14.0813,23.0695616 15.4593,23.0695616 L15.4593,23.0695616 Z M23.5603,31.166257 L23.5603,32.9053324 L7.3603,32.9053324 L7.3603,31.166257 C7.3603,27.5801636 9.7073,24.5347826 12.9453,23.4743464 C12.1283,22.7667226 11.6003,21.7342715 11.6003,20.57089 L11.6003,18.4520165 C11.6003,16.3251472 13.3303,14.5940676 15.4593,14.5940676 C17.5883,14.5940676 19.3193,16.3251472 19.3193,18.4520165 L19.3193,20.57089 C19.3193,21.7342715 18.7913,22.7667226 17.9743,23.4743464 C21.2123,24.5347826 23.5603,27.5801636 23.5603,31.166257 L23.5603,31.166257 Z M39.8393,27.3073086 L31.3603,27.3073086 C30.9843,27.3073086 30.6803,27.6121465 30.6803,27.9879468 C30.6803,28.3627475 30.9843,28.6675854 31.3603,28.6675854 L39.8393,28.6675854 C40.2153,28.6675854 40.5193,28.3627475 40.5193,27.9879468 C40.5193,27.6121465 40.2153,27.3073086 39.8393,27.3073086 L39.8393,27.3073086 Z M40.5193,19.5114532 C40.5193,19.8872535 40.2153,20.1920914 39.8393,20.1920914 L31.3603,20.1920914 C30.9843,20.1920914 30.6803,19.8872535 30.6803,19.5114532 C30.6803,19.1366525 30.9843,18.8318146 31.3603,18.8318146 L39.8393,18.8318146 C40.2153,18.8318146 40.5193,19.1366525 40.5193,19.5114532 L40.5193,19.5114532 Z" id="path-1"></path>
    </defs>
    <g id="Asset-Artboard-Page" stroke="none" stroke-width="1" fill="none" fill-rule="evenodd">
        <g id="icons/products/red/F-action-navigation/f39-i-d" transform="translate(0.382023, 0.000000)">
            <g transform="translate(-1.000000, 0.000000)">
                <polygon id="Rectangle-path" fill-opacity="0" fill="#FFFFFF" fill-rule="nonzero" points="1 0 49 0 49 48 1 48"></polygon>
                <mask id="mask-2" fill="white">
                    <use xlink:href="#path-1"></use>
                </mask>
                <use id="f39-i-d" fill="#AEB0B1" xlink:href="#path-1"></use>
            </g>
        </g>
    </g>
</svg>