<?xml version="1.0" encoding="UTF-8"?>
<svg width="44px" height="48px" viewBox="0 0 44 48" version="1.1" xmlns="http://www.w3.org/2000/svg" xmlns:xlink="http://www.w3.org/1999/xlink">
    <!-- Generator: sketchtool 63.1 (101010) - https://sketch.com -->
    <title>7AC372CD-5148-4DA8-8DE5-24ACF4ABF9B0</title>
    <desc>Created with sketchtool.</desc>
    <defs>
        <path d="M16.3614,10.0781 C16.4824,10.2871 16.7014,10.4041 16.9264,10.4041 C17.0384,10.4041 17.1504,10.3761 17.2534,10.3171 C17.5644,10.1371 17.6724,9.7371 17.4924,9.4251 L13.8894,3.1861 C13.7094,2.8741 13.3104,2.7671 12.9984,2.9471 C12.6864,3.1271 12.5794,3.5261 12.7584,3.8391 L16.3614,10.0781 Z M12.0784,14.3621 L5.8384,10.7591 C5.5264,10.5781 5.1274,10.6851 4.9464,10.9981 C4.7664,11.3101 4.8734,11.7091 5.1854,11.8901 L11.4244,15.4921 C11.5284,15.5521 11.6404,15.5791 11.7514,15.5791 C11.9764,15.5791 12.1964,15.4631 12.3174,15.2531 C12.4974,14.9411 12.3894,14.5421 12.0784,14.3621 L12.0784,14.3621 Z M9.8574,21.3441 L2.6524,21.3441 C2.2924,21.3441 2.0004,21.6371 2.0004,21.9971 C2.0004,22.3571 2.2924,22.6491 2.6524,22.6491 L9.8574,22.6491 C10.2174,22.6491 10.5094,22.3571 10.5094,21.9971 C10.5094,21.6371 10.2174,21.3441 9.8574,21.3441 L9.8574,21.3441 Z M45.3404,21.3441 L38.1354,21.3441 C37.7754,21.3441 37.4834,21.6371 37.4834,21.9971 C37.4834,22.3571 37.7754,22.6491 38.1354,22.6491 L45.3404,22.6491 C45.7004,22.6491 45.9934,22.3571 45.9934,21.9971 C45.9934,21.6371 45.7004,21.3441 45.3404,21.3441 L45.3404,21.3441 Z M43.0464,10.9981 C42.8664,10.6851 42.4664,10.5781 42.1544,10.7591 L35.9154,14.3621 C35.6024,14.5421 35.4964,14.9411 35.6754,15.2531 C35.7974,15.4631 36.0164,15.5791 36.2414,15.5791 C36.3524,15.5791 36.4654,15.5521 36.5674,15.4921 L42.8074,11.8901 C43.1194,11.7091 43.2264,11.3101 43.0464,10.9981 L43.0464,10.9981 Z M30.7394,10.3171 C30.8414,10.3761 30.9544,10.4041 31.0654,10.4041 C31.2914,10.4041 31.5094,10.2871 31.6314,10.0781 L35.2334,3.8391 C35.4134,3.5261 35.3064,3.1271 34.9954,2.9471 C34.6824,2.7671 34.2834,2.8741 34.1034,3.1861 L30.5004,9.4251 C30.3204,9.7371 30.4274,10.1371 30.7394,10.3171 L30.7394,10.3171 Z M23.9964,8.5101 C24.3564,8.5101 24.6494,8.2181 24.6494,7.8581 L24.6494,0.6521 C24.6494,0.2921 24.3564,0.000100000005 23.9964,0.000100000005 C23.6354,0.000100000005 23.3434,0.2921 23.3434,0.6521 L23.3434,7.8581 C23.3434,8.2181 23.6354,8.5101 23.9964,8.5101 L23.9964,8.5101 Z M34.8364,22.0931 C34.8364,19.1201 33.6554,16.3461 31.5124,14.2831 C29.4734,12.3211 26.8204,11.2541 24.0004,11.2541 C23.8574,11.2541 23.7154,11.2561 23.5734,11.2621 C17.7944,11.4821 13.0264,16.5581 13.1604,22.3491 C13.2154,24.7701 14.0524,27.0431 15.5824,28.9221 C17.3214,31.0621 18.2804,33.7611 18.2804,36.5201 L18.2804,37.4061 C18.2804,38.0841 18.8324,38.6361 19.5094,38.6361 L28.4824,38.6361 C29.1604,38.6361 29.7134,38.0841 29.7134,37.4061 L29.7134,36.5211 C29.7134,33.7291 30.6534,31.0521 32.3604,28.9841 C33.9564,27.0501 34.8364,24.6031 34.8364,22.0931 L34.8364,22.0931 Z M32.4184,13.3431 C34.8194,15.6541 36.1404,18.7621 36.1404,22.0931 C36.1404,24.9061 35.1554,27.6481 33.3674,29.8141 C31.8524,31.6501 31.0174,34.0321 31.0174,36.5211 L31.0174,37.4061 C31.0174,38.8041 29.8804,39.9411 28.4824,39.9411 L19.5094,39.9411 C18.1124,39.9411 16.9744,38.8041 16.9744,37.4061 L16.9744,36.5201 C16.9744,34.0601 16.1204,31.6541 14.5684,29.7461 C12.8564,27.6401 11.9184,25.0931 11.8554,22.3791 C11.7024,15.7801 16.9364,10.2081 23.5224,9.9571 C26.8614,9.8281 30.0184,11.0331 32.4184,13.3431 L32.4184,13.3431 Z M25.9464,44.6571 L22.0464,44.6571 C22.0524,44.6941 22.0684,44.7281 22.0684,44.7671 C22.0684,45.8301 22.9334,46.6951 23.9964,46.6951 C25.0584,46.6951 25.9244,45.8301 25.9244,44.7671 C25.9244,44.7281 25.9394,44.6941 25.9464,44.6571 L25.9464,44.6571 Z M30.5394,44.0041 C30.5394,44.3651 30.2464,44.6571 29.8854,44.6571 L27.2064,44.6571 C27.2134,44.6941 27.2284,44.7281 27.2284,44.7671 C27.2284,46.5501 25.7794,48.0001 23.9964,48.0001 C22.2144,48.0001 20.7634,46.5501 20.7634,44.7671 C20.7634,44.7281 20.7794,44.6941 20.7864,44.6571 L18.1064,44.6571 C17.7464,44.6571 17.4544,44.3651 17.4544,44.0041 C17.4544,43.6441 17.7464,43.3511 18.1064,43.3511 L29.8854,43.3511 C30.2464,43.3511 30.5394,43.6441 30.5394,44.0041 L30.5394,44.0041 Z M30.5394,41.5391 C30.5394,41.9001 30.2464,42.1921 29.8854,42.1921 L18.1064,42.1921 C17.7464,42.1921 17.4544,41.9001 17.4544,41.5391 C17.4544,41.1791 17.7464,40.8871 18.1064,40.8871 L29.8854,40.8871 C30.2464,40.8871 30.5394,41.1791 30.5394,41.5391 L30.5394,41.5391 Z" id="path-1"></path>
    </defs>
    <g id="Breakpoint-S" stroke="none" stroke-width="1" fill="none" fill-rule="evenodd">
        <g id="06_-Reimboursement_S" transform="translate(-49.000000, -176.000000)">
            <g id="07_Cards/08_Info&amp;Tips/07.08.02_Text_Icon_Tip/S" transform="translate(32.000000, 160.000000)">
                <g id="icons/products/red/F-action-navigation/f40-light-bulb" transform="translate(15.000000, 16.000000)">
                    <g>
                        <polygon id="Rectangle-path" fill-opacity="0" fill="#FFFFFF" fill-rule="nonzero" points="5.68434189e-14 0 48 0 48 48 5.68434189e-14 48"></polygon>
                        <mask id="mask-2" fill="white">
                            <use xlink:href="#path-1"></use>
                        </mask>
                        <use id="f40-light-bulb" fill="#C5281C" xlink:href="#path-1"></use>
                    </g>
                </g>
            </g>
        </g>
    </g>
</svg>