<?xml version="1.0" encoding="UTF-8"?>
<svg width="49px" height="48px" viewBox="0 0 49 48" version="1.1" xmlns="http://www.w3.org/2000/svg" xmlns:xlink="http://www.w3.org/1999/xlink">
    <!-- Generator: sketchtool 60.1 (101010) - https://sketch.com -->
    <title>6C088605-AD15-4D85-8ADD-343D188D8763</title>
    <desc>Created with sketchtool.</desc>
    <defs>
        <path d="M41.7613748,17.3806874 C41.7613748,7.78159881 33.979776,0 24.3806874,0 C14.7815988,0 7,7.78159881 7,17.3806874 C7.00080877,22.6387962 9.36034578,27.619223 13.4287482,30.9502604 L13.4287482,46.3953029 C13.4241105,46.9788419 13.7346892,47.519479 14.2411173,47.8094269 C14.7258544,48.0786144 15.3193666,48.0593445 15.7856216,47.7592807 L24.2904242,42.3735743 C24.3467823,42.3432619 24.4145925,42.3432619 24.4709506,42.3735743 L32.9757533,47.7592807 C33.2178898,47.9156876 33.4998644,47.9992356 33.7881224,48 C34.0445877,48.0012262 34.2969412,47.9355452 34.5202575,47.8094269 C35.0266856,47.519479 35.3372643,46.9788419 35.3326266,46.3953029 L35.3326266,30.9502604 C39.401029,27.619223 41.7605661,22.6387962 41.7613748,17.3806874 Z M33.9887901,46.3953029 C33.9910099,46.4850991 33.9451004,46.5692665 33.8683564,46.6159464 C33.815104,46.6444745 33.7511115,46.6444745 33.6978591,46.6159464 L25.1930565,41.23024 C24.6987858,40.9101062 24.062589,40.9101062 23.5683183,41.23024 L15.0635157,46.6159464 C15.0102633,46.6444745 14.9462708,46.6444745 14.8930185,46.6159464 C14.8201048,46.5668264 14.7782445,46.4831058 14.7826967,46.3953029 L14.7826967,31.9531853 C20.5894124,35.8575597 28.1819917,35.8575597 33.9887901,31.9531853 L33.9887901,46.3953029 Z M24.3806874,33.5277773 C17.8349761,33.5724716 11.9090897,29.6632932 9.37406093,23.628232 C6.8390322,17.5931708 8.19584143,10.6248945 12.8100244,5.98187287 C17.4242073,1.33885127 24.3838949,-0.0613472524 30.4346333,2.43603101 C36.4853718,4.93340928 40.4313954,10.8348247 40.4275361,17.3806874 C40.4496834,26.2685262 33.268492,33.4946 24.3806874,33.5277773 Z M36.315493,14.1612987 C36.1894555,13.7336793 35.8244258,13.4196752 35.3827729,13.3589588 L28.5027085,12.356034 L25.3836122,6.06769526 C25.18754,5.670826 24.7832323,5.41961456 24.3405704,5.41961456 C23.8979085,5.41961456 23.4936008,5.670826 23.2975286,6.06769526 L20.2185493,12.3460047 L13.338485,13.3489296 C12.8968321,13.409646 12.5318023,13.7236501 12.4057649,14.1512694 C12.2659526,14.5751066 12.3786798,15.041564 12.6966131,15.3547792 L17.7112373,20.2390232 L16.5378152,27.1391461 C16.4612481,27.5798958 16.6397502,28.026151 16.9991606,28.2925096 C17.2001069,28.4397369 17.4420853,28.5203964 17.6911788,28.5231823 C17.8803857,28.5207306 18.0661933,28.4725582 18.2327582,28.3827729 L24.3806874,25.1332964 L30.5286167,28.3928021 C30.9220006,28.6069356 31.4041899,28.5716535 31.7622142,28.3025389 C32.1216247,28.0361802 32.3001267,27.589925 32.2235596,27.1491753 L31.0501376,20.2490524 L36.0647618,15.3648085 C36.3686118,15.0430226 36.4655641,14.5776515 36.315493,14.1612987 Z M30.0271542,19.3464201 C29.7682067,19.6118829 29.646101,19.9819004 29.696189,20.3493449 L30.8194649,26.9786781 L24.9222668,23.9297866 C24.5836687,23.7497047 24.1777061,23.7497047 23.839108,23.9297866 L17.94191,27.0589121 L19.0651858,20.4295789 C19.1168319,20.0619928 18.9945044,19.6913033 18.7342206,19.4266541 L13.9602984,14.7329658 L20.5495145,13.730041 C20.9300269,13.6709898 21.258671,13.4319759 21.4320884,13.0881691 L24.3806874,7.0706201 L27.3292864,13.0881691 C27.4988852,13.4369596 27.8286218,13.6805151 28.2118603,13.7400703 L34.8111057,14.7429951 L30.0271542,19.3464201 Z" id="path-1"></path>
    </defs>
    <g id="Asset-Artboard-Page" stroke="none" stroke-width="1" fill="none" fill-rule="evenodd">
        <g id="icons/products/red/F-action-navigation/f44-loyalty" transform="translate(0.382023, 0.000000)">
            <g>
                <polygon id="Rectangle-path" fill-opacity="0" fill="#FFFFFF" fill-rule="nonzero" points="-8.17e-14 0 48 0 48 48 -8.17e-14 48"></polygon>
                <mask id="mask-2" fill="white">
                    <use xlink:href="#path-1"></use>
                </mask>
                <use id="Shape" fill="#C5281C" fill-rule="nonzero" xlink:href="#path-1"></use>
            </g>
        </g>
    </g>
</svg>