<?xml version="1.0" encoding="UTF-8"?>
<svg width="28px" height="32px" viewBox="0 0 28 32" version="1.1" xmlns="http://www.w3.org/2000/svg" xmlns:xlink="http://www.w3.org/1999/xlink">
    <!-- Generator: sketchtool 61.2 (101010) - https://sketch.com -->
    <title>472EAB52-AF0E-4FFA-9336-5636B1C2D544</title>
    <desc>Created with sketchtool.</desc>
    <defs>
        <path d="M29.6479889,10.5157441 L25.1253414,3.30504457 C25.0629976,3.19769696 24.9579238,3.12194606 24.8363758,3.09672054 L11.8194838,0.012180831 C11.5635069,-0.0465343656 11.308206,0.112653283 11.2482728,0.368347725 L11.2482728,0.368347725 L9.99832858,5.6570901 L3.1437959,5.6570901 C2.8802847,5.6570901 2.66666667,5.87070813 2.66666667,6.13421933 L2.66666667,31.5228708 C2.66666667,31.6494133 2.7169355,31.770773 2.80641458,31.8602521 C2.89589367,31.9497312 3.01725336,32 3.1437959,32 L22.6321731,32 C22.8956843,32 23.1093024,31.786382 23.1093024,31.5228708 L23.1093024,31.5228708 L23.1093024,29.7554766 L24.7221336,30.138524 L24.8296557,30.138524 C25.0513069,30.1379816 25.2433956,29.9848674 25.2933446,29.7689168 L29.7689513,10.8651909 C29.7788315,10.7369747 29.7350219,10.6104135 29.6479889,10.5157441 Z M24.9438979,4.7633128 L28.4182051,10.2670993 L23.8888375,9.20531878 L24.9438979,4.7633128 Z M3.62092514,31.0591818 L3.62092514,6.59118818 L16.0330054,6.59118818 L16.0330054,12.2831384 C16.0329925,12.4090717 16.0834748,12.5297519 16.1731524,12.6181665 C16.26283,12.706581 16.3842141,12.7553465 16.5101346,12.7535475 L22.1281634,12.7535475 L22.1281634,31.0255811 L3.62092514,31.0591818 Z M16.9872639,7.26320118 L21.6174335,11.8194494 L16.9872639,11.8194494 L16.9872639,7.26320118 Z M12.0614085,1.08068151 L24.1509225,3.90313615 L22.8472173,9.4338032 C22.8169453,9.55594113 22.8368694,9.6851159 22.9025363,9.7924561 C22.9682033,9.8997963 23.0741382,9.97635263 23.1966641,10.0050143 L28.6668499,11.2952792 L24.4533284,29.0969038 L23.1093024,28.7810577 L23.1093024,20.5757789 L23.3310667,20.5757789 C23.457,20.5757917 23.5776802,20.5253095 23.6660948,20.4356319 C23.7545093,20.3459542 23.8032748,20.2245701 23.8014758,20.0986496 C23.7994105,19.8834293 23.6535101,19.6962363 23.4453089,19.6416808 L23.1093024,19.60136 L23.1093024,17.8675664 L23.8350764,18.0355697 L23.9493186,18.0355697 C24.0752732,18.0338219 24.1952646,17.9816309 24.2824217,17.8906845 C24.3695787,17.799738 24.4166188,17.6776352 24.4130076,17.5517203 C24.4126369,17.3373508 24.2653677,17.1511803 24.0568407,17.1014716 L23.1093024,16.8864275 L23.1093024,15.1526339 L24.4533284,15.4617599 L24.5742907,15.4617599 C24.7002241,15.4617727 24.8209043,15.4112905 24.9093188,15.3216129 C24.9977334,15.2319352 25.0464989,15.1105512 25.0446998,14.9846306 C25.0373276,14.7691031 24.8900678,14.5836648 24.6818128,14.5276618 L23.1160225,14.1714949 L23.1160225,12.1554559 C23.1152942,12.0291928 23.0645472,11.9083664 22.9748998,11.8194494 L16.8797418,5.82509335 C16.7900162,5.73665154 16.6697036,5.68612022 16.5437353,5.68397062 L10.9727474,5.68397062 L12.0614085,1.08068151 Z M15.4617943,25.1051465 C15.7253055,25.1051465 15.9389236,25.3187646 15.9389236,25.5822758 C15.9389236,25.7082091 15.8884542,25.8288893 15.7987766,25.9173039 C15.7090989,26.0057185 15.5877148,26.0544839 15.4617943,26.0526849 L15.4617943,26.0526849 L6.60466289,26.0526849 C6.34486312,26.0526849 6.13420572,25.8420756 6.13420572,25.5822758 C6.13245474,25.4563553 6.18122021,25.3349712 6.26963477,25.2452936 C6.35804934,25.1556159 6.47872953,25.1051337 6.60466289,25.1051465 L6.60466289,25.1051465 Z M18.956262,22.1281289 C19.2160617,22.1281289 19.4267191,22.3387382 19.4267191,22.598538 C19.4284701,22.7244585 19.3797047,22.8458426 19.2912901,22.9355202 C19.2028755,23.0251979 19.0821953,23.0756801 18.956262,23.0756673 L18.956262,23.0756673 L6.60466289,23.0756673 C6.47872953,23.0756801 6.35804934,23.0251979 6.26963477,22.9355202 C6.18122021,22.8458426 6.13245474,22.7244585 6.13420572,22.598538 C6.13420572,22.3387382 6.34486312,22.1281289 6.60466289,22.1281289 L6.60466289,22.1281289 Z M11.1743513,10.5627851 C11.9415112,10.5895442 12.6832415,10.8445871 13.3046326,11.2952792 L13.3046326,11.2952792 L12.760302,12.3637799 C12.3232778,11.9012037 11.7166166,11.6366995 11.0802695,11.6312857 C10.5591202,11.6247153 10.0637489,11.8575399 9.73624351,12.262978 C9.42572931,12.6738182 9.21832026,13.1531636 9.1314318,13.660765 L9.1314318,13.660765 L12.2764527,13.660765 L11.9673267,14.4268598 L9.04407011,14.4268598 C9.03704241,14.4826405 9.03704241,14.5390825 9.04407011,14.5948631 L9.04407011,14.5948631 L9.04407011,15.2668761 L11.8396442,15.2668761 L11.5439585,15.9993703 L9.13815193,15.9993703 C9.18358432,16.5552565 9.38637621,17.0867111 9.72280325,17.5315599 C10.072477,17.9808718 10.6191393,18.2316343 11.1877916,18.203573 C11.5269482,18.2147679 11.8643579,18.1504994 12.1756507,18.0154093 C12.4883841,17.8486914 12.7757593,17.6382513 13.0291072,17.3904372 L13.0291072,17.3904372 L13.0291072,18.7344632 C12.4941872,19.084991 11.867636,19.2696834 11.2281124,19.2653535 C10.2898099,19.317407 9.37515326,18.9593913 8.72150387,18.2842145 C8.17154628,17.6409547 7.83565681,16.8423364 7.76052527,15.9993703 L7.76052527,15.9993703 L6.79954666,15.9993703 L7.12211291,15.2467157 L7.66644344,15.2467157 C7.65973024,15.1864208 7.65973024,15.1255671 7.66644344,15.0652722 L7.66644344,15.0652722 L7.66644344,14.43358 L6.79954666,14.43358 L7.09523239,13.6674851 L7.72692462,13.6674851 C7.87374066,12.8484452 8.2514422,12.0883791 8.81558569,11.4767227 C9.44503678,10.8642933 10.2965873,10.5343479 11.1743513,10.5627851 Z" id="path-1"></path>
    </defs>
    <g id="FR_HEALTH_S" stroke="none" stroke-width="1" fill="none" fill-rule="evenodd">
        <g id="19_Health-Reimbursement_S" transform="translate(-18.000000, -292.000000)">
            <g id="06_List_Items/03_Internal_Links/72px/icon-txt/06.03.09_Left_Icon_Text/S" transform="translate(0.000000, 272.000000)">
                <g id="icons/products/red/G-communication/g15-appointment" transform="translate(16.000000, 20.000000)">
                    <g id="icons/products/red/F-action-navigation/f50-transfer">
                        <polygon id="Rectangle-path" fill-opacity="0" fill="#FFFFFF" fill-rule="nonzero" points="-5.44666667e-14 0 32 0 32 32 -5.44666667e-14 32"></polygon>
                        <mask id="mask-2" fill="white">
                            <use xlink:href="#path-1"></use>
                        </mask>
                        <use id="Shape" fill="#C5281C" fill-rule="nonzero" xlink:href="#path-1"></use>
                    </g>
                </g>
            </g>
        </g>
    </g>
</svg>