<?xml version="1.0" encoding="UTF-8"?>
<svg width="32px" height="32px" viewBox="0 0 32 32" version="1.1" xmlns="http://www.w3.org/2000/svg" xmlns:xlink="http://www.w3.org/1999/xlink">
    <!-- Generator: sketchtool 63.1 (101010) - https://sketch.com -->
    <title>10E1094D-7AF4-4C05-AEE8-5D68FD71EB2D</title>
    <desc>Created with sketchtool.</desc>
    <defs>
        <path d="M25.6068,19.3686667 C25.6068,19.974 25.1108,20.4706667 24.5068,20.4706667 C23.9021333,20.4706667 23.4068,19.974 23.4068,19.3686667 C23.4068,18.7633333 23.9021333,18.2666667 24.5068,18.2666667 C25.1108,18.2666667 25.6068,18.7633333 25.6068,19.3686667 M22.2754667,19.3686667 C22.2754667,19.974 21.7794667,20.4706667 21.1754667,20.4706667 C20.5708,20.4706667 20.0754667,19.974 20.0754667,19.3686667 C20.0754667,18.7633333 20.5708,18.2666667 21.1754667,18.2666667 C21.7794667,18.2666667 22.2754667,18.7633333 22.2754667,19.3686667 M18.9594667,19.3686667 C18.9594667,19.974 18.4641333,20.4706667 17.8594667,20.4706667 C17.2554667,20.4706667 16.7594667,19.974 16.7594667,19.3686667 C16.7594667,18.7633333 17.2554667,18.2666667 17.8594667,18.2666667 C18.4641333,18.2666667 18.9594667,18.7633333 18.9594667,19.3686667 M26.9694667,25.604 C26.7861333,25.7206667 26.6941333,25.9393333 26.7394667,26.152 L27.5608,30.0453333 L24.1848,27.0653333 C24.0888,26.9806667 23.9661333,26.9353333 23.8408,26.9353333 C23.8008,26.9353333 23.7601333,26.9393333 23.7201333,26.9493333 C22.8901333,27.146 22.0334667,27.2453333 21.1754667,27.2453333 C15.7808,27.2453333 11.3928,23.4613333 11.3928,18.81 C11.3928,14.1586667 15.7808,10.374 21.1754667,10.374 C26.5694667,10.374 30.9581333,14.1586667 30.9581333,18.81 C30.9581333,21.4713333 29.4674667,24.0113333 26.9694667,25.604 M8.2828,17.6193333 C8.11613333,17.5786667 7.94013333,17.6233333 7.81213333,17.738 L4.4668,20.7453333 L5.2768,16.82 C5.3208,16.6066667 5.2288,16.3893333 5.0448,16.2726667 C2.5008,14.6606667 1.04213333,12.1846667 1.04213333,9.48 C1.04213333,4.828 5.4308,1.044 10.8248,1.044 C15.5348,1.044 20.2848,3.61733333 20.5488,9.34733333 C15.1874667,9.61666667 10.8614667,13.3173333 10.3948,17.9746667 C9.70746667,17.8833333 8.65346667,17.7093333 8.2828,17.6193333 M32.0001333,18.81 C32.0001333,13.7046667 27.3681333,9.532 21.5914667,9.33933333 C21.4701333,6.51466667 20.3414667,4.146 18.3068,2.46666667 C16.3794667,0.876 13.7221333,0 10.8248,0 C4.85613333,0 0.000133333332,4.25266667 0.000133333332,9.48 C0.000133333332,12.3946667 1.55746667,15.164 4.1848,16.9553333 L3.12546667,22.0886667 C3.07946667,22.3093333 3.1808,22.5346667 3.37546667,22.6466667 C3.4568,22.6933333 3.54613333,22.716 3.63546667,22.716 C3.7608,22.716 3.88546667,22.6706667 3.98346667,22.5826667 L8.31013333,18.6933333 C8.85746667,18.8033333 9.7648,18.9466667 10.3568,19.022 C10.4861333,24.1513333 15.2874667,28.2893333 21.1754667,28.2893333 C22.0234667,28.2893333 22.8694667,28.2006667 23.6954667,28.0246667 L28.0514667,31.8693333 C28.1488,31.9553333 28.2721333,32 28.3961333,32 C28.4861333,32 28.5768,31.9766667 28.6588,31.9286667 C28.8528,31.8153333 28.9521333,31.59 28.9054667,31.37 L27.8321333,26.284 C30.4488,24.4893333 32.0001333,21.7193333 32.0001333,18.81" id="path-1"></path>
    </defs>
    <g id="Breakpoint-S" stroke="none" stroke-width="1" fill="none" fill-rule="evenodd">
        <g id="06_Home-contracts-S" transform="translate(-16.000000, -977.000000)">
            <g id="06_List_Items/09_Accordions/06.09.06_Left_Icon_Text_Badge/S-Copy-9" transform="translate(0.000000, 957.000000)">
                <g id="icons/products/red/A-car-home/a01-fire" transform="translate(16.000000, 20.000000)">
                    <g id="icons/products/white/G-communication/g01-ask-question">
                        <polygon id="Rectangle-path" fill-opacity="0" fill="#FFFFFF" fill-rule="nonzero" points="-2.06066667e-13 0 32 0 32 32 -2.06066667e-13 32"></polygon>
                        <mask id="mask-2" fill="white">
                            <use xlink:href="#path-1"></use>
                        </mask>
                        <use id="Mask" fill="#FFFFFF" xlink:href="#path-1"></use>
                        <polygon id="Color-Style" fill="#6F7072" mask="url(#mask-2)" points="0 0 32 0 32 32 0 32"></polygon>
                    </g>
                </g>
            </g>
        </g>
    </g>
</svg>