<?xml version="1.0" encoding="UTF-8"?>
<svg width="28px" height="32px" viewBox="0 0 28 32" version="1.1" xmlns="http://www.w3.org/2000/svg" xmlns:xlink="http://www.w3.org/1999/xlink">
    <!-- Generator: sketchtool 63.1 (101010) - https://sketch.com -->
    <title>E40F516F-2DCE-4BD4-9FD9-D17F4FBA9154</title>
    <desc>Created with sketchtool.</desc>
    <g id="Breakpoint-S" stroke="none" stroke-width="1" fill="none" fill-rule="evenodd">
        <g id="07_-Reimboursement-POP-IN_S" transform="translate(-167.000000, -542.000000)">
            <g id="icons/products/red/A-car-home/a01-fire-Copy-2" transform="translate(165.000000, 542.000000)">
                <g id="icons/products/red/G-communication/g06-my-claims">
                    <polygon id="Rectangle-path" fill-opacity="0" fill="#FFFFFF" fill-rule="nonzero" points="-2.06066667e-13 0 32 0 32 32 -2.06066667e-13 32"></polygon>
                    <path d="M24.3166734,26.3506667 C24.3166734,26.6013333 24.1126734,26.8053333 23.8613401,26.8053333 L17.4073401,26.8053333 C17.1560068,26.8053333 16.9526734,26.6013333 16.9526734,26.3506667 C16.9526734,26.0993333 17.1560068,25.896 17.4073401,25.896 L23.8613401,25.896 C24.1126734,25.896 24.3166734,26.0993333 24.3166734,26.3506667 L24.3166734,26.3506667 Z M16.9266734,21.1686667 C16.9266734,20.918 17.1306734,20.714 17.3813401,20.714 L23.3560068,20.714 C23.6066734,20.714 23.8100068,20.918 23.8100068,21.1686667 C23.8100068,21.42 23.6066734,21.6233333 23.3560068,21.6233333 L17.3813401,21.6233333 C17.1306734,21.6233333 16.9266734,21.42 16.9266734,21.1686667 L16.9266734,21.1686667 Z M17.3553401,15.532 L25.1866734,15.532 C25.4380068,15.532 25.6406734,15.736 25.6406734,15.9866667 C25.6406734,16.238 25.4380068,16.4413333 25.1866734,16.4413333 L17.3553401,16.4413333 C17.1046734,16.4413333 16.9006734,16.238 16.9006734,15.9866667 C16.9006734,15.736 17.1046734,15.532 17.3553401,15.532 L17.3553401,15.532 Z M28.5893401,31.0906667 L13.9660068,31.0906667 L13.9660068,11.2593333 L23.8873401,11.2593333 L23.8886734,11.2593333 L28.6020068,11.2593333 L28.5893401,31.0906667 Z M8.77067343,25.8566667 L8.77067343,6.09066667 L23.4213401,6.09066667 L23.4320068,10.3506667 L13.5113401,10.3506667 C13.2600068,10.3506667 13.0566734,10.554 13.0566734,10.8046667 L13.0566734,25.8566667 L8.77067343,25.8566667 Z M3.58867343,20.688 L3.58867343,10.3113333 L3.57734009,0.908666667 L18.2253401,0.908666667 L18.2253401,5.18133333 L8.31600676,5.18133333 C8.06534009,5.18133333 7.86134009,5.38466667 7.86134009,5.636 L7.86134009,20.688 L3.58867343,20.688 Z M29.3786734,10.4833333 C29.2933401,10.398 29.1773401,10.3506667 29.0566734,10.3506667 L24.3413401,10.3506667 L24.3300068,5.63466667 C24.3293401,5.384 24.1260068,5.18133333 23.8753401,5.18133333 L19.1346734,5.18133333 L19.1346734,0.454 C19.1346734,0.203333333 18.9313401,-8.1e-13 18.6800068,-8.1e-13 L3.12134009,-8.1e-13 C3.00000676,-8.1e-13 2.88467343,0.0473333333 2.80000676,0.133333333 C2.71467343,0.218666667 2.66600676,0.334666667 2.66666667,0.455333333 L2.68000676,5.324 L2.68000676,21.1426667 C2.68000676,21.394 2.88334009,21.5973333 3.13467343,21.5973333 L7.86134009,21.5973333 L7.86134009,26.3113333 C7.86134009,26.5626667 8.06534009,26.766 8.31600676,26.766 L13.0566734,26.766 L13.0566734,31.5453333 C13.0566734,31.796 13.2600068,32 13.5113401,32 L29.0440068,32 C29.2946734,32 29.4980068,31.7966667 29.4980068,31.5453333 L29.5113401,10.8053333 C29.5113401,10.6846667 29.4633401,10.5693333 29.3786734,10.4833333 L29.3786734,10.4833333 Z" id="g06-my-claims" fill="#C5281C"></path>
                </g>
            </g>
        </g>
    </g>
</svg>