<?xml version="1.0" encoding="UTF-8"?>
<svg width="27px" height="32px" viewBox="0 0 27 32" version="1.1" xmlns="http://www.w3.org/2000/svg" xmlns:xlink="http://www.w3.org/1999/xlink">
    <!-- Generator: sketchtool 63.1 (101010) - https://sketch.com -->
    <title>EDC6D8BD-5C4C-4E2C-A60E-5F611E33D7A4</title>
    <desc>Created with sketchtool.</desc>
    <defs>
        <path d="M22.4693333,19.2793333 L22.468,19.2813333 C22.194,19.6726667 21.614,19.6726667 21.424,19.6726667 C21.068,19.6726667 20.8733333,19.514 20.5513333,19.2513333 C20.4493333,19.1673333 20.3293333,19.0693333 20.182,18.9586667 L19.83,18.692 L20.2673333,18.6333333 C20.682,18.5773333 21.1393333,18.5486667 21.626,18.5486667 C22.2426667,18.5486667 22.7173333,18.756 22.7173333,18.756 C22.6793333,18.892 22.5533333,19.1553333 22.4693333,19.2793333 L22.4693333,19.2793333 Z M17.6473333,18.2473333 C16.0986667,18.6053333 14.454,19.1053333 12.8893333,19.694 L12.49,19.844 L12.658,19.452 C13.3853333,17.7553333 14.0786667,15.832 14.6106667,14.036 L14.732,13.6266667 L14.9426667,13.998 C15.1806667,14.4173333 15.4373333,14.838 15.7053333,15.2493333 C16.344,16.234 17.0486667,17.168 17.742,17.9493333 L17.9453333,18.178 L17.6473333,18.2473333 Z M13.7673333,8.776 C13.7933333,8.306 14.124,7.90266667 14.266,7.828 L14.2653333,7.82733333 C14.3113333,7.80533333 14.4026667,7.78266667 14.5046667,7.88333333 C14.5126667,7.89133333 15.344,8.90933333 14.6013333,10.652 L14.492,10.8866667 L14.3086667,10.704 C13.7646667,10.034 13.742,9.22733333 13.7673333,8.776 L13.7673333,8.776 Z M10.4166667,22.09 C9.12266667,24.426 8.46266667,24.6406667 8.34466667,24.66 L8.26533333,24.6733333 L8.20333333,24.624 C7.85333333,24.3506667 7.81066667,24.1426667 7.81266667,23.992 C7.884,23.4106667 8.742,22.6386667 10.1693333,21.8433333 L10.7253333,21.5333333 L10.4166667,22.09 Z M21.4746667,17.7066667 C20.778,17.7066667 19.9593333,17.794 19.0413333,17.9673333 L18.9453333,17.986 L18.8766667,17.9153333 C17.5133333,16.498 16.0993333,14.4486667 15.0946667,12.434 L15.066,12.3746667 L15.0813333,12.31 C15.364,11.142 15.6593333,9.91933333 15.662,8.71 C15.6633333,8.344 15.646,7.946 15.4333333,7.63466667 C15.216,7.31533333 14.9373333,7.01066667 14.5926667,6.91133333 C14.4146667,6.86 14.22,6.86333333 14.0073333,6.946 C13.644,7.08666667 13.3486667,7.41666667 13.194,7.768 C12.6586667,8.98466667 13.5446667,11.186 14.1213333,12.39 L14.15,12.4493333 L14.1333333,12.514 C13.5133333,14.938 12.4673333,17.84 11.3346667,20.278 L11.306,20.3393333 L11.2446667,20.3673333 C9.94733333,20.9513333 5.326,23.088 7.47333333,25.1353333 C7.65466667,25.308 7.872,25.4533333 8.11866667,25.502 C9.00733333,25.6786667 9.764,24.706 10.2106667,24.078 C10.752,23.3166667 11.3386667,22.2966667 11.9526667,21.046 L11.9826667,20.986 L12.044,20.9593333 C13.9926667,20.1213333 16.43,19.358 18.566,18.916 L18.658,18.8973333 L18.7273333,18.9613333 C19.864,20.0253333 20.862,20.5646667 21.694,20.5646667 C22.4473333,20.5646667 23.0993333,20.076 23.42,19.4046667 C24.0633333,18.054 22.434,17.7066667 21.4746667,17.7066667 L21.4746667,17.7066667 Z M28.034,31.0913333 L4.41133333,31.0913333 C4.31933333,31.0913333 4.242,31.014 4.242,30.922 L4.242,1.078 C4.242,0.986666667 4.31933333,0.908666667 4.41133333,0.908666667 L18.8786667,0.908666667 L18.8793333,9.16 C18.906,9.74333333 19.4033333,10.218 19.988,10.218 L28.2033333,10.218 L28.2033333,30.922 C28.2033333,31.014 28.1253333,31.0913333 28.034,31.0913333 L28.034,31.0913333 Z M19.788,1.55066667 L27.5593333,9.30866667 L19.988,9.30866667 C19.888,9.30866667 19.792,9.218 19.788,9.13933333 L19.788,1.55066667 Z M28.9473333,9.40933333 L19.6546667,0.132666667 C19.6486667,0.126666667 19.6393333,0.124 19.6326667,0.118 C19.5953333,0.0846666667 19.5553333,0.0546666667 19.5086667,0.0353333333 C19.454,0.0126666667 19.394,0 19.3333333,0 L4.41133333,0 C3.81666667,0 3.33333333,0.483333333 3.33333333,1.078 L3.33333333,30.922 C3.33333333,31.5166667 3.81666667,32 4.41133333,32 L28.034,32 C28.6286667,32 29.1126667,31.5166667 29.1126667,30.922 L29.1126667,9.84066667 C29.1173333,9.81466667 29.128,9.79066667 29.128,9.76333333 C29.128,9.61666667 29.0546667,9.49266667 28.9473333,9.40933333 L28.9473333,9.40933333 Z" id="path-1"></path>
    </defs>
    <g id="Breakpoint-S" stroke="none" stroke-width="1" fill="none" fill-rule="evenodd">
        <g id="22_Saving_Contracts-S" transform="translate(-19.000000, -364.000000)">
            <g id="08_Main_Content/12_Docs_Download/08.12.01_Doc_Download/S" transform="translate(0.000000, 272.000000)">
                <g id="06_List_Items/08_SelfContained/06.08.08_Left_Icon/S" transform="translate(0.000000, 72.000000)">
                    <g id="icons/products/red/C-assistance-travel/c04-luggage" transform="translate(16.000000, 20.000000)">
                        <g id="icons/products/red/G-communication/g07-pdf-document">
                            <polygon id="Rectangle-path" fill-opacity="0" fill="#FFFFFF" fill-rule="nonzero" points="0 0 32 0 32 32 0 32"></polygon>
                            <mask id="mask-2" fill="white">
                                <use xlink:href="#path-1"></use>
                            </mask>
                            <use id="g07-pdf-document" fill="#C5281C" xlink:href="#path-1"></use>
                            <polygon id="Color-Style" fill="#C5281C" mask="url(#mask-2)" points="0 0 32 0 32 32 0 32"></polygon>
                        </g>
                    </g>
                </g>
            </g>
        </g>
    </g>
</svg>