<?xml version="1.0" encoding="UTF-8"?>
<svg width="21px" height="24px" viewBox="0 0 21 24" version="1.1" xmlns="http://www.w3.org/2000/svg" xmlns:xlink="http://www.w3.org/1999/xlink">
    <!-- Generator: sketchtool 63.1 (101010) - https://sketch.com -->
    <title>53C114BE-3587-4284-8D4B-C19AE31FE8D3</title>
    <desc>Created with sketchtool.</desc>
    <defs>
        <path d="M21.38965,4.2406 L21.36515,3.7591 C21.36465,3.2266 20.94565,2.8076 20.43015,2.8076 L3.61615,2.8076 C3.10115,2.8076 2.68165,3.2266 2.68165,3.7416 L2.68165,4.2406 L21.38965,4.2406 Z M20.16365,4.9226 L3.86165,4.9226 L3.86165,22.5966 C3.86165,22.6676 3.87965,22.7536 3.91565,22.8521 C4.01965,23.1351 4.28215,23.3186 4.58365,23.3186 L19.44165,23.3186 C19.83965,23.3186 20.16365,22.9946 20.16365,22.5966 L20.16365,4.9226 Z M9.14415,2.1256 L14.91365,2.1256 L14.91365,1.4036 C14.91365,1.0056 14.58915,0.6816 14.19165,0.6816 L9.86565,0.6816 C9.46765,0.6816 9.14415,1.0056 9.14415,1.4036 L9.14415,2.1256 Z M22.08865,4.5641 C22.09315,4.6576 22.05965,4.7491 21.99515,4.8166 C21.93065,4.8841 21.84115,4.9226 21.74815,4.9226 L20.84565,4.9226 L20.84565,22.5966 C20.84565,23.3706 20.21565,24.0001 19.44165,24.0001 L4.58365,24.0001 C3.99315,24.0001 3.47965,23.6416 3.27515,23.0861 C3.21115,22.9091 3.17965,22.7491 3.17965,22.5966 L3.17965,4.9226 L2.34065,4.9226 C2.15265,4.9226 2.00015,4.7701 2.00015,4.5816 L2.00015,3.7416 C2.00015,2.8506 2.72515,2.1256 3.61615,2.1256 L8.46215,2.1256 L8.46215,1.4036 C8.46215,0.6296 9.09165,0.0001 9.86565,0.0001 L14.19165,0.0001 C14.96515,0.0001 15.59515,0.6296 15.59515,1.4036 L15.59515,2.1256 L20.43015,2.1256 C21.32115,2.1256 22.04615,2.8506 22.04615,3.7416 L22.08865,4.5641 Z M12.03315,19.6926 L12.03365,19.6926 C12.22165,19.6926 12.37465,19.5406 12.37515,19.3526 L12.3961512,8.7561 C12.39665,8.5676 12.24415,8.4151 12.05565,8.4146 L12.05515,8.4146 C11.86715,8.4146 11.71465,8.5666 11.71415,8.7546 L11.6926488,19.3511 C11.69215,19.5396 11.84465,19.6921 12.03315,19.6926 L12.03315,19.6926 Z M7.22365,19.6926 L7.22415,19.6926 C7.41215,19.6926 7.56515,19.5406 7.56515,19.3526 L7.58665123,8.7561 C7.58715,8.5676 7.43465,8.4151 7.24615,8.4146 L7.24565,8.4146 C7.05765,8.4146 6.90465,8.5666 6.90415,8.7546 L6.88314877,19.3511 C6.88265,19.5396 7.03515,19.6921 7.22365,19.6926 L7.22365,19.6926 Z M16.5031488,19.3511 L16.52415,8.7546 C16.52465,8.5666 16.67715,8.4146 16.86515,8.4146 L16.86565,8.4146 C17.05365,8.4151 17.20615,8.5676 17.20615,8.7561 L17.18465,19.3526 C17.18415,19.5406 17.03165,19.6926 16.84365,19.6926 L16.84265,19.6926 C16.65465,19.6921 16.50265,19.5396 16.5031488,19.3511 L16.5031488,19.3511 Z" id="path-1"></path>
    </defs>
    <g id="Breakpoint-S" stroke="none" stroke-width="1" fill="none" fill-rule="evenodd">
        <g id="07_-Reimboursement-PJ_S" transform="translate(-338.000000, -832.000000)">
            <g id="06_List_Items/08_SelfContained/06.08.06_Text_Body_Subtitle/S" transform="translate(1.000000, 808.000000)">
                <g id="icons/products/red/F-action-navigation/f09-edit" transform="translate(335.000000, 24.000000)">
                    <g id="icons/products/red/G-communication/g09-delete-trash">
                        <polygon id="Rectangle-path" fill-opacity="0" fill="#FFFFFF" fill-rule="nonzero" points="-1.5455e-13 0 24 0 24 24 -1.5455e-13 24"></polygon>
                        <mask id="mask-2" fill="white">
                            <use xlink:href="#path-1"></use>
                        </mask>
                        <use id="g09-delete-trash" fill="#C5281C" xlink:href="#path-1"></use>
                        <polygon id="Color-Style" fill="#C5281C" mask="url(#mask-2)" points="0 0 24 0 24 24 0 24"></polygon>
                    </g>
                </g>
            </g>
        </g>
    </g>
</svg>