<?xml version="1.0" encoding="UTF-8"?>
<svg width="44px" height="44px" viewBox="0 0 44 44" version="1.1" xmlns="http://www.w3.org/2000/svg" xmlns:xlink="http://www.w3.org/1999/xlink">
    <!-- Generator: Sketch 52.6 (67491) - http://www.bohemiancoding.com/sketch -->
    <title>99/Pieces/Items/Action button</title>
    <desc>Created with Sketch.</desc>
    <defs>
        <path d="M19.7612,23.3118544 C17.7997,23.3118544 16.2042,21.7001741 16.2042,19.7199078 C16.2042,17.7391365 17.7997,16.1274562 19.7612,16.1274562 C21.7227,16.1274562 23.3182,17.7391365 23.3182,19.7199078 C23.3182,21.7001741 21.7227,23.3118544 19.7612,23.3118544 M4.2392,15.5922491 C2.2772,15.5922491 0.6817,13.9810737 0.6817,12.0003025 C0.6817,10.0195312 2.2772,8.4078509 4.2392,8.4078509 C6.2007,8.4078509 7.7962,10.0195312 7.7962,12.0003025 C7.7962,13.9810737 6.2007,15.5922491 4.2392,15.5922491 M19.7267,0.688245569 C21.6882,0.688245569 23.2837,2.29992588 23.2837,4.28069713 C23.2837,6.26096347 21.6882,7.87264378 19.7267,7.87264378 C17.7647,7.87264378 16.1687,6.26096347 16.1687,4.28069713 C16.1687,2.29992588 17.7647,0.688245569 19.7267,0.688245569 M19.7612,15.4392607 C18.1442,15.4392607 16.7367,16.3587061 16.0222,17.7068221 L7.9047,14.1401211 C8.2672,13.5099905 8.4782,12.7803921 8.4782,12.0003025 C8.4782,11.1439711 8.2257,10.3477242 7.7947,9.67821044 L15.9177,6.14735819 C16.6057,7.57373565 18.0522,8.56134426 19.7267,8.56134426 C22.0637,8.56134426 23.9652,6.64116249 23.9652,4.28069713 C23.9652,1.92023177 22.0637,5e-05 19.7267,5e-05 C17.3892,5e-05 15.4872,1.92023177 15.4872,4.28069713 C15.4872,4.70684318 15.5512,5.11784185 15.6667,5.50662438 L7.3627,9.11674787 C6.5872,8.26041648 5.4762,7.71965533 4.2392,7.71965533 C1.9017,7.71965533 0.0002,9.6398371 0.0002,12.0003025 C0.0002,14.3602629 1.9017,16.2809496 4.2392,16.2809496 C5.5552,16.2809496 6.7327,15.6720253 7.5112,14.7182458 L15.7527,18.3389724 C15.6057,18.7731971 15.5217,19.2362017 15.5217,19.7199078 C15.5217,22.0803731 17.4237,24.00005 19.7612,24.00005 C22.0987,24.00005 24.0007,22.0803731 24.0007,19.7199078 C24.0007,17.3594424 22.0987,15.4392607 19.7612,15.4392607" id="path-1"></path>
    </defs>
    <g id="Breakpoint-S" stroke="none" stroke-width="1" fill="none" fill-rule="evenodd">
        <g id="02_Details-S" transform="translate(-52.000000, -216.000000)">
            <g id="11_Covers/02_Special_Pages/11.02.09_Cover_Smart_Home/S" transform="translate(0.000000, 64.000000)">
                <g id="Action-2-Copy" transform="translate(30.000000, 152.000000)">
                    <g id="99/Pieces/Items/Action-button" transform="translate(22.000000, 0.000000)">
                        <g id="Group">
                            <circle id="circle" fill="#FFFFFF" cx="22" cy="22" r="22"></circle>
                            <g id="icons/products/red/G-communication/g10-share" transform="translate(10.000000, 10.000000)">
                                <g>
                                    <polygon id="Rectangle-path" fill-opacity="0" fill="#FFFFFF" fill-rule="nonzero" points="-3.091e-13 0 24 0 24 24 -3.091e-13 24"></polygon>
                                    <mask id="mask-2" fill="white">
                                        <use xlink:href="#path-1"></use>
                                    </mask>
                                    <use id="g10-share" fill="#C5281C" xlink:href="#path-1"></use>
                                    <polygon id="Color-Style" fill="#C5281C" mask="url(#mask-2)" points="0 0 24 0 24 24 0 24"></polygon>
                                </g>
                            </g>
                        </g>
                    </g>
                </g>
            </g>
        </g>
    </g>
</svg>