<?xml version="1.0" encoding="UTF-8"?>
<svg width="49px" height="48px" viewBox="0 0 49 48" version="1.1" xmlns="http://www.w3.org/2000/svg" xmlns:xlink="http://www.w3.org/1999/xlink">
    <!-- Generator: sketchtool 60.1 (101010) - https://sketch.com -->
    <title>749607EF-3A6B-4DCF-A6AC-85A6E91542A2</title>
    <desc>Created with sketchtool.</desc>
    <defs>
        <path d="M31.3043,33.3227 C31.3043,32.9467 31.6103,32.6407 31.9863,32.6407 L36.6593,32.6407 C37.0353,32.6407 37.3413,32.9467 37.3413,33.3227 C37.3413,33.6997 37.0353,34.0047 36.6593,34.0047 L31.9863,34.0047 C31.6103,34.0047 31.3043,33.6997 31.3043,33.3227 L31.3043,33.3227 Z M31.3043,26.3367 C31.3043,25.9607 31.6103,25.6557 31.9863,25.6557 L36.6593,25.6557 C37.0353,25.6557 37.3413,25.9607 37.3413,26.3367 C37.3413,26.7137 37.0353,27.0187 36.6593,27.0187 L31.9863,27.0187 C31.6103,27.0187 31.3043,26.7137 31.3043,26.3367 L31.3043,26.3367 Z M31.3043,19.3507 C31.3043,18.9737 31.6103,18.6687 31.9863,18.6687 L36.6593,18.6687 C37.0353,18.6687 37.3413,18.9737 37.3413,19.3507 C37.3413,19.7267 37.0353,20.0317 36.6593,20.0317 L31.9863,20.0317 C31.6103,20.0317 31.3043,19.7267 31.3043,19.3507 L31.3043,19.3507 Z M21.9823,33.3227 C21.9823,32.9467 22.2873,32.6407 22.6633,32.6407 L27.3363,32.6407 C27.7133,32.6407 28.0183,32.9467 28.0183,33.3227 C28.0183,33.6997 27.7133,34.0047 27.3363,34.0047 L22.6633,34.0047 C22.2873,34.0047 21.9823,33.6997 21.9823,33.3227 L21.9823,33.3227 Z M21.9823,26.3367 C21.9823,25.9607 22.2873,25.6557 22.6633,25.6557 L27.3363,25.6557 C27.7133,25.6557 28.0183,25.9607 28.0183,26.3367 C28.0183,26.7137 27.7133,27.0187 27.3363,27.0187 L22.6633,27.0187 C22.2873,27.0187 21.9823,26.7137 21.9823,26.3367 L21.9823,26.3367 Z M21.9823,19.3507 C21.9823,18.9737 22.2873,18.6687 22.6633,18.6687 L27.3363,18.6687 C27.7133,18.6687 28.0183,18.9737 28.0183,19.3507 C28.0183,19.7267 27.7133,20.0317 27.3363,20.0317 L22.6633,20.0317 C22.2873,20.0317 21.9823,19.7267 21.9823,19.3507 L21.9823,19.3507 Z M12.6353,33.3227 C12.6353,32.9467 12.9413,32.6407 13.3183,32.6407 L18.0143,32.6407 C18.3913,32.6407 18.6963,32.9467 18.6963,33.3227 C18.6963,33.6997 18.3913,34.0047 18.0143,34.0047 L13.3183,34.0047 C12.9413,34.0047 12.6353,33.6997 12.6353,33.3227 L12.6353,33.3227 Z M12.6353,26.3367 C12.6353,25.9607 12.9413,25.6557 13.3183,25.6557 L18.0143,25.6557 C18.3913,25.6557 18.6963,25.9607 18.6963,26.3367 C18.6963,26.7137 18.3913,27.0187 18.0143,27.0187 L13.3183,27.0187 C12.9413,27.0187 12.6353,26.7137 12.6353,26.3367 L12.6353,26.3367 Z M12.6353,19.3507 C12.6353,18.9737 12.9413,18.6687 13.3183,18.6687 L18.0143,18.6687 C18.3913,18.6687 18.6963,18.9737 18.6963,19.3507 C18.6963,19.7267 18.3913,20.0317 18.0143,20.0317 L13.3183,20.0317 C12.9413,20.0317 12.6353,19.7267 12.6353,19.3507 L12.6353,19.3507 Z M47.6373,42.5987 C47.6373,44.7997 45.8463,46.5907 43.6453,46.5907 L6.3553,46.5907 C4.1543,46.5907 2.3643,44.7997 2.3643,42.5987 L2.3643,10.0277 C2.3643,7.8267 4.1543,6.0367 6.3553,6.0367 L12.6583,6.0367 L12.6583,9.3457 L8.8553,9.3457 C7.0873,9.3457 5.6503,10.7837 5.6503,12.5517 L5.6503,40.0987 C5.6503,41.8657 7.0873,43.3037 8.8553,43.3037 L41.1463,43.3037 C42.0063,43.3037 42.8123,42.9667 43.4153,42.3527 C44.0183,41.7407 44.3413,40.9277 44.3273,40.0757 L44.3273,11.2667 C44.3273,10.2077 43.4663,9.3457 42.4073,9.3457 L37.3413,9.3457 L37.3413,6.0367 L43.6453,6.0367 C45.8463,6.0367 47.6373,7.8267 47.6373,10.0277 L47.6373,42.5987 Z M15.6773,1.3637 C16.5893,1.3637 17.3323,2.1057 17.3323,3.0187 L17.3323,9.3457 L14.0233,9.3457 L14.0233,3.0187 C14.0233,2.1057 14.7653,1.3637 15.6773,1.3637 L15.6773,1.3637 Z M18.6963,9.3457 L31.3043,9.3457 L31.3043,6.0357 L18.6963,6.0357 L18.6963,9.3457 Z M34.3233,1.3637 C35.2363,1.3637 35.9783,2.1057 35.9783,3.0187 L35.9783,9.3457 L32.6683,9.3457 L32.6683,3.0187 C32.6683,2.1057 33.4103,1.3637 34.3233,1.3637 L34.3233,1.3637 Z M42.4073,10.7097 C42.7083,10.7097 42.9635503,10.9647 42.9635503,11.2667 L42.9635503,40.0867 C42.9713,40.5827 42.7873,41.0477 42.4443,41.3967 C42.0983,41.7477 41.6383,41.9407 41.1463,41.9407 L8.8553,41.9407 C7.8393,41.9407 7.0133,41.1147 7.0133,40.0987 L7.0133,12.5517 C7.0133,11.5357 7.8393,10.7097 8.8553,10.7097 L42.4073,10.7097 Z M43.6453,4.6727 L37.3413,4.6727 L37.3413,3.0187 C37.3413,1.3537 35.9873,-0.0003 34.3233,-0.0003 C32.6583,-0.0003 31.3043,1.3537 31.3043,3.0187 L31.3043,4.6727 L18.6963,4.6727 L18.6963,3.0187 C18.6963,1.3537 17.3423,-0.0003 15.6773,-0.0003 C14.0133,-0.0003 12.6583,1.3537 12.6583,3.0187 L12.6583,4.6727 L6.3553,4.6727 C3.4023,4.6727 0.9993,7.0747 0.9993,10.0277 L0.9993,42.5987 C0.9993,45.5517 3.4023,47.9537 6.3553,47.9537 L43.6453,47.9537 C46.5983,47.9537 49.0003,45.5517 49.0003,42.5987 L49.0003,10.0277 C49.0003,7.0747 46.5983,4.6727 43.6453,4.6727 L43.6453,4.6727 Z" id="path-1"></path>
    </defs>
    <g id="Asset-Artboard-Page" stroke="none" stroke-width="1" fill="none" fill-rule="evenodd">
        <g id="icons/products/red/G-communication/g15-appointment" transform="translate(0.382023, 0.000000)">
            <g transform="translate(-1.000000, 0.000000)">
                <polygon id="Rectangle-path" fill-opacity="0" fill="#FFFFFF" fill-rule="nonzero" points="1 0 49 0 49 48 1 48"></polygon>
                <mask id="mask-2" fill="white">
                    <use xlink:href="#path-1"></use>
                </mask>
                <use id="g15-appointment" fill="#AEB0B1" xlink:href="#path-1"></use>
                <polygon id="Color-Style" fill="#AEB0B1" mask="url(#mask-2)" points="1 0 49 0 49 48 1 48"></polygon>
            </g>
        </g>
    </g>
</svg>