<?xml version="1.0" encoding="UTF-8"?>
<svg width="26px" height="24px" viewBox="0 0 26 24" version="1.1" xmlns="http://www.w3.org/2000/svg" xmlns:xlink="http://www.w3.org/1999/xlink">
    <title>47B14FB1-3074-4874-8B81-CF5CB9507881</title>
    <defs>
        <path d="M15.65215,16.66135 C15.65215,16.47335 15.80515,16.32035 15.99315,16.32035 L18.32965,16.32035 C18.51765,16.32035 18.67065,16.47335 18.67065,16.66135 C18.67065,16.84985 18.51765,17.00235 18.32965,17.00235 L15.99315,17.00235 C15.80515,17.00235 15.65215,16.84985 15.65215,16.66135 L15.65215,16.66135 Z M15.65215,13.16835 C15.65215,12.98035 15.80515,12.82785 15.99315,12.82785 L18.32965,12.82785 C18.51765,12.82785 18.67065,12.98035 18.67065,13.16835 C18.67065,13.35685 18.51765,13.50935 18.32965,13.50935 L15.99315,13.50935 C15.80515,13.50935 15.65215,13.35685 15.65215,13.16835 L15.65215,13.16835 Z M15.65215,9.67535 C15.65215,9.48685 15.80515,9.33435 15.99315,9.33435 L18.32965,9.33435 C18.51765,9.33435 18.67065,9.48685 18.67065,9.67535 C18.67065,9.86335 18.51765,10.01585 18.32965,10.01585 L15.99315,10.01585 C15.80515,10.01585 15.65215,9.86335 15.65215,9.67535 L15.65215,9.67535 Z M10.99115,16.66135 C10.99115,16.47335 11.14365,16.32035 11.33165,16.32035 L13.66815,16.32035 C13.85665,16.32035 14.00915,16.47335 14.00915,16.66135 C14.00915,16.84985 13.85665,17.00235 13.66815,17.00235 L11.33165,17.00235 C11.14365,17.00235 10.99115,16.84985 10.99115,16.66135 L10.99115,16.66135 Z M10.99115,13.16835 C10.99115,12.98035 11.14365,12.82785 11.33165,12.82785 L13.66815,12.82785 C13.85665,12.82785 14.00915,12.98035 14.00915,13.16835 C14.00915,13.35685 13.85665,13.50935 13.66815,13.50935 L11.33165,13.50935 C11.14365,13.50935 10.99115,13.35685 10.99115,13.16835 L10.99115,13.16835 Z M10.99115,9.67535 C10.99115,9.48685 11.14365,9.33435 11.33165,9.33435 L13.66815,9.33435 C13.85665,9.33435 14.00915,9.48685 14.00915,9.67535 C14.00915,9.86335 13.85665,10.01585 13.66815,10.01585 L11.33165,10.01585 C11.14365,10.01585 10.99115,9.86335 10.99115,9.67535 L10.99115,9.67535 Z M6.31765,16.66135 C6.31765,16.47335 6.47065,16.32035 6.65915,16.32035 L9.00715,16.32035 C9.19565,16.32035 9.34815,16.47335 9.34815,16.66135 C9.34815,16.84985 9.19565,17.00235 9.00715,17.00235 L6.65915,17.00235 C6.47065,17.00235 6.31765,16.84985 6.31765,16.66135 L6.31765,16.66135 Z M6.31765,13.16835 C6.31765,12.98035 6.47065,12.82785 6.65915,12.82785 L9.00715,12.82785 C9.19565,12.82785 9.34815,12.98035 9.34815,13.16835 C9.34815,13.35685 9.19565,13.50935 9.00715,13.50935 L6.65915,13.50935 C6.47065,13.50935 6.31765,13.35685 6.31765,13.16835 L6.31765,13.16835 Z M6.31765,9.67535 C6.31765,9.48685 6.47065,9.33435 6.65915,9.33435 L9.00715,9.33435 C9.19565,9.33435 9.34815,9.48685 9.34815,9.67535 C9.34815,9.86335 9.19565,10.01585 9.00715,10.01585 L6.65915,10.01585 C6.47065,10.01585 6.31765,9.86335 6.31765,9.67535 L6.31765,9.67535 Z M23.81865,21.29935 C23.81865,22.39985 22.92315,23.29535 21.82265,23.29535 L3.17765,23.29535 C2.07715,23.29535 1.18215,22.39985 1.18215,21.29935 L1.18215,5.01385 C1.18215,3.91335 2.07715,3.01835 3.17765,3.01835 L6.32915,3.01835 L6.32915,4.67285 L4.42765,4.67285 C3.54365,4.67285 2.82515,5.39185 2.82515,6.27585 L2.82515,20.04935 C2.82515,20.93285 3.54365,21.65185 4.42765,21.65185 L20.57315,21.65185 C21.00315,21.65185 21.40615,21.48335 21.70765,21.17635 C22.00915,20.87035 22.17065,20.46385 22.16365,20.03785 L22.16365,5.63335 C22.16365,5.10385 21.73315,4.67285 21.20365,4.67285 L18.67065,4.67285 L18.67065,3.01835 L21.82265,3.01835 C22.92315,3.01835 23.81865,3.91335 23.81865,5.01385 L23.81865,21.29935 Z M7.83865,0.68185 C8.29465,0.68185 8.66615,1.05285 8.66615,1.50935 L8.66615,4.67285 L7.01165,4.67285 L7.01165,1.50935 C7.01165,1.05285 7.38265,0.68185 7.83865,0.68185 L7.83865,0.68185 Z M9.34815,4.67285 L15.65215,4.67285 L15.65215,3.01785 L9.34815,3.01785 L9.34815,4.67285 Z M17.16165,0.68185 C17.61815,0.68185 17.98915,1.05285 17.98915,1.50935 L17.98915,4.67285 L16.33415,4.67285 L16.33415,1.50935 C16.33415,1.05285 16.70515,0.68185 17.16165,0.68185 L17.16165,0.68185 Z M21.20365,5.35485 C21.35415,5.35485 21.4817751,5.48235 21.4817751,5.63335 L21.4817751,20.04335 C21.48565,20.29135 21.39365,20.52385 21.22215,20.69835 C21.04915,20.87385 20.81915,20.97035 20.57315,20.97035 L4.42765,20.97035 C3.91965,20.97035 3.50665,20.55735 3.50665,20.04935 L3.50665,6.27585 C3.50665,5.76785 3.91965,5.35485 4.42765,5.35485 L21.20365,5.35485 Z M21.82265,2.33635 L18.67065,2.33635 L18.67065,1.50935 C18.67065,0.67685 17.99365,-0.00015 17.16165,-0.00015 C16.32915,-0.00015 15.65215,0.67685 15.65215,1.50935 L15.65215,2.33635 L9.34815,2.33635 L9.34815,1.50935 C9.34815,0.67685 8.67115,-0.00015 7.83865,-0.00015 C7.00665,-0.00015 6.32915,0.67685 6.32915,1.50935 L6.32915,2.33635 L3.17765,2.33635 C1.70115,2.33635 0.49965,3.53735 0.49965,5.01385 L0.49965,21.29935 C0.49965,22.77585 1.70115,23.97685 3.17765,23.97685 L21.82265,23.97685 C23.29915,23.97685 24.50015,22.77585 24.50015,21.29935 L24.50015,5.01385 C24.50015,3.53735 23.29915,2.33635 21.82265,2.33635 L21.82265,2.33635 Z" id="path-1"></path>
    </defs>
    <g id="Breakpoint-S" stroke="none" stroke-width="1" fill="none" fill-rule="evenodd">
        <g id="21_Health-Reimbursement_popup_filtre_date_S" transform="translate(-334.000000, -126.000000)">
            <g id="04_Components/04_Data_Pickers/Calendar/04.04.01_Calendar_Selected/S" transform="translate(0.000000, 78.000000)">
                <g id="icons/products/red/G-communication/g15-appointment" transform="translate(334.000000, 48.000000)">
                    <g transform="translate(0.500000, 0.000000)">
                        <polygon id="Rectangle-path" fill-opacity="0" fill="#FFFFFF" fill-rule="nonzero" points="0.5 0 24.5 0 24.5 24 0.5 24"></polygon>
                        <mask id="mask-2" fill="white">
                            <use xlink:href="#path-1"></use>
                        </mask>
                        <use id="g15-appointment" fill="#C5281C" xlink:href="#path-1"></use>
                        <polygon id="Color-Style" fill="#C5281C" mask="url(#mask-2)" points="0.5 0 24.5 0 24.5 24 0.5 24"></polygon>
                    </g>
                </g>
            </g>
        </g>
    </g>
</svg>