<?xml version="1.0" encoding="UTF-8"?>
<svg width="32px" height="24px" viewBox="0 0 32 24" version="1.1" xmlns="http://www.w3.org/2000/svg" xmlns:xlink="http://www.w3.org/1999/xlink">
    <!-- Generator: sketchtool 63.1 (101010) - https://sketch.com -->
    <title>8EEB8966-1E1D-497D-B911-62D18F0F7DC7</title>
    <desc>Created with sketchtool.</desc>
    <defs>
        <path d="M30.2266667,27.4800231 L1.78,27.4800231 C0.795855741,27.4763509 0,26.6775075 0,25.6933564 L0,8.18668973 C0.00365571255,7.20514111 0.798451379,6.41034545 1.78,6.40668973 L8.90666667,6.40668973 L10.12,4.5733564 C10.3590874,4.214447 10.7620816,3.99918297 11.1933333,4 L20.7933333,4 C21.2405109,3.99735058 21.6570049,4.22705331 21.8933333,4.60668973 L23,6.40668973 L30.2266667,6.40668973 C31.207129,6.4103619 32.0000125,7.2062205 32.0000125,8.18668973 L32.0000125,25.6933564 C32.0017714,26.1654428 31.815933,26.618897 31.4833678,26.9539627 C31.1508026,27.2890285 30.698753,27.4782583 30.2266667,27.4800231 Z M1.78,7.30668973 C1.29398942,7.30668973 0.9,7.70067915 0.9,8.18668973 L0.9,25.6933564 C0.9,26.1804572 1.29291302,26.5763607 1.78,26.5800231 L30.2266667,26.5800231 C30.7137537,26.5763607 31.1066667,26.1804572 31.1066667,25.6933564 L31.1066667,8.18668973 C31.1030373,7.70219045 30.711166,7.31031909 30.2266667,7.30668973 L22.4466667,7.30668973 L22.3,6.98668973 L21.1266667,5.08002307 C21.0538869,4.96751673 20.9272334,4.90165691 20.7933333,4.90668973 L11.1933333,4.90668973 C11.0617785,4.9040135 10.9382016,4.9695849 10.8666667,5.08002307 L9.58,7.04002307 L9.46,7.30668973 L1.78,7.30668973 Z M16,23.4000542 C13.3853691,23.4081179 11.0236875,21.8393322 10.0174975,19.4260477 C9.01130761,17.0127632 9.55905019,14.230928 11.4050137,12.3792317 C13.2509771,10.5275355 16.0311005,9.97116968 18.4474934,10.9698717 C20.8638862,11.9685738 22.4400035,14.3253796 22.4400035,16.9400231 C22.4436868,20.5015022 19.5614735,23.3926665 16,23.4000542 Z M16,11.4000231 C13.7487812,11.3919267 11.7148505,12.7421538 10.8483533,14.8199494 C9.9818561,16.8977449 10.4538198,19.2929981 12.0437677,20.8867726 C13.6337157,22.4805471 16.0278274,22.9582673 18.1076998,22.0967673 C20.1875723,21.2352673 21.5426848,19.2045882 21.5400161,16.9533564 C21.5435405,15.4805195 20.9618516,14.0666003 19.9228991,13.0226468 C18.8839467,11.9786934 17.4728369,11.3902217 16,11.3866897 L16,11.4000231 Z" id="path-1"></path>
    </defs>
    <g id="Breakpoint-S" stroke="none" stroke-width="1" fill="none" fill-rule="evenodd">
        <g id="07_-Reimboursement-POP-IN_S" transform="translate(-165.000000, -308.000000)">
            <g id="icons/products/red/A-car-home/a01-fire" transform="translate(165.000000, 304.000000)">
                <g id="icons/products/red/G-communication/g57-photo">
                    <polygon id="Rectangle-path" fill-opacity="0" fill="#FFFFFF" fill-rule="nonzero" points="-2.06066667e-13 0 32 0 32 32 -2.06066667e-13 32"></polygon>
                    <mask id="mask-2" fill="white">
                        <use xlink:href="#path-1"></use>
                    </mask>
                    <use id="Shape" fill="#C5281C" fill-rule="nonzero" xlink:href="#path-1"></use>
                    <polygon id="Color-Style" fill="#C5281C" mask="url(#mask-2)" points="0 0 32 0 32 32 0 32"></polygon>
                </g>
            </g>
        </g>
    </g>
</svg>