<?xml version="1.0" encoding="UTF-8"?>
<svg width="24px" height="24px" viewBox="0 0 24 24" version="1.1" xmlns="http://www.w3.org/2000/svg" xmlns:xlink="http://www.w3.org/1999/xlink">
    <!-- Generator: sketchtool 61.2 (101010) - https://sketch.com -->
    <title>F023073B-7662-4977-8A76-1CBB6242F3FD</title>
    <desc>Created with sketchtool.</desc>
    <g id="Breakpoint-S" stroke="none" stroke-width="1" fill="none" fill-rule="evenodd">
        <g id="10_B_Car-contracts_1contrat_2vehicules-S" transform="translate(-335.000000, -1855.000000)" fill="#C5281C" fill-rule="nonzero">
            <g id="06_List_Items/08_SelfContained/06.08.05_Text_Body_Overline/S-Copy-21" transform="translate(0.000000, 1831.000000)">
                <g id="icons/products/red/F-action-navigation/f09-edit" transform="translate(335.000000, 24.000000)">
                    <g id="icons/custom/misc/red/info-outline-red">
                        <path d="M12,0 C18.6272785,0 24,5.3727215 24,12 L24,12 L23.9962,12.3049686 C23.8343886,18.7913214 18.5253204,24 12,24 C5.3727215,24 0,18.6272785 0,12 C0,5.3727215 5.3727215,0 12,0 Z M12,0.96 C5.90291486,0.96 0.96,5.90291486 0.96,12 C0.96,18.0970851 5.90291486,23.04 12,23.04 C18.0970851,23.04 23.04,18.0970851 23.04,12 L23.04,12 L23.036279,11.7105502 C22.8827913,5.74724231 18.000306,0.96 12,0.96 Z M12.96,9.3552 L12.96,16.8 L10.9152,16.8 L10.9152,9.3552 L12.96,9.3552 Z M12.96,6.5184 L12.96,8.2032 L10.9152,8.2032 L10.9152,6.5184 L12.96,6.5184 Z" id="Combined-Shape"></path>
                    </g>
                </g>
            </g>
        </g>
    </g>
</svg>