<svg width="24px" height="24px" viewBox="0 0 24 24" version="1.1" xmlns="http://www.w3.org/2000/svg" xmlns:xlink="http://www.w3.org/1999/xlink">
    <g id="Symbols" stroke="none" stroke-width="1" fill="none" fill-rule="evenodd">
        <g id="04_Components/03_Text_Fields/OnBG/04.03.21_Password_Input_Error_OnBG/S" transform="translate(-336.000000, -49.000000)">
            <g id="NEW/04_Components/03_Text_Fields/Default/04.03.21_Password_Input_Error_OnBG">
                <g id="icons/custom/misc/fail" transform="translate(336.000000, 49.000000)">
                    <g id="Group">
                        <circle id="Oval-7" fill="#FFFFFF" cx="12.5" cy="12.5" r="9.5"></circle>
                        <path d="M12,24 C5.372583,24 0,18.627417 0,12 C0,5.372583 5.372583,0 12,0 C18.627417,0 24,5.372583 24,12 C24,18.627417 18.627417,24 12,24 Z M10.56,3.84 L10.56,14.4 L13.44,14.4 L13.44,3.84 L10.56,3.84 Z M12,20.4 C12.9278384,20.4 13.68,19.6478384 13.68,18.72 C13.68,17.7921616 12.9278384,17.04 12,17.04 C11.0721616,17.04 10.32,17.7921616 10.32,18.72 C10.32,19.6478384 11.0721616,20.4 12,20.4 Z" id="Combined-Shape" fill="#F1644A"></path>
                    </g>
                </g>
            </g>
        </g>
    </g>
</svg>