<?xml version="1.0" encoding="UTF-8"?>
<svg width="74px" height="74px" viewBox="0 0 74 74" version="1.1" xmlns="http://www.w3.org/2000/svg" xmlns:xlink="http://www.w3.org/1999/xlink">
    <!-- Generator: Sketch 52.6 (67491) - http://www.bohemiancoding.com/sketch -->
    <title>touch_id</title>
    <desc>Created with Sketch.</desc>
    <g id="Page-1" stroke="none" stroke-width="1" fill="none" fill-rule="evenodd" stroke-linecap="round">
        <g id="01_Login_Biometric-popin_active_S" transform="translate(-150.000000, -202.000000)" stroke="#C7260F" stroke-width="0.5">
            <g id="touch_id" transform="translate(151.000000, 203.000000)">
                <path d="M4,20 C0.37508613,27.1411565 -0.968190622,35.5237398 0.726086279,44" id="Shape"></path>
                <path d="M53,3.73253772 C45.9616327,0.308273565 37.7700897,-0.926733814 29.4898196,0.728044981 C20.0836533,2.60759403 12.242334,7.87999948 7,15" id="Shape"></path>
                <path d="M72,29 C70.0491849,19.3057783 64.4871511,11.2644998 57,6" id="Shape"></path>
                <path d="M72.3387415,37 C72.3623419,34.3673595 72.2533186,31.6883447 72,29" id="Shape"></path>
                <path d="M0.771714744,44 C0.818483052,44.4644806 0.869831762,44.924609 0.92588141,45.3803851" id="Shape"></path>
                <path d="M27,72 C34.9768763,62.7639566 38.7746539,49.9811902 36.201468,37" id="Shape"></path>
                <path d="M30,58 C28.1929704,62.47688 25.4671261,66.563319 22,70" id="Shape"></path>
                <path d="M32.2744047,73 C40.2155159,62.8196357 43.8376861,49.35773 41.0885981,35.7002955 L41.1028123,35.6956401 C40.6009404,33.202512 38.1771398,31.5889893 35.688555,32.0917775 C33.2002435,32.5945656 31.5899345,35.0227913 32.0915331,37.5161932 L32.1240618,37.5107162 C33.1480335,42.5991183 33.0671217,47.6541107 32.0464302,52.4259425" id="Shape"></path>
                <path d="M27.7139853,40 C29.1229188,50.6979554 25.238614,61.0310288 18,68" id="Shape"></path>
                <path d="M47,44 C46.9909555,40.7901229 46.6637095,37.5343518 45.9952397,34.2680522 L46.0053805,34.2642727 C45.0025388,29.3638783 40.1566124,26.1920662 35.1815966,27.180406 C31.4654088,27.9184887 28.7282182,30.7687732 28,34.2067703" id="Shape"></path>
                <path d="M38,73 C42.3147689,66.2274303 45.1138025,58.3474572 46,50" id="Shape"></path>
                <path d="M37,23.0415627 C35.7868373,22.9442881 34.5399236,23.0159351 33.2876526,23.2757933 C26.0014441,24.7872693 21.2859406,32.0880984 22.7551826,39.5843032 L22.780362,39.5798942 C24.767388,49.7184954 21.0946846,59.6790814 14,66" id="Shape"></path>
                <path d="M43.3240843,72 C50.0247909,60.7417519 52.7119666,47.1081993 49.8883197,33.3075452 L49.8949904,33.3048059 C49.0547616,29.1990435 46.4417973,25.8912586 43,24" id="Shape"></path>
                <path d="M18,53 C16.5417015,56.5003034 14.1291492,59.6105573 11,62" id="Shape"></path>
                <path d="M54.2244621,54 C55.349161,47.1107346 55.2783606,39.9038094 53.8296555,32.6535297 L53.8323579,32.651621 C51.8569738,22.7673548 42.3159497,16.3708031 32.5206389,18.3637438 C22.7247876,20.3569572 16.3851828,29.9843688 18.3605669,39.8689077 L18.3816449,39.864545 C18.8507648,42.2122286 18.944805,44.5484602 18.7051107,46.8094349" id="Shape"></path>
                <path d="M50,71 C51.6645179,67.48866 53.0083665,63.805925 54,60" id="Shape"></path>
                <path d="M55,23 C56.8094456,25.5577208 58.1249281,28.5491739 58.7724168,31.8546903 L58.7737312,31.8557733 C61.1646811,44.0674215 59.9732809,56.1656278 55.949282,67" id="Shape"></path>
                <path d="M27,16.0113383 C28.5712483,15.3159331 30.2497016,14.7830525 32.017356,14.4390377 C39.003137,13.0790465 45.8863505,14.9558502 51,19" id="Shape"></path>
                <path d="M8,59 C12.9908153,54.8695445 15.6295947,48.0875461 14.2764084,41.1768874 L14.2597741,41.1806955 C12.5789186,32.5941899 15.82815,24.1632734 22,19" id="Shape"></path>
                <path d="M9.16717799,38 C9.22749463,39.3902519 9.40395585,40.7942739 9.70469738,42.2017384 L9.71900505,42.1982959 C10.7716004,47.1256133 8.79461758,51.9647491 5,55" id="Shape"></path>
                <path d="M64,35 C63.8263283,33.7977646 63.6215472,32.5938617 63.3853861,31.3888472 L63.3799758,31.3885693 C60.4156539,16.2847575 46.0961236,6.51068924 31.3946237,9.55574088 C20.0964943,11.8962926 11.8614253,21.1264924 10,32.1300312" id="Shape"></path>
                <path d="M63,62 C64.6198735,54.9617264 65.2933574,47.5501381 64.8821003,40" id="Shape"></path>
                <path d="M41,5.28353502 C37.5513056,4.82250815 33.9681362,4.91330415 30.3652475,5.63235429 C13.0020901,9.0966961 1.765076,25.8329742 5.26608143,43.0153724 L5.27676274,43.0126621 C5.88450201,45.9940234 4.94125999,48.9274118 3,51" id="Shape"></path>
                <path d="M68.4449818,54 C69.3920424,46.3110082 69.1484036,38.3397152 67.5496434,30.3260496 L67.5406601,30.3265999 C65.1742336,18.4644487 56.6433384,9.44897164 46,6" id="Shape"></path>
            </g>
        </g>
    </g>
</svg>