<?xml version="1.0" encoding="UTF-8"?>
<svg width="32px" height="32px" viewBox="0 0 32 32" version="1.1" xmlns="http://www.w3.org/2000/svg" xmlns:xlink="http://www.w3.org/1999/xlink">
    <!-- Generator: sketchtool 63.1 (101010) - https://sketch.com -->
    <title>B4F9ED58-5170-4AF7-AFF3-6D4744E16F30</title>
    <desc>Created with sketchtool.</desc>
    <defs>
        <path d="M12.1567251,14.6238933 C11.6887251,15.5938933 10.8907251,16.4898933 9.91205845,17.1418933 C9.83472512,17.1932266 9.74739179,17.21856 9.66005845,17.21856 C9.51339179,17.21856 9.36939179,17.1472266 9.28205845,17.0158933 C9.14272512,16.80656 9.19939179,16.52456 9.40805845,16.3858933 C10.2533918,15.82256 10.9393918,15.05456 11.3407251,14.22256 C11.8093918,13.2852266 11.9340585,12.27456 11.7033918,11.29456 C11.4467251,10.24056 10.6793918,9.74589331 10.0027251,9.30989331 L10.0027251,9.30922664 C9.92472512,9.25855998 9.86739179,9.18789331 9.83339179,9.10855998 C9.77472512,8.97389331 9.78272512,8.81322664 9.86872512,8.68055998 C10.0040585,8.47122664 10.2820585,8.41189331 10.4920585,8.54389331 C10.4927251,8.54389331 10.4927251,8.54455998 10.4927251,8.54455998 C10.4940585,8.54522664 10.4960585,8.54522664 10.4973918,8.54589331 L10.4967251,8.54655998 C11.2367251,9.02389331 12.2447251,9.67589331 12.5873918,11.08256 C12.8680585,12.2758933 12.7193918,13.4992266 12.1567251,14.6238933 L12.1567251,14.6238933 Z M27.3413918,30.6138933 C27.0473918,30.9292266 26.5767251,31.08856 25.9420585,31.08856 L18.7720585,31.08856 L18.7720585,22.78056 C18.7720585,22.16456 18.5240585,21.8012266 18.3167251,21.60456 C17.8513918,21.1638933 17.2247251,21.1858933 17.1793918,21.18856 L14.8373918,21.18856 C14.7640585,21.18256 14.1367251,21.17656 13.6747251,21.62256 C13.4713918,21.81856 13.2280585,22.17856 13.2280585,22.78056 L13.2280585,31.08856 L6.05805845,31.08856 C5.42005845,31.08856 4.94739179,30.9232266 4.65272512,30.5972266 C4.20672512,30.1038933 4.27605845,29.3658933 4.27939179,29.31056 L4.27939179,15.7032266 L4.27939179,15.70256 C4.48139179,15.8592266 4.67539179,16.0032266 4.85539179,16.1232266 C5.01872512,16.2372266 5.18272512,16.3518933 5.35205845,16.4598933 C6.77672512,17.4198933 8.00672512,18.24856 8.32272512,20.2552266 C8.35872512,20.55056 8.57072512,20.82056 8.87005845,20.93256 C8.97939179,20.96856 9.08072512,20.98656 9.16939179,20.98656 C9.36072512,20.98656 9.52672512,20.93456 9.64272512,20.8472266 C11.4420585,19.6532266 12.9420585,17.9772266 13.8673918,16.12656 C14.9073918,14.0298933 15.1827251,11.7612266 14.6620585,9.56189331 C14.6513918,9.51989331 14.6347251,9.48522664 14.6240585,9.44322664 L16.1033918,8.56522664 L27.7207251,15.55456 C27.7227251,20.2352266 27.7253918,29.0758933 27.7207251,29.2972266 L27.7220585,29.2972266 C27.7207251,29.3172266 27.7213918,29.33656 27.7227251,29.35656 C27.7353918,29.5418933 27.7460585,30.1798933 27.3413918,30.6138933 L27.3413918,30.6138933 Z M17.8627251,31.08856 L14.1373918,31.08856 L14.1373918,22.78056 C14.1373918,22.5532266 14.1913918,22.3892266 14.3020585,22.2798933 C14.4587251,22.1258933 14.7280585,22.1018933 14.8207251,22.0972266 L17.2000585,22.09656 C17.2900585,22.0998933 17.5413918,22.1192266 17.6953918,22.2678933 C17.8067251,22.3752266 17.8627251,22.5478933 17.8627251,22.78056 L17.8627251,31.08856 Z M2.95405845,12.4838933 C2.65739179,11.5052266 2.47872512,9.45522664 2.78405845,8.00922664 C3.20072512,9.42455998 4.08739179,11.3912266 5.79672512,11.3912266 C5.97605845,11.3912266 6.13939179,11.3118933 6.24539179,11.1738933 C6.44272512,10.9172266 6.42539179,10.5498933 6.17205845,9.59922664 C5.20739179,6.01922664 5.96205845,3.14189331 8.41472512,1.04255998 C7.23139179,3.70322664 8.65605845,4.62189331 10.3180585,5.69322664 C11.5213918,6.46855998 12.8647251,7.33589331 13.5387251,9.02989331 C13.6313918,9.26255998 13.7127251,9.50922664 13.7780585,9.77522664 C13.7900585,9.82589331 13.7960585,9.87722664 13.8073918,9.92855998 C14.2293918,11.8678933 13.9733918,13.8672266 13.0533918,15.7212266 C12.2060585,17.4172266 10.8307251,18.9578933 9.21005845,20.0498933 C8.81005845,17.6938933 7.31072512,16.6832266 5.85072512,15.6992266 C5.68272512,15.59256 5.53005845,15.4852266 5.36805845,15.37256 C5.26005845,15.30056 5.14805845,15.22056 5.03339179,15.1358933 C4.89405845,15.03256 4.74939179,14.9212266 4.59539179,14.79656 C4.49405845,14.7138933 4.38872512,14.6218933 4.28139179,14.52456 C3.76805845,14.05856 3.22739179,13.4212266 2.95405845,12.4838933 L2.95405845,12.4838933 Z M22.8793918,9.33255998 L24.6027251,9.33255998 L24.6027251,12.6172266 L22.8793918,11.58056 L22.8793918,9.33255998 Z M31.7800585,16.9352266 L25.5120585,13.16456 L25.5120585,8.87789331 C25.5120585,8.62655998 25.3087251,8.42322664 25.0573918,8.42322664 L22.4247251,8.42322664 C22.1733918,8.42322664 21.9700585,8.62655998 21.9700585,8.87789331 L21.9700585,11.0332266 L16.3393918,7.64589331 C16.1960585,7.55922664 16.0167251,7.55922664 15.8733918,7.64455998 L14.3247251,8.56389331 C13.5300585,6.68989331 12.0407251,5.72122664 10.7900585,4.91589331 C9.09939179,3.82589331 8.32739179,3.32855998 9.33139179,1.22589331 C9.46605845,0.921226642 9.43539179,0.591226642 9.24805845,0.340559976 C8.96272512,-0.0387733575 8.43605845,-0.114773358 8.02805845,0.181226642 C5.12339179,2.54055998 4.20339179,5.78855998 5.29405845,9.83522664 C5.36472512,10.1012266 5.40805845,10.29056 5.43472512,10.4252266 C4.15805845,10.0132266 3.51339179,7.49389331 3.36472512,6.47055998 C3.33872512,6.29055998 3.20872512,6.14389331 3.03339179,6.09655998 C2.85672512,6.04922664 2.67139179,6.11122664 2.55872512,6.25322664 C1.39805845,7.71789331 1.63272512,11.2598933 2.08272512,12.74256 C2.37939179,13.7592266 2.92272512,14.4752266 3.46739179,15.00856 L0.22272512,16.9338933 C0.00672511974,17.0618933 -0.0646082136,17.3412266 0.0640584531,17.55656 C0.14872512,17.6998933 0.300058453,17.7792266 0.455391786,17.7792266 C0.534058453,17.7792266 0.614058453,17.7592266 0.68672512,17.7158933 L3.37005845,16.1232266 L3.37339179,29.2592266 C3.36805845,29.3052266 3.25405845,30.39656 3.97005845,31.19856 C4.44405845,31.72856 5.14672512,31.9978933 6.05805845,31.9978933 L25.9420585,31.9978933 C26.8393918,31.9978933 27.5333918,31.74056 28.0060585,31.2338933 C28.6433918,30.55056 28.6540585,29.6492266 28.6287251,29.2878933 C28.6287251,29.2878933 28.6327251,27.0712266 28.6320585,22.4098933 L28.6300585,16.1012266 L31.3113918,17.71456 C31.5260585,17.84256 31.8047251,17.77456 31.9347251,17.5592266 C32.0647251,17.34456 31.9947251,17.0652266 31.7800585,16.9352266 L31.7800585,16.9352266 Z" id="path-1"></path>
    </defs>
    <g id="Breakpoint-S" stroke="none" stroke-width="1" fill="none" fill-rule="evenodd">
        <g id="05_Home-contracts-S" transform="translate(-16.000000, -650.000000)">
            <g id="06_List_Items/09_Accordions/06.09.06_Left_Icon_Text_Badge/S" transform="translate(0.000000, 630.000000)">
                <g id="icons/products/red/A-car-home/a01-fire" transform="translate(16.000000, 20.000000)">
                    <g>
                        <polygon id="Rectangle-path" fill-opacity="0" fill="#FFFFFF" fill-rule="nonzero" points="-3.78956126e-14 0 32 0 32 32 -3.78956126e-14 32"></polygon>
                        <mask id="mask-2" fill="white">
                            <use xlink:href="#path-1"></use>
                        </mask>
                        <use id="a01-fire" fill="#C5281C" xlink:href="#path-1"></use>
                    </g>
                </g>
            </g>
        </g>
    </g>
</svg>