<?xml version="1.0" encoding="UTF-8"?>
<svg width="49px" height="48px" viewBox="0 0 49 48" version="1.1" xmlns="http://www.w3.org/2000/svg" xmlns:xlink="http://www.w3.org/1999/xlink">
    <!-- Generator: sketchtool 62 (101010) - https://sketch.com -->
    <title>C6EC6DB9-8FB0-4C65-850D-D33E4ECF4943</title>
    <desc>Created with sketchtool.</desc>
    <defs>
        <path d="M13.4075,13.0128 C8.6075,13.0128 5.7265,16.1758 4.6315,19.1358 C3.5635,22.0178 3.6675,26.1608 7.1095,29.2248 L23.3255,13.0128 L13.4075,13.0128 Z M7.1555,30.9498 C7.0135,30.9498 6.8725,30.9088 6.7485,30.8268 C6.6305,30.7478 6.5245,30.6588 6.4245,30.5718 L6.3245,30.4868 C2.8245,27.4858 1.6555,22.9478 3.2555,18.6258 C4.8475,14.3248 8.8325,11.5458 13.4075,11.5458 L25.0955,11.5458 C25.3925,11.5458 25.6605,11.7248 25.7735,11.9988 C25.8865,12.2728 25.8245,12.5888 25.6145,12.7978 L7.6735,30.7348 C7.5325,30.8768 7.3445,30.9498 7.1555,30.9498 L7.1555,30.9498 Z M38.0995,19.6708 L38.1005,19.6708 L38.0995,19.6708 Z M29.6505,25.9888 L29.6585,25.9988 C29.6565,25.9948 29.6535,25.9918 29.6505,25.9888 L29.6505,25.9888 Z M30.7335,14.0148 C30.1515,14.0148 29.6055,14.2428 29.1845,14.6638 L2.2505,42.9678 C1.7695,43.4488 1.5255,43.9368 1.4695,44.5148 C1.4195,45.2798 1.8655,46.0068 2.6055,46.3428 C3.4715,46.7208 4.2635,46.5288 4.9205,45.8988 L8.2315,42.7038 L10.1155,40.7048 C13.9085,36.6778 17.8315,32.5128 21.5165,28.7688 C22.0995,28.1468 22.6695,28.0128 23.0435,28.0128 C23.5325,28.0128 23.9905,28.2508 24.4435,28.7378 L27.3995,31.8328 C28.1495,32.6038 28.8815,33.3798 29.6335,34.1758 L29.7585,34.3078 C29.9525,34.5128 30.0115,34.8108 29.9105,35.0738 C29.8095,35.3368 29.5675,35.5188 29.2855,35.5418 C28.9995,35.5658 28.5215,35.5908 27.9005,35.6148 L26.7985,35.6698 C24.5945,35.7818 21.5765,35.9338 20.1545,36.0328 C19.4495,36.0818 18.8315,36.6278 18.6155,37.3898 C18.4145,38.0788 18.6575,38.8178 19.2315,39.2768 C19.6905,39.6588 20.2255,39.6568 20.9905,39.6078 L26.9905,39.2578 C29.2315,39.1408 31.4685,39.0008 33.6815,38.8608 C34.6315,38.8058 35.3605,38.2998 35.7395,37.4328 C36.1845,36.4488 36.1075,35.5308 35.5245,34.8428 C34.4165,33.5468 33.2635,32.2418 32.1475,30.9798 L31.7785,30.5618 C31.3395,30.0748 30.9245,29.6138 30.5325,29.1518 L28.5875,26.9988 C28.4065,26.8188 28.3055,26.5958 28.3055,26.3448 C28.3055,26.2318 28.3315,26.1198 28.3815,26.0178 C28.4105,25.9608 28.4755,25.8468 28.5905,25.7328 L29.5845,24.7588 C30.5585,23.8018 31.7085,22.6738 32.4745,21.9418 C32.7585,21.6718 33.2035,21.6718 33.4875,21.9418 C33.8735,22.3098 35.0765,23.5758 35.8725,24.4128 L36.4505,25.0208 C36.7395,25.3168 37.1405,25.4848 37.5775,25.4898 L37.5965,25.4898 C38.1735,25.4898 38.7635,25.2098 39.3035,24.6788 L46.2485,17.9898 C46.4535,17.6638 46.5545,17.2708 46.5295,16.8978 C46.4775,16.4818 46.2615,16.0918 45.9195,15.7988 C45.0945,15.1388 44.2495,15.1798 43.6205,15.9248 L39.0385,20.6728 C38.7045,21.0068 38.3175,21.1648 37.9475,21.1288 C37.4905,21.1088 37.1335,20.8248 36.9775,20.7008 C36.9305,20.6638 36.8455,20.5868 36.8085,20.5388 L32.4695,14.8708 C32.0865,14.3718 31.5075,14.0608 30.8825,14.0198 C30.8325,14.0168 30.7825,14.0148 30.7335,14.0148 L30.7335,14.0148 Z M3.4455,48.0008 C2.9685,48.0008 2.4975,47.8968 2.0085,47.6818 C0.6975,47.0868 -0.0845,45.7988 0.0075,44.3968 C0.0985,43.4508 0.4885,42.6558 1.2005,41.9438 L28.1345,13.6398 C28.8965,12.8778 29.9235,12.4888 30.9785,12.5558 C32.0255,12.6258 32.9935,13.1438 33.6345,13.9788 L37.9175,19.5738 C37.9415,19.5928 37.9715,19.6158 38.0005,19.6358 L42.5325,14.9418 C43.6435,13.6248 45.3935,13.5008 46.8545,14.6688 C47.5015,15.2228 47.8975,15.9538 47.9885,16.7438 C47.9895,16.7528 47.9905,16.7628 47.9905,16.7718 C48.0485,17.5088 47.8455,18.2558 47.4215,18.8748 C47.3935,18.9158 47.3615,18.9538 47.3255,18.9888 L40.3265,25.7298 C39.2825,26.7558 38.2395,26.9568 37.5615,26.9558 C36.7315,26.9478 35.9625,26.6218 35.3955,26.0398 L34.8085,25.4228 C34.2825,24.8688 33.5045,24.0508 32.9705,23.5008 C32.2595,24.1888 31.3805,25.0508 30.6115,25.8048 L30.0145,26.3908 L31.6365,28.1848 C32.0345,28.6528 32.4395,29.1038 32.8455,29.5548 L33.2465,30.0088 C34.3665,31.2748 35.5245,32.5848 36.6415,33.8918 C37.5995,35.0228 37.7585,36.5308 37.0795,38.0298 C36.4805,39.3988 35.2725,40.2388 33.7705,40.3248 C31.5555,40.4648 29.3135,40.6058 27.0705,40.7218 L21.0785,41.0718 C20.3005,41.1188 19.2325,41.1868 18.3035,40.4128 C17.2745,39.5898 16.8385,38.2398 17.2065,36.9848 C17.5885,35.6348 18.7325,34.6618 20.0525,34.5698 C21.4895,34.4698 24.5145,34.3168 26.7235,34.2048 L27.6005,34.1608 C27.1825,33.7208 26.7665,33.2858 26.3435,32.8498 L23.3755,29.7428 C23.1475,29.4968 23.0435,29.4798 23.0425,29.4798 C22.9585,29.4798 22.7855,29.5598 22.5745,29.7848 C18.8885,33.5308 14.9715,37.6888 11.1835,41.7098 L9.2745,43.7348 L5.9385,46.9548 C5.2355,47.6298 4.3505,48.0008 3.4455,48.0008 L3.4455,48.0008 Z M38.0205,1.4668 C35.8525,1.4668 34.0885,3.2308 34.0885,5.3988 C34.0885,7.5668 35.8525,9.3298 38.0205,9.3298 C40.1695,9.3298 41.9335,7.5638 41.9535,5.3918 C41.9535,3.2308 40.1895,1.4668 38.0205,1.4668 L38.0205,1.4668 Z M38.0205,10.7968 C35.0435,10.7968 32.6215,8.3758 32.6215,5.3988 C32.6215,2.4218 35.0435,-0.0002 38.0205,-0.0002 C40.9985,-0.0002 43.4205,2.4218 43.4205,5.3988 C43.3935,8.3778 40.9705,10.7968 38.0205,10.7968 L38.0205,10.7968 Z" id="path-1"></path>
    </defs>
    <g id="Page-1" stroke="none" stroke-width="1" fill="none" fill-rule="evenodd">
        <g id="Generali-Group-GDF---Warranty-Icons" transform="translate(-990.000000, -753.000000)">
            <g id="Vol---vandalisme" transform="translate(731.000000, 753.000000)">
                <g id="icons/products/red/A-car-home/a02-burglary" transform="translate(259.500000, 0.000000)">
                    <g>
                        <polygon id="Rectangle-path" fill-opacity="0" fill="#FFFFFF" fill-rule="nonzero" points="-5.68434189e-14 0 48 0 48 48 -5.68434189e-14 48"></polygon>
                        <mask id="mask-2" fill="white">
                            <use xlink:href="#path-1"></use>
                        </mask>
                        <use id="a02-burglary" fill="#C5281C" xlink:href="#path-1"></use>
                        <polygon id="Color-Style" fill="#C5281C" mask="url(#mask-2)" points="0 0 48 0 48 48 0 48"></polygon>
                    </g>
                </g>
            </g>
        </g>
    </g>
</svg>