<?xml version="1.0" encoding="UTF-8"?>
<svg width="37px" height="48px" viewBox="0 0 37 48" version="1.1" xmlns="http://www.w3.org/2000/svg" xmlns:xlink="http://www.w3.org/1999/xlink">
    <!-- Generator: sketchtool 62 (101010) - https://sketch.com -->
    <title>77D2009E-9379-4030-B9D7-3FE1A054762B</title>
    <desc>Created with sketchtool.</desc>
    <defs>
        <path d="M12.6105,46.5802 C9.7485,46.5802 7.4205,44.1402 7.4205,41.1412 C7.4205,40.0112 7.7665,38.8852 8.3785,37.9942 L12.6305,32.3502 L16.8515,37.9782 C17.4895,38.9322 17.8185,40.0222 17.8005,41.1412 C17.8005,44.1402 15.4725,46.5802 12.6105,46.5802 L12.6105,46.5802 Z M17.9985,37.1412 L13.1985,30.7422 C13.0655,30.5632 12.8555,30.4592 12.6315,30.4582 C12.4075,30.4582 12.1975,30.5622 12.0635,30.7412 L7.2265,37.1652 C6.4355,38.3142 6.0005,39.7262 6.0005,41.1412 C6.0005,44.9232 8.9655,48.0002 12.6105,48.0002 C16.2555,48.0002 19.2205,44.9232 19.2205,41.1512 C19.2425,39.7472 18.8275,38.3702 18.0195,37.1702 C18.0125,37.1612 18.0055,37.1512 17.9985,37.1412 L17.9985,37.1412 Z M40.2405,16.5802 L36.5255,16.5802 L36.5255,9.7362 L40.2785,9.7682 L40.2405,16.5802 Z M35.1055,20.1572 C35.1055,20.4522 34.8645,20.6932 34.5685,20.6932 L27.7125,20.6932 C27.4165,20.6932 27.1755,20.4522 27.1755,20.1572 L27.1755,8.1272 C27.1755,7.8312 27.4165,7.5912 27.7125,7.5912 L34.5685,7.5912 C34.8645,7.5912 35.1055,7.8312 35.1055,8.1272 L35.1055,20.1572 Z M19.0075,16.5802 C17.7225,16.5802 16.6765,17.6252 16.6765,18.9102 L16.6385,24.8282 L8.5395,24.7892 L8.5395,18.2452 C8.5395,13.5382 12.3685,9.7102 17.0755,9.7102 L25.7555,9.7102 L25.7555,16.5802 L19.0075,16.5802 Z M25.1195,2.1402 L36.1235,2.1402 L36.1235,1.4202 L25.1195,1.4202 L25.1195,2.1402 Z M40.2405,8.3102 L36.5255,8.3102 L36.5255,8.1272 C36.5255,7.0482 35.6475,6.1702 34.5685,6.1702 L31.4145,6.1702 L31.4145,3.5602 L36.8335,3.5602 C37.2255,3.5602 37.5435,3.2422 37.5435,2.8502 L37.5435,0.7102 C37.5435,0.3182 37.2255,0.000200000009 36.8335,0.000200000009 L24.4095,0.000200000009 C24.0165,0.000200000009 23.6985,0.3182 23.6985,0.7102 L23.6985,2.8502 C23.6985,3.2422 24.0165,3.5602 24.4095,3.5602 L29.9945,3.5602 L29.9945,6.1702 L27.7125,6.1702 C26.6335,6.1702 25.7555,7.0482 25.7555,8.1272 L25.7555,8.2892 L17.0755,8.2892 C11.5855,8.2892 7.1195,12.7552 7.1195,18.2452 L7.1195,24.7892 C7.1195,25.5942 7.7735,26.2472 8.5775,26.2472 L16.6385,26.2472 C17.4425,26.2472 18.0965,25.5942 18.0965,24.7892 L18.0965,18.9102 C18.0965,18.4082 18.5055,17.9992 19.0075,17.9992 L25.7555,17.9992 L25.7555,20.1572 C25.7555,21.2362 26.6335,22.1132 27.7125,22.1132 L34.5685,22.1132 C35.6475,22.1132 36.5255,21.2362 36.5255,20.1572 L36.5255,17.9992 L40.2405,17.9992 C41.0445,17.9992 41.6985,17.3462 41.6985,16.5412 L41.6985,9.7682 C41.6985,8.9642 41.0445,8.3102 40.2405,8.3102 L40.2405,8.3102 Z" id="path-1"></path>
    </defs>
    <g id="Page-1" stroke="none" stroke-width="1" fill="none" fill-rule="evenodd">
        <g id="Generali-Group-GDF---Warranty-Icons" transform="translate(-996.000000, -235.000000)">
            <g id="Dégats-des-eaux" transform="translate(731.000000, 235.000000)">
                <g id="icons/products/red/A-car-home/a03-tap-water" transform="translate(259.500000, 0.000000)">
                    <g>
                        <polygon id="Rectangle-path" fill-opacity="0" fill="#FFFFFF" fill-rule="nonzero" points="0 0 48 0 48 48 0 48"></polygon>
                        <mask id="mask-2" fill="white">
                            <use xlink:href="#path-1"></use>
                        </mask>
                        <use id="a03-tap-water" fill="#C5281C" xlink:href="#path-1"></use>
                        <polygon id="Color-Style" fill="#C5281C" mask="url(#mask-2)" points="0 0 48 0 48 48 0 48"></polygon>
                    </g>
                </g>
            </g>
        </g>
    </g>
</svg>