<?xml version="1.0" encoding="UTF-8"?>
<svg width="49px" height="48px" viewBox="0 0 49 48" version="1.1" xmlns="http://www.w3.org/2000/svg" xmlns:xlink="http://www.w3.org/1999/xlink">
    <!-- Generator: sketchtool 62 (101010) - https://sketch.com -->
    <title>2AFED4B9-F057-488B-8E54-D85127F06C22</title>
    <desc>Created with sketchtool.</desc>
    <defs>
        <path d="M7.539,26.0846 L1.34,41.0456 C1.228,41.3136 0.97,41.4756 0.696,41.4756 C0.607,41.4756 0.518,41.4586 0.43,41.4226 C0.075,41.2756 -0.094,40.8676 0.053,40.5126 L6.252,25.5516 C6.399,25.1966 6.807,25.0266 7.162,25.1746 C7.517,25.3216 7.685,25.7296 7.539,26.0846 L7.539,26.0846 Z M7.539,7.4876 L1.34,22.4496 C1.228,22.7176 0.97,22.8786 0.696,22.8786 C0.607,22.8786 0.518,22.8616 0.43,22.8256 C0.075,22.6786 -0.094,22.2716 0.053,21.9166 L6.252,6.9546 C6.399,6.5996 6.807,6.4306 7.162,6.5786 C7.517,6.7256 7.685,7.1326 7.539,7.4876 L7.539,7.4876 Z M15.206,0.9626 L9.007,15.9466 C8.896,16.2146 8.637,16.3766 8.363,16.3766 C8.274,16.3766 8.185,16.3606 8.098,16.3246 C7.742,16.1776 7.573,15.7706 7.72,15.4146 L13.919,0.4296 C14.065,0.0756 14.473,-0.0934 14.828,0.0526 C15.184,0.1996 15.352,0.6066 15.206,0.9626 L15.206,0.9626 Z M19.977,15.8976 C20.048,15.6856 20.011,15.4536 19.881,15.2716 C19.75,15.0916 19.539,14.9846 19.316,14.9846 L14.159,14.9846 L19.782,1.3926 L30.608,1.3926 L24.893,12.7816 C24.784,12.9976 24.796,13.2546 24.923,13.4596 C25.05,13.6656 25.273,13.7906 25.516,13.7906 L33.143,13.7906 L14.678,32.0576 L19.977,15.8976 Z M47.785,25.5536 C47.678,25.2926 47.424,25.1216 47.141,25.1216 L38.97,25.1216 L44.665,13.7316 C44.772,13.5156 44.761,13.2596 44.635,13.0546 C44.508,12.8486 44.283,12.7236 44.042,12.7236 L37.843,12.7236 C37.458,12.7236 37.146,13.0356 37.146,13.4196 C37.146,13.8046 37.458,14.1166 37.843,14.1166 L42.915,14.1166 L37.22,25.5066 C37.112,25.7226 37.124,25.9786 37.25,26.1846 C37.377,26.3896 37.602,26.5146 37.843,26.5146 L45.447,26.5146 L26.985,44.7776 L32.306,28.5986 C32.375,28.3866 32.34,28.1536 32.208,27.9736 C32.077,27.7926 31.868,27.6856 31.644,27.6856 L26.391,27.6856 L29.018,19.8646 C29.022,19.8516 29.019,19.8376 29.023,19.8246 L35.326,13.5886 C35.527,13.3906 35.588,13.0906 35.48,12.8296 C35.374,12.5686 35.119,12.3976 34.837,12.3976 L26.643,12.3976 L32.359,1.0086 C32.468,0.7926 32.456,0.5366 32.329,0.3306 C32.203,0.1256 31.978,0.0006 31.737,0.0006 L19.316,0.0006 C19.035,0.0006 18.78,0.1696 18.673,0.4296 L12.474,15.4146 C12.385,15.6296 12.409,15.8746 12.538,16.0676 C12.667,16.2606 12.885,16.3766 13.117,16.3766 L18.355,16.3766 L12.456,34.3636 C12.355,34.6686 12.477,35.0026 12.751,35.1726 C12.864,35.2426 12.991,35.2766 13.117,35.2766 C13.296,35.2766 13.473,35.2086 13.606,35.0756 L26.836,21.9886 L24.763,28.1596 C24.69,28.3726 24.726,28.6056 24.857,28.7876 C24.987,28.9696 25.198,29.0776 25.422,29.0776 L30.683,29.0776 L24.761,47.0866 C24.66,47.3926 24.782,47.7266 25.056,47.8966 C25.169,47.9666 25.296,48.0006 25.422,48.0006 C25.601,48.0006 25.778,47.9316 25.912,47.7996 L47.631,26.3136 C47.831,26.1146 47.893,25.8146 47.785,25.5536 L47.785,25.5536 Z" id="path-1"></path>
    </defs>
    <g id="Page-1" stroke="none" stroke-width="1" fill="none" fill-rule="evenodd">
        <g id="Generali-Group-GDF---Warranty-Icons" transform="translate(-990.000000, -383.000000)">
            <g id="Evènements-climatiques/gel" transform="translate(731.000000, 383.000000)">
                <g id="icons/products/red/A-car-home/a05-storm-hail" transform="translate(259.500000, 0.000000)">
                    <g>
                        <polygon id="Rectangle-path" fill-opacity="0" fill="#FFFFFF" fill-rule="nonzero" points="-5.68434189e-14 0 48 0 48 48 -5.68434189e-14 48"></polygon>
                        <mask id="mask-2" fill="white">
                            <use xlink:href="#path-1"></use>
                        </mask>
                        <use id="a05-storm-hail" fill="#C5281C" xlink:href="#path-1"></use>
                        <polygon id="Color-Style" fill="#C5281C" mask="url(#mask-2)" points="0 0 48 0 48 48 0 48"></polygon>
                    </g>
                </g>
            </g>
        </g>
    </g>
</svg>