<?xml version="1.0" encoding="UTF-8"?>
<svg width="49px" height="48px" viewBox="0 0 49 48" version="1.1" xmlns="http://www.w3.org/2000/svg" xmlns:xlink="http://www.w3.org/1999/xlink">
    <!-- Generator: sketchtool 62 (101010) - https://sketch.com -->
    <title>0859981E-64A0-46A2-A17E-F964C34A07FA</title>
    <desc>Created with sketchtool.</desc>
    <defs>
        <path d="M47.9311,43.1534 C48.0941,43.4834 47.9581,43.8824 47.6301,44.0454 L39.9041,47.8724 C39.7191,47.9644 39.5021,47.9654 39.3171,47.8744 L31.8991,44.2454 L24.1911,47.9354 C24.0041,48.0244 23.7871,48.0214 23.6041,47.9284 L16.2371,44.1944 L8.8881,47.9274 C8.7931,47.9754 8.6911,48.0004 8.5871,48.0004 C8.4881,48.0004 8.3891,47.9774 8.2971,47.9334 L0.4151,44.1054 C0.0851,43.9454 -0.0519,43.5474 0.1081,43.2164 C0.2681,42.8854 0.6641,42.7474 0.9961,42.9084 L8.5801,46.5914 L15.9351,42.8554 C16.1231,42.7594 16.3471,42.7594 16.5361,42.8554 L23.9121,46.5934 L31.6161,42.9064 C31.7981,42.8194 32.0121,42.8204 32.1941,42.9094 L39.6071,46.5354 L47.0401,42.8524 C47.3691,42.6904 47.7681,42.8244 47.9311,43.1534 L47.9311,43.1534 Z M39.5171,42.1704 L32.2011,38.5704 C32.0141,38.4794 31.7961,38.4764 31.6111,38.5654 L28.1331,40.1974 L28.1331,29.7504 C28.1331,28.8244 27.7621,28.2794 27.4511,27.9854 C26.7531,27.3244 25.8171,27.3544 25.7461,27.3624 L22.2371,27.3624 C22.1311,27.3584 21.1881,27.3424 20.4941,28.0124 C20.1891,28.3064 19.8261,28.8474 19.8261,29.7504 L19.8261,40.1454 L16.5271,38.5004 C16.3331,38.4034 16.1081,38.4054 15.9151,38.5024 L8.3681,42.3284 L6.4131,41.4004 L6.4131,19.1334 C6.4131,19.0764 6.3941,19.0264 6.3811,18.9734 L24.1341,8.4264 L33.8341,14.2674 L31.6241,21.0164 C31.5291,21.3084 31.6451,21.6274 31.9061,21.7884 C32.0131,21.8554 32.1341,21.8874 32.2541,21.8874 C32.4241,21.8874 32.5931,21.8214 32.7211,21.6954 L37.8061,16.6584 L41.5441,18.9104 L41.5461,41.1854 L39.5171,42.1704 Z M23.9071,42.1814 L21.1681,40.8154 C21.1731,40.7824 21.1881,40.7534 21.1881,40.7184 L21.1881,29.7504 C21.1881,29.4074 21.2681,29.1634 21.4341,28.9994 C21.6681,28.7684 22.0631,28.7304 22.2111,28.7254 L25.7851,28.7244 C25.7901,28.7234 26.2411,28.7164 26.5141,28.9764 C26.6841,29.1364 26.7701,29.3974 26.7701,29.7504 L26.7701,40.7184 C26.7701,40.7574 26.7851,40.7904 26.7921,40.8264 L23.9071,42.1814 Z M35.0001,14.9694 L36.6441,9.9484 C36.7101,9.7454 36.6761,9.5244 36.5511,9.3514 C36.4261,9.1794 36.2261,9.0774 36.0141,9.0774 L33.2471,9.0774 L36.4571,1.3284 L42.4591,1.3284 L39.1801,7.8924 C39.0771,8.0984 39.0881,8.3424 39.2081,8.5384 C39.3291,8.7354 39.5431,8.8534 39.7731,8.8534 L43.7991,8.8534 L37.6311,14.9634 L36.6321,15.9524 L33.7411,18.8174 L35.0001,14.9694 Z M47.6281,20.9834 L38.8041,15.6694 L45.8791,8.6614 C46.0711,8.4724 46.1281,8.1864 46.0271,7.9374 C45.9241,7.6884 45.6821,7.5254 45.4121,7.5254 L40.8471,7.5254 L44.1261,0.9614 C44.2291,0.7554 44.2181,0.5104 44.0981,0.3154 C43.9771,0.1194 43.7631,0.0004 43.5341,0.0004 L36.0141,0.0004 C35.7451,0.0004 35.5031,0.1614 35.4011,0.4094 L31.6421,9.4874 C31.5571,9.6924 31.5791,9.9254 31.7021,10.1104 C31.8261,10.2944 32.0331,10.4054 32.2541,10.4054 L35.0981,10.4054 L34.2691,12.9384 L24.4881,7.0484 C24.2731,6.9174 24.0041,6.9154 23.7891,7.0464 L0.3331,20.9814 C0.0101,21.1734 -0.0959,21.5914 0.0951,21.9154 C0.2871,22.2384 0.7041,22.3454 1.0291,22.1534 L5.0511,19.7634 L5.0511,41.8304 C5.0511,42.0934 5.2021,42.3334 5.4401,42.4464 L8.0851,43.7044 C8.1781,43.7484 8.2781,43.7694 8.3781,43.7694 C8.4841,43.7694 8.5891,43.7454 8.6861,43.6964 L16.2251,39.8744 L23.5941,43.5494 C23.7811,43.6434 23.9991,43.6454 24.1871,43.5564 L31.8931,39.9384 L39.2151,43.5404 C39.4041,43.6324 39.6241,43.6334 39.8121,43.5414 L42.5251,42.2254 C42.7601,42.1114 42.9091,41.8734 42.9091,41.6124 L42.9081,19.7314 L46.9261,22.1514 C47.0351,22.2164 47.1571,22.2494 47.2771,22.2484 C47.5071,22.2484 47.7331,22.1314 47.8611,21.9194 C48.0551,21.5964 47.9511,21.1764 47.6281,20.9834 L47.6281,20.9834 Z" id="path-1"></path>
    </defs>
    <g id="Page-1" stroke="none" stroke-width="1" fill="none" fill-rule="evenodd">
        <g id="Generali-Group-GDF---Warranty-Icons" transform="translate(-990.000000, -457.000000)">
            <g id="Catastrophes-naturelles" transform="translate(731.000000, 457.000000)">
                <g id="icons/products/red/A-car-home/a06-natural-peril" transform="translate(259.500000, 0.000000)">
                    <g>
                        <polygon id="Rectangle-path" fill-opacity="0" fill="#FFFFFF" fill-rule="nonzero" points="-5.68434189e-14 0 48 0 48 48 -5.68434189e-14 48"></polygon>
                        <mask id="mask-2" fill="white">
                            <use xlink:href="#path-1"></use>
                        </mask>
                        <use id="a06-natural-peril" fill="#C5281C" xlink:href="#path-1"></use>
                        <polygon id="Color-Style" fill="#C5281C" mask="url(#mask-2)" points="0 0 48 0 48 48 0 48"></polygon>
                    </g>
                </g>
            </g>
        </g>
    </g>
</svg>