<?xml version="1.0" encoding="UTF-8"?>
<svg width="48px" height="48px" viewBox="0 0 48 48" version="1.1" xmlns="http://www.w3.org/2000/svg" xmlns:xlink="http://www.w3.org/1999/xlink">
    <!-- Generator: sketchtool 62 (101010) - https://sketch.com -->
    <title>0895FC6D-EEDE-4FF5-8A9D-8E5A173BFF65</title>
    <desc>Created with sketchtool.</desc>
    <defs>
        <path d="M34.6360824,34.091 C32.9470824,34.157 31.3030824,33.432 29.9570824,32.045 C32.2740824,27.544 38.9840824,26.202 45.1410824,29.022 C46.0900824,30.725 46.6350824,32.682 46.6360824,34.766 C43.5450824,31.182 37.4350824,32.993 34.6360824,34.091 M35.1410824,46.617 C40.4070824,43.457 43.1700824,38.861 42.5800824,34.13 C44.2110824,34.396 45.6410824,35.219 46.4180824,37.011 C45.3900824,42.367 40.7510824,46.444 35.1410824,46.617 M32.6260824,46.431 C31.3870824,46.204 30.2120824,45.791 29.1390824,45.21 C33.6670824,43.278 36.4000824,39.09 35.5930824,35.185 C37.0320824,34.655 39.1520824,34.033 41.1800824,34.023 C42.0750824,39.686 37.4220824,44.121 32.6260824,46.431 M23.4910824,38.374 C23.2380824,37.582 23.0600824,36.759 22.9780824,35.904 C22.9430824,35.531 22.9090824,35.156 22.9090824,34.773 C22.9090824,33.776 23.0460824,32.813 23.2790824,31.888 C23.4170824,32.505 23.5930824,33.105 23.7990824,33.687 C24.0240824,34.321 24.2950824,34.925 24.5960824,35.509 C25.0850824,36.459 25.6620824,37.344 26.3400824,38.122 C28.0200824,40.049 30.0840824,41.192 32.2640824,41.436 C31.1170824,42.663 29.5620824,43.675 27.7230824,44.291 C25.7490824,42.826 24.2600824,40.76 23.4910824,38.374 M22.0390824,38.307 C21.0170824,40.859 20.1480824,42.83 19.7850824,43.636 L8.8510824,43.636 C7.7140824,41.103 1.5670824,27.079 1.3710824,19.561 C1.1630824,11.592 5.2390824,9.437 7.4280824,8.279 C8.3520824,7.79 9.0820824,7.404 8.9900824,6.623 C8.8620824,5.563 8.4760824,2.739 8.2860824,1.363 L20.3500824,1.363 C20.1610824,2.739 19.7750824,5.563 19.6470824,6.623 L19.6470824,6.625 C19.5550824,7.404 20.2840824,7.79 21.2090824,8.279 C21.9690824,8.681 22.9550824,9.211 23.9110824,10.054 L12.7360824,20.079 C12.5500824,20.246 12.4700824,20.499 12.5270824,20.741 C12.5830824,20.984 12.7680824,21.176 13.0070824,21.243 L18.7970824,22.864 L10.7540824,33.779 C10.5730824,34.027 10.5770824,34.365 10.7680824,34.606 L12.9250824,37.346 C13.0590824,37.517 13.2590824,37.606 13.4610824,37.606 C13.6090824,37.606 13.7570824,37.558 13.8820824,37.46 C14.1780824,37.228 14.2300824,36.799 13.9960824,36.503 L12.1590824,34.171 L20.4810824,22.879 C20.6140824,22.698 20.6490824,22.464 20.5760824,22.252 C20.5030824,22.04 20.3300824,21.878 20.1150824,21.818 L14.5710824,20.265 L24.8620824,11.033 C26.2590824,12.706 27.3770824,15.296 27.2650824,19.561 C27.2280824,20.987 26.9760824,22.649 26.5850824,24.421 C26.4340824,24.541 26.2770824,24.655 26.1300824,24.782 C26.0680824,24.824 26.0130824,24.871 25.9670824,24.93 C23.2610824,27.354 21.5460824,30.862 21.5460824,34.773 C21.5460824,35.998 21.7270824,37.18 22.0390824,38.307 M34.2570824,35.455 C34.5840824,37.022 34.2070824,38.65 33.2900824,40.11 C31.1350824,40.15 29.0440824,39.148 27.3680824,37.226 C26.4880824,36.216 25.7780824,35.019 25.2550824,33.698 C24.9720824,32.982 24.7450824,32.229 24.5780824,31.448 C24.4270824,30.741 24.3230824,30.013 24.2730824,29.268 C24.7400824,28.38 25.3230824,27.563 25.9910824,26.824 C26.1370824,27.701 26.3890824,28.532 26.6980824,29.331 C27.1730824,30.563 27.8130824,31.697 28.6440824,32.645 C30.2070824,34.427 32.1830824,35.406 34.2570824,35.455 M34.7730824,22.909 C38.3500824,22.909 41.5540824,24.507 43.7310824,27.018 C37.7270824,25.084 31.6160824,26.644 29.0310824,30.912 C28.2320824,29.751 27.6800824,28.37 27.3950824,26.877 C27.3180824,26.469 27.2500824,26.058 27.2150824,25.636 C27.4070824,25.476 27.6120824,25.328 27.8150824,25.18 C29.7720824,23.756 32.1730824,22.909 34.7730824,22.909 M46.2750824,28.264 C46.2430824,28.177 46.1950824,28.098 46.1310824,28.029 C43.8230824,24.154 39.6020824,21.545 34.7730824,21.545 C32.3780824,21.545 30.1380824,22.196 28.2000824,23.317 C28.4440824,21.984 28.5990824,20.725 28.6290824,19.596 C28.8590824,10.782 24.1220824,8.277 21.8460824,7.073 C21.5490824,6.916 21.1920824,6.727 21.0240824,6.604 C21.2210824,5.012 21.8080824,0.776 21.8080824,0.775 C21.8350824,0.58 21.7770824,0.383 21.6470824,0.234 C21.5180824,0.085 21.3290824,-4.05e-13 21.1330824,-4.05e-13 L7.5040824,-4.05e-13 C7.3070824,-4.05e-13 7.1190824,0.085 6.9900824,0.234 C6.8610824,0.383 6.8020824,0.58 6.8280824,0.775 C6.8280824,0.776 7.4160824,5.014 7.6140824,6.604 C7.4460824,6.727 7.0880824,6.916 6.7900824,7.073 C4.5150824,8.277 -0.221917598,10.782 0.00808240225,19.596 C0.230082402,28.118 7.4840824,43.934 7.7920824,44.603 C7.9040824,44.845 8.1460824,45 8.4110824,45 L20.2260824,45 C20.4910824,45 20.7340824,44.845 20.8450824,44.603 C20.9420824,44.394 21.7140824,42.709 22.7390824,40.231 C24.8230824,44.806 29.4270824,48 34.7730824,48 C41.2830824,48 46.6970824,43.268 47.7870824,37.065 C47.7980824,37.015 47.8110824,36.967 47.8110824,36.915 C47.9250824,36.216 48.0000824,35.504 48.0000824,34.773 C48.0000824,32.406 47.3670824,30.188 46.2750824,28.264" id="path-1"></path>
    </defs>
    <g id="Asset-Artboard-Page" stroke="none" stroke-width="1" fill="none" fill-rule="evenodd">
        <g id="icons/products/red/A-car-home/a08-third-party-liability">
            <g>
                <polygon id="Rectangle-path" fill-opacity="0" fill="#FFFFFF" fill-rule="nonzero" points="-5.68434189e-14 0 48 0 48 48 -5.68434189e-14 48"></polygon>
                <mask id="mask-2" fill="white">
                    <use xlink:href="#path-1"></use>
                </mask>
                <use id="a08-third-party-liability-r" fill="#C5281C" xlink:href="#path-1"></use>
                <polygon id="Color-Style" fill="#C5281C" mask="url(#mask-2)" points="0 0 48 0 48 48 0 48"></polygon>
            </g>
        </g>
    </g>
</svg>