<?xml version="1.0" encoding="UTF-8"?>
<svg width="32px" height="32px" viewBox="0 0 32 32" version="1.1" xmlns="http://www.w3.org/2000/svg" xmlns:xlink="http://www.w3.org/1999/xlink">
    <!-- Generator: sketchtool 63.1 (101010) - https://sketch.com -->
    <title>FCDACA28-DF69-4246-9F33-A7F733D2CEFC</title>
    <desc>Created with sketchtool.</desc>
    <defs>
        <path d="M30.9312,0.639952167 L1.0816,0.639952167 C0.963954665,0.638256818 0.850616308,0.684222417 0.767419362,0.767419362 C0.684222417,0.850616308 0.638256818,0.963954665 0.64,1.0816 L0.64,30.8992 C0.63285883,31.0201107 0.6764291,31.1385278 0.760233667,31.2259761 C0.844038235,31.3134243 0.960494949,31.3619919 1.0816,31.36 L30.9312,31.36 C30.9819951,31.3691068 31.0340049,31.3691068 31.0848,31.36 C31.1298301,31.3394903 31.1709706,31.3113416 31.2064,31.2768 C31.2677744,31.1426944 31.2852762,31.0858135 31.2896,31.0272 C31.2900086,31.0172519 31.2900086,21.0353852 31.2896,1.0816 C31.2961425,0.865900397 31.1436298,0.677982942 30.9312,0.639952167 Z M13.3248,30.4576 L10.9504,23.808 L14.2016,19.5712 L19.4432,23.1424 L29.5808,30.4576 L13.3248,30.4576 Z M6.7008,15.6736 L1.5168,18.272 L1.5168,4.768 L7.9168,7.7312 L7.9872,12.384 L6.7008,15.6736 Z M1.5168,19.2512 L7.04,16.4672 L9.2992,17.3952 L1.5168,26.8032 L1.5168,19.2512 Z M10.3744,17.4976 C10.4644892,17.3905146 10.4975877,17.2466404 10.4633489,17.1109531 C10.42911,16.9752657 10.3317113,16.8643208 10.2016,16.8128 L7.6096,15.744 L8.5632,13.2928 L11.0656,16.2368 C11.1835245,16.3767464 11.3764012,16.4279675 11.5482212,16.3649669 C11.7200412,16.3019662 11.8340911,16.1382053 11.8336,15.9552 L11.8336,12.96 L12.6208,14.5216 C12.6841388,14.6463075 12.8035567,14.732972 12.9417565,14.7545261 C13.0799563,14.7760802 13.2200935,14.7298968 13.3184,14.6304 L15.5648,12.352 L15.5648,16 C15.5647837,16.1416898 15.6337451,16.2745175 15.7496422,16.3560275 C15.8655392,16.4375375 16.0138612,16.4575245 16.1472,16.4096 L19.6672,15.1296 L22.0288,16.4096 L17.3184,17.0496 C17.1924775,17.0653286 17.0796925,17.1352361 17.0095845,17.241013 C16.9394766,17.3467899 16.91903,17.4778985 16.9536,17.6 L17.92,21.0496 L14.3488,18.6176 C14.1580227,18.4888848 13.9000115,18.5309518 13.76,18.7136 L10.496,22.9696 L8.4864,19.7696 L10.3744,17.4976 Z M19.9744,22.4384 L19.072,21.7984 L17.92,17.8496 L23.3856,17.12 L29.0624,17.9904 L29.1264,17.9904 C29.2324497,17.9904347 29.3348627,17.9517453 29.4144,17.8816 L30.4704,16.9536 L30.4704,30.0416 L19.9744,22.4384 Z M30.496,15.7888 L29.0176,17.0688 L23.552,16.256 L19.9232,14.2592 C19.8092782,14.2077247 19.6787218,14.2077247 19.5648,14.2592 L16.4416,15.36 L16.4416,11.3728 L17.92,7.4816 L22.72,7.4816 C22.8705809,7.47720351 23.0081792,7.39524576 23.0837605,7.26493309 C23.1593418,7.13462042 23.162156,6.97448786 23.0912,6.8416 L19.7888,1.5168 L30.496,1.5168 L30.496,15.7888 Z M18.7584,1.5168 L21.9584,6.6368 L17.6512,6.6368 C17.4692187,6.6357945 17.3058269,6.74812633 17.2416,6.9184 L15.6288,11.0784 L13.1264,13.6384 L11.7824,10.9824 C11.6925171,10.7998372 11.4881253,10.7039307 11.2902683,10.7514778 C11.0924113,10.7990248 10.9539155,10.9773306 10.9568,11.1808 L10.9568,14.8224 L8.8512,12.3456 L8.7808,7.4944 C8.77839022,7.32563479 8.67861753,7.17348144 8.5248,7.104 L1.4848,3.8592 L1.4848,1.5168 L18.7584,1.5168 Z M1.5168,28.16 L7.9168,20.48 L10.0864,23.9232 L12.4224,30.4576 L1.5424,30.4576 L1.5168,28.16 Z" id="path-1"></path>
    </defs>
    <g id="Breakpoint-S" stroke="none" stroke-width="1" fill="none" fill-rule="evenodd">
        <g id="05_Home-contracts-S" transform="translate(-16.000000, -722.000000)">
            <g id="06_List_Items/09_Accordions/06.09.06_Left_Icon_Text_Badge/S-Copy-8" transform="translate(0.000000, 702.000000)">
                <g id="icons/products/red/A-car-home/a01-fire" transform="translate(16.000000, 20.000000)">
                    <g id="icons/products/red/A-car-home/a13-glass-insurance">
                        <polygon id="Rectangle-path" fill-opacity="0" fill="#FFFFFF" fill-rule="nonzero" points="-3.78956126e-14 0 32 0 32 32 -3.78956126e-14 32"></polygon>
                        <mask id="mask-2" fill="white">
                            <use xlink:href="#path-1"></use>
                        </mask>
                        <use id="a13-glass-insurance" fill="#C5281C" xlink:href="#path-1"></use>
                        <polygon id="Color-Style" fill="#C5281C" mask="url(#mask-2)" points="0 0 32 0 32 32 0 32"></polygon>
                    </g>
                </g>
            </g>
        </g>
    </g>
</svg>