<?xml version="1.0" encoding="UTF-8"?>
<svg width="48px" height="48px" viewBox="0 0 48 48" version="1.1" xmlns="http://www.w3.org/2000/svg" xmlns:xlink="http://www.w3.org/1999/xlink">
    <!-- Generator: sketchtool 62 (101010) - https://sketch.com -->
    <title>6D5EB9FE-2C87-4D9A-B506-94A23A9ABC10</title>
    <desc>Created with sketchtool.</desc>
    <defs>
        <path d="M36.6816,29.5542857 C35.6380493,28.6326206 34.7209947,27.571642 33.9552,26.4 C33.5904,25.8612245 33.2448,25.3322449 32.8896,24.7640816 L32.3136,23.882449 L31.68,22.9910204 C30.9719025,21.8640094 30.0788455,20.8698828 29.04,20.0522449 C27.5220427,18.9265723 25.7032331,18.3010937 23.8272,18.2595918 C22.1249325,18.1582033 20.4375162,18.6334349 19.0272,19.6114286 C18.022576,20.3153153 17.1345889,21.1784339 16.3968,22.1681633 C15.6,23.2653061 14.8128,24.3526531 14.0448,25.4497959 L13.6992,25.9493878 C12.7708082,27.3061606 11.6916262,28.5487155 10.4832,29.6522449 C9.33069622,30.6376733 8.35600673,31.8212248 7.6032,33.1493878 C6.25832441,35.3051553 5.69458649,37.8729559 6.0096,40.4081633 C6.32250198,43.1028623 7.8728966,45.4850075 10.1856,46.8244898 C11.4046077,47.5629159 12.8001248,47.9426484 14.2176,47.9216327 C14.8001033,47.9196617 15.3813909,47.8672285 15.9552,47.764898 C16.8192,47.6179592 17.664,47.3926531 18.4608,47.1771429 C18.8928,47.0595918 19.3248,46.9420408 19.7664,46.8538776 L20.3808,46.7069388 C21.1584,46.5110204 21.9168,46.3346939 22.6656,46.2171429 C23.8064842,46.1027916 24.9582448,46.2023904 26.064,46.5110204 L28.2528,47.0791837 L29.1264,47.3044898 L30,47.5297959 C30.8622057,47.761361 31.7485625,47.886339 32.64,47.9020408 C33.1748987,47.902109 33.7085612,47.8496219 34.2336,47.7453061 C38.3655682,47.0328198 41.3773038,43.3615921 41.3376,39.0857143 C41.3395152,37.8414521 41.1216322,36.6070247 40.6944,35.4416327 C39.8715308,33.1616693 38.4900224,31.1348004 36.6816,29.5542857 Z M23.7984,19.5918367 C25.4166691,19.6216012 26.9874717,20.1547486 28.3008,21.12 C29.2214112,21.8421691 30.0137144,22.7202235 30.6432,23.7159184 L31.2192,24.6073469 L31.8048,25.5085714 C32.1504,26.0571429 32.5056,26.5959184 32.8608,27.1346939 C33.6893523,28.4004167 34.6805963,29.546973 35.808,30.5436735 C37.4672358,31.9772428 38.7367897,33.8226031 39.4944,35.9020408 C39.8692692,36.9198795 40.0611579,37.9983704 40.0608,39.0857143 C40.0959462,42.7145599 37.5391271,45.8304028 34.032,46.4326531 C32.8012852,46.6437159 31.5403686,46.5802189 30.336,46.2465306 L29.4816,46.0408163 L28.5984,45.8155102 L26.4,45.237551 C25.1309784,44.8880004 23.8094182,44.7817123 22.5024,44.9240816 C21.6864,45.0416327 20.8992,45.237551 20.1024,45.4334694 L19.5072,45.5706122 C19.056,45.6685714 18.6048,45.7861224 18.144,45.9134694 C17.3472,46.1289796 16.5696,46.3346939 15.7632,46.4718367 C14.0995849,46.8322622 12.3641849,46.5568794 10.8864,45.6979592 C8.91975394,44.5587036 7.60113589,42.5331375 7.3344,40.2416327 C7.06446867,38.0012549 7.57044578,35.7350651 8.7648,33.835102 C9.43310395,32.6396924 10.3004836,31.572291 11.328,30.6808163 C12.6147767,29.5140443 13.7648343,28.1991667 14.7552,26.762449 L15.1008,26.2628571 C15.8688,25.1755102 16.656,24.0881633 17.4336,23.0106122 C18.0808932,22.1373854 18.8621527,21.3765687 19.7472,20.757551 C20.8147328,19.9986531 22.0845444,19.5918367 23.3856,19.5918367 L23.7984,19.5918367 Z M39.264,13.2832653 C40.3941907,12.5193233 41.7715831,12.2347091 43.104,12.4897959 C44.7762566,12.800823 46.1430271,14.0296348 46.656,15.6832653 C46.785892,16.0354705 46.8823347,16.3995911 46.944,16.7706122 C47.04,17.0546939 47.04,17.3583673 47.04,17.6326531 L47.04,17.6326531 L47.088,18.0146939 L47.088,18.0146939 L47.088,18.1028571 C47.0377212,21.5135004 45.0364132,24.5786425 41.9712,25.9395918 C41.3180797,26.1952361 40.6258538,26.3312008 39.9264,26.3412467 C38.7837531,26.3448744 37.6836195,25.8993483 36.8544,25.0971429 C36.0521165,24.3373184 35.5102929,23.3345773 35.3088,22.2367347 C34.9859791,20.6257314 35.160379,18.9522316 35.808,17.4465306 C36.478034,15.7075387 37.6932033,14.2436869 39.264,13.2832653 Z M1.7376,14.8506122 C2.81309946,12.709787 5.31292812,11.7617228 7.4976,12.6661224 C8.78786794,13.1564993 9.90464526,14.0299412 10.704,15.1738776 C11.8339804,16.6935866 12.4504238,18.5462854 12.4608,20.4538776 C12.4767548,21.5345344 12.2467208,22.604226 11.7888,23.5787755 C11.0540172,25.2239952 9.45178361,26.2859371 7.68,26.3020408 C6.88334721,26.309563 6.09546009,26.1320205 5.376,25.7828571 C3.6552005,24.8999835 2.32232111,23.3895594 1.6416,21.5510204 C1.21502869,20.5378 0.983617218,19.4502526 0.96,18.3477551 C0.910606633,17.1322948 1.17898423,15.9253056 1.7376,14.8506122 Z M42.1152,13.7142857 C41.3233114,13.7356013 40.5525765,13.9796764 39.888,14.4195918 C38.5747561,15.2407545 37.5627325,16.4799671 37.008,17.9461224 C36.4633623,19.200985 36.3124653,20.5970388 36.576,21.9428571 C36.7212429,22.7673661 37.1216242,23.5226729 37.7184,24.0979592 C38.3075473,24.6739784 39.0912666,24.9966698 39.9072,24.9991837 C40.4522472,24.9902939 40.9915716,24.884206 41.5008,24.6857143 L41.5008,24.6857143 L41.472,24.6759184 C44.0108174,23.5211326 45.6624676,20.9682556 45.7056,18.1322449 L45.7056,18.1322449 L45.7056,17.7306122 C45.6864,17.4759184 45.6288,17.2114286 45.6288,16.9665306 C45.5782358,16.6821083 45.5010833,16.4032835 45.3984,16.1338776 C45.0377596,14.9236589 44.0450011,14.0202577 42.8256,13.7926531 C42.5920357,13.7418975 42.3539983,13.7156386 42.1152,13.7142857 Z M5.76,13.7142583 C4.54798559,13.709249 3.43550116,14.3979299 2.88,15.4971429 C2.44846025,16.3660814 2.24974515,17.3360004 2.304,18.3085714 C2.3277688,19.2292434 2.52325547,20.1368601 2.88,20.9828571 C3.43166762,22.5187741 4.52787551,23.7876627 5.952,24.5387755 C6.7595567,25.0149595 7.72610593,25.1227486 8.6153971,24.8357964 C9.50468827,24.5488441 10.2347734,23.893593 10.6272,23.0302041 C10.995076,22.2413565 11.1790753,21.3763451 11.1648,20.5028571 C11.1565096,18.8810447 10.6307978,17.3061099 9.6672,16.0163265 C9.01781589,15.0797564 8.10830257,14.363228 7.056,13.9591837 C6.6410608,13.8019432 6.20260348,13.7190903 5.76,13.7142583 Z M31.3344,0.979591837 C33.1614189,0.722569294 34.9711845,1.55643982 35.9904,3.12489796 C36.7471598,4.19564 37.2080305,5.45422107 37.3248,6.76897959 C37.645879,9.47383013 36.9152281,12.1993521 35.2896,14.3608163 C34.4713735,15.5229019 33.3213596,16.3987381 31.9968,16.8685714 C31.4770611,17.0299869 30.9368779,17.112503 30.3936,17.1134694 C28.8827649,17.1134694 27.460101,16.3876205 26.5536,15.1542857 C25.7075384,14.0162653 25.1919361,12.6585241 25.0656,11.2359184 C25.0173963,10.9766907 24.9821507,10.715128 24.9599822,10.4522449 L24.9599822,10.4522449 L24.9599822,10.0702041 C24.9550383,7.37429642 25.9895154,4.78458517 27.84,2.86040816 C28.7595384,1.84387984 29.9929863,1.1799922 31.3344,0.979591837 Z M12.24,3.00734694 C13.7562073,0.947669549 16.5879233,0.461061219 18.6816,1.90040816 C19.9531585,2.74848432 20.9541725,3.9571917 21.5616,5.37795918 C22.2071776,6.79847184 22.5350928,8.34770384 22.5216,9.91346939 C22.5357464,11.5093611 22.1027536,13.0761562 21.2736,14.4293878 C20.5576192,15.6470818 19.3856722,16.5139065 18.0288,16.8293878 C17.7286717,16.8937063 17.4233908,16.929776 17.1168,16.9371429 C16.3064777,16.9279559 15.5112268,16.712459 14.8032,16.3102041 C13.3810677,15.5038473 12.2528585,14.2495179 11.5872,12.7346939 C10.4981462,10.4637665 10.2923439,7.85623704 11.0112,5.43673469 C11.2641012,4.55392804 11.6813032,3.72910262 12.24,3.00734694 Z M32.0544,2.33142857 C31.8753835,2.31972711 31.6958165,2.31972711 31.5168,2.33142857 C30.4725451,2.48783516 29.5130485,3.00678118 28.8,3.80081633 C27.1994917,5.50637041 26.3232259,7.78750569 26.3616,10.1485714 L26.3616,11.1477551 C26.456883,12.3293697 26.8760545,13.4597885 27.5712,14.4097959 C28.2349271,15.3154329 29.2757689,15.8519119 30.384,15.8595918 C30.7939462,15.8581905 31.2014776,15.7954832 31.5936,15.6734694 C32.6587275,15.2837902 33.5804713,14.5689685 34.2336,13.6261224 C35.6590515,11.7329325 36.3001386,9.34485863 36.0192,6.97469388 C35.9267517,5.89451168 35.5521439,4.85938454 34.9344,3.97714286 C34.3097576,2.96598488 33.2256862,2.34651553 32.0544,2.33142857 Z M15.936,2.4 C14.8551918,2.42553601 13.8446128,2.95195435 13.1904,3.83020408 C12.7517377,4.4153623 12.4259667,5.08020116 12.2304,5.78938776 C11.5985954,7.91958633 11.7909925,10.2158701 12.768,12.2057143 C13.320105,13.4494886 14.2488552,14.4796019 15.4176,15.1444898 C15.9338239,15.4418936 16.5144834,15.6034872 17.1072,15.6146939 C18.3795999,15.5666157 19.5359328,14.8467832 20.16,13.7142857 C20.8380121,12.579379 21.1874738,11.2718694 21.168,9.94285714 C21.1850038,8.57109652 20.9030044,7.21262745 20.3424,5.96571429 C19.8360151,4.76515041 18.9946873,3.74312917 17.9232,3.02693878 C17.3321272,2.63062898 16.6431351,2.41325988 15.936,2.4 Z" id="path-1"></path>
    </defs>
    <g id="Asset-Artboard-Page" stroke="none" stroke-width="1" fill="none" fill-rule="evenodd">
        <g id="icons/products/red/A-car-home/a14-pet-insurance">
            <g>
                <polygon id="Rectangle-path" fill-opacity="0" fill="#FFFFFF" fill-rule="nonzero" points="-5.68434189e-14 0 48 0 48 48 -5.68434189e-14 48"></polygon>
                <mask id="mask-2" fill="white">
                    <use xlink:href="#path-1"></use>
                </mask>
                <use id="a14-pet-insurance" fill="#C5281C" xlink:href="#path-1"></use>
                <polygon id="Color-Style" fill="#C5281C" mask="url(#mask-2)" points="0 0 48 0 48 48 0 48"></polygon>
            </g>
        </g>
    </g>
</svg>