<?xml version="1.0" encoding="UTF-8"?>
<svg width="49px" height="48px" viewBox="0 0 49 48" version="1.1" xmlns="http://www.w3.org/2000/svg" xmlns:xlink="http://www.w3.org/1999/xlink">
    <!-- Generator: sketchtool 60.1 (101010) - https://sketch.com -->
    <title>59FE5860-3E4D-4B3C-ABC5-18D529D3E575</title>
    <desc>Created with sketchtool.</desc>
    <defs>
        <path d="M35.5001,45.2783 C29.3591,45.2783 24.3631,40.2823 24.3631,34.1413 C24.3631,32.7963 24.6151,31.5123 25.0551,30.3173 C25.2271,29.8483 25.4221,29.3913 25.6531,28.9533 C27.4331,25.5913 30.8871,23.2663 34.8951,23.0473 C35.0981,23.0363 35.2941,23.0053 35.5001,23.0053 C35.7561,23.0053 36.0071,23.0263 36.2591,23.0433 C38.4251,23.1903 40.4191,23.9573 42.0711,25.1713 C42.4371,25.4403 42.7851,25.7283 43.1151,26.0383 C45.2771,28.0703 46.6371,30.9473 46.6371,34.1413 C46.6371,40.2823 41.6411,45.2783 35.5001,45.2783 L35.5001,45.2783 Z M42.8301,23.0963 C42.8301,23.3923 42.7781,23.6723 42.7051,23.9453 C40.9421,22.6953 38.8491,21.8913 36.5781,21.6963 C37.1061,20.5843 38.2301,19.8083 39.5411,19.8083 C41.3541,19.8083 42.8301,21.2833 42.8301,23.0963 L42.8301,23.0963 Z M24.1421,28.9533 L14.5541,28.9533 C14.1771,28.9533 13.8721,29.2593 13.8721,29.6353 C13.8721,30.0123 14.1771,30.3173 14.5541,30.3173 L23.6041,30.3173 C23.2151,31.5243 23.0001,32.8073 23.0001,34.1413 C23.0001,35.5813 23.2581,36.9603 23.7071,38.2483 L23.5711,38.2483 C22.6421,38.2543 21.7841,38.2483 21.2131,38.0393 C20.8071,37.8903 20.5361,37.6433 20.5361,36.9213 C20.5361,36.5453 20.2311,36.2393 19.8541,36.2393 L12.8721,36.2393 C12.4951,36.2393 12.1901,36.5453 12.1901,36.9213 L12.1901,41.3593 C12.1901,42.2193 11.4901,42.9193 10.6301,42.9193 L5.7961,42.9193 C4.9361,42.9193 4.2361,42.2193 4.2361,41.3593 L4.2361,36.9213 C4.2361,36.5453 3.9311,36.2393 3.5541,36.2393 L3.2281,36.2393 C2.1991,36.2393 1.3631,35.4033 1.3631,34.3763 L1.3631,21.2283 C1.3631,19.1233 2.4061,17.1413 4.1521,15.9273 L6.3481,14.4093 C6.4741,14.3213 6.5671,14.1953 6.6111,14.0473 L8.8431,6.7143 C9.4261,4.1533 11.6691,2.3633 14.2971,2.3633 L33.7031,2.3633 C36.3311,2.3633 38.5741,4.1533 39.1701,6.7613 L41.3881,14.0473 C41.4331,14.1953 41.5261,14.3213 41.6521,14.4093 L43.8501,15.9293 C45.5951,17.1273 46.6371,19.1083 46.6371,21.2283 L46.6371,28.5203 C45.9311,27.1353 44.9871,25.8893 43.8421,24.8593 C44.0651,24.3153 44.1931,23.7203 44.1931,23.0963 C44.1931,20.5313 42.1061,18.4453 39.5411,18.4453 C37.4821,18.4453 35.7531,19.7983 35.1421,21.6543 C30.2551,21.7943 26.0701,24.7493 24.1421,28.9533 L24.1421,28.9533 Z M44.6231,14.8063 L42.6231,13.4233 L40.4861,6.4113 C39.7611,3.2253 36.9721,1.0003 33.7031,1.0003 L14.2971,1.0003 C11.0281,1.0003 8.2381,3.2253 7.5251,6.3633 L5.3761,13.4233 L3.3751,14.8073 C1.2621,16.2763 0.0001,18.6763 0.0001,21.2283 L0.0001,34.3763 C0.0001,36.0353 1.2591,37.4063 2.8721,37.5843 L2.8721,41.3593 C2.8721,42.9713 4.1841,44.2823 5.7961,44.2823 L10.6301,44.2823 C12.2421,44.2823 13.5541,42.9713 13.5541,41.3593 L13.5541,37.6033 L19.2401,37.6033 C19.4141,38.4323 19.9251,39.0193 20.7441,39.3203 C21.5411,39.6123 22.5311,39.6123 23.5711,39.6113 L24.2781,39.6113 C26.3121,43.7663 30.5701,46.6413 35.5001,46.6413 C42.2361,46.6413 47.7291,41.2823 47.9771,34.6053 C47.9821,34.5283 48.0001,34.4543 48.0001,34.3763 L48.0001,21.2283 C48.0001,18.6583 46.7371,16.2573 44.6231,14.8063 L44.6231,14.8063 Z M8.4351,19.8083 C6.6221,19.8083 5.1461,21.2833 5.1461,23.0963 C5.1461,24.9103 6.6221,26.3843 8.4351,26.3843 C10.2481,26.3843 11.7241,24.9103 11.7241,23.0963 C11.7241,21.2833 10.2481,19.8083 8.4351,19.8083 L8.4351,19.8083 Z M8.4351,27.7483 C5.8701,27.7483 3.7831,25.6613 3.7831,23.0963 C3.7831,20.5313 5.8701,18.4453 8.4351,18.4453 C11.0001,18.4453 13.0871,20.5313 13.0871,23.0963 C13.0871,25.6613 11.0001,27.7483 8.4351,27.7483 L8.4351,27.7483 Z M14.3201,5.2123 C13.0451,5.2123 11.9441,6.0923 11.6441,7.3513 L9.4621,14.6743 C9.4521,14.7173 9.4751,14.8033 9.5271,14.8703 C9.5881,14.9453 9.6751,14.9883 9.7671,14.9883 L38.2331,14.9883 C38.3251,14.9883 38.4121,14.9453 38.4721,14.8703 C38.5251,14.8033 38.5481,14.7173 38.5291,14.6453 L36.3891,7.3853 C36.0971,6.0883 34.9971,5.2123 33.7031,5.2123 L14.3201,5.2123 Z M38.2331,16.3523 L9.7671,16.3523 C9.2581,16.3523 8.7831,16.1223 8.4631,15.7223 C8.1451,15.3243 8.0261,14.7983 8.1471,14.3143 L10.3271,6.9983 C10.7661,5.1593 12.4111,3.8493 14.3201,3.8493 L33.7031,3.8493 C35.6401,3.8493 37.2871,5.1623 37.7081,7.0443 L39.8451,14.2863 C39.9741,14.7983 39.8551,15.3243 39.5371,15.7223 C39.2171,16.1223 38.7411,16.3523 38.2331,16.3523 L38.2331,16.3523 Z M36.7851,39.6543 C37.5931,39.1153 38.2521,38.3763 38.6401,37.5743 C39.1021,36.6503 39.2251,35.6443 38.9931,34.6653 C38.7161,33.5213 37.8851,32.9853 37.2741,32.5923 L36.9821,33.0523 C37.5701,33.4313 38.2361,33.8613 38.4631,34.7923 C38.6641,35.6443 38.5561,36.5213 38.1501,37.3343 C37.8031,38.0523 37.2111,38.7153 36.4821,39.2003 C36.3571,39.2843 36.3231,39.4533 36.4071,39.5793 C36.4591,39.6573 36.5461,39.7003 36.6341,39.7003 C36.6861,39.7003 36.7381,39.6853 36.7851,39.6543 L36.7851,39.6543 Z M30.8361,31.6213 C30.4291,32.8593 30.5861,34.8973 30.8751,35.8523 C31.1621,36.8343 31.7841,37.4383 32.2951,37.8553 C32.5011,38.0223 32.7211,38.1913 32.9541,38.3463 C33.0901,38.4413 33.2211,38.5323 33.3641,38.6243 C34.5861,39.4473 35.8441,40.2953 36.1551,42.2813 L36.2241,42.3313 C37.6781,41.3803 38.8631,40.0563 39.5931,38.5983 C40.3991,36.9713 40.6141,35.2123 40.2121,33.5113 C39.7461,31.6123 38.4191,30.7573 37.2481,30.0043 C35.8001,29.0703 34.6701,28.3413 35.7601,26.0573 C35.7671,26.0423 35.7791,26.0033 35.7611,25.9783 C35.7291,25.9343 35.6771,25.9563 35.6591,25.9683 C33.4421,27.7703 32.7401,30.2793 33.5871,33.4183 C33.7901,34.1773 33.8091,34.4653 33.6681,34.6493 C33.5981,34.7393 33.4951,34.7893 33.3771,34.7893 C31.8391,34.7893 31.1201,32.7723 30.8361,31.6213 L30.8361,31.6213 Z M36.2201,42.8773 C36.1331,42.8773 36.0431,42.8503 35.9981,42.8353 C35.7931,42.7583 35.6421,42.5683 35.6151,42.3583 C35.3421,40.6143 34.2861,39.9033 33.0641,39.0803 C32.9201,38.9873 32.7831,38.8923 32.6461,38.7973 C32.4041,38.6353 32.1711,38.4573 31.9501,38.2783 C31.3781,37.8103 30.6801,37.1313 30.3531,36.0073 C29.9791,34.7753 29.7791,31.8413 30.7341,30.6363 C30.8021,30.5513 30.9141,30.5143 31.0201,30.5433 C31.1241,30.5713 31.2021,30.6593 31.2181,30.7673 C31.3531,31.6933 31.9631,34.0323 33.2071,34.2303 C33.1921,34.1173 33.1551,33.9163 33.0601,33.5593 C32.1521,30.1943 32.9161,27.4953 35.3271,25.5363 C35.6161,25.3253 35.9941,25.3793 36.1971,25.6513 C36.3311,25.8303 36.3531,26.0673 36.2551,26.2863 C35.3691,28.1433 36.0901,28.6083 37.5251,29.5333 C38.7371,30.3143 40.2251,31.2713 40.7421,33.3833 C41.1751,35.2123 40.9451,37.0983 40.0811,38.8413 C39.3091,40.3843 38.0581,41.7823 36.5571,42.7783 C36.4771,42.8403 36.3571,42.8773 36.2201,42.8773 L36.2201,42.8773 Z" id="path-1"></path>
    </defs>
    <g id="Asset-Artboard-Page" stroke="none" stroke-width="1" fill="none" fill-rule="evenodd">
        <g id="icons/products/red/A-car-home/a16-burning-car" transform="translate(0.382023, 0.000000)">
            <g>
                <polygon id="Rectangle-path" fill-opacity="0" fill="#FFFFFF" fill-rule="nonzero" points="-5.68434189e-14 0 48 0 48 48 -5.68434189e-14 48"></polygon>
                <mask id="mask-2" fill="white">
                    <use xlink:href="#path-1"></use>
                </mask>
                <use id="a16-burning-car" fill="#C5281C" xlink:href="#path-1"></use>
                <polygon id="Color-Style" fill="#C5281C" mask="url(#mask-2)" points="0 0 48 0 48 48 0 48"></polygon>
            </g>
        </g>
    </g>
</svg>