<?xml version="1.0" encoding="UTF-8"?>
<svg width="49px" height="48px" viewBox="0 0 49 48" version="1.1" xmlns="http://www.w3.org/2000/svg" xmlns:xlink="http://www.w3.org/1999/xlink">
    <!-- Generator: sketchtool 60.1 (101010) - https://sketch.com -->
    <title>A39D3C8B-47BC-413A-A836-EACD2DF75EE3</title>
    <desc>Created with sketchtool.</desc>
    <defs>
        <path d="M39.5417,28.3851 C37.7287,28.3851 36.2537,26.9101 36.2537,25.0971 C36.2537,23.2831 37.7287,21.8081 39.5417,21.8081 C41.3537,21.8081 42.8297,23.2831 42.8297,25.0971 C42.8297,26.9101 41.3537,28.3851 39.5417,28.3851 L39.5417,28.3851 Z M39.5417,20.4451 C36.9767,20.4451 34.8897,22.5311 34.8897,25.0971 C34.8897,27.6621 36.9767,29.7491 39.5417,29.7491 C42.1057,29.7491 44.1927,27.6621 44.1927,25.0971 C44.1927,22.5311 42.1057,20.4451 39.5417,20.4451 L39.5417,20.4451 Z M8.4357,28.3851 C6.6217,28.3851 5.1467,26.9101 5.1467,25.0971 C5.1467,23.2831 6.6217,21.8081 8.4357,21.8081 C10.2487,21.8081 11.7237,23.2831 11.7237,25.0971 C11.7237,26.9101 10.2487,28.3851 8.4357,28.3851 L8.4357,28.3851 Z M8.4357,20.4451 C5.8697,20.4451 3.7827,22.5311 3.7827,25.0971 C3.7827,27.6621 5.8697,29.7491 8.4357,29.7491 C10.9997,29.7491 13.0867,27.6621 13.0867,25.0971 C13.0867,22.5311 10.9997,20.4451 8.4357,20.4451 L8.4357,20.4451 Z M11.6437,9.3511 C11.7727,8.8091 12.0577,8.3441 12.4337,7.9831 L13.3987,11.3961 C13.3987,11.4191 13.4227,11.4431 13.4227,11.4661 C13.5617,11.8121 13.9537,11.9971 14.3227,11.8581 L17.8567,10.5651 L20.0267,13.7981 C20.1437,13.9831 20.3737,14.1211 20.6047,14.1211 C20.6747,14.1211 20.7667,14.0981 20.8357,14.0751 L24.9457,12.7131 C25.3157,12.5971 25.5007,12.2041 25.3857,11.8351 C25.2707,11.4661 24.8767,11.2811 24.5077,11.3961 L20.9047,12.5971 L18.7337,9.3411 C18.5497,9.0641 18.2267,8.9711 17.9257,9.0641 L14.6007,10.2881 L13.7387,7.2821 C13.9277,7.2411 14.1207,7.2131 14.3197,7.2131 L33.7037,7.2131 C34.9967,7.2131 36.0967,8.0881 36.3887,9.3861 L38.5297,16.6451 C38.5477,16.7171 38.5257,16.8031 38.4727,16.8701 C38.4117,16.9461 38.3247,16.9891 38.2337,16.9891 L9.7667,16.9891 C9.6747,16.9891 9.5877,16.9461 9.5277,16.8701 C9.4747,16.8031 9.4517,16.7171 9.4617,16.6741 L11.6437,9.3511 Z M9.7667,18.3521 L38.2337,18.3521 C38.7417,18.3521 39.2167,18.1231 39.5367,17.7221 C39.8547,17.3241 39.9737,16.7981 39.8457,16.2871 L37.7077,9.0441 C37.2867,7.1631 35.6407,5.8491 33.7037,5.8491 L14.3197,5.8491 C12.4107,5.8491 10.7657,7.1591 10.3267,8.9981 L8.1467,16.3141 C8.0257,16.7981 8.1447,17.3241 8.4627,17.7231 C8.7837,18.1231 9.2587,18.3521 9.7667,18.3521 L9.7667,18.3521 Z M34.1047,31.6351 C34.1047,32.0121 33.7997,32.3171 33.4227,32.3171 L14.5537,32.3171 C14.1777,32.3171 13.8717,32.0121 13.8717,31.6351 C13.8717,31.2591 14.1777,30.9541 14.5537,30.9541 L33.4227,30.9541 C33.7997,30.9541 34.1047,31.2591 34.1047,31.6351 L34.1047,31.6351 Z M46.6367,36.3761 C46.6367,37.4041 45.8007,38.2401 44.7727,38.2401 L44.4457,38.2401 C44.0687,38.2401 43.7647,38.5451 43.7647,38.9221 L43.7647,43.3591 C43.7647,44.2191 43.0637,44.9191 42.2037,44.9191 L37.3937,44.9191 C36.5327,44.9191 35.8327,44.2191 35.8327,43.3591 L35.8327,38.9221 C35.8327,38.5451 35.5277,38.2401 35.1507,38.2401 L30.1067,38.2401 C29.7297,38.2401 29.4247,38.5451 29.4247,38.9221 C29.4247,39.6431 29.1537,39.8901 28.7477,40.0391 C28.1787,40.2491 27.3167,40.2481 26.3917,40.2481 L23.5707,40.2481 C22.6417,40.2541 21.7837,40.2491 21.2137,40.0391 C20.8077,39.8901 20.5367,39.6431 20.5367,38.9221 C20.5367,38.5451 20.2307,38.2401 19.8547,38.2401 L12.8717,38.2401 C12.4957,38.2401 12.1897,38.5451 12.1897,38.9221 L12.1897,43.3591 C12.1897,44.2191 11.4907,44.9191 10.6307,44.9191 L5.7967,44.9191 C4.9367,44.9191 4.2357,44.2191 4.2357,43.3591 L4.2357,38.9221 C4.2357,38.5451 3.9307,38.2401 3.5547,38.2401 L3.2277,38.2401 C2.1997,38.2401 1.3637,37.4041 1.3637,36.3761 L1.3637,23.2281 C1.3637,21.1231 2.4067,19.1411 4.1517,17.9281 L6.3477,16.4101 C6.4737,16.3221 6.5667,16.1951 6.6117,16.0481 L8.8427,8.7141 C9.4267,6.1531 11.6687,4.3641 14.2967,4.3641 L33.7037,4.3641 C36.3307,4.3641 38.5737,6.1531 39.1697,8.7611 L41.3887,16.0481 C41.4337,16.1951 41.5257,16.3221 41.6527,16.4101 L43.8497,17.9291 C45.5947,19.1271 46.6367,21.1081 46.6367,23.2281 L46.6367,36.3761 Z M44.6237,16.8061 L42.6237,15.4231 L40.4867,8.4111 C39.7617,5.2251 36.9717,3.0001 33.7037,3.0001 L14.2967,3.0001 C11.0277,3.0001 8.2387,5.2251 7.5257,8.3641 L5.3767,15.4231 L3.3757,16.8071 C1.2617,18.2761 -0.0003,20.6771 -0.0003,23.2281 L-0.0003,36.3761 C-0.0003,38.0361 1.2597,39.4071 2.8727,39.5841 L2.8727,43.3591 C2.8727,44.9711 4.1847,46.2821 5.7967,46.2821 L10.6307,46.2821 C12.2417,46.2821 13.5547,44.9711 13.5547,43.3591 L13.5547,39.6031 L19.2397,39.6031 C19.4137,40.4321 19.9257,41.0191 20.7437,41.3201 C21.5417,41.6121 22.5307,41.6131 23.5707,41.6121 L26.3917,41.6121 C27.4397,41.6121 28.4207,41.6121 29.2187,41.3201 C30.0367,41.0191 30.5477,40.4321 30.7217,39.6031 L34.4697,39.6031 L34.4697,43.3591 C34.4697,44.9711 35.7807,46.2821 37.3937,46.2821 L42.2037,46.2821 C43.8157,46.2821 45.1277,44.9711 45.1277,43.3591 L45.1277,39.5841 C46.7407,39.4071 47.9997,38.0361 47.9997,36.3761 L47.9997,23.2281 C47.9997,20.6591 46.7367,18.2581 44.6237,16.8061 L44.6237,16.8061 Z" id="path-1"></path>
    </defs>
    <g id="Asset-Artboard-Page" stroke="none" stroke-width="1" fill="none" fill-rule="evenodd">
        <g id="icons/products/red/A-car-home/a17-car-glass-breakage" transform="translate(0.382023, 0.000000)">
            <g>
                <polygon id="Rectangle-path" fill-opacity="0" fill="#FFFFFF" fill-rule="nonzero" points="0 0 48 0 48 48 0 48"></polygon>
                <mask id="mask-2" fill="white">
                    <use xlink:href="#path-1"></use>
                </mask>
                <use id="a17-car-glass-breakage" fill="#C5281C" xlink:href="#path-1"></use>
                <polygon id="Color-Style" fill="#C5281C" mask="url(#mask-2)" points="0 0 48 0 48 48 0 48"></polygon>
            </g>
        </g>
    </g>
</svg>