<?xml version="1.0" encoding="UTF-8"?>
<svg width="49px" height="48px" viewBox="0 0 49 48" version="1.1" xmlns="http://www.w3.org/2000/svg" xmlns:xlink="http://www.w3.org/1999/xlink">
    <!-- Generator: sketchtool 60.1 (101010) - https://sketch.com -->
    <title>B121E5AC-1158-4C57-9134-59E840283674</title>
    <desc>Created with sketchtool.</desc>
    <defs>
        <path d="M35.5001,45.1561425 C29.3591,45.1561425 24.3631,40.2303083 24.3631,34.1755549 C24.3631,32.8504305 24.6151,31.5834776 25.0551,30.4052606 C25.2271,29.9428474 25.4221,29.4922657 25.6531,29.0614031 C27.4331,25.7456344 30.8871,23.4532876 34.8951,23.2383493 C35.0981,23.2265178 35.2941,23.1959532 35.5001,23.1959532 C35.7561,23.1959532 36.0071,23.2166583 36.2591,23.2334195 C38.4251,23.378355 40.4191,24.1345829 42.0711,25.3315331 C42.4371,25.5967551 42.7851,25.8807103 43.1151,26.1863566 C45.2771,28.1898184 46.6371,31.0264127 46.6371,34.1755549 C46.6371,40.2303083 41.6411,45.1561425 35.5001,45.1561425 L35.5001,45.1561425 Z M42.8301,23.2856752 C42.8301,23.577518 42.7781,23.8545715 42.7051,24.1227515 C40.9421,22.890307 38.8491,22.0975987 36.5781,21.9053373 C37.1061,20.8089547 38.2301,20.0438531 39.5411,20.0438531 C41.3541,20.0438531 42.8301,21.4981376 42.8301,23.2856752 L42.8301,23.2856752 Z M24.1421,29.0614031 L14.5541,29.0614031 C14.1771,29.0614031 13.8721,29.3621196 13.8721,29.7328389 C13.8721,30.1045442 14.1771,30.4052606 14.5541,30.4052606 L23.6041,30.4052606 C23.2151,31.595309 23.0001,32.8602901 23.0001,34.1755549 C23.0001,35.5963169 23.2581,36.9549637 23.7071,38.2248746 L23.5711,38.2248746 C22.6421,38.2307903 21.7841,38.2258605 21.2131,38.0188098 C20.8071,37.8719025 20.5361,37.6283714 20.5361,36.9174974 C20.5361,36.5457922 20.2311,36.2450757 19.8541,36.2450757 L12.8721,36.2450757 C12.4951,36.2450757 12.1901,36.5457922 12.1901,36.9174974 L12.1901,41.2921825 C12.1901,42.1401043 11.4901,42.8302732 10.6301,42.8302732 L5.7961,42.8302732 C4.9361,42.8302732 4.2361,42.1401043 4.2361,41.2921825 L4.2361,36.9174974 C4.2361,36.5457922 3.9311,36.2450757 3.5541,36.2450757 L3.2281,36.2450757 C2.1991,36.2450757 1.3631,35.4198309 1.3631,34.4072544 L1.3631,21.4439101 C1.3631,19.3684735 2.4061,17.4143095 4.1521,16.2173594 L6.3481,14.7206788 C6.4741,14.6349006 6.5671,14.5096843 6.6111,14.3647488 L8.8431,7.13375036 C9.4261,4.60871804 11.6691,2.8438575 14.2971,2.8438575 L33.7031,2.8438575 C36.3311,2.8438575 38.5741,4.60871804 39.1701,7.18009027 L41.3881,14.3647488 C41.4331,14.5096843 41.5261,14.6349006 41.6521,14.7206788 L43.8501,16.2193313 C45.5951,17.4005061 46.6371,19.3536842 46.6371,21.4439101 L46.6371,28.6334984 C45.9311,27.2679499 44.9871,26.0404351 43.8421,25.0239149 C44.0651,24.487555 44.1931,23.9018974 44.1931,23.2856752 C44.1931,20.756699 42.1061,18.6999956 39.5411,18.6999956 C37.4821,18.6999956 35.7531,20.0339936 35.1421,21.8649131 C30.2551,22.001961 26.0701,24.9154598 24.1421,29.0614031 L24.1421,29.0614031 Z M44.6231,15.1121032 L42.6231,13.7485265 L40.4861,6.83500581 C39.7611,3.69375123 36.9721,1.5 33.7031,1.5 L14.2971,1.5 C11.0281,1.5 8.2381,3.69375123 7.5251,6.78866589 L5.3761,13.7485265 L3.3751,15.1130891 C1.2621,16.5614579 9.99999975e-05,18.9277514 9.99999975e-05,21.4439101 L9.99999975e-05,34.4072544 C9.99999975e-05,36.0439408 1.2591,37.3956859 2.8721,37.5702 L2.8721,41.2921825 C2.8721,42.8815429 4.1841,44.1741307 5.7961,44.1741307 L10.6301,44.1741307 C12.2421,44.1741307 13.5541,42.8815429 13.5541,41.2921825 L13.5541,37.5889332 L19.2401,37.5889332 C19.4141,38.4062904 19.9251,38.9850463 20.7441,39.281819 C21.5411,39.569718 22.5311,39.569718 23.5711,39.569718 L24.2781,39.569718 C26.3121,43.6653776 30.5701,46.5 35.5001,46.5 C42.2361,46.5 47.7291,41.2162639 47.9771,34.6330383 C47.9821,34.5571197 48.0001,34.4851449 48.0001,34.4072544 L48.0001,21.4439101 C48.0001,18.9109901 46.7371,16.5427247 44.6231,15.1121032 L44.6231,15.1121032 Z M8.4351,20.0438531 C6.6221,20.0438531 5.1461,21.4981376 5.1461,23.2856752 C5.1461,25.0741986 6.6221,26.5284832 8.4351,26.5284832 C10.2481,26.5284832 11.7241,25.0741986 11.7241,23.2856752 C11.7241,21.4981376 10.2481,20.0438531 8.4351,20.0438531 L8.4351,20.0438531 Z M8.4351,27.8723407 C5.8701,27.8723407 3.7831,25.8156373 3.7831,23.2856752 C3.7831,20.756699 5.8701,18.6999956 8.4351,18.6999956 C11.0001,18.6999956 13.0871,20.756699 13.0871,23.2856752 C13.0871,25.8156373 11.0001,27.8723407 8.4351,27.8723407 L8.4351,27.8723407 Z M14.3201,5.65383099 C13.0451,5.65383099 11.9441,6.52048597 11.6441,7.76180408 L9.4621,14.981957 C9.4521,15.0243531 9.4751,15.1091453 9.5271,15.1752043 C9.5881,15.249151 9.6751,15.2915471 9.7671,15.2915471 L38.2331,15.2915471 C38.3251,15.2915471 38.4121,15.249151 38.4721,15.1752043 C38.5251,15.1091453 38.5481,15.0243531 38.5291,14.9533643 L36.3891,7.79631253 C36.0971,6.51654214 34.9971,5.65383099 33.7031,5.65383099 L14.3201,5.65383099 Z M38.2331,16.6363905 L9.7671,16.6363905 C9.2581,16.6363905 8.7831,16.4106067 8.4631,16.0152385 C8.1451,15.6228282 8.0261,15.1042155 8.1471,14.627013 L10.3271,7.41376175 C10.7661,5.60058938 12.4111,4.30898753 14.3201,4.30898753 L33.7031,4.30898753 C35.6401,4.30898753 37.2871,5.6045332 37.7081,7.45911571 L39.8451,14.5994062 C39.9741,15.1042155 39.8551,15.6228282 39.5371,16.0152385 C39.2171,16.4106067 38.7411,16.6363905 38.2331,16.6363905 L38.2331,16.6363905 Z M41.9901,36.0005587 C41.9901,36.2421178 41.7911,36.439309 41.5461,36.439309 C41.3011,36.439309 41.1021,36.2421178 41.1021,36.0005587 L40.5561,36.0005587 L40.5561,37.7614754 C40.5561,40.0764992 38.6461,41.9596744 36.2981,41.9596744 L34.7021,41.9596744 C32.3541,41.9596744 30.4431,40.0764992 30.4431,37.7614754 L30.4431,36.0005587 L29.8981,36.0005587 C29.8981,36.2421178 29.6981,36.439309 29.4531,36.439309 C29.2091,36.439309 29.0101,36.2421178 29.0101,36.0005587 L29.0101,34.1568217 C29.0101,33.9152626 29.2091,33.7190574 29.4531,33.7190574 C29.6981,33.7190574 29.8981,33.9152626 29.8981,34.1568217 L29.8981,34.2140071 C29.8981,34.5255691 30.1561,34.7799457 30.4721,34.7799457 L40.5281,34.7799457 C40.8441,34.7799457 41.1021,34.5255691 41.1021,34.2140071 L41.1021,34.1568217 C41.1021,33.9152626 41.3011,33.7190574 41.5461,33.7190574 C41.7911,33.7190574 41.9901,33.9152626 41.9901,34.1568217 L41.9901,36.0005587 Z M34.5051,33.440032 C34.5051,33.8925856 33.9361,34.2593611 33.2331,34.2593611 C32.5311,34.2593611 31.9631,33.8925856 31.9631,33.440032 C31.9631,32.9874784 32.5311,32.6207029 33.2331,32.6207029 C33.9361,32.6207029 34.5051,32.9874784 34.5051,33.440032 L34.5051,33.440032 Z M39.0371,33.440032 C39.0371,33.8925856 38.4681,34.2593611 37.7671,34.2593611 C37.0641,34.2593611 36.4951,33.8925856 36.4951,33.440032 C36.4951,32.9874784 37.0641,32.6207029 37.7671,32.6207029 C38.4681,32.6207029 39.0371,32.9874784 39.0371,33.440032 L39.0371,33.440032 Z M30.4431,30.5916062 C30.4431,28.2755965 32.3541,26.3924213 34.7021,26.3924213 L36.2981,26.3924213 C38.6461,26.3924213 40.5561,28.2755965 40.5561,30.5916062 L40.5561,31.6239018 L30.4431,31.6239018 L30.4431,30.5916062 Z M41.5461,33.1807257 C41.3871,33.1807257 41.2351,33.2191779 41.1021,33.285237 L41.1021,30.5916062 C41.1021,27.9798098 38.9471,25.8540895 36.2981,25.8540895 L34.7021,25.8540895 C32.0531,25.8540895 29.8981,27.9798098 29.8981,30.5916062 L29.8981,31.6239018 L29.8981,33.285237 C29.7651,33.2191779 29.6131,33.1807257 29.4531,33.1807257 C28.9071,33.1807257 28.4641,33.61849 28.4641,34.1568217 L28.4641,36.0005587 C28.4641,36.5388905 28.9071,36.9766548 29.4531,36.9766548 C29.6131,36.9766548 29.7651,36.9401744 29.8981,36.8731294 L29.8981,37.7614754 C29.8981,40.3722859 32.0531,42.4970202 34.7021,42.4970202 L36.2981,42.4970202 C38.9471,42.4970202 41.1021,40.3722859 41.1021,37.7614754 L41.1021,36.8731294 C41.2351,36.9401744 41.3871,36.9766548 41.5461,36.9766548 C42.0921,36.9766548 42.5361,36.5388905 42.5361,36.0005587 L42.5361,34.1568217 C42.5361,33.61849 42.0921,33.1807257 41.5461,33.1807257 L41.5461,33.1807257 Z" id="path-1"></path>
    </defs>
    <g id="Asset-Artboard-Page" stroke="none" stroke-width="1" fill="none" fill-rule="evenodd">
        <g id="icons/products/red/A-car-home/a18-stolen-car" transform="translate(0.382023, 0.000000)">
            <g>
                <polygon id="Rectangle-path" fill-opacity="0" fill="#FFFFFF" fill-rule="nonzero" points="0 0 48 0 48 48 0 48"></polygon>
                <mask id="mask-2" fill="white">
                    <use xlink:href="#path-1"></use>
                </mask>
                <use id="a18-stolen-car" fill="#C5281C" xlink:href="#path-1"></use>
                <polygon id="Color-Style" fill="#C5281C" mask="url(#mask-2)" points="0 0 48 0 48 48 0 48"></polygon>
            </g>
        </g>
    </g>
</svg>