<?xml version="1.0" encoding="UTF-8"?>
<svg width="50px" height="48px" viewBox="0 0 50 48" version="1.1" xmlns="http://www.w3.org/2000/svg" xmlns:xlink="http://www.w3.org/1999/xlink">
    <!-- Generator: sketchtool 60.1 (101010) - https://sketch.com -->
    <title>B7F8290A-F1FA-4A93-B9F0-E3680AEDEDA7</title>
    <desc>Created with sketchtool.</desc>
    <defs>
        <path d="M47.4776318,21.1461 L47.4776318,21.1461 C47.452111,20.7671 47.1427985,20.4631 46.7548818,20.4631 L2.24450622,20.4631 C1.85863121,20.4631 1.54829788,20.7671 1.54829788,21.1711 L1.54829788,21.8281 C1.57381871,22.2081 1.88415205,22.5111 2.27104789,22.5111 L4.10344374,22.5111 C4.54138125,22.5111 4.87723542,22.8391 4.87723542,23.2691 L4.87723542,26.3021 C4.87723542,26.8081 5.28965209,27.2121 5.80619376,27.2121 L7.06998545,27.2121 C7.58652712,27.2121 7.99894379,26.8081 7.99894379,26.3021 L7.99894379,23.2691 C7.99894379,22.8391 8.33377713,22.5111 8.77273547,22.5111 L40.4338817,22.5111 C40.8718192,22.5111 41.2066526,22.8391 41.2066526,23.2691 L41.2066526,26.3021 C41.2066526,26.8081 41.6211109,27.2121 42.1366317,27.2121 L43.3749026,27.2121 C43.8904234,27.2121 44.3038609,26.8081 44.3038609,26.3021 L44.3038609,23.2691 C44.3038609,22.8391 44.6397151,22.5111 45.0776526,22.5111 L46.7804026,22.5111 C47.1672985,22.5111 47.4776318,22.2081 47.4776318,21.8281 L47.4776318,21.1461 Z M48.9996937,21.1961 L48.9996937,21.8541 C48.9996937,23.0671 47.9676322,24.0531 46.7293613,24.0531 L45.8259238,24.0531 L45.8259238,26.3281 C45.8259238,27.6921 44.7172988,28.7791 43.3493821,28.7791 L42.1100904,28.7791 C40.7431945,28.7541 39.6335487,27.6671 39.6335487,26.3281 L39.6335487,24.0531 L9.5475481,24.0531 L9.5475481,26.3281 C9.5475481,27.6671 8.41136058,28.7541 7.04446472,28.7541 L5.80619386,28.7541 C4.43827717,28.7291 3.32863131,27.6421 3.32863131,26.3021 L3.32863131,24.0271 L2.27104796,24.0271 C1.00725627,24.0271 -0.000306250015,23.0161 -0.000306250015,21.8031 L-0.000306250015,21.1461 C-0.000306250015,19.9331 1.00725627,18.9471 2.27104796,18.9471 L46.7548822,18.9471 C48.0196947,18.9471 49.0262364,19.9331 48.9996937,21.1961 L48.9996937,21.1961 Z M40.5114654,43.2881 C40.7176737,44.1731 40.1490695,45.0581 39.2466529,45.2601 C39.1180279,45.2851 38.988382,45.3101 38.859757,45.3101 L30.4215486,45.3101 C29.5181111,45.3101 28.796382,44.6281 28.7443195,43.7431 L27.7377778,25.7461 L26.1891736,25.7461 L27.1967361,43.8191 C27.2988195,45.5121 28.7187986,46.8271 30.4215486,46.8271 L38.859757,46.8271 C40.6400904,46.8271 42.0845696,45.3861 42.0845696,43.6421 C42.0845696,43.4151 42.0590487,43.1871 42.0080071,42.9591 L38.008382,25.7461 L36.4077153,25.7461 L40.5114654,43.2881 Z M26.4995071,3.1491 C26.4739862,2.8201 26.7322571,2.5421 27.0670904,2.5171 L27.0926112,2.5171 L30.5256738,2.5171 C30.8094654,2.5171 31.0667154,2.7191 31.1187779,2.9981 L34.4732363,17.3801 L36.0728821,17.3801 L32.6663613,2.6441 C32.4346321,1.6831 31.5567154,0.9751 30.5511946,1.0001 L27.1191529,1.0001 C25.9329446,1.0001 24.9519237,1.9611 24.9519237,3.1241 L24.9519237,3.2501 L25.7257154,17.3801 L27.2743196,17.3801 L26.4995071,3.1491 Z M18.062319,2.9981 C18.1133607,2.7191 18.3716315,2.5171 18.656444,2.5171 L22.0874649,2.5171 C22.4233191,2.5171 22.7060899,2.7951 22.7060899,3.1241 L22.7060899,3.1491 L21.9333191,17.3541 L23.4809024,17.3541 L24.2546941,3.2251 C24.3322774,2.0621 23.4033191,1.0511 22.2160899,1.0001 L22.1129857,1.0001 L18.656444,1.0001 C17.6488815,1.0001 16.7719856,1.6831 16.5392356,2.6441 L13.1337356,17.3801 L14.7333815,17.3801 L18.062319,2.9981 Z M21.4678187,25.7461 L23.0164228,25.7461 L22.0098812,43.8191 C21.9333187,45.5121 20.5133396,46.8271 18.7850687,46.8271 L10.3468606,46.8271 C10.1141106,46.8271 9.88238139,46.8011 9.6496314,46.7511 C7.89583976,46.3721 6.81171478,44.6781 7.19861061,42.9591 L11.1982355,25.7461 L12.7978813,25.7461 L8.72169391,43.2881 C8.69617308,43.4151 8.66963141,43.5411 8.66963141,43.6671 C8.66963141,44.5771 9.41790224,45.3101 10.3468606,45.3101 L18.7850687,45.3101 C19.6874854,45.3101 20.4102354,44.6281 20.4612771,43.7431 L21.4678187,25.7461 Z" id="path-1"></path>
    </defs>
    <g id="Asset-Artboard-Page" stroke="none" stroke-width="1" fill="none" fill-rule="evenodd">
        <g id="icons/products/red/A-car-home/a19-french-highway" transform="translate(0.382023, 0.000000)">
            <g>
                <polygon id="Rectangle-path" fill-opacity="0" fill="#FFFFFF" fill-rule="nonzero" points="-5.80276568e-14 0 49 0 49 48 -5.80276568e-14 48"></polygon>
                <mask id="mask-2" fill="white">
                    <use xlink:href="#path-1"></use>
                </mask>
                <use id="a19-french-highway" fill="#C5281C" xlink:href="#path-1"></use>
                <polygon id="Color-Style" fill="#C5281C" mask="url(#mask-2)" points="0 0 49 0 49 48 0 48"></polygon>
            </g>
        </g>
    </g>
</svg>