<?xml version="1.0" encoding="UTF-8"?>
<svg width="49px" height="48px" viewBox="0 0 49 48" version="1.1" xmlns="http://www.w3.org/2000/svg" xmlns:xlink="http://www.w3.org/1999/xlink">
    <!-- Generator: sketchtool 60.1 (101010) - https://sketch.com -->
    <title>B76A32B7-FC2C-4759-9361-C751418B5769</title>
    <desc>Created with sketchtool.</desc>
    <defs>
        <path d="M44.906,36.49213 C44.906,36.8519333 44.616,37.1442105 44.259,37.1442105 L42.113,37.1442105 C41.756,37.1442105 41.466,36.8519333 41.466,36.49213 L41.466,33.7638733 C41.466,33.4665568 41.552,33.1742796 41.707,32.92534 C41.99,32.4597122 42.502,32.1734821 43.044,32.1734821 L43.328,32.1734821 C44.197,32.1734821 44.906,32.8880495 44.906,33.7638733 L44.906,36.49213 Z M41.145,33.7638733 L41.145,35.5165288 L39.937,35.5165288 L40.079,35.2000631 L40.135,35.0750894 L40.819,33.547185 L41.028,33.0805493 L41.281,33.0805493 C41.188,33.2982455 41.145,33.5280358 41.145,33.7638733 L41.145,33.7638733 Z M36.275,35.5165288 L36.46,35.1002857 L36.639,34.6961369 L37.354,33.0876043 L39.543,33.0876043 L38.402,35.5225759 L36.275,35.5165288 Z M34.876,35.2121573 L34.734,35.5165288 L32.601,35.5165288 L32.786,35.1002857 L32.965,34.6961369 L33.679,33.0876043 L35.868,33.0876043 L34.876,35.2121573 Z M31.066,35.5165288 L28.939,35.5165288 L29.136,35.0821444 L29.309,34.6961369 L30.024,33.0876043 L32.213,33.0876043 L31.066,35.5165288 Z M29.581,35.8400494 L31.565,35.8400494 L29.581,35.8400494 Z M28.446,33.2982455 L27.398,35.5165288 L26.665,35.5165288 C26.128,35.5165288 25.69,35.0750894 25.69,34.5348805 L25.69,34.0692526 C25.69,33.5280358 26.128,33.0876043 26.665,33.0876043 L28.545,33.0876043 L28.446,33.2982455 Z M26.665,32.7580365 C25.943,32.7580365 25.364,33.3476302 25.364,34.0692526 L25.364,34.5348805 C25.364,35.255495 25.943,35.8460965 26.665,35.8460965 L41.145,35.8460965 L41.145,36.4981771 C41.145,37.038386 41.577,37.4737783 42.113,37.4737783 L44.259,37.4737783 C44.795,37.4737783 45.2260316,37.038386 45.2260316,36.4981771 L45.2260316,33.7709283 C45.232,32.7015968 44.382,31.8449222 43.334,31.8449222 L43.051,31.8449222 C42.39,31.8449222 41.78,32.1926313 41.435,32.7580365 L26.665,32.7580365 Z M35.5,45.6262971 C29.359,45.6262971 24.364,40.591066 24.364,34.4018439 C24.364,33.0462823 24.616,31.7521997 25.054,30.547816 C25.226,30.0751332 25.423,29.6145446 25.654,29.1731052 C27.432,25.7836973 30.886,23.4414482 34.894,23.2207285 C35.097,23.2096421 35.295,23.1783987 35.5,23.1783987 C35.756,23.1783987 36.007,23.1995636 36.259,23.216697 C38.426,23.3648514 40.42,24.1378742 42.072,25.3614071 C42.437,25.6325195 42.786,25.922781 43.115,26.2352152 C45.277,28.2831715 46.636,31.1827631 46.636,34.4018439 C46.636,40.591066 41.64,45.6262971 35.5,45.6262971 L35.5,45.6262971 Z M42.83,23.2701132 C42.83,23.5684376 42.778,23.8506363 42.705,24.1247721 C40.943,22.8659644 38.848,22.055651 36.578,21.8591198 C37.106,20.7383878 38.231,19.9562943 39.542,19.9562943 C41.354,19.9562943 42.83,21.4428767 42.83,23.2701132 L42.83,23.2701132 Z M24.142,29.1731052 L14.553,29.1731052 C14.177,29.1731052 13.872,29.4815081 13.872,29.8604606 C13.872,30.240421 14.177,30.547816 14.553,30.547816 L23.604,30.547816 C23.216,31.764294 23.001,33.0573687 23.001,34.4018439 C23.001,35.8531515 23.258,37.2429801 23.708,38.5410941 L23.571,38.5410941 C22.641,38.5471412 21.784,38.5410941 21.214,38.3304529 C20.807,38.1802829 20.537,37.9313433 20.537,37.2036738 C20.537,36.8247213 20.231,36.5163184 19.855,36.5163184 L12.872,36.5163184 C12.496,36.5163184 12.19,36.8247213 12.19,37.2036738 L12.19,41.6765232 C12.19,42.5432763 11.491,43.248773 10.631,43.248773 L5.797,43.248773 C4.936,43.248773 4.236,42.5432763 4.236,41.6765232 L4.236,37.2036738 C4.236,36.8247213 3.93,36.5163184 3.554,36.5163184 L3.227,36.5163184 C2.2,36.5163184 1.364,35.6737538 1.364,34.6386893 L1.364,21.3874448 C1.364,19.2659153 2.407,17.2683517 4.152,16.0448188 L6.347,14.5148987 C6.473,14.4262077 6.567,14.2982104 6.612,14.1500561 L8.843,6.75947381 C9.427,4.17735575 11.669,2.37430765 14.297,2.37430765 L33.704,2.37430765 C36.331,2.37430765 38.574,4.17735575 39.17,6.80684288 L41.388,14.1500561 C41.433,14.2982104 41.526,14.4262077 41.653,14.5148987 L43.849,16.0468345 C45.594,17.2542417 46.636,19.2507975 46.636,21.3874448 L46.636,28.7367051 C45.93,27.3408294 44.988,26.0850452 43.842,25.0469572 C44.066,24.4986854 44.193,23.8990132 44.193,23.2701132 C44.193,20.6849716 42.106,18.5815835 39.542,18.5815835 C37.483,18.5815835 35.753,19.9462157 35.141,21.8167899 C30.256,21.9578893 26.07,24.9360934 24.142,29.1731052 L24.142,29.1731052 Z M44.624,14.9150161 L42.624,13.5211561 L40.487,6.45409451 C39.761,3.24307649 36.971,1.00060471 33.704,1.00060471 L14.297,1.00060471 C11.028,1.00060471 8.239,3.24307649 7.526,6.40571759 L5.377,13.5211561 L3.376,14.916024 C1.261,16.3965593 0,18.8154052 0,21.3874448 L0,34.6386893 C0,36.3107165 1.26,37.6924823 2.873,37.87188 L2.873,41.6765232 C2.873,43.3011814 4.184,44.622476 5.797,44.622476 L10.631,44.622476 C12.242,44.622476 13.554,43.3011814 13.554,41.6765232 L13.554,37.8910292 L19.24,37.8910292 C19.414,38.7265389 19.926,39.3181484 20.744,39.6205041 C21.542,39.9158049 22.531,39.9158049 23.571,39.914797 L24.278,39.914797 C26.312,44.1024241 30.571,47 35.5,47 C42.236,47 47.729,41.5989185 47.976,34.8694875 C47.982,34.7918828 48,34.7173018 48,34.6386893 L48,21.3874448 C48,18.7972639 46.737,16.3774101 44.624,14.9150161 L44.624,14.9150161 Z M8.435,19.9562943 C6.622,19.9562943 5.147,21.4428767 5.147,23.2701132 C5.147,25.0983576 6.622,26.5839322 8.435,26.5839322 C10.249,26.5839322 11.723,25.0983576 11.723,23.2701132 C11.723,21.4428767 10.249,19.9562943 8.435,19.9562943 L8.435,19.9562943 Z M8.435,27.958643 C5.87,27.958643 3.783,25.8552549 3.783,23.2701132 C3.783,20.6849716 5.87,18.5815835 8.435,18.5815835 C11,18.5815835 13.087,20.6849716 13.087,23.2701132 C13.087,25.8552549 11,27.958643 8.435,27.958643 L8.435,27.958643 Z M14.32,5.24567938 C13.045,5.24567938 11.944,6.13258957 11.643,7.40147585 L9.462,14.7819796 C9.452,14.8253173 9.474,14.9119926 9.528,14.9795187 C9.588,15.0551076 9.675,15.0984453 9.766,15.0984453 L38.234,15.0984453 C38.325,15.0984453 38.412,15.0551076 38.472,14.9795187 C38.526,14.9119926 38.548,14.8253173 38.53,14.7527519 L36.388,7.43574283 C36.096,6.12855816 34.997,5.24567938 33.704,5.24567938 L14.32,5.24567938 Z M38.234,16.4731561 L9.766,16.4731561 C9.259,16.4731561 8.784,16.24135 8.463,15.838209 C8.144,15.4370837 8.026,14.9069533 8.147,14.4191527 L10.327,7.04570392 C10.765,5.1922632 12.411,3.87197644 14.32,3.87197644 L33.704,3.87197644 C35.64,3.87197644 37.287,5.19528676 37.708,7.09206513 L39.845,14.3909328 C39.973,14.9069533 39.855,15.4370837 39.537,15.838209 C39.217,16.24135 38.742,16.4731561 38.234,16.4731561 L38.234,16.4731561 Z" id="path-1"></path>
    </defs>
    <g id="Asset-Artboard-Page" stroke="none" stroke-width="1" fill="none" fill-rule="evenodd">
        <g id="icons/products/red/A-car-home/a20-closed-parking" transform="translate(0.382023, 0.000000)">
            <g>
                <polygon id="Rectangle-path" fill-opacity="0" fill="#FFFFFF" fill-rule="nonzero" points="0 0 48 0 48 48 0 48"></polygon>
                <mask id="mask-2" fill="white">
                    <use xlink:href="#path-1"></use>
                </mask>
                <use id="a20-closed-parking" fill="#C5281C" xlink:href="#path-1"></use>
                <polygon id="Color-Style" fill="#C5281C" mask="url(#mask-2)" points="0 0 48 0 48 48 0 48"></polygon>
            </g>
        </g>
    </g>
</svg>