<?xml version="1.0" encoding="UTF-8"?>
<svg width="49px" height="48px" viewBox="0 0 49 48" version="1.1" xmlns="http://www.w3.org/2000/svg" xmlns:xlink="http://www.w3.org/1999/xlink">
    <!-- Generator: sketchtool 60.1 (101010) - https://sketch.com -->
    <title>B4D29D3C-DCD8-43D8-AC8C-382378B9F1C3</title>
    <desc>Created with sketchtool.</desc>
    <defs>
        <path d="M35.4997,45.2783 C32.6777,45.2783 30.1057,44.2153 28.1417,42.4783 L30.0027,40.6133 L30.0027,41.9463 L33.5907,41.9463 L33.5907,37.0193 L34.3447,36.2643 L35.3007,36.2643 C36.6887,36.2643 37.7687,36.1893 38.5137,36.0423 C39.0807,35.9183 39.6437,35.6643 40.1877,35.2853 C40.7377,34.9033 41.1967,34.3713 41.5527,33.7043 C41.9077,33.0373 42.0877,32.2093 42.0877,31.2443 C42.0877,30.3773 41.9277,29.6183 41.6317,28.9633 L43.8207,26.7703 C45.5667,28.7353 46.6367,31.3123 46.6367,34.1413 C46.6367,40.2823 41.6407,45.2783 35.4997,45.2783 L35.4997,45.2783 Z M37.0337,33.5703 C37.2107,33.5353 37.3657,33.4973 37.4857,33.4503 C37.9397,33.2733 38.3027,32.9903 38.5627,32.6103 C38.7457,32.3423 38.8407,32.0323 38.8957,31.7033 L41.2127,29.3823 C41.4237,29.9243 41.5417,30.5403 41.5417,31.2443 C41.5417,32.1193 41.3837,32.8613 41.0707,33.4483 C40.7567,34.0373 40.3547,34.5053 39.8767,34.8373 C39.3917,35.1743 38.8937,35.4013 38.4017,35.5073 C37.6977,35.6473 36.6537,35.7183 35.3007,35.7183 L34.8897,35.7183 L37.0337,33.5703 Z M38.2067,30.4653 L35.5237,33.1533 C35.3567,33.1563 35.1787,33.1593 34.9817,33.1593 L33.5907,33.1593 L33.5907,29.4313 L34.7867,29.4313 C35.8607,29.4313 36.5807,29.4643 36.9267,29.5293 C37.3627,29.6083 37.7127,29.7993 37.9957,30.1113 C38.0897,30.2153 38.1447,30.3423 38.2067,30.4653 L38.2067,30.4653 Z M33.0447,37.5663 L33.0447,41.4003 L30.5487,41.4003 L30.5487,40.0663 L33.0447,37.5663 Z M30.5487,38.1363 L30.5487,26.8823 L35.1567,26.8823 C36.9747,26.8823 38.1677,26.9553 38.7047,27.0993 C39.3867,27.2783 39.9767,27.6533 40.4727,28.1943 L38.6247,30.0473 C38.5587,29.9413 38.4857,29.8393 38.4007,29.7453 C38.0387,29.3453 37.5757,29.0923 37.0257,28.9923 C36.6427,28.9203 35.9107,28.8853 34.7867,28.8853 L33.0447,28.8853 L33.0447,33.7053 L34.9727,33.7053 L30.5487,38.1363 Z M25.0547,30.3173 C25.2267,29.8483 25.4227,29.3913 25.6537,28.9533 C27.4327,25.5913 30.8867,23.2663 34.8947,23.0473 C35.0977,23.0363 35.2947,23.0053 35.4997,23.0053 C35.7557,23.0053 36.0067,23.0263 36.2587,23.0433 C38.4247,23.1903 40.4187,23.9573 42.0717,25.1713 C42.3437,25.3703 42.5957,25.5933 42.8477,25.8153 L40.8577,27.8093 C40.2927,27.1993 39.6227,26.7763 38.8447,26.5723 C38.2547,26.4143 37.0487,26.3373 35.1567,26.3373 L30.0027,26.3373 L30.0027,38.6833 L27.1767,41.5153 C25.4327,39.5493 24.3637,36.9703 24.3637,34.1413 C24.3637,32.7963 24.6157,31.5123 25.0547,30.3173 L25.0547,30.3173 Z M42.8297,23.0963 C42.8297,23.3923 42.7777,23.6723 42.7047,23.9453 C40.9427,22.6953 38.8487,21.8913 36.5787,21.6963 C37.1057,20.5843 38.2307,19.8083 39.5417,19.8083 C41.3547,19.8083 42.8297,21.2833 42.8297,23.0963 L42.8297,23.0963 Z M24.1417,28.9533 L14.5537,28.9533 C14.1767,28.9533 13.8717,29.2593 13.8717,29.6353 C13.8717,30.0123 14.1767,30.3173 14.5537,30.3173 L23.6037,30.3173 C23.2147,31.5243 22.9997,32.8073 22.9997,34.1413 C22.9997,35.5813 23.2577,36.9603 23.7077,38.2483 L23.5707,38.2483 C22.6417,38.2543 21.7837,38.2483 21.2127,38.0393 C20.8077,37.8903 20.5367,37.6433 20.5367,36.9213 C20.5367,36.5453 20.2307,36.2393 19.8547,36.2393 L12.8727,36.2393 C12.4957,36.2393 12.1907,36.5453 12.1907,36.9213 L12.1907,41.3593 C12.1907,42.2193 11.4907,42.9193 10.6297,42.9193 L5.7957,42.9193 C4.9357,42.9193 4.2357,42.2193 4.2357,41.3593 L4.2357,36.9213 C4.2357,36.5453 3.9307,36.2393 3.5547,36.2393 L3.2277,36.2393 C2.1997,36.2393 1.3637,35.4033 1.3637,34.3763 L1.3637,21.2283 C1.3637,19.1233 2.4067,17.1413 4.1517,15.9273 L6.3477,14.4093 C6.4737,14.3213 6.5667,14.1953 6.6117,14.0473 L8.8427,6.7143 C9.4257,4.1533 11.6687,2.3633 14.2967,2.3633 L33.7037,2.3633 C36.3317,2.3633 38.5737,4.1533 39.1697,6.7613 L41.3887,14.0473 C41.4327,14.1953 41.5257,14.3213 41.6527,14.4093 L43.8497,15.9293 C45.5947,17.1273 46.6367,19.1083 46.6367,21.2283 L46.6367,28.5203 C45.9307,27.1353 44.9877,25.8893 43.8417,24.8593 C44.0657,24.3153 44.1937,23.7203 44.1937,23.0963 C44.1937,20.5313 42.1067,18.4453 39.5417,18.4453 C37.4827,18.4453 35.7527,19.7983 35.1417,21.6543 C30.2547,21.7943 26.0697,24.7493 24.1417,28.9533 L24.1417,28.9533 Z M44.6237,14.8063 L42.6237,13.4233 L40.4867,6.4113 C39.7607,3.2253 36.9717,1.0003 33.7037,1.0003 L14.2967,1.0003 C11.0277,1.0003 8.2387,3.2253 7.5257,6.3633 L5.3767,13.4233 L3.3747,14.8073 C1.2617,16.2763 -0.0003,18.6763 -0.0003,21.2283 L-0.0003,34.3763 C-0.0003,36.0353 1.2587,37.4063 2.8727,37.5843 L2.8727,41.3593 C2.8727,42.9713 4.1847,44.2823 5.7957,44.2823 L10.6297,44.2823 C12.2427,44.2823 13.5537,42.9713 13.5537,41.3593 L13.5537,37.6033 L19.2397,37.6033 C19.4147,38.4323 19.9257,39.0193 20.7437,39.3203 C21.5417,39.6123 22.5307,39.6123 23.5707,39.6113 L24.2777,39.6113 C26.3117,43.7663 30.5707,46.6413 35.4997,46.6413 C42.2357,46.6413 47.7297,41.2823 47.9767,34.6053 C47.9817,34.5283 47.9997,34.4543 47.9997,34.3763 L47.9997,21.2283 C47.9997,18.6583 46.7367,16.2573 44.6237,14.8063 L44.6237,14.8063 Z M8.4357,19.8083 C6.6217,19.8083 5.1467,21.2833 5.1467,23.0963 C5.1467,24.9103 6.6217,26.3843 8.4357,26.3843 C10.2487,26.3843 11.7237,24.9103 11.7237,23.0963 C11.7237,21.2833 10.2487,19.8083 8.4357,19.8083 L8.4357,19.8083 Z M8.4357,27.7483 C5.8697,27.7483 3.7837,25.6623 3.7837,23.0963 C3.7837,20.5313 5.8697,18.4453 8.4357,18.4453 C10.9997,18.4453 13.0867,20.5313 13.0867,23.0963 C13.0867,25.6623 10.9997,27.7483 8.4357,27.7483 L8.4357,27.7483 Z M14.3197,5.2133 C13.0447,5.2133 11.9447,6.0923 11.6437,7.3513 L9.4617,14.6743 C9.4527,14.7173 9.4747,14.8033 9.5277,14.8703 C9.5877,14.9453 9.6747,14.9883 9.7667,14.9883 L38.2337,14.9883 C38.3257,14.9883 38.4127,14.9453 38.4727,14.8703 C38.5257,14.8033 38.5477,14.7173 38.5297,14.6453 L36.3887,7.3853 C36.0967,6.0883 34.9967,5.2133 33.7037,5.2133 L14.3197,5.2133 Z M38.2337,16.3523 L9.7667,16.3523 C9.2587,16.3523 8.7837,16.1233 8.4627,15.7223 C8.1447,15.3243 8.0257,14.7983 8.1467,14.3143 L10.3277,6.9983 C10.7657,5.1593 12.4117,3.8493 14.3197,3.8493 L33.7037,3.8493 C35.6407,3.8493 37.2867,5.1633 37.7077,7.0443 L39.8447,14.2863 C39.9737,14.7983 39.8557,15.3243 39.5367,15.7223 C39.2167,16.1233 38.7417,16.3523 38.2337,16.3523 L38.2337,16.3523 Z" id="path-1"></path>
    </defs>
    <g id="Asset-Artboard-Page" stroke="none" stroke-width="1" fill="none" fill-rule="evenodd">
        <g id="icons/products/red/A-car-home/a21-not-in-closed-parking" transform="translate(0.382023, 0.000000)">
            <g>
                <polygon id="Rectangle-path" fill-opacity="0" fill="#FFFFFF" fill-rule="nonzero" points="-5.68434189e-14 0 48 0 48 48 -5.68434189e-14 48"></polygon>
                <mask id="mask-2" fill="white">
                    <use xlink:href="#path-1"></use>
                </mask>
                <use id="a21-not-in-closed-parking" fill="#C5281C" xlink:href="#path-1"></use>
                <polygon id="Color-Style" fill="#C5281C" mask="url(#mask-2)" points="0 0 48 0 48 48 0 48"></polygon>
            </g>
        </g>
    </g>
</svg>