<?xml version="1.0" encoding="UTF-8"?>
<svg width="49px" height="48px" viewBox="0 0 49 48" version="1.1" xmlns="http://www.w3.org/2000/svg" xmlns:xlink="http://www.w3.org/1999/xlink">
    <!-- Generator: sketchtool 60.1 (101010) - https://sketch.com -->
    <title>FD286FF0-D921-47E7-AC7E-CF7BA76A4061</title>
    <desc>Created with sketchtool.</desc>
    <defs>
        <path d="M35.4824,45.2783 C29.3444,45.2783 24.3514,40.2823 24.3514,34.1413 C24.3514,32.7963 24.6034,31.5123 25.0424,30.3173 C25.2144,29.8483 25.4094,29.3913 25.6414,28.9533 C27.4194,25.5913 30.8714,23.2663 34.8774,23.0473 C35.0804,23.0363 35.2764,23.0053 35.4824,23.0053 C35.7384,23.0053 35.9884,23.0263 36.2404,23.0433 C38.4054,23.1903 40.3994,23.9573 42.0504,25.1713 C42.4164,25.4403 42.7644,25.7283 43.0934,26.0383 C45.2544,28.0703 46.6134,30.9473 46.6134,34.1413 C46.6134,40.2823 41.6194,45.2783 35.4824,45.2783 L35.4824,45.2783 Z M42.8084,23.0963 C42.8084,23.3923 42.7564,23.6723 42.6834,23.9453 C40.9224,22.6953 38.8294,21.8913 36.5604,21.6963 C37.0874,20.5843 38.2114,19.8083 39.5224,19.8083 C41.3344,19.8083 42.8084,21.2833 42.8084,23.0963 L42.8084,23.0963 Z M24.1294,28.9533 L14.5464,28.9533 C14.1704,28.9533 13.8644,29.2593 13.8644,29.6353 C13.8644,30.0123 14.1704,30.3173 14.5464,30.3173 L23.5924,30.3173 C23.2034,31.5243 22.9884,32.8073 22.9884,34.1413 C22.9884,35.5813 23.2464,36.9603 23.6954,38.2483 L23.5594,38.2483 C22.6304,38.2543 21.7734,38.2483 21.2024,38.0393 C20.7964,37.8903 20.5264,37.6433 20.5264,36.9213 C20.5264,36.5453 20.2214,36.2393 19.8444,36.2393 L12.8654,36.2393 C12.4894,36.2393 12.1844,36.5453 12.1844,36.9213 L12.1844,41.3593 C12.1844,42.2193 11.4844,42.9193 10.6254,42.9193 L5.7934,42.9193 C4.9334,42.9193 4.2334,42.2193 4.2334,41.3593 L4.2334,36.9213 C4.2334,36.5453 3.9284,36.2393 3.5524,36.2393 L3.2264,36.2393 C2.1984,36.2393 1.3624,35.4033 1.3624,34.3763 L1.3624,21.2283 C1.3624,19.1233 2.4054,17.1413 4.1504,15.9273 L6.3444,14.4093 C6.4704,14.3213 6.5644,14.1953 6.6084,14.0473 L8.8384,6.7143 C9.4214,4.1533 11.6634,2.3633 14.2894,2.3633 L33.6864,2.3633 C36.3134,2.3633 38.5544,4.1533 39.1504,6.7613 L41.3674,14.0473 C41.4124,14.1953 41.5054,14.3213 41.6314,14.4093 L43.8284,15.9293 C45.5724,17.1273 46.6134,19.1083 46.6134,21.2283 L46.6134,28.5203 C45.9074,27.1353 44.9654,25.8893 43.8204,24.8593 C44.0444,24.3153 44.1714,23.7203 44.1714,23.0963 C44.1714,20.5313 42.0854,18.4453 39.5224,18.4453 C37.4634,18.4453 35.7344,19.7983 35.1244,21.6543 C30.2404,21.7943 26.0574,24.7493 24.1294,28.9533 L24.1294,28.9533 Z M44.6014,14.8063 L42.6024,13.4233 L40.4664,6.4113 C39.7414,3.2253 36.9534,1.0003 33.6864,1.0003 L14.2894,1.0003 C11.0224,1.0003 8.2344,3.2253 7.5224,6.3633 L5.3744,13.4233 L3.3734,14.8073 C1.2614,16.2763 0.0004,18.6763 0.0004,21.2283 L0.0004,34.3763 C0.0004,36.0353 1.2584,37.4063 2.8714,37.5843 L2.8714,41.3593 C2.8714,42.9713 4.1824,44.2823 5.7934,44.2823 L10.6254,44.2823 C12.2364,44.2823 13.5474,42.9713 13.5474,41.3593 L13.5474,37.6033 L19.2304,37.6033 C19.4044,38.4323 19.9154,39.0193 20.7334,39.3203 C21.5304,39.6123 22.5194,39.6123 23.5594,39.6113 L24.2664,39.6113 C26.2984,43.7663 30.5554,46.6413 35.4824,46.6413 C42.2144,46.6413 47.7064,41.2823 47.9524,34.6053 C47.9584,34.5283 47.9764,34.4543 47.9764,34.3763 L47.9764,21.2283 C47.9764,18.6583 46.7134,16.2573 44.6014,14.8063 L44.6014,14.8063 Z M8.4314,19.8083 C6.6184,19.8083 5.1444,21.2833 5.1444,23.0963 C5.1444,24.9103 6.6184,26.3843 8.4314,26.3843 C10.2434,26.3843 11.7174,24.9103 11.7174,23.0963 C11.7174,21.2833 10.2434,19.8083 8.4314,19.8083 L8.4314,19.8083 Z M8.4314,27.7483 C5.8674,27.7483 3.7814,25.6613 3.7814,23.0963 C3.7814,20.5313 5.8674,18.4453 8.4314,18.4453 C10.9944,18.4453 13.0804,20.5313 13.0804,23.0963 C13.0804,25.6613 10.9944,27.7483 8.4314,27.7483 L8.4314,27.7483 Z M14.3134,5.2123 C13.0384,5.2123 11.9384,6.0923 11.6374,7.3513 L9.4574,14.6743 C9.4474,14.7173 9.4694,14.8033 9.5234,14.8703 C9.5834,14.9453 9.6704,14.9883 9.7614,14.9883 L38.2144,14.9883 C38.3064,14.9883 38.3934,14.9453 38.4534,14.8703 C38.5064,14.8033 38.5284,14.7173 38.5104,14.6453 L36.3704,7.3853 C36.0784,6.0883 34.9794,5.2123 33.6864,5.2123 L14.3134,5.2123 Z M38.2144,16.3523 L9.7614,16.3523 C9.2534,16.3523 8.7794,16.1223 8.4594,15.7223 C8.1404,15.3243 8.0224,14.7983 8.1434,14.3143 L10.3224,6.9983 C10.7594,5.1593 12.4054,3.8493 14.3134,3.8493 L33.6864,3.8493 C35.6224,3.8493 37.2684,5.1623 37.6894,7.0443 L39.8254,14.2863 C39.9534,14.7983 39.8354,15.3243 39.5174,15.7223 C39.1974,16.1223 38.7224,16.3523 38.2144,16.3523 L38.2144,16.3523 Z M41.3584,41.1513 L41.3584,41.1953 C41.1114,41.1583 40.8954,41.0023 40.7764,40.7853 C40.5674,41.1733 40.0824,41.3223 39.6874,41.1133 C39.5444,41.0393 39.4334,40.9273 39.3584,40.7853 C39.1494,41.1733 38.6644,41.3223 38.2694,41.1133 C38.1274,41.0393 38.0154,40.9273 37.9404,40.7853 C37.7324,41.1733 37.2474,41.3223 36.8514,41.1133 C36.7104,41.0393 36.5974,40.9273 36.5234,40.7853 C36.3144,41.1733 35.8294,41.3223 35.4334,41.1133 C35.2924,41.0393 35.1804,40.9273 35.1054,40.7853 C34.8964,41.1733 34.4114,41.3223 34.0164,41.1133 C33.8744,41.0393 33.7624,40.9273 33.6884,40.7853 C33.4794,41.1733 32.9944,41.3223 32.5984,41.1133 C32.4564,41.0393 32.3444,40.9273 32.2704,40.7853 C32.0614,41.1733 31.5684,41.3223 31.1804,41.1133 C31.0534,41.0463 30.9414,40.9423 30.8674,40.8153 C30.6434,41.1953 30.1504,41.3223 29.7704,41.0983 C29.7034,41.0613 29.6434,41.0163 29.5914,40.9573 L29.5914,32.8643 C29.5914,32.5583 29.7034,32.2603 29.9124,32.0283 L34.7474,26.6533 C34.8744,26.5193 35.0454,26.4453 35.2324,26.4453 L40.7314,26.4453 C41.0824,26.4453 41.3584,26.7283 41.3584,27.0793 L41.3584,41.1513 Z M30.1734,30.1023 L31.8524,28.2433 L32.3074,28.6543 L30.6434,30.5133 L30.1734,30.1023 Z M40.7244,25.9593 L35.2324,25.9593 C34.9114,25.9593 34.6134,26.0933 34.3964,26.3333 L32.6354,28.2883 L32.0014,27.7143 C31.9564,27.6693 31.8894,27.6463 31.8224,27.6543 C31.7554,27.6543 31.6954,27.6843 31.6504,27.7363 L29.6434,29.9613 C29.5544,30.0583 29.5614,30.2153 29.6584,30.3043 L30.3074,30.8713 L29.5694,31.7073 C29.2854,32.0213 29.1214,32.4393 29.1214,32.8643 L29.1214,41.1513 C29.1214,41.8003 29.6514,42.3233 30.2934,42.3233 L40.6714,42.3233 C41.3204,42.3233 41.8434726,41.7933 41.8434726,41.1513 L41.8434726,27.0793 C41.8504,26.4593 41.3504,25.9593 40.7244,25.9593 C40.7314,25.9593 40.7314,25.9593 40.7244,25.9593 L40.7244,25.9593 Z M36.3664,34.6263 L38.7764,32.2153 C38.8734,32.1263 38.8804,31.9683 38.7914,31.8723 C38.7024,31.7753 38.5454,31.7673 38.4484,31.8573 L38.4334,31.8723 L36.0234,34.2833 L33.6064,31.8643 C33.5164,31.7673 33.3594,31.7593 33.2624,31.8493 C33.1654,31.9393 33.1584,32.0953 33.2474,32.1933 L33.2624,32.2083 L35.6724,34.6193 L33.2624,37.0303 C33.1654,37.1203 33.1584,37.2773 33.2474,37.3733 C33.3364,37.4703 33.4934,37.4783 33.5904,37.3883 L33.6064,37.3733 L36.0154,34.9623 L38.4254,37.3733 C38.5234,37.4633 38.6794,37.4563 38.7694,37.3593 C38.8514,37.2693 38.8514,37.1203 38.7694,37.0303 L36.3664,34.6263 Z M34.7254,28.2213 L40.1564,28.2213 L40.1564,27.5713 L35.6574,27.5713 C35.4114,27.5713 35.1804,27.6763 35.0234,27.8633 L34.7254,28.2213 Z M40.4034,28.7063 L34.2024,28.7063 C34.0684,28.7063 33.9564,28.5943 33.9564,28.4603 C33.9564,28.4003 33.9794,28.3483 34.0164,28.3033 L34.6574,27.5493 C34.9114,27.2513 35.2774,27.0793 35.6654,27.0873 L40.4104,27.0873 C40.5444,27.0873 40.6564,27.1983 40.6564,27.3333 L40.6564,28.4673 C40.6494,28.6023 40.5374,28.7063 40.4034,28.7063 L40.4034,28.7063 Z" id="path-1"></path>
    </defs>
    <g id="Asset-Artboard-Page" stroke="none" stroke-width="1" fill="none" fill-rule="evenodd">
        <g id="icons/products/red/A-car-home/a22-empty-tank" transform="translate(0.382023, 0.000000)">
            <g>
                <polygon id="Rectangle-path" fill-opacity="0" fill="#FFFFFF" fill-rule="nonzero" points="-5.68434189e-14 0 48 0 48 48 -5.68434189e-14 48"></polygon>
                <mask id="mask-2" fill="white">
                    <use xlink:href="#path-1"></use>
                </mask>
                <use id="a22-empty-tank" fill="#C5281C" xlink:href="#path-1"></use>
                <polygon id="Color-Style" fill="#C5281C" mask="url(#mask-2)" points="0 0 48 0 48 48 0 48"></polygon>
            </g>
        </g>
    </g>
</svg>