<?xml version="1.0" encoding="UTF-8"?>
<svg width="49px" height="48px" viewBox="0 0 49 48" version="1.1" xmlns="http://www.w3.org/2000/svg" xmlns:xlink="http://www.w3.org/1999/xlink">
    <!-- Generator: sketchtool 60.1 (101010) - https://sketch.com -->
    <title>DFE2F5C9-20DE-44A1-ACF0-28AD3933F9AF</title>
    <desc>Created with sketchtool.</desc>
    <defs>
        <path d="M46.4865,42.9774 L40.2135,42.9774 C40.1765,42.9774 40.1405,42.9774 40.0855,42.9954 C39.9945,43.0134 39.9035,43.0134 39.7945,43.0134 L35.0165,42.9954 C34.2685,42.9404 33.7035,42.3024 33.7215,41.5554 L33.8305,38.8924 C33.8485,38.4914 33.5395,38.1444 33.1375,38.1084 L26.5545,37.8164 C26.1535,37.7984 25.8065,38.1084 25.7885,38.5274 C25.7525,39.4944 25.2965,39.6584 22.9805,39.5674 L20.3905,39.4574 C19.4615,39.4214 18.6585,39.3844 18.1485,39.1654 C17.7835,39.0194 17.5825,38.8014 17.6195,38.1814 C17.6375,37.7804 17.3275,37.4334 16.9075,37.4154 L12.1485,37.2144 C11.7475,37.1964 11.4195,37.5064 11.3825,37.9074 L11.1275,41.5914 C11.1455,42.3574 10.5435,42.9954 9.7785,43.0134 L9.7595,43.0134 L5.2185,43.0134 C4.4525,43.0134 3.8515,42.3944 3.8515,41.6274 L4.1245,37.6344 C4.1615,37.2324 3.8515,36.8684 3.4315,36.8504 L3.4135,36.8504 L3.1035,36.8314 C2.1915,36.7954 1.4805,36.0114 1.5165,35.0994 L2.0465,22.6994 C2.1185,20.7294 3.1765,18.9244 4.8545,17.8844 L6.9875,16.5354 C7.1335,16.4444 7.2245,16.3164 7.2795,16.1524 L9.6685,9.3684 C10.2705,6.9974 12.4765,5.3744 14.9205,5.5024 L33.2295,6.2874 C35.6545,6.3784 37.6785,8.1464 38.1165,10.5364 L39.8845,17.5384 C39.9215,17.7024 40.0305,17.8484 40.1585,17.9394 L42.1645,19.4534 C43.7325,20.6384 44.6085,22.5174 44.5355,24.4864 L44.0065,36.8864 C43.9695,37.7984 43.1855,38.5094 42.2745,38.4734 L41.9645,38.4554 C41.7635,38.4554 41.5625,38.5274 41.4165,38.6734 C41.2715,38.8194 41.1975,39.0194 41.1975,39.2204 L41.2525,41.6274 C41.2525,41.8834 41.3985,42.1204 41.6175,42.2484 C41.7455,42.3204 41.8905,42.3574 42.0365,42.3574 L46.5045,42.3574 L46.4865,42.9774 Z M39.8845,44.4914 C40.0125,44.4914 40.1405,44.4724 40.2865,44.4544 L47.2525,44.4544 C47.6535,44.4544 48.0005,44.1264 48.0005,43.7064 L48.0005,41.6274 C48.0005,41.2264 47.6715,40.8804 47.2525,40.8804 L42.7295,40.8804 L42.7115,39.9504 C44.2435,39.7684 45.4285,38.5094 45.5015,36.9594 L46.0305,24.5594 C46.1395,22.0974 45.0275,19.7634 43.0585,18.2684 L41.2525,16.9004 L39.5205,10.2074 C38.9555,7.1624 36.3475,4.9194 33.2475,4.8104 L14.9385,4.0074 C11.8195,3.8614 9.0295,5.9044 8.2095,8.9134 L5.9295,15.4044 L4.0155,16.6084 C1.9365,17.9034 0.6235,20.1644 0.5325,22.6074 L0.0035,35.0084 C-0.0695,36.5764 1.0245,37.9444 2.5565,38.2364 L2.3375,41.5554 C2.3005,43.1414 3.5595,44.4544 5.1455,44.4914 L5.2005,44.4914 L9.7415,44.4914 C11.3275,44.4914 12.6045,43.2144 12.6045,41.6274 L12.8045,38.7284 L16.1785,38.8744 C16.3065,39.6404 16.8535,40.2784 17.5645,40.5524 C18.3125,40.8624 19.2605,40.8984 20.2635,40.9534 L22.8525,41.0624 C24.5125,41.1354 26.6645,41.2264 27.1745,39.3484 L32.3535,39.5674 L32.2805,41.5004 C32.2075,43.0864 33.4295,44.4174 35.0165,44.4724 L39.7945,44.4914 L39.8845,44.4914 Z M11.7075,24.8594 C11.6335,26.5414 10.2095,27.8544 8.5275,27.7804 C6.8445,27.7064 5.5315,26.2834 5.6055,24.6004 C5.6795,22.9174 7.1035,21.6054 8.7855,21.6794 C10.4495,21.7344 11.7625,23.1404 11.7075,24.8224 L11.7075,24.8594 Z M8.6565,29.2964 C11.0975,29.2964 13.0935,27.3734 13.2055,24.9334 C13.3165,22.4184 11.3565,20.2924 8.8415,20.1814 C6.3265,20.0704 4.2005,22.0304 4.0895,24.5444 C3.9785,27.0594 5.9205,29.1854 8.4345,29.2964 L8.6565,29.2964 Z M38.5545,22.9554 C40.2365,23.0284 41.5495,24.4524 41.4755,26.1354 C41.4015,27.8174 39.9785,29.1304 38.2955,29.0564 C36.6125,28.9824 35.2995,27.5594 35.3745,25.8764 C35.4475,24.2124 36.8715,22.8994 38.5545,22.9554 L38.5545,22.9554 Z M38.4245,30.5724 C40.9395,30.5724 42.9735,28.5394 42.9735,26.0244 C42.9735,23.5834 41.0505,21.5684 38.6105,21.4764 C36.0955,21.3644 33.9685,23.3244 33.8765,25.8394 C33.7655,28.3534 35.7255,30.4804 38.2395,30.5724 L38.4245,30.5724 Z M14.8505,7.9594 L14.9615,7.9594 L33.5065,8.7544 C34.6905,8.8104 35.6705,9.6614 35.8915,10.8254 L37.6855,17.9254 C37.6855,17.9624 37.6665,17.9994 37.6305,18.0184 C37.5925,18.0554 37.5375,18.0924 37.4825,18.0924 L10.2465,16.9274 C10.1915,16.9274 10.1355,16.8904 10.0985,16.8534 C10.0615,16.8164 10.0615,16.7614 10.0615,16.7244 L12.4095,9.8644 C12.6875,8.7364 13.7045,7.9594 14.8505,7.9594 L14.8505,7.9594 Z M37.4825,19.6084 C37.9815,19.6084 38.4435,19.4054 38.7765,19.0164 C39.1095,18.6284 39.2575,18.1104 39.1465,17.5934 L37.3525,10.4934 C37.0015,8.6624 35.4295,7.3124 33.5805,7.2384 L15.0355,6.4434 C13.1495,6.3514 11.4485,7.5714 10.9675,9.4024 L8.6385,16.2434 C8.3615,17.1304 8.8785,18.0734 9.7655,18.3514 C9.8955,18.3884 10.0435,18.4254 10.1915,18.4254 L37.4265,19.5894 L37.4825,19.6084 Z M32.2865,32.7544 L32.2675,32.7544 L14.2215,31.9774 C13.7965,31.9594 13.4825,31.6084 13.5005,31.2014 C13.5195,30.7944 13.8705,30.4614 14.2775,30.4804 L32.3235,31.2564 C32.7115,31.2934 33.0075,31.6084 33.0265,31.9964 C33.0265,32.4214 32.6935,32.7544 32.2865,32.7724 L32.2865,32.7544 Z" id="path-1"></path>
    </defs>
    <g id="Asset-Artboard-Page" stroke="none" stroke-width="1" fill="none" fill-rule="evenodd">
        <g id="icons/products/red/A-car-home/a23-flat-tire" transform="translate(0.382023, 0.000000)">
            <g>
                <polygon id="Rectangle-path" fill-opacity="0" fill="#FFFFFF" fill-rule="nonzero" points="-5.68434189e-14 0 48 0 48 48 -5.68434189e-14 48"></polygon>
                <mask id="mask-2" fill="white">
                    <use xlink:href="#path-1"></use>
                </mask>
                <use id="a23-flat-tire" fill="#C5281C" xlink:href="#path-1"></use>
                <polygon id="Color-Style" fill="#C5281C" mask="url(#mask-2)" points="0 0 48 0 48 48 0 48"></polygon>
            </g>
        </g>
    </g>
</svg>