<?xml version="1.0" encoding="UTF-8"?>
<svg width="49px" height="48px" viewBox="0 0 49 48" version="1.1" xmlns="http://www.w3.org/2000/svg" xmlns:xlink="http://www.w3.org/1999/xlink">
    <!-- Generator: sketchtool 60.1 (101010) - https://sketch.com -->
    <title>B8C98A86-A474-48E1-83E3-36897A8B15E8</title>
    <desc>Created with sketchtool.</desc>
    <defs>
        <path d="M46.636,34.1416 C46.636,30.9476 45.277,28.0706 43.115,26.0376 C42.785,25.7276 42.437,25.4396 42.072,25.1716 C40.419,23.9566 38.425,23.1906 36.258,23.0436 C36.006,23.0266 35.755,23.0046 35.499,23.0046 C35.294,23.0046 35.097,23.0366 34.894,23.0476 C30.886,23.2666 27.432,25.5906 25.654,28.9536 C25.422,29.3916 25.226,29.8486 25.054,30.3176 C24.615,31.5126 24.364,32.7966 24.364,34.1416 C24.364,40.2826 29.359,45.2786 35.499,45.2786 C41.64,45.2786 46.636,40.2826 46.636,34.1416 L46.636,34.1416 Z M39.541,19.8086 C38.231,19.8086 37.106,20.5846 36.577,21.6966 C38.848,21.8916 40.943,22.6956 42.704,23.9446 C42.778,23.6726 42.829,23.3916 42.829,23.0966 C42.829,21.2836 41.354,19.8086 39.541,19.8086 L39.541,19.8086 Z M35.141,21.6546 C35.752,19.7986 37.483,18.4446 39.541,18.4446 C42.106,18.4446 44.193,20.5316 44.193,23.0966 C44.193,23.7206 44.066,24.3146 43.841,24.8586 C44.988,25.8896 45.93,27.1356 46.636,28.5196 L46.636,21.2286 C46.636,19.1086 45.594,17.1276 43.849,15.9296 L41.653,14.4096 C41.526,14.3216 41.433,14.1946 41.388,14.0476 L39.169,6.7616 C38.573,4.1526 36.33,2.3636 33.703,2.3636 L14.296,2.3636 C11.669,2.3636 9.426,4.1526 8.843,6.7136 L6.611,14.0476 C6.567,14.1946 6.473,14.3216 6.347,14.4096 L4.152,15.9276 C2.406,17.1416 1.363,19.1226 1.363,21.2286 L1.363,34.3766 C1.363,35.4036 2.199,36.2396 3.227,36.2396 L3.554,36.2396 C3.93,36.2396 4.236,36.5456 4.236,36.9216 L4.236,41.3586 C4.236,42.2196 4.935,42.9186 5.796,42.9186 L10.63,42.9186 C11.49,42.9186 12.19,42.2196 12.19,41.3586 L12.19,36.9216 C12.19,36.5456 12.495,36.2396 12.872,36.2396 L19.854,36.2396 C20.231,36.2396 20.536,36.5456 20.536,36.9216 C20.536,37.6426 20.807,37.8906 21.213,38.0396 C21.783,38.2486 22.641,38.2546 23.571,38.2486 L23.707,38.2486 C23.257,36.9596 23,35.5816 23,34.1416 C23,32.8076 23.215,31.5236 23.604,30.3176 L14.553,30.3176 C14.177,30.3176 13.871,30.0126 13.871,29.6356 C13.871,29.2596 14.177,28.9536 14.553,28.9536 L24.142,28.9536 C26.07,24.7496 30.255,21.7946 35.141,21.6546 L35.141,21.6546 Z M47.999,21.2286 L47.999,34.3766 C47.999,34.4546 47.982,34.5286 47.976,34.6046 C47.729,41.2826 42.236,46.6416 35.499,46.6416 C30.571,46.6416 26.312,43.7666 24.278,39.6116 L23.571,39.6116 C22.531,39.6126 21.541,39.6126 20.743,39.3196 C19.925,39.0186 19.414,38.4326 19.24,37.6036 L13.553,37.6036 L13.553,41.3586 C13.553,42.9716 12.242,44.2826 10.63,44.2826 L5.796,44.2826 C4.184,44.2826 2.872,42.9716 2.872,41.3586 L2.872,37.5836 C1.259,37.4066 0,36.0356 0,34.3766 L0,21.2286 C0,18.6766 1.261,16.2756 3.375,14.8076 L5.376,13.4236 L7.525,6.3636 C8.239,3.2246 11.028,0.9996 14.296,0.9996 L33.703,0.9996 C36.971,0.9996 39.761,3.2246 40.487,6.4116 L42.623,13.4226 L44.623,14.8066 C46.737,16.2576 47.999,18.6586 47.999,21.2286 L47.999,21.2286 Z M11.723,23.0966 C11.723,24.9106 10.248,26.3846 8.435,26.3846 C6.621,26.3846 5.147,24.9106 5.147,23.0966 C5.147,21.2836 6.621,19.8086 8.435,19.8086 C10.248,19.8086 11.723,21.2836 11.723,23.0966 L11.723,23.0966 Z M13.087,23.0966 C13.087,20.5316 11,18.4446 8.435,18.4446 C5.869,18.4446 3.783,20.5316 3.783,23.0966 C3.783,25.6616 5.869,27.7486 8.435,27.7486 C11,27.7486 13.087,25.6616 13.087,23.0966 L13.087,23.0966 Z M33.703,5.2126 C34.996,5.2126 36.096,6.0886 36.388,7.3856 L38.53,14.6446 C38.547,14.7176 38.526,14.8036 38.472,14.8706 C38.411,14.9456 38.324,14.9886 38.234,14.9886 L9.766,14.9886 C9.674,14.9886 9.587,14.9456 9.528,14.8706 C9.474,14.8036 9.452,14.7176 9.462,14.6746 L11.643,7.3516 C11.944,6.0926 13.045,5.2126 14.32,5.2126 L33.703,5.2126 Z M39.536,15.7226 C39.855,15.3246 39.973,14.7976 39.845,14.2866 L37.707,7.0446 C37.286,5.1626 35.64,3.8496 33.703,3.8496 L14.32,3.8496 C12.411,3.8496 10.765,5.1596 10.327,6.9986 L8.147,14.3136 C8.026,14.7976 8.144,15.3246 8.463,15.7226 C8.783,16.1226 9.258,16.3516 9.766,16.3516 L38.234,16.3516 C38.741,16.3516 39.216,16.1226 39.536,15.7226 L39.536,15.7226 Z M38.459,34.1416 C38.459,34.6446 38.866,35.0526 39.37,35.0526 C39.873,35.0526 40.282,34.6446 40.282,34.1416 C40.282,33.6376 39.873,33.2296 39.37,33.2296 C38.866,33.2296 38.459,33.6376 38.459,34.1416 L38.459,34.1416 Z M34.588,34.1416 C34.588,34.6446 34.996,35.0526 35.499,35.0526 C36.003,35.0526 36.411,34.6446 36.411,34.1416 C36.411,33.6376 36.003,33.2296 35.499,33.2296 C34.996,33.2296 34.588,33.6376 34.588,34.1416 L34.588,34.1416 Z M31.629,33.2296 C32.132,33.2296 32.54,33.6376 32.54,34.1416 C32.54,34.6446 32.132,35.0526 31.629,35.0526 C31.125,35.0526 30.717,34.6446 30.717,34.1416 C30.717,33.6376 31.125,33.2296 31.629,33.2296 L31.629,33.2296 Z" id="path-1"></path>
    </defs>
    <g id="Asset-Artboard-Page" stroke="none" stroke-width="1" fill="none" fill-rule="evenodd">
        <g id="icons/products/red/A-car-home/a24-other-breakdown" transform="translate(0.382023, 0.000000)">
            <g>
                <polygon id="Rectangle-path" fill-opacity="0" fill="#FFFFFF" fill-rule="nonzero" points="-5.68434189e-14 0 48 0 48 48 -5.68434189e-14 48"></polygon>
                <mask id="mask-2" fill="white">
                    <use xlink:href="#path-1"></use>
                </mask>
                <use id="a24-other-breakdown" fill="#C5281C" xlink:href="#path-1"></use>
                <polygon id="Color-Style" fill="#C5281C" mask="url(#mask-2)" points="0 0 48 0 48 48 0 48"></polygon>
            </g>
        </g>
    </g>
</svg>