<?xml version="1.0" encoding="UTF-8"?>
<svg width="49px" height="48px" viewBox="0 0 49 48" version="1.1" xmlns="http://www.w3.org/2000/svg" xmlns:xlink="http://www.w3.org/1999/xlink">
    <!-- Generator: sketchtool 60.1 (101010) - https://sketch.com -->
    <title>7A0D5DAF-1E75-4505-A3CE-8662AD7E62F1</title>
    <desc>Created with sketchtool.</desc>
    <defs>
        <path d="M35.4997,45.2783 C29.3587,45.2783 24.3637,40.2823 24.3637,34.1413 C24.3637,32.7963 24.6157,31.5123 25.0547,30.3173 C25.2267,29.8483 25.4227,29.3913 25.6537,28.9533 C27.4327,25.5913 30.8867,23.2663 34.8947,23.0473 C35.0977,23.0363 35.2947,23.0053 35.4997,23.0053 C35.7557,23.0053 36.0067,23.0263 36.2587,23.0433 C38.4257,23.1903 40.4197,23.9573 42.0717,25.1713 C42.4367,25.4403 42.7857,25.7283 43.1147,26.0383 C45.2767,28.0703 46.6367,30.9473 46.6367,34.1413 C46.6367,40.2823 41.6407,45.2783 35.4997,45.2783 L35.4997,45.2783 Z M42.8297,23.0963 C42.8297,23.3923 42.7777,23.6723 42.7047,23.9453 C40.9427,22.6953 38.8487,21.8913 36.5777,21.6963 C37.1057,20.5843 38.2307,19.8083 39.5417,19.8083 C41.3537,19.8083 42.8297,21.2833 42.8297,23.0963 L42.8297,23.0963 Z M24.1427,28.9533 L14.5537,28.9533 C14.1777,28.9533 13.8717,29.2593 13.8717,29.6353 C13.8717,30.0123 14.1777,30.3173 14.5537,30.3173 L23.6037,30.3173 C23.2157,31.5243 23.0007,32.8073 23.0007,34.1413 C23.0007,35.5813 23.2577,36.9603 23.7077,38.2483 L23.5707,38.2483 C22.6417,38.2543 21.7837,38.2483 21.2137,38.0393 C20.8077,37.8903 20.5367,37.6433 20.5367,36.9213 C20.5367,36.5453 20.2307,36.2393 19.8547,36.2393 L12.8717,36.2393 C12.4957,36.2393 12.1897,36.5453 12.1897,36.9213 L12.1897,41.3593 C12.1897,42.2193 11.4907,42.9193 10.6307,42.9193 L5.7967,42.9193 C4.9367,42.9193 4.2357,42.2193 4.2357,41.3593 L4.2357,36.9213 C4.2357,36.5453 3.9307,36.2393 3.5547,36.2393 L3.2277,36.2393 C2.1997,36.2393 1.3637,35.4033 1.3637,34.3763 L1.3637,21.2283 C1.3637,19.1233 2.4067,17.1413 4.1517,15.9273 L6.3477,14.4093 C6.4737,14.3213 6.5667,14.1953 6.6117,14.0473 L8.8427,6.7143 C9.4267,4.1533 11.6687,2.3633 14.2967,2.3633 L33.7037,2.3633 C36.3307,2.3633 38.5737,4.1533 39.1697,6.7613 L41.3887,14.0473 C41.4337,14.1953 41.5257,14.3213 41.6527,14.4093 L43.8497,15.9293 C45.5947,17.1273 46.6367,19.1083 46.6367,21.2283 L46.6367,28.5203 C45.9307,27.1353 44.9877,25.8893 43.8417,24.8593 C44.0657,24.3153 44.1927,23.7203 44.1927,23.0963 C44.1927,20.5313 42.1057,18.4453 39.5417,18.4453 C37.4827,18.4453 35.7527,19.7983 35.1417,21.6543 C30.2557,21.7943 26.0697,24.7493 24.1427,28.9533 L24.1427,28.9533 Z M44.6237,14.8063 L42.6237,13.4233 L40.4867,6.4113 C39.7617,3.2253 36.9717,1.0003 33.7037,1.0003 L14.2967,1.0003 C11.0277,1.0003 8.2387,3.2253 7.5257,6.3633 L5.3767,13.4233 L3.3757,14.8073 C1.2617,16.2763 -0.0003,18.6763 -0.0003,21.2283 L-0.0003,34.3763 C-0.0003,36.0353 1.2597,37.4063 2.8727,37.5843 L2.8727,41.3593 C2.8727,42.9713 4.1847,44.2823 5.7967,44.2823 L10.6307,44.2823 C12.2417,44.2823 13.5547,42.9713 13.5547,41.3593 L13.5547,37.6033 L19.2397,37.6033 C19.4137,38.4323 19.9257,39.0193 20.7437,39.3203 C21.5417,39.6123 22.5307,39.6123 23.5707,39.6113 L24.2777,39.6113 C26.3117,43.7663 30.5707,46.6413 35.4997,46.6413 C42.2357,46.6413 47.7287,41.2823 47.9767,34.6053 C47.9817,34.5283 47.9997,34.4543 47.9997,34.3763 L47.9997,21.2283 C47.9997,18.6583 46.7367,16.2573 44.6237,14.8063 L44.6237,14.8063 Z M8.4357,19.8083 C6.6217,19.8083 5.1467,21.2833 5.1467,23.0963 C5.1467,24.9103 6.6217,26.3843 8.4357,26.3843 C10.2487,26.3843 11.7237,24.9103 11.7237,23.0963 C11.7237,21.2833 10.2487,19.8083 8.4357,19.8083 L8.4357,19.8083 Z M8.4357,27.7483 C5.8697,27.7483 3.7827,25.6613 3.7827,23.0963 C3.7827,20.5313 5.8697,18.4453 8.4357,18.4453 C10.9997,18.4453 13.0867,20.5313 13.0867,23.0963 C13.0867,25.6613 10.9997,27.7483 8.4357,27.7483 L8.4357,27.7483 Z M14.3197,5.2123 C13.0447,5.2123 11.9437,6.0923 11.6437,7.3513 L9.4617,14.6743 C9.4517,14.7173 9.4747,14.8033 9.5277,14.8703 C9.5877,14.9453 9.6747,14.9883 9.7667,14.9883 L38.2337,14.9883 C38.3247,14.9883 38.4117,14.9453 38.4727,14.8703 C38.5257,14.8033 38.5477,14.7173 38.5297,14.6453 L36.3887,7.3853 C36.0967,6.0883 34.9967,5.2123 33.7037,5.2123 L14.3197,5.2123 Z M38.2337,16.3523 L9.7667,16.3523 C9.2587,16.3523 8.7837,16.1223 8.4627,15.7223 C8.1447,15.3243 8.0257,14.7983 8.1467,14.3143 L10.3267,6.9983 C10.7657,5.1593 12.4107,3.8493 14.3197,3.8493 L33.7037,3.8493 C35.6407,3.8493 37.2867,5.1623 37.7077,7.0443 L39.8457,14.2863 C39.9737,14.7983 39.8547,15.3243 39.5367,15.7223 C39.2167,16.1223 38.7417,16.3523 38.2337,16.3523 L38.2337,16.3523 Z M35.9827,37.2993 L34.8137,37.2993 C34.2767,37.2993 33.8397,36.8613 33.8397,36.3233 L33.8397,36.1673 C33.9617,34.3693 34.8147,33.5683 35.6047,32.9563 L35.6977,32.8843 C36.3917,32.3503 36.8927,31.9643 36.8927,31.1113 C36.8927,30.1413 36.4507,29.6703 35.5437,29.6703 C34.4027,29.6703 34.0207,30.5493 33.9017,31.2863 C33.8157,31.7893 33.3877,32.1523 32.8797,32.1523 L32.8757,32.1523 L31.6117,32.1523 L31.6107,32.1523 C31.3327,32.1523 31.0707,32.0433 30.8747,31.8463 C30.6787,31.6513 30.5697,31.3893 30.5697,31.1123 C30.5697,31.0523 30.5737,30.9933 30.5847,30.9343 C31.0097,28.4793 32.9017,26.8923 35.4047,26.8923 C39.3807,26.8923 40.4307,29.4793 40.4307,30.8473 C40.4307,32.8183 39.5857,33.6283 38.7197,34.2893 C38.6037,34.3783 38.4857,34.4643 38.3697,34.5493 C37.6807,35.0543 37.0857,35.4893 36.9547,36.3453 C36.9577,36.8613 36.5207,37.2993 35.9827,37.2993 L35.9827,37.2993 Z M35.9887,41.3913 L34.6957,41.3913 C34.0757,41.3913 33.5707,40.8863 33.5707,40.2663 L33.5707,39.0293 C33.5707,38.4093 34.0757,37.9043 34.6957,37.9043 L35.9887,37.9043 C36.6087,37.9043 37.1137,38.4093 37.1137,39.0293 L37.1137,40.2663 C37.1137,40.8863 36.6087,41.3913 35.9887,41.3913 L35.9887,41.3913 Z" id="path-1"></path>
    </defs>
    <g id="Asset-Artboard-Page" stroke="none" stroke-width="1" fill="none" fill-rule="evenodd">
        <g id="icons/products/red/A-car-home/a25-something-else" transform="translate(0.382023, 0.000000)">
            <g>
                <polygon id="Rectangle-path" fill-opacity="0" fill="#FFFFFF" fill-rule="nonzero" points="-5.68434189e-14 0 48 0 48 48 -5.68434189e-14 48"></polygon>
                <mask id="mask-2" fill="white">
                    <use xlink:href="#path-1"></use>
                </mask>
                <use id="a25-something-else" fill="#C5281C" xlink:href="#path-1"></use>
                <polygon id="Color-Style" fill="#C5281C" mask="url(#mask-2)" points="0 0 48 0 48 48 0 48"></polygon>
            </g>
        </g>
    </g>
</svg>