<?xml version="1.0" encoding="UTF-8"?>
<svg width="49px" height="48px" viewBox="0 0 49 48" version="1.1" xmlns="http://www.w3.org/2000/svg" xmlns:xlink="http://www.w3.org/1999/xlink">
    <!-- Generator: sketchtool 60.1 (101010) - https://sketch.com -->
    <title>77951C10-D703-40EB-80E1-4AB44004984D</title>
    <desc>Created with sketchtool.</desc>
    <defs>
        <path d="M36.2578,24.5743 L36.2578,24.5833 C36.2578,26.3983 37.7348,27.8753 39.5488,27.8753 C41.3638,27.8753 42.8398,26.3983 42.8398,24.5833 C42.8398,22.7693 41.3638,21.2933 39.5488,21.2933 L39.5408,21.2933 C38.6648,21.2933 37.8438,21.6323 37.2248,22.2483 C36.6038,22.8663 36.2608,23.6903 36.2578,24.5663 L36.2578,24.5743 Z M39.5488,29.2383 C36.9828,29.2383 34.8948,27.1503 34.8948,24.5833 L34.8948,24.5633 C34.8978,23.3233 35.3828,22.1573 36.2628,21.2823 C37.1398,20.4093 38.3028,19.9293 39.5388,19.9293 L39.5508,19.9293 C42.1148,19.9293 44.2038,22.0173 44.2038,24.5833 C44.2038,27.1503 42.1148,29.2383 39.5488,29.2383 L39.5488,29.2383 Z M8.4328,20.6113 L8.4328,21.2933 C6.6178,21.2933 5.1418,22.7693 5.1418,24.5833 C5.1418,26.3983 6.6178,27.8753 8.4328,27.8753 C10.2478,27.8753 11.7248046,26.3983 11.7248046,24.5833 C11.7278,22.7723 10.2598,21.2973 8.4498,21.2933 L8.4328,20.6113 Z M8.4328,29.2383 C5.8658,29.2383 3.7788,27.1503 3.7788,24.5833 C3.7788,22.0173 5.8658,19.9293 8.4328,19.9293 L8.4508,19.9293 C11.0148,19.9353 13.0938,22.0233 13.087813,24.5853 C13.087813,27.1503 10.9998,29.2383 8.4328,29.2383 L8.4328,29.2383 Z M14.2878,6.6893 C13.0258,6.7163 11.9528,7.5893 11.6728,8.8243 L9.4658,16.1583 C9.4558,16.2023 9.4738,16.2823 9.5238,16.3423 C9.5888,16.4243 9.6738,16.4653 9.7658,16.4653 L9.7668,16.4653 L38.2428,16.4653 C38.3348,16.4653 38.4218,16.4233 38.4778,16.3533 C38.5358,16.2823 38.5538,16.2023 38.5348,16.1273 L36.6168,9.6743 C36.3138,8.3283 35.1558,6.7563 34.1028,6.4943 L29.7068,11.9363 C29.4808,12.2173 29.0738,12.2723 28.7788,12.0623 L22.6168,7.6453 L14.2878,6.6893 Z M38.2438,17.8293 L38.2418,17.8293 L9.7668,17.8293 L9.7678,17.8293 L9.7658,17.8293 C9.2568,17.8293 8.7818,17.6003 8.4648,17.2013 C8.1478,16.8203 8.0278,16.2903 8.1518,15.7963 L10.3548,8.4773 C10.7668,6.6543 12.4018,5.3393 14.3178,5.3253 C14.3528,5.3233 14.3728,5.3263 14.4008,5.3293 L22.9478,6.3113 C23.0638,6.3243 23.1738,6.3663 23.2678,6.4343 L29.0508,10.5783 L33.2768,5.3463 C33.4058,5.1863 33.6018,5.0933 33.8078,5.0933 C35.8528,5.0933 37.5468,7.5983 37.9368,9.3303 L39.8508,15.7683 C39.9828,16.2903 39.8618,16.8203 39.5368,17.2123 C39.2288,17.6003 38.7538,17.8293 38.2438,17.8293 L38.2438,17.8293 Z M34.1098,31.1213 C34.1098,30.7453 33.8048,30.4403 33.4278,30.4403 L14.5548,30.4403 C14.1778,30.4403 13.8718,30.7453 13.8718,31.1213 C13.8718,31.4983 14.1778,31.8033 14.5548,31.8033 L33.4278,31.8033 C33.8048,31.8033 34.1098,31.4983 34.1098,31.1213 L34.1098,31.1213 Z M30.1038,37.7283 L35.1508,37.7283 C35.5278,37.7283 35.8318,38.0333 35.8318,38.4093 L35.8318,42.8453 C35.8318,43.7053 36.5308,44.4053 37.3918,44.4053 L42.2068,44.4053 C43.0678,44.4053 43.7668,43.7053 43.7668,42.8453 L43.7668,38.4093 C43.7668,38.0333 44.0708,37.7283 44.4478,37.7283 L44.7728,37.7283 C45.7948,37.7243 46.6328,36.8873 46.6368,35.8613 L46.6368,22.7133 C46.6368,20.5943 45.5948,18.6133 43.8488,17.4133 L41.6528,15.8923 C41.5258,15.8053 41.4328,15.6783 41.3878,15.5313 L39.1658,8.2433 C38.4068,5.5893 36.1178,3.6783 33.4068,3.3903 L29.3548,8.1703 C29.1318,8.4333 28.7478,8.4893 28.4598,8.2993 L23.4968,5.0423 L14.2508,3.8363 C11.6368,3.8503 9.4188,5.6373 8.8488,8.1933 L6.6118,15.5313 C6.5688,15.6783 6.4748,15.8053 6.3488,15.8923 L4.1538,17.4113 C2.4148,18.6173 1.3718,20.6003 1.3628,22.7153 L1.3628,35.8633 C1.3668,36.8873 2.2048,37.7243 3.2318,37.7283 L3.5988,37.7283 C3.9758,37.7283 4.2798,38.0333 4.2798,38.4093 L4.2798,42.8453 C4.2798,43.7053 4.9808,44.4053 5.8398,44.4053 L10.6748,44.4053 C11.5098,44.3843 12.1778,43.6993 12.1778,42.8453 L12.1778,38.4093 C12.1778,38.0333 12.4838,37.7283 12.8608,37.7283 L19.8418,37.7283 C20.2188,37.7283 20.5248,38.0333 20.5248,38.4093 C20.5248,39.1313 20.7958,39.3793 21.2048,39.5283 C21.7788,39.7383 22.6778,39.7423 23.5768,39.7383 L26.3158,39.7383 C28.7218,39.7383 29.4208,39.5633 29.4208,38.4093 C29.4208,38.0333 29.7268,37.7283 30.1038,37.7283 L30.1038,37.7283 Z M42.2068,45.7683 L37.3918,45.7683 C35.7788,45.7683 34.4688,44.4573 34.4688,42.8453 L34.4688,39.0923 L30.7238,39.0923 C30.3288,41.1013 28.1218,41.1013 26.3158,41.1013 L23.6298,41.1013 C22.5368,41.1043 21.5378,41.1013 20.7368,40.8093 C19.9148,40.5093 19.4028,39.9213 19.2278,39.0923 L13.5418,39.0923 L13.5418,42.8453 C13.5418,44.4453 12.2888,45.7293 10.6918,45.7683 L5.8398,45.7683 C4.2288,45.7683 2.9168,44.4573 2.9168,42.8453 L2.9168,39.0753 C1.2868,38.9123 0.0068,37.5333 -0.0002,35.8663 L-0.0002,22.7133 C0.0098,20.1503 1.2728,17.7503 3.3768,16.2903 L5.3778,14.9073 L7.5308,7.8453 C8.2308,4.7013 11.0118,2.4723 14.2838,2.4723 C14.3178,2.4723 14.3498,2.4733 14.3838,2.4783 L23.8288,3.7103 C23.9308,3.7233 24.0288,3.7603 24.1148,3.8163 L28.7038,6.8283 L32.5928,2.2413 C32.7318,2.0783 32.9368,1.9873 33.1518,2.0013 C36.5858,2.1963 39.5288,4.5493 40.4738,7.8573 L42.6228,14.9073 L44.6228,16.2903 C46.7368,17.7433 48.0008,20.1453 48.0008,22.7133 L48.0008,35.8633 C47.9938,37.5173 46.7368,38.8873 45.1298,39.0713 L45.1298,42.8453 C45.1298,44.4573 43.8188,45.7683 42.2068,45.7683 L42.2068,45.7683 Z" id="path-1"></path>
    </defs>
    <g id="Asset-Artboard-Page" stroke="none" stroke-width="1" fill="none" fill-rule="evenodd">
        <g id="icons/products/red/A-car-home/a26-damaged-car" transform="translate(0.382023, 0.000000)">
            <g>
                <polygon id="Rectangle-path" fill-opacity="0" fill="#FFFFFF" fill-rule="nonzero" points="-5.68434189e-14 0 48 0 48 48 -5.68434189e-14 48"></polygon>
                <mask id="mask-2" fill="white">
                    <use xlink:href="#path-1"></use>
                </mask>
                <use id="a26-damaged-car" fill="#C5281C" xlink:href="#path-1"></use>
                <polygon id="Color-Style" fill="#C5281C" mask="url(#mask-2)" points="0 0 48 0 48 48 0 48"></polygon>
            </g>
        </g>
    </g>
</svg>