<?xml version="1.0" encoding="UTF-8"?>
<svg width="49px" height="48px" viewBox="0 0 49 48" version="1.1" xmlns="http://www.w3.org/2000/svg" xmlns:xlink="http://www.w3.org/1999/xlink">
    <!-- Generator: sketchtool 60.1 (101010) - https://sketch.com -->
    <title>8A5E5E91-35D1-4C10-80AD-775A28BE6AFF</title>
    <desc>Created with sketchtool.</desc>
    <defs>
        <path d="M35.4997,45.2783 C29.3587,45.2783 24.3637,40.2823 24.3637,34.1413 C24.3637,32.7963 24.6157,31.5123 25.0547,30.3173 C25.2267,29.8483 25.4227,29.3913 25.6537,28.9533 C27.4327,25.5913 30.8867,23.2663 34.8947,23.0473 C35.0977,23.0363 35.2947,23.0053 35.4997,23.0053 C35.7557,23.0053 36.0067,23.0263 36.2587,23.0433 C38.4257,23.1903 40.4197,23.9573 42.0717,25.1713 C42.4367,25.4403 42.7857,25.7283 43.1147,26.0383 C45.2767,28.0703 46.6367,30.9473 46.6367,34.1413 C46.6367,40.2823 41.6407,45.2783 35.4997,45.2783 L35.4997,45.2783 Z M42.8297,23.0963 C42.8297,23.3923 42.7777,23.6723 42.7047,23.9453 C40.9427,22.6953 38.8487,21.8913 36.5777,21.6963 C37.1057,20.5843 38.2307,19.8083 39.5417,19.8083 C41.3537,19.8083 42.8297,21.2833 42.8297,23.0963 L42.8297,23.0963 Z M24.1427,28.9533 L14.5537,28.9533 C14.1777,28.9533 13.8717,29.2593 13.8717,29.6353 C13.8717,30.0123 14.1777,30.3173 14.5537,30.3173 L23.6037,30.3173 C23.2157,31.5243 23.0007,32.8073 23.0007,34.1413 C23.0007,35.5813 23.2577,36.9603 23.7077,38.2483 L23.5707,38.2483 C22.6417,38.2543 21.7837,38.2483 21.2137,38.0393 C20.8077,37.8903 20.5367,37.6433 20.5367,36.9213 C20.5367,36.5453 20.2307,36.2393 19.8547,36.2393 L12.8717,36.2393 C12.4957,36.2393 12.1897,36.5453 12.1897,36.9213 L12.1897,41.3593 C12.1897,42.2193 11.4907,42.9193 10.6307,42.9193 L5.7967,42.9193 C4.9367,42.9193 4.2357,42.2193 4.2357,41.3593 L4.2357,36.9213 C4.2357,36.5453 3.9307,36.2393 3.5547,36.2393 L3.2277,36.2393 C2.1997,36.2393 1.3637,35.4033 1.3637,34.3763 L1.3637,21.2283 C1.3637,19.1233 2.4067,17.1413 4.1517,15.9273 L6.3477,14.4093 C6.4737,14.3213 6.5667,14.1953 6.6117,14.0473 L8.8427,6.7143 C9.4267,4.1533 11.6687,2.3633 14.2967,2.3633 L33.7037,2.3633 C36.3307,2.3633 38.5737,4.1533 39.1697,6.7613 L41.3887,14.0473 C41.4337,14.1953 41.5257,14.3213 41.6527,14.4093 L43.8497,15.9293 C45.5947,17.1273 46.6367,19.1083 46.6367,21.2283 L46.6367,28.5203 C45.9307,27.1353 44.9877,25.8893 43.8417,24.8593 C44.0657,24.3153 44.1927,23.7203 44.1927,23.0963 C44.1927,20.5313 42.1057,18.4453 39.5417,18.4453 C37.4827,18.4453 35.7527,19.7983 35.1417,21.6543 C30.2557,21.7943 26.0697,24.7493 24.1427,28.9533 L24.1427,28.9533 Z M44.6237,14.8063 L42.6237,13.4233 L40.4867,6.4113 C39.7617,3.2253 36.9717,1.0003 33.7037,1.0003 L14.2967,1.0003 C11.0277,1.0003 8.2387,3.2253 7.5257,6.3633 L5.3767,13.4233 L3.3757,14.8073 C1.2617,16.2763 -0.0003,18.6763 -0.0003,21.2283 L-0.0003,34.3763 C-0.0003,36.0353 1.2597,37.4063 2.8727,37.5843 L2.8727,41.3593 C2.8727,42.9713 4.1847,44.2823 5.7967,44.2823 L10.6307,44.2823 C12.2417,44.2823 13.5547,42.9713 13.5547,41.3593 L13.5547,37.6033 L19.2397,37.6033 C19.4137,38.4323 19.9257,39.0193 20.7437,39.3203 C21.5417,39.6123 22.5307,39.6123 23.5707,39.6113 L24.2777,39.6113 C26.3117,43.7663 30.5707,46.6413 35.4997,46.6413 C42.2357,46.6413 47.7287,41.2823 47.9767,34.6053 C47.9817,34.5283 47.9997,34.4543 47.9997,34.3763 L47.9997,21.2283 C47.9997,18.6583 46.7367,16.2573 44.6237,14.8063 L44.6237,14.8063 Z M8.4357,19.8083 C6.6217,19.8083 5.1467,21.2833 5.1467,23.0963 C5.1467,24.9103 6.6217,26.3843 8.4357,26.3843 C10.2487,26.3843 11.7237,24.9103 11.7237,23.0963 C11.7237,21.2833 10.2487,19.8083 8.4357,19.8083 L8.4357,19.8083 Z M8.4357,27.7483 C5.8697,27.7483 3.7827,25.6613 3.7827,23.0963 C3.7827,20.5313 5.8697,18.4453 8.4357,18.4453 C10.9997,18.4453 13.0867,20.5313 13.0867,23.0963 C13.0867,25.6613 10.9997,27.7483 8.4357,27.7483 L8.4357,27.7483 Z M14.3197,5.2123 C13.0447,5.2123 11.9437,6.0923 11.6437,7.3513 L9.4617,14.6743 C9.4517,14.7173 9.4747,14.8033 9.5277,14.8703 C9.5877,14.9453 9.6747,14.9883 9.7667,14.9883 L38.2337,14.9883 C38.3247,14.9883 38.4117,14.9453 38.4727,14.8703 C38.5257,14.8033 38.5477,14.7173 38.5297,14.6453 L36.3887,7.3853 C36.0967,6.0883 34.9967,5.2123 33.7037,5.2123 L14.3197,5.2123 Z M38.2337,16.3523 L9.7667,16.3523 C9.2587,16.3523 8.7837,16.1223 8.4627,15.7223 C8.1447,15.3243 8.0257,14.7983 8.1467,14.3143 L10.3267,6.9983 C10.7657,5.1593 12.4107,3.8493 14.3197,3.8493 L33.7037,3.8493 C35.6407,3.8493 37.2867,5.1623 37.7077,7.0443 L39.8457,14.2863 C39.9737,14.7983 39.8547,15.3243 39.5367,15.7223 C39.2167,16.1223 38.7417,16.3523 38.2337,16.3523 L38.2337,16.3523 Z M31.6167,30.4793 L31.6887,32.5353 C31.6937,32.6833 31.5787,32.8063 31.4317,32.8113 C31.4287,32.8123 31.4257,32.8123 31.4227,32.8123 C31.2787,32.8123 31.1607,32.6983 31.1547,32.5543 L31.0827,30.4983 C31.0777,30.3503 31.1927,30.2273 31.3407,30.2213 C31.4907,30.2163 31.6107,30.3323 31.6167,30.4793 L31.6167,30.4793 Z M29.4737,30.8613 L30.4757,32.7853 C30.5437,32.9163 30.4927,33.0773 30.3617,33.1453 C30.3227,33.1663 30.2797,33.1753 30.2387,33.1753 C30.1427,33.1753 30.0497,33.1233 30.0017,33.0323 L28.9997,31.1093 C28.9317,30.9783 28.9817,30.8173 29.1127,30.7483 C29.2427,30.6803 29.4047,30.7313 29.4737,30.8613 L29.4737,30.8613 Z M29.3797,33.4843 C29.4927,33.5783 29.5077,33.7463 29.4127,33.8603 C29.3597,33.9233 29.2837,33.9553 29.2077,33.9553 C29.1467,33.9553 29.0867,33.9353 29.0367,33.8933 L27.5207,32.6243 C27.4077,32.5293 27.3937,32.3613 27.4877,32.2483 C27.5827,32.1353 27.7517,32.1213 27.8637,32.2153 L29.3797,33.4843 Z M36.3247,35.7723 L36.2817,35.8443 C35.4057,37.1383 35.1137,38.7523 35.4797,40.2713 C35.5237,40.4473 35.4657,40.6303 35.3287,40.7463 C35.1587,40.8883 34.9317,40.9323 34.7247,40.8643 C34.5577,40.8063 34.4387,40.6603 34.4147,40.4773 C34.0887,39.0313 34.2447,37.4913 34.8527,36.1433 L34.9507,35.9423 L34.7397,35.8263 C34.2587,35.5803 33.7327,35.4543 33.2017,35.4543 C33.0397,35.4543 32.8767,35.4663 32.7147,35.4893 C32.6307,35.4983 32.5457,35.5123 32.4417,35.5393 C31.9867,35.7563 31.5617,36.0323 31.1707,36.3663 C30.9717,36.5803 30.6457,36.5943 30.4307,36.4033 C30.3247,36.3013 30.2647,36.1583 30.2637,36.0083 C30.2587,35.8833 30.3067,35.7593 30.3947,35.6723 C30.8647,35.2113 31.4007,34.8283 31.9867,34.5323 C32.1337,34.4613 32.2977,34.4283 32.4647,34.4363 L32.6937,34.4363 C33.3157,34.3903 33.9367,34.4513 34.5247,34.6143 L34.7557,34.7163 L34.8257,34.4813 C34.8537,34.3853 34.8907,34.2933 34.9367,34.2073 L36.7097,30.8043 L36.5107,30.6923 C35.6247,30.2173 34.7737,29.6613 33.9777,29.0363 C33.8537,28.9513 33.7877,28.8063 33.8057,28.6623 C33.8437,28.4573 33.9827,28.2883 34.1797,28.2123 C34.3567,28.1393 34.5587,28.1713 34.7087,28.2973 C35.7377,29.0943 36.8587,29.7783 38.0477,30.3313 C38.1177,30.3553 38.1847,30.3873 38.2487,30.4283 C38.4317,30.5363 38.5727,30.6973 38.6557,30.8903 L38.7417,31.0963 L42.5367,30.2953 L42.5877,30.2943 C42.8217,30.2593 43.0457,30.4133 43.0957,30.6423 C43.1177,30.7603 43.0907,30.8843 43.0217,30.9823 L43.0197,30.9853 C42.9557,31.0843 42.8527,31.1553 42.7377,31.1803 L38.6247,31.9963 L36.7307,35.4183 C36.6567,35.5683 36.5347,35.6933 36.3867,35.7723 L36.3247,35.7723 Z M43.5547,30.5473 C43.5047,30.3073 43.3637,30.1023 43.1587,29.9683 C42.9547,29.8343 42.7107,29.7883 42.4667,29.8403 L39.1667,30.5333 L39.0087,30.5653 C38.8907,30.3373 38.7167,30.1453 38.5007,30.0053 C38.4117,29.9483 38.3167,29.9023 38.2277,29.8693 C37.0897,29.3403 36.0077,28.6833 35.0147,27.9183 C34.7367,27.6903 34.3547,27.6313 34.0237,27.7663 C33.6767,27.9023 33.4277,28.2023 33.3567,28.5733 C33.3127,28.8903 33.4477,29.2033 33.7057,29.3873 C34.4577,29.9763 35.2637,30.5083 36.1027,30.9693 L34.5267,33.9693 C34.5037,34.0143 34.4807,34.0613 34.4607,34.1093 C33.8647,33.9383 33.2527,33.8893 32.6457,33.9623 L32.4987,33.9623 C32.2537,33.9683 32.0137,34.0173 31.7767,34.1093 C31.1507,34.4303 30.5787,34.8433 30.0787,35.3373 C29.8967,35.5143 29.7997,35.7613 29.8097,36.0123 C29.8117,36.2863 29.9257,36.5513 30.1257,36.7403 C30.5267,37.1043 31.1367,37.0833 31.5087,36.6953 C31.8177,36.3993 32.1647,36.1453 32.5397,35.9403 C32.6227,35.9403 32.7017,35.9373 32.7737,35.9153 C33.3027,35.8753 33.8427,35.9543 34.3387,36.1423 C33.7607,37.5473 33.6317,39.0713 33.9637,40.5503 C34.0157,40.8923 34.2497,41.1753 34.5777,41.2883 C34.6877,41.3253 34.8027,41.3443 34.9187,41.3443 C34.9707,41.3443 35.0227,41.3403 35.0747,41.3333 C35.2827,41.3043 35.4777,41.2173 35.6377,41.0823 C35.9057,40.8543 36.0237,40.5003 35.9457,40.1563 C35.6117,38.7823 35.8657,37.3193 36.6407,36.1363 C36.8587,36.0173 37.0367,35.8383 37.1537,35.6163 L38.8227,32.4233 L39.5127,32.2983 L42.8467,31.6313 C43.0867,31.5803 43.2917,31.4403 43.4257,31.2353 C43.5587,31.0303 43.6037,30.7863 43.5547,30.5473 L43.5547,30.5473 Z M38.2967,27.8493 C38.4767,27.6093 38.7387,27.4533 39.0387,27.4103 L39.0447,27.4093 C39.6557,27.3243 40.2227,27.7563 40.3077,28.3683 C40.3487,28.6653 40.2707,28.9603 40.0907,29.1993 C39.9087,29.4383 39.6457,29.5923 39.3487,29.6333 C38.7357,29.7213 38.1727,29.2903 38.0847,28.6813 C38.0417,28.3843 38.1177,28.0893 38.2967,27.8493 L38.2967,27.8493 Z M39.2007,30.1153 C39.2727,30.1153 39.3457,30.1113 39.4187,30.1003 C40.2857,29.9793 40.8937,29.1743 40.7707,28.3063 C40.7127,27.8863 40.4927,27.5143 40.1537,27.2583 C39.8147,27.0033 39.3987,26.8953 38.9767,26.9543 C38.1097,27.0753 37.5027,27.8803 37.6237,28.7473 C37.7367,29.5403 38.4217,30.1153 39.2007,30.1153 L39.2007,30.1153 Z" id="path-1"></path>
    </defs>
    <g id="Asset-Artboard-Page" stroke="none" stroke-width="1" fill="none" fill-rule="evenodd">
        <g id="icons/products/red/A-car-home/a27-person-stuck-by-a-car" transform="translate(0.382023, 0.000000)">
            <g>
                <polygon id="Rectangle-path" fill-opacity="0" fill="#FFFFFF" fill-rule="nonzero" points="0 0 48 0 48 48 0 48"></polygon>
                <mask id="mask-2" fill="white">
                    <use xlink:href="#path-1"></use>
                </mask>
                <use id="a27-person-stuck-by-a-car" fill="#C5281C" xlink:href="#path-1"></use>
                <polygon id="Color-Style" fill="#C5281C" mask="url(#mask-2)" points="0 0 48 0 48 48 0 48"></polygon>
            </g>
        </g>
    </g>
</svg>