<?xml version="1.0" encoding="UTF-8"?>
<svg width="49px" height="48px" viewBox="0 0 49 48" version="1.1" xmlns="http://www.w3.org/2000/svg" xmlns:xlink="http://www.w3.org/1999/xlink">
    <!-- Generator: sketchtool 60.1 (101010) - https://sketch.com -->
    <title>06B798C0-6E1C-4216-B225-75483637164D</title>
    <desc>Created with sketchtool.</desc>
    <defs>
        <path d="M35.4997,45.2783 C29.3587,45.2783 24.3637,40.2823 24.3637,34.1413 C24.3637,32.7963 24.6157,31.5123 25.0547,30.3173 C25.2267,29.8483 25.4227,29.3913 25.6537,28.9533 C27.4327,25.5913 30.8867,23.2663 34.8947,23.0473 C35.0977,23.0363 35.2947,23.0053 35.4997,23.0053 C35.7557,23.0053 36.0067,23.0263 36.2587,23.0433 C38.4257,23.1903 40.4197,23.9573 42.0717,25.1713 C42.4367,25.4403 42.7857,25.7283 43.1147,26.0383 C45.2767,28.0703 46.6367,30.9473 46.6367,34.1413 C46.6367,40.2823 41.6407,45.2783 35.4997,45.2783 L35.4997,45.2783 Z M42.8297,23.0963 C42.8297,23.3923 42.7777,23.6723 42.7047,23.9453 C40.9427,22.6953 38.8487,21.8913 36.5777,21.6963 C37.1057,20.5843 38.2307,19.8083 39.5417,19.8083 C41.3537,19.8083 42.8297,21.2833 42.8297,23.0963 L42.8297,23.0963 Z M24.1427,28.9533 L14.5537,28.9533 C14.1777,28.9533 13.8717,29.2593 13.8717,29.6353 C13.8717,30.0123 14.1777,30.3173 14.5537,30.3173 L23.6037,30.3173 C23.2157,31.5243 23.0007,32.8073 23.0007,34.1413 C23.0007,35.5813 23.2577,36.9603 23.7077,38.2483 L23.5707,38.2483 C22.6417,38.2543 21.7837,38.2483 21.2137,38.0393 C20.8077,37.8903 20.5367,37.6433 20.5367,36.9213 C20.5367,36.5453 20.2307,36.2393 19.8547,36.2393 L12.8717,36.2393 C12.4957,36.2393 12.1897,36.5453 12.1897,36.9213 L12.1897,41.3593 C12.1897,42.2193 11.4907,42.9193 10.6307,42.9193 L5.7967,42.9193 C4.9367,42.9193 4.2357,42.2193 4.2357,41.3593 L4.2357,36.9213 C4.2357,36.5453 3.9307,36.2393 3.5547,36.2393 L3.2277,36.2393 C2.1997,36.2393 1.3637,35.4033 1.3637,34.3763 L1.3637,21.2283 C1.3637,19.1233 2.4067,17.1413 4.1517,15.9273 L6.3477,14.4093 C6.4737,14.3213 6.5667,14.1953 6.6117,14.0473 L8.8427,6.7143 C9.4267,4.1533 11.6687,2.3633 14.2967,2.3633 L33.7037,2.3633 C36.3307,2.3633 38.5737,4.1533 39.1697,6.7613 L41.3887,14.0473 C41.4337,14.1953 41.5257,14.3213 41.6527,14.4093 L43.8497,15.9293 C45.5947,17.1273 46.6367,19.1083 46.6367,21.2283 L46.6367,28.5203 C45.9307,27.1353 44.9877,25.8893 43.8417,24.8593 C44.0657,24.3153 44.1927,23.7203 44.1927,23.0963 C44.1927,20.5313 42.1057,18.4453 39.5417,18.4453 C37.4827,18.4453 35.7527,19.7983 35.1417,21.6543 C30.2557,21.7943 26.0697,24.7493 24.1427,28.9533 L24.1427,28.9533 Z M44.6237,14.8063 L42.6237,13.4233 L40.4867,6.4113 C39.7617,3.2253 36.9717,1.0003 33.7037,1.0003 L14.2967,1.0003 C11.0277,1.0003 8.2387,3.2253 7.5257,6.3633 L5.3767,13.4233 L3.3757,14.8073 C1.2617,16.2763 -0.0003,18.6763 -0.0003,21.2283 L-0.0003,34.3763 C-0.0003,36.0353 1.2597,37.4063 2.8727,37.5843 L2.8727,41.3593 C2.8727,42.9713 4.1847,44.2823 5.7967,44.2823 L10.6307,44.2823 C12.2417,44.2823 13.5547,42.9713 13.5547,41.3593 L13.5547,37.6033 L19.2397,37.6033 C19.4137,38.4323 19.9257,39.0193 20.7437,39.3203 C21.5417,39.6123 22.5307,39.6123 23.5707,39.6113 L24.2777,39.6113 C26.3117,43.7663 30.5707,46.6413 35.4997,46.6413 C42.2357,46.6413 47.7287,41.2823 47.9767,34.6053 C47.9817,34.5283 47.9997,34.4543 47.9997,34.3763 L47.9997,21.2283 C47.9997,18.6583 46.7367,16.2573 44.6237,14.8063 L44.6237,14.8063 Z M8.4357,19.8083 C6.6217,19.8083 5.1467,21.2833 5.1467,23.0963 C5.1467,24.9103 6.6217,26.3843 8.4357,26.3843 C10.2487,26.3843 11.7237,24.9103 11.7237,23.0963 C11.7237,21.2833 10.2487,19.8083 8.4357,19.8083 L8.4357,19.8083 Z M8.4357,27.7483 C5.8697,27.7483 3.7827,25.6613 3.7827,23.0963 C3.7827,20.5313 5.8697,18.4453 8.4357,18.4453 C10.9997,18.4453 13.0867,20.5313 13.0867,23.0963 C13.0867,25.6613 10.9997,27.7483 8.4357,27.7483 L8.4357,27.7483 Z M14.3197,5.2123 C13.0447,5.2123 11.9437,6.0923 11.6437,7.3513 L9.4617,14.6743 C9.4517,14.7173 9.4747,14.8033 9.5277,14.8703 C9.5877,14.9453 9.6747,14.9883 9.7667,14.9883 L38.2337,14.9883 C38.3247,14.9883 38.4117,14.9453 38.4727,14.8703 C38.5257,14.8033 38.5477,14.7173 38.5297,14.6453 L36.3887,7.3853 C36.0967,6.0883 34.9967,5.2123 33.7037,5.2123 L14.3197,5.2123 Z M38.2337,16.3523 L9.7667,16.3523 C9.2587,16.3523 8.7837,16.1223 8.4627,15.7223 C8.1447,15.3243 8.0257,14.7983 8.1467,14.3143 L10.3267,6.9983 C10.7657,5.1593 12.4107,3.8493 14.3197,3.8493 L33.7037,3.8493 C35.6407,3.8493 37.2867,5.1623 37.7077,7.0443 L39.8457,14.2863 C39.9737,14.7983 39.8547,15.3243 39.5367,15.7223 C39.2167,16.1223 38.7417,16.3523 38.2337,16.3523 L38.2337,16.3523 Z M37.2457,36.6143 C37.2457,36.7843 37.1077,36.9223 36.9377,36.9223 C36.7687,36.9223 36.6307,36.7843 36.6307,36.6143 C36.6307,36.4453 36.7687,36.3073 36.9377,36.3073 C37.1077,36.3073 37.2457,36.4453 37.2457,36.6143 L37.2457,36.6143 Z M34.3887,36.6143 C34.3887,36.7843 34.2507,36.9223 34.0807,36.9223 C33.9107,36.9223 33.7727,36.7843 33.7727,36.6143 C33.7727,36.4453 33.9107,36.3073 34.0807,36.3073 C34.2507,36.3073 34.3887,36.4453 34.3887,36.6143 L34.3887,36.6143 Z M39.0747,35.1803 C39.0437,34.4923 38.7917,33.8283 38.3657,33.2933 C38.9167,33.2153 39.8767,33.1893 40.7277,33.7133 C41.5607,34.2263 42.1177,35.1553 42.3857,36.4753 C41.7517,36.6163 39.9817,36.8393 39.0747,35.1803 L39.0747,35.1803 Z M37.7637,39.0623 C37.1397,40.6503 36.4317,41.6453 35.7807,41.8673 L35.7827,40.5613 C35.7857,40.5563 35.7937,40.5563 35.7967,40.5503 L36.2037,39.8583 C36.2307,39.8133 36.2417,39.7613 36.2367,39.7093 C36.2237,39.5763 36.1047,39.4803 35.9727,39.4943 L35.0307,39.4943 C34.9867,39.4933 34.9437,39.5053 34.9067,39.5273 C34.7917,39.5943 34.7537,39.7423 34.8207,39.8583 L35.2227,40.5503 C35.2267,40.5573 35.2337,40.5603 35.2377,40.5663 L35.2357,41.8653 C34.5737,41.6323 33.8307,40.5853 33.2327,39.0133 C32.7847,37.8873 32.5197,36.7043 32.4427,35.5223 C32.4687,34.7033 32.8107,33.9443 33.4067,33.3833 C33.9787,32.8443 34.7207,32.5513 35.5037,32.5513 C35.5347,32.5513 35.5667,32.5513 35.5997,32.5523 C37.0067,32.5953 38.1757,33.5903 38.4877,34.9133 C38.5057,35.0283 38.5287,35.1423 38.5317,35.2593 C38.5317,35.2713 38.5387,35.2813 38.5407,35.2933 C38.5487,35.3693 38.5667,35.4433 38.5697,35.5223 C38.5697,35.5273 38.5697,35.5313 38.5707,35.5353 C38.4877,36.7483 38.2167,37.9333 37.7637,39.0623 L37.7637,39.0623 Z M28.6137,36.4883 C28.8817,35.1653 29.4387,34.2333 30.2727,33.7173 C31.1237,33.1913 32.0867,33.2173 32.6337,33.2943 C32.2047,33.8333 31.9527,34.5013 31.9257,35.1943 C31.0187,36.8513 29.2487,36.6323 28.6137,36.4883 L28.6137,36.4883 Z M41.0087,33.2453 C39.6067,32.3843 38.0367,32.7823 37.7997,32.8503 C37.6027,32.6863 37.3907,32.5443 37.1607,32.4243 C37.1987,32.3693 37.2207,32.3003 37.2107,32.2293 C37.2097,32.2223 37.1647,31.7183 37.6487,30.9943 C37.7817,31.0153 37.9707,31.0373 38.2017,31.0373 C38.8887,31.0373 39.9047,30.8473 40.6567,29.8853 C40.7497,29.7663 40.7287,29.5953 40.6097,29.5023 C40.4907,29.4083 40.3197,29.4303 40.2277,29.5493 C39.5527,30.4133 38.6157,30.5133 38.0577,30.4863 C38.2487,30.2803 38.4677,30.0683 38.7547,29.8443 C40.3707,28.5913 41.1607,27.3623 41.2407,25.9753 C41.2497,25.8253 41.1347,25.6963 40.9837,25.6873 C40.8347,25.6933 40.7057,25.7943 40.6957,25.9443 C40.6567,26.6283 40.4167,27.6543 38.9817,28.9413 C38.8607,28.7653 38.7017,28.4513 38.6517,27.9023 C38.6387,27.7523 38.5167,27.6333 38.3557,27.6543 C38.2067,27.6683 38.0957,27.8003 38.1087,27.9503 C38.1697,28.6323 38.3867,29.0573 38.5597,29.2973 C38.5107,29.3363 38.4727,29.3743 38.4207,29.4143 C36.7417,30.7163 36.6507,31.8773 36.6647,32.2133 C36.3317,32.1003 35.9837,32.0193 35.6167,32.0073 C35.1807,31.9923 34.7567,32.0663 34.3537,32.2023 C34.3647,31.8533 34.2627,30.7053 32.5977,29.4143 C32.5457,29.3733 32.5067,29.3363 32.4567,29.2963 C32.6297,29.0563 32.8457,28.6313 32.9057,27.9503 C32.9197,27.8003 32.8087,27.6683 32.6587,27.6543 C32.4907,27.6353 32.3767,27.7523 32.3627,27.9023 C32.3137,28.4503 32.1547,28.7643 32.0337,28.9403 C30.5767,27.6373 30.3477,26.6223 30.3187,25.9483 C30.3127,25.7983 30.1927,25.6923 30.0347,25.6873 C29.8847,25.6943 29.7677,25.8213 29.7737,25.9713 C29.8327,27.3413 30.6237,28.5723 32.2637,29.8443 C32.5497,30.0663 32.7677,30.2783 32.9577,30.4833 C32.3967,30.5073 31.4587,30.4033 30.7917,29.5493 C30.6987,29.4303 30.5267,29.4083 30.4087,29.5023 C30.2907,29.5953 30.2697,29.7663 30.3617,29.8853 C31.1137,30.8473 32.1307,31.0373 32.8167,31.0373 C33.0487,31.0373 33.2357,31.0153 33.3697,30.9943 C33.8477,31.7093 33.8117,32.2083 33.8087,32.2293 C33.7977,32.2993 33.8177,32.3663 33.8547,32.4223 C33.6257,32.5413 33.4087,32.6833 33.2067,32.8523 C32.9947,32.7903 31.4097,32.3783 29.9907,33.2513 C28.9647,33.8823 28.3057,35.0233 28.0307,36.6413 C28.0087,36.7743 28.0867,36.9043 28.2147,36.9463 C28.2277,36.9503 28.7617,37.1193 29.4707,37.1193 C30.2407,37.1193 31.2157,36.9083 31.9547,36.0793 C32.0727,37.1543 32.3257,38.2073 32.7257,39.2113 C33.1867,40.4253 34.1597,42.4613 35.5077,42.4613 C36.7537,42.4613 37.6977,40.7213 38.2707,39.2633 C38.6807,38.2433 38.9387,37.1743 39.0607,36.0833 C39.7977,36.8983 40.7637,37.1063 41.5287,37.1063 C42.2377,37.1063 42.7717,36.9373 42.7847,36.9333 C42.9127,36.8913 42.9917,36.7613 42.9687,36.6283 C42.6937,35.0133 42.0337,33.8753 41.0087,33.2453 L41.0087,33.2453 Z" id="path-1"></path>
    </defs>
    <g id="Asset-Artboard-Page" stroke="none" stroke-width="1" fill="none" fill-rule="evenodd">
        <g id="icons/products/red/A-car-home/a28-car-damaged-by-an-animal-collision" transform="translate(0.382023, 0.000000)">
            <g>
                <polygon id="Rectangle-path" fill-opacity="0" fill="#FFFFFF" fill-rule="nonzero" points="0 0 48 0 48 48 0 48"></polygon>
                <mask id="mask-2" fill="white">
                    <use xlink:href="#path-1"></use>
                </mask>
                <use id="a28-car-damaged-by-an-animal-collision" fill="#C5281C" xlink:href="#path-1"></use>
                <polygon id="Color-Style" fill="#C5281C" mask="url(#mask-2)" points="0 0 48 0 48 48 0 48"></polygon>
            </g>
        </g>
    </g>
</svg>