<?xml version="1.0" encoding="UTF-8"?>
<svg width="49px" height="48px" viewBox="0 0 49 48" version="1.1" xmlns="http://www.w3.org/2000/svg" xmlns:xlink="http://www.w3.org/1999/xlink">
    <!-- Generator: sketchtool 60.1 (101010) - https://sketch.com -->
    <title>52DFDF01-21B1-4D65-9A00-B826E8C5016B</title>
    <desc>Created with sketchtool.</desc>
    <defs>
        <path d="M35.4997,45.2783 C29.3587,45.2783 24.3637,40.2823 24.3637,34.1413 C24.3637,32.7963 24.6157,31.5123 25.0547,30.3173 C25.2267,29.8483 25.4227,29.3913 25.6537,28.9533 C27.4327,25.5913 30.8867,23.2663 34.8947,23.0473 C35.0977,23.0363 35.2947,23.0053 35.4997,23.0053 C35.7557,23.0053 36.0067,23.0263 36.2587,23.0433 C38.4257,23.1903 40.4197,23.9573 42.0717,25.1713 C42.4367,25.4403 42.7857,25.7283 43.1147,26.0383 C45.2767,28.0703 46.6367,30.9473 46.6367,34.1413 C46.6367,40.2823 41.6407,45.2783 35.4997,45.2783 L35.4997,45.2783 Z M42.8297,23.0963 C42.8297,23.3923 42.7777,23.6723 42.7047,23.9453 C40.9427,22.6953 38.8487,21.8913 36.5777,21.6963 C37.1057,20.5843 38.2307,19.8083 39.5417,19.8083 C41.3537,19.8083 42.8297,21.2833 42.8297,23.0963 L42.8297,23.0963 Z M24.1427,28.9533 L14.5537,28.9533 C14.1777,28.9533 13.8717,29.2593 13.8717,29.6353 C13.8717,30.0123 14.1777,30.3173 14.5537,30.3173 L23.6037,30.3173 C23.2157,31.5243 23.0007,32.8073 23.0007,34.1413 C23.0007,35.5813 23.2577,36.9603 23.7077,38.2483 L23.5707,38.2483 C22.6417,38.2543 21.7837,38.2483 21.2137,38.0393 C20.8077,37.8903 20.5367,37.6433 20.5367,36.9213 C20.5367,36.5453 20.2307,36.2393 19.8547,36.2393 L12.8717,36.2393 C12.4957,36.2393 12.1897,36.5453 12.1897,36.9213 L12.1897,41.3593 C12.1897,42.2193 11.4907,42.9193 10.6307,42.9193 L5.7967,42.9193 C4.9367,42.9193 4.2357,42.2193 4.2357,41.3593 L4.2357,36.9213 C4.2357,36.5453 3.9307,36.2393 3.5547,36.2393 L3.2277,36.2393 C2.1997,36.2393 1.3637,35.4033 1.3637,34.3763 L1.3637,21.2283 C1.3637,19.1233 2.4067,17.1413 4.1517,15.9273 L6.3477,14.4093 C6.4737,14.3213 6.5667,14.1953 6.6117,14.0473 L8.8427,6.7143 C9.4267,4.1533 11.6687,2.3633 14.2967,2.3633 L33.7037,2.3633 C36.3307,2.3633 38.5737,4.1533 39.1697,6.7613 L41.3887,14.0473 C41.4337,14.1953 41.5257,14.3213 41.6527,14.4093 L43.8497,15.9293 C45.5947,17.1273 46.6367,19.1083 46.6367,21.2283 L46.6367,28.5203 C45.9307,27.1353 44.9877,25.8893 43.8417,24.8593 C44.0657,24.3153 44.1927,23.7203 44.1927,23.0963 C44.1927,20.5313 42.1057,18.4453 39.5417,18.4453 C37.4827,18.4453 35.7527,19.7983 35.1417,21.6543 C30.2557,21.7943 26.0697,24.7493 24.1427,28.9533 L24.1427,28.9533 Z M44.6237,14.8063 L42.6237,13.4233 L40.4867,6.4113 C39.7617,3.2253 36.9717,1.0003 33.7037,1.0003 L14.2967,1.0003 C11.0277,1.0003 8.2387,3.2253 7.5257,6.3633 L5.3767,13.4233 L3.3757,14.8073 C1.2617,16.2763 -0.0003,18.6763 -0.0003,21.2283 L-0.0003,34.3763 C-0.0003,36.0353 1.2597,37.4063 2.8727,37.5843 L2.8727,41.3593 C2.8727,42.9713 4.1847,44.2823 5.7967,44.2823 L10.6307,44.2823 C12.2417,44.2823 13.5547,42.9713 13.5547,41.3593 L13.5547,37.6033 L19.2397,37.6033 C19.4137,38.4323 19.9257,39.0193 20.7437,39.3203 C21.5417,39.6123 22.5307,39.6123 23.5707,39.6113 L24.2777,39.6113 C26.3117,43.7663 30.5707,46.6413 35.4997,46.6413 C42.2357,46.6413 47.7287,41.2823 47.9767,34.6053 C47.9817,34.5283 47.9997,34.4543 47.9997,34.3763 L47.9997,21.2283 C47.9997,18.6583 46.7367,16.2573 44.6237,14.8063 L44.6237,14.8063 Z M8.4357,19.8083 C6.6217,19.8083 5.1467,21.2833 5.1467,23.0963 C5.1467,24.9103 6.6217,26.3843 8.4357,26.3843 C10.2487,26.3843 11.7237,24.9103 11.7237,23.0963 C11.7237,21.2833 10.2487,19.8083 8.4357,19.8083 L8.4357,19.8083 Z M8.4357,27.7483 C5.8697,27.7483 3.7827,25.6613 3.7827,23.0963 C3.7827,20.5313 5.8697,18.4453 8.4357,18.4453 C10.9997,18.4453 13.0867,20.5313 13.0867,23.0963 C13.0867,25.6613 10.9997,27.7483 8.4357,27.7483 L8.4357,27.7483 Z M14.3197,5.2123 C13.0447,5.2123 11.9437,6.0923 11.6437,7.3513 L9.4617,14.6743 C9.4517,14.7173 9.4747,14.8033 9.5277,14.8703 C9.5877,14.9453 9.6747,14.9883 9.7667,14.9883 L38.2337,14.9883 C38.3247,14.9883 38.4117,14.9453 38.4727,14.8703 C38.5257,14.8033 38.5477,14.7173 38.5297,14.6453 L36.3887,7.3853 C36.0967,6.0883 34.9967,5.2123 33.7037,5.2123 L14.3197,5.2123 Z M38.2337,16.3523 L9.7667,16.3523 C9.2587,16.3523 8.7837,16.1223 8.4627,15.7223 C8.1447,15.3243 8.0257,14.7983 8.1467,14.3143 L10.3267,6.9983 C10.7657,5.1593 12.4107,3.8493 14.3197,3.8493 L33.7037,3.8493 C35.6407,3.8493 37.2867,5.1623 37.7077,7.0443 L39.8457,14.2863 C39.9737,14.7983 39.8547,15.3243 39.5367,15.7223 C39.2167,16.1223 38.7417,16.3523 38.2337,16.3523 L38.2337,16.3523 Z M29.3157,30.5943 C28.9287,30.5943 28.5637,30.8073 28.3777,31.1723 C28.2267,31.4563 28.1537,31.7723 28.1667,32.0893 C28.1747,32.3943 28.2387,32.6863 28.3577,32.9633 C28.5507,33.4763 28.9157,33.8843 29.3927,34.1263 C29.5637,34.2113 29.7577,34.2573 29.9507,34.2593 C30.3567,34.2573 30.7287,34.0163 30.8967,33.6453 C31.0207,33.3863 31.0837,33.1023 31.0797,32.8183 C31.0797,32.2873 30.9047,31.7643 30.5887,31.3413 C30.3697,31.0333 30.0717,30.8053 29.7247,30.6753 C29.5897,30.6213 29.4517,30.5943 29.3157,30.5943 L29.3157,30.5943 Z M29.9507,34.8053 L29.9487,34.8053 C29.6727,34.8033 29.3957,34.7363 29.1477,34.6133 C28.5477,34.3093 28.0877,33.7963 27.8517,33.1663 C27.7107,32.8383 27.6317,32.4773 27.6217,32.1073 C27.6047,31.6973 27.6987,31.2853 27.8937,30.9193 C28.2727,30.1783 29.1437,29.8503 29.9227,30.1673 C30.3657,30.3323 30.7507,30.6283 31.0297,31.0203 C31.4117,31.5303 31.6247,32.1703 31.6247,32.8143 C31.6307,33.1783 31.5497,33.5473 31.3917,33.8763 C31.1377,34.4353 30.5717,34.8013 29.9527,34.8053 L29.9507,34.8053 Z M41.6767,30.6063 C41.4227,30.6063 41.1737,30.6813 40.9577,30.8263 C40.5037,31.0963 40.1567,31.5033 39.9687,31.9823 C39.7857,32.4023 39.7387,32.8503 39.8287,33.2883 C39.8787,33.5613 40.0097,33.7993 40.2067,33.9843 C40.3977,34.1663 40.6477,34.2653 40.9107,34.2653 L40.9117,34.2653 C41.0837,34.2613 41.2527,34.2283 41.4137,34.1683 C42.2527,33.8003 42.8147,32.9593 42.8347,32.0283 L42.8347,31.9373 C42.8027,31.8153 42.8027,31.6983 42.8027,31.6033 C42.7897,31.5613 42.7657,31.4713 42.7317,31.3853 C42.6107,30.9883 42.2977,30.7053 41.9077,30.6273 C41.8307,30.6133 41.7537,30.6063 41.6767,30.6063 L41.6767,30.6063 Z M40.9147,34.5383 L40.9217,34.5383 L40.9147,34.5383 Z M40.9107,34.8113 C40.5077,34.8113 40.1247,34.6583 39.8327,34.3813 C39.5507,34.1173 39.3637,33.7753 39.2937,33.3923 C39.1817,32.8503 39.2397,32.2883 39.4647,31.7733 C39.6937,31.1913 40.1227,30.6883 40.6657,30.3653 C41.0537,30.1043 41.5377,30.0043 42.0107,30.0913 C42.6017,30.2093 43.0737,30.6373 43.2477,31.2083 C43.2867,31.3083 43.3207,31.4303 43.3437,31.5553 C43.3477,31.6783 43.3477,31.7573 43.3657,31.8133 C43.3757,31.8403 43.3797,31.8693 43.3797,31.8983 L43.3797,32.0343 C43.3557,33.1813 42.6647,34.2153 41.6187,34.6743 C41.3857,34.7613 41.1547,34.8053 40.9207,34.8103 C40.9167,34.8103 40.9147,34.8113 40.9107,34.8113 L40.9107,34.8113 Z M32.7897,26.8253 C32.4477,26.8253 32.1117,26.9813 31.8927,27.2733 C31.7357,27.4713 31.6237,27.6883 31.5547,27.9233 C31.3457,28.6193 31.4087,29.3593 31.7327,30.0093 C31.9187,30.4243 32.2317,30.7673 32.6197,30.9833 C32.7857,31.0753 32.9737,31.1253 33.1627,31.1293 C33.2297,31.1243 33.2967,31.1143 33.3617,31.0983 C33.6967,31.0253 33.9867,30.8203 34.1637,30.5333 C34.3947,30.1623 34.5137,29.7373 34.5117,29.3033 C34.5167,28.8523 34.4217,28.4033 34.2347,27.9973 C34.0637,27.5923 33.7847,27.2573 33.4237,27.0213 C33.2287,26.8893 33.0077,26.8253 32.7897,26.8253 L32.7897,26.8253 Z M33.1687,31.6743 L33.1657,31.6743 C32.8837,31.6723 32.6037,31.5973 32.3547,31.4603 C31.8637,31.1863 31.4687,30.7543 31.2397,30.2423 C30.8587,29.4783 30.7827,28.5953 31.0307,27.7673 C31.1207,27.4663 31.2647,27.1883 31.4607,26.9403 C31.9907,26.2343 32.9867,26.0683 33.7267,26.5673 C34.1747,26.8603 34.5237,27.2793 34.7337,27.7783 C34.9497,28.2483 35.0627,28.7783 35.0567,29.3053 C35.0607,29.8373 34.9117,30.3623 34.6277,30.8203 C34.3737,31.2313 33.9567,31.5273 33.4827,31.6303 C33.3897,31.6533 33.2867,31.6683 33.1847,31.6743 C33.1787,31.6743 33.1737,31.6743 33.1687,31.6743 L33.1687,31.6743 Z M38.2377,26.8053 C38.1857,26.8053 38.1317,26.8093 38.0787,26.8173 C37.7387,26.8653 37.4217,27.0293 37.1857,27.2793 C36.6457,27.8423 36.3537,28.5793 36.3647,29.3583 L36.3647,29.7273 C36.3957,30.0903 36.5357,30.4583 36.7687,30.7693 C36.9847,31.0453 37.3157,31.2063 37.6727,31.2063 C37.6757,31.2063 37.6787,31.2063 37.6827,31.2053 C37.8157,31.2033 37.9467,31.1813 38.0707,31.1423 C38.4217,31.0203 38.7267,30.7923 38.9467,30.4853 C39.4317,29.8543 39.6457,29.0803 39.5537,28.2973 C39.5197,27.9453 39.3957,27.6143 39.1927,27.3343 C38.9787,26.9993 38.6167,26.8053 38.2377,26.8053 L38.2377,26.8053 Z M37.6857,31.4783 L37.6917,31.4783 L37.6857,31.4783 Z M37.6727,31.7513 C37.1467,31.7513 36.6607,31.5143 36.3357,31.1013 C36.0377,30.7033 35.8607,30.2373 35.8207,29.7503 L35.8197,29.3613 C35.8077,28.4433 36.1517,27.5693 36.7907,26.9033 C37.1097,26.5653 37.5407,26.3423 38.0017,26.2773 C38.6477,26.1853 39.2917,26.4793 39.6447,27.0273 C39.8947,27.3743 40.0527,27.7973 40.0957,28.2393 C40.2037,29.1583 39.9507,30.0733 39.3847,30.8103 C39.1037,31.2023 38.7077,31.4983 38.2437,31.6593 C38.0627,31.7173 37.8777,31.7473 37.6897,31.7513 C37.6857,31.7513 37.6787,31.7513 37.6727,31.7513 L37.6727,31.7513 Z M35.3017,32.5863 C34.8687,32.5863 34.4487,32.7143 34.0977,32.9533 C33.7997,33.1573 33.5377,33.4073 33.3207,33.6943 C33.1907,33.8763 33.0497,34.0663 32.9067,34.2573 C32.7767,34.4313 32.6477,34.6053 32.5227,34.7783 L32.4007,34.9453 C32.0667,35.4233 31.6717,35.8683 31.2287,36.2633 C30.8817,36.5563 30.5937,36.8993 30.3657,37.2883 C29.9637,37.9193 29.7957,38.6653 29.8887,39.3973 C29.9777,40.1413 30.4177,40.8043 31.0667,41.1743 C31.5587,41.4543 32.1307,41.5453 32.6877,41.4273 C32.9727,41.3783 33.2427,41.3093 33.5037,41.2403 L34.1707,41.0803 C34.4367,41.0183 34.7227,40.9513 34.9967,40.9123 C35.4537,40.8613 35.9057,40.8953 36.3477,41.0103 L37.6837,41.3543 C37.9357,41.4183 38.1957,41.4523 38.4577,41.4543 C38.6067,41.4513 38.7597,41.4333 38.9097,41.4013 C40.0927,41.1983 40.9357,40.1903 40.925788,39.0023 C40.9187,38.6563 40.8527,38.3133 40.7257,37.9853 C40.4717,37.3003 40.0437,36.6913 39.4887,36.2183 C39.0997,35.8823 38.7587,35.4963 38.4737,35.0713 C38.3857,34.9463 38.2987,34.8133 38.2117,34.6823 L37.7097,33.9323 C37.4957,33.6023 37.2327,33.3173 36.9247,33.0803 C36.4967,32.7733 35.9837,32.6023 35.4487,32.5903 C35.3997,32.5883 35.3507,32.5863 35.3017,32.5863 L35.3017,32.5863 Z M32.2117,42.0233 C31.7207,42.0233 31.2317,41.8963 30.7977,41.6483 C29.9977,41.1933 29.4557,40.3773 29.3477,39.4633 C29.2387,38.6073 29.4357,37.7333 29.9007,37.0043 C30.1527,36.5703 30.4817,36.1793 30.8717,35.8513 C31.2767,35.4893 31.6447,35.0763 31.9577,34.6273 L32.0817,34.4583 C32.2067,34.2843 32.3387,34.1083 32.4697,33.9313 C32.6087,33.7433 32.7487,33.5563 32.8807,33.3713 C33.1387,33.0303 33.4427,32.7413 33.7897,32.5033 C34.2817,32.1683 34.8727,32.0063 35.4737,32.0463 C36.1067,32.0593 36.7257,32.2663 37.2497,32.6423 C37.6137,32.9223 37.9197,33.2533 38.1647,33.6323 L38.6667,34.3813 C38.7507,34.5093 38.8357,34.6383 38.9237,34.7643 C39.1847,35.1533 39.4927,35.5013 39.8447,35.8043 C40.4687,36.3353 40.9497,37.0233 41.2357,37.7923 C41.3837,38.1773 41.4637,38.5823 41.470787,38.9953 C41.4817,40.4543 40.4487,41.6903 39.0137,41.9363 C38.8397,41.9743 38.6507,41.9963 38.4657,42.0003 C38.4617,42.0013 38.4567,41.9993 38.4577,42.0003 C38.1507,41.9973 37.8447,41.9583 37.5477,41.8823 L36.2097,41.5383 C35.8327,41.4403 35.4487,41.4123 35.0637,41.4533 C34.8147,41.4883 34.5457,41.5523 34.2987,41.6103 L33.6377,41.7693 C33.3677,41.8403 33.0817,41.9123 32.7907,41.9633 C32.5997,42.0043 32.4047,42.0233 32.2117,42.0233 L32.2117,42.0233 Z" id="path-1"></path>
    </defs>
    <g id="Asset-Artboard-Page" stroke="none" stroke-width="1" fill="none" fill-rule="evenodd">
        <g id="icons/products/red/A-car-home/a29-car-damaged-by-an-animal" transform="translate(0.382023, 0.000000)">
            <g>
                <polygon id="Rectangle-path" fill-opacity="0" fill="#FFFFFF" fill-rule="nonzero" points="0 0 48 0 48 48 0 48"></polygon>
                <mask id="mask-2" fill="white">
                    <use xlink:href="#path-1"></use>
                </mask>
                <use id="a29-car-damaged-by-an-animal" fill="#C5281C" xlink:href="#path-1"></use>
                <polygon id="Color-Style" fill="#C5281C" mask="url(#mask-2)" points="0 0 48 0 48 48 0 48"></polygon>
            </g>
        </g>
    </g>
</svg>