<?xml version="1.0" encoding="UTF-8"?>
<svg width="49px" height="48px" viewBox="0 0 49 48" version="1.1" xmlns="http://www.w3.org/2000/svg" xmlns:xlink="http://www.w3.org/1999/xlink">
    <!-- Generator: sketchtool 60.1 (101010) - https://sketch.com -->
    <title>D090A23A-7391-4E79-98B4-5DBF8B057ED5</title>
    <desc>Created with sketchtool.</desc>
    <defs>
        <path d="M23.9898862,48 C10.7363702,47.9944125 -0.00372206118,37.2467746 0,23.9932579 C0.00372399647,10.7397413 10.7498528,-0.00186092603 24.0033698,0 C37.2568869,0.00186092603 48,10.7464804 48,24 C47.9832725,37.2518448 37.2417393,47.9888534 23.9898862,48 Z M23.9898862,0.970920514 C11.2712781,0.970920514 0.960809123,11.2813895 0.960809123,23.9999976 C0.960809123,36.7186057 11.2712781,47.0290747 23.9898862,47.0290747 C36.7084943,47.0290747 47.0189633,36.7186057 47.0189633,23.9999976 C47.0022484,11.2883195 36.7015643,0.987635432 23.9898862,0.970920514 Z M12.460177,30.7458889 C10.0834387,30.7458889 7.84829332,29.6637144 7.54487992,27.246521 C7.51436136,26.9472743 7.7230902,26.6763709 8.02022758,26.6295804 L9.50695324,26.6295804 C9.76868285,26.6356268 9.98930639,26.826551 10.0328698,27.0847005 C10.255373,28.3084679 11.3476612,28.7737018 12.5714286,28.7737018 C13.4614412,28.7737018 14.8268015,28.5208573 14.8268015,27.3274312 C14.8268015,26.1340052 13.0872314,25.8710469 11.3780025,25.4159268 C9.66877372,24.9608067 7.91908978,24.2932972 7.91908978,22.1289483 C7.91908978,19.75221 10.1643489,18.6194667 12.2579014,18.6194667 C14.3514539,18.6194667 16.5158028,19.4993655 16.8495575,21.6536007 C16.8726205,21.8040582 16.834151,21.9574661 16.7428221,22.0792381 C16.6514931,22.20101 16.514993,22.2808949 16.3640961,22.3008826 L14.8874842,22.3008826 C14.6346408,22.3058575 14.4102618,22.1396508 14.3413401,21.8963314 C14.0986094,20.8849534 13.1984829,20.5714262 12.1163085,20.5714262 C11.2869785,20.5714262 10.3565108,20.9051809 10.3565108,21.8862176 C10.3565108,22.8672543 10.9127687,22.8975956 13.8154235,23.6359015 C14.6649811,23.8482909 17.2642225,24.3843213 17.2642225,27.0139041 C17.2844501,29.1580254 15.6055626,30.7458889 12.460177,30.7458889 Z M35.630847,30.7458889 C33.2642225,30.7458889 31.0290771,29.6637144 30.7256637,27.246521 C30.7056191,27.1014621 30.7446678,26.9544301 30.834044,26.8384311 C30.9234203,26.7224322 31.0556362,26.6471847 31.2010114,26.6295804 L32.6675095,26.6295804 C32.9330753,26.6307844 33.1592811,26.822846 33.2035398,27.0847005 C33.4159292,28.3084679 34.5082175,28.7737018 35.7319848,28.7737018 C36.6219975,28.7737018 37.9873578,28.5208573 37.9873578,27.3274312 C37.9873578,26.1340052 36.2477876,25.8710469 34.5385588,25.4159268 C32.82933,24.9608067 31.0695322,24.2831835 31.0695322,22.1188345 C31.0695322,19.7420962 33.3147914,18.6093529 35.4083439,18.6093529 C37.5018963,18.6093529 39.6359039,19.479138 40,21.6434869 C40.0483617,21.9781503 39.8183215,22.2893812 39.4841972,22.3413377 L38.1491783,22.3413377 C37.8728231,22.3409012 37.6316675,22.1537977 37.562579,21.8862176 C37.3097345,20.8748396 36.4197219,20.5916538 35.3476612,20.5916538 C34.5183312,20.5916538 33.5878635,20.9355223 33.5878635,21.9064452 C33.5878635,22.877368 34.1441214,22.9178232 37.05689,23.6662429 C37.8963338,23.8685185 40.4955752,24.4146626 40.4955752,27.0442454 C40.4551201,29.1580254 38.7863464,30.7458889 35.630847,30.7458889 Z M23.9898862,18.5992391 C20.3994943,18.5992391 18.2857143,21.2793908 18.2857143,24.718076 C18.2857143,28.1567612 20.3994943,30.786344 23.9898862,30.786344 C27.5802781,30.786344 29.6940582,28.1163061 29.6940582,24.718076 C29.6940582,21.3198459 27.5802781,18.5992391 23.9898862,18.5992391 Z M23.9898862,28.6118813 C21.6940582,28.6118813 20.8343869,26.6599218 20.8343869,24.718076 C20.8343869,22.7762302 21.6940582,20.7433605 23.9898862,20.7433605 C26.2857143,20.7433605 27.1352718,22.69532 27.1352718,24.718076 C27.1352718,26.740832 26.2857143,28.6118813 23.9898862,28.6118813 L23.9898862,28.6118813 Z" id="path-1"></path>
    </defs>
    <g id="Asset-Artboard-Page" stroke="none" stroke-width="1" fill="none" fill-rule="evenodd">
        <g id="icons/products/red/A-car-home/a30-emergency-screen-sos" transform="translate(0.382023, 0.000000)">
            <g>
                <polygon id="Rectangle-path" fill-opacity="0" fill="#FFFFFF" fill-rule="nonzero" points="-5.68434189e-14 0 48 0 48 48 -5.68434189e-14 48"></polygon>
                <mask id="mask-2" fill="white">
                    <use xlink:href="#path-1"></use>
                </mask>
                <use id="Shape" fill="#C5281C" xlink:href="#path-1"></use>
                <polygon id="Color-Style" fill="#C5281C" mask="url(#mask-2)" points="0 0 48 0 48 48 0 48"></polygon>
            </g>
        </g>
    </g>
</svg>