<?xml version="1.0" encoding="UTF-8"?>
<svg width="49px" height="48px" viewBox="0 0 49 48" version="1.1" xmlns="http://www.w3.org/2000/svg" xmlns:xlink="http://www.w3.org/1999/xlink">
    <!-- Generator: sketchtool 60.1 (101010) - https://sketch.com -->
    <title>57CE568F-9F0F-40B2-B3DC-BDA788445DDB</title>
    <desc>Created with sketchtool.</desc>
    <defs>
        <path d="M42.485,39.6706 L46.862,39.6706 L46.862,8.1086 L42.485,8.1086 L42.485,39.6706 Z M41.308,35.7626 L37.915,35.7626 C37.863,35.5666 37.795,35.3756 37.715,35.1896 L41.308,35.1896 L41.308,35.7626 Z M36.963,37.9096 C36.825,38.3306 36.596,38.7216 36.292,39.0436 C36.278,39.0596 36.263,39.0746 36.248,39.0896 C35.69,39.6546 34.903,39.9866 34.11,39.9886176 C32.678,39.9936 31.38,38.9356 31.087,37.5396 C31.081,37.5106 31.075,37.4816 31.07,37.4526 C31.025,37.2066 31.01,36.9546 31.028,36.7046 C31.127,35.3096 32.185,34.1496 33.564,33.9296 C34.3,33.8116 35.073,33.9606 35.706,34.3596 C36.849,35.0796 37.381,36.6366 36.963,37.9096 L36.963,37.9096 Z M30.206,35.7626 L12.348,35.7626 C12.299,35.5666 12.235,35.3756 12.156,35.1896 L30.423,35.1896 C30.336,35.3746 30.263,35.5656 30.206,35.7626 L30.206,35.7626 Z M8.471,32.7846 C7.282,32.7846 6.164,33.3116 5.4,34.2106 L1.213,34.2106 L1.213,29.1826 C1.213,28.3886 1.715,27.7396 2.334,27.7356 L35.297,27.7356 C38.165,27.7356 40.258,30.4496 40.364,34.2276 L37.049,34.2276 C36.923,34.0906 36.8,33.9526 36.655,33.8336 C34.986,32.4616 32.562,32.6546 31.106,34.2106 L11.546,34.2106 C10.787,33.3036 9.663,32.7736 8.471,32.7846 L8.471,32.7846 Z M10.633,38.9796 C10.028,39.5666 9.209,39.8826 8.366,39.8536 C7.572,39.8306 6.821,39.4936 6.275,38.9166 C5.72,38.3516 5.419,37.5866 5.438,36.7956 C5.434,36.6376 5.442,36.4796 5.463,36.3236 C5.531,35.8416 5.718,35.3846 6.007,34.9936 L6.065,34.9156 C6.645,34.1906 7.518,33.7606 8.45,33.7636 C9.422,33.7476 10.341,34.2026 10.918,34.9846 L10.951,35.0316 C11.218,35.4176 11.396,35.8576 11.462,36.3236 L11.463,36.3296 C11.486,36.4836 11.5,36.6396 11.504,36.7956 C11.522,37.6116 11.208,38.3996 10.633,38.9796 L10.633,38.9796 Z M4.576,35.7796 L0.979,35.7796 L0.979,35.1896 L4.773,35.2066 C4.692,35.3926 4.627,35.5836 4.576,35.7796 L4.576,35.7796 Z M9.073,24.2056 C9.47,23.6316 9.818,23.1216 10.123,22.6736 C11.148,21.1726 11.771,20.2556 12.152,20.1976 L13.821,20.1976 L13.821,26.8526 L7.182,26.8526 L9.073,24.2056 Z M14.783,20.1976 L24.094,20.1976 C25.205,20.2376 27.552,24.0036 28.973,26.8526 L14.783,26.8526 L14.783,20.1976 Z M47.038,6.9996 C47.57,6.9996 48.001,7.4306 48.001,7.9626 L48.001,7.9626 L48.001,39.8156 C48.001,40.3476 47.57,40.7786 47.038,40.7786 L47.038,40.7786 L42.308,40.7786 C41.776,40.7786 41.345,40.3476 41.345,39.8156 L41.345,39.8156 L41.345,36.7416 L38.052,36.7416 L38.052,36.7416 L38.066,36.9086 C38.088,37.9836 37.675,39.0216 36.92,39.7866 C36.144,40.5536 35.091,40.9746 34,40.9536 L34,40.9536 L33.967,40.9536 C32.9,40.9376 31.884,40.4946 31.147,39.7246 C30.401,38.9066 30.018,37.8326 30.06,36.7416 L30.06,36.7416 L12.477,36.7416 C12.478,36.7596 12.482,36.7776 12.482,36.7956 C12.506,37.8726 12.092,38.9116 11.336,39.6786 C10.554,40.4446 9.494,40.8616 8.4,40.8326 L8.4,40.8326 L8.366,40.8326 C7.299,40.8156 6.283,40.3716 5.547,39.5986 C4.817,38.8516 4.421,37.8396 4.451,36.7956 C4.45,36.7776 4.454,36.7596 4.454,36.7416 L4.454,36.7416 L0.967,36.7416 C0.434,36.7416 0.002,36.3116 0,35.7796 L0,35.7796 L0,35.1776 C0,34.8916 0.129,34.6416 0.326,34.4646 L0.326,34.4646 L0.326,29.1826 C0.326,27.8986 1.226,26.8526 2.33,26.8526 L2.33,26.8526 L6.056,26.8526 C6.087,26.7516 6.127,26.6556 6.178,26.5846 L6.178,26.5846 L8.27,23.6566 C8.856,22.8206 8.856,22.8206 9.311,22.1386 C10.709,20.0846 11.232,19.3186 12.068,19.2436 L12.068,19.2436 L14.283,19.2436 C14.289,19.2436 14.295,19.2406 14.301,19.2406 C14.308,19.2406 14.314,19.2436 14.32,19.2436 L14.32,19.2436 L24.094,19.2436 C26.257,19.3236 29.382,25.5186 29.988,26.7736 C30.001,26.7986 30.001,26.8266 30.008,26.8526 L30.008,26.8526 L35.292,26.8526 C38.668,26.8526 41.131,29.9386 41.242,34.2276 L41.242,34.2276 L41.345,34.2276 L41.345,7.9626 C41.345,7.4306 41.776,6.9996 42.308,6.9996 L42.308,6.9996 Z M35.7186,23.626 L38.8846,25.985 C39.0896,26.137 39.1316,26.426 38.9796,26.63 C38.8886,26.752 38.7496,26.816 38.6096,26.816 C38.5136,26.816 38.4176,26.787 38.3346,26.725 L35.1676,24.365 C34.9636,24.213 34.9216,23.924 35.0726,23.72 C35.2266,23.515 35.5146,23.475 35.7186,23.626 Z M37.9126,21.8866 L39.9876,25.4756 C40.1146,25.6956 40.0396,25.9786 39.8196,26.1056 C39.7466,26.1476 39.6676,26.1676 39.5886,26.1676 C39.4296,26.1676 39.2746,26.0846 39.1896,25.9376 L37.1136,22.3486 C36.9876,22.1276 37.0626,21.8456 37.2826,21.7186 C37.5026,21.5926 37.7856,21.6666 37.9126,21.8866 Z M40.5734,20.8793 C40.8174,20.8553 41.0404,21.0703 41.0494,21.3243 L41.1824,25.2643 C41.1914,25.5183 40.9924,25.7323 40.7384,25.7413 L40.7224,25.7413 L40.7224,25.7413 C40.4744,25.7413 40.2704,25.5453 40.2614,25.2963 L40.1274,21.3553 C40.1194,21.1013 40.3184,20.8873 40.5734,20.8793 Z" id="path-1"></path>
    </defs>
    <g id="Asset-Artboard-Page" stroke="none" stroke-width="1" fill="none" fill-rule="evenodd">
        <g id="icons/products/red/A-car-home/a31-foreign-property-damaged-by-a-car" transform="translate(0.382023, 0.000000)">
            <g>
                <polygon id="Rectangle-path" fill-opacity="0" fill="#FFFFFF" fill-rule="nonzero" points="-5.68434189e-14 0 48 0 48 48 -5.68434189e-14 48"></polygon>
                <mask id="mask-2" fill="white">
                    <use xlink:href="#path-1"></use>
                </mask>
                <use id="a31-foreign-property-damaged-by-a-car" fill="#C5281C" xlink:href="#path-1"></use>
                <polygon id="Color-Style" fill="#C5281C" mask="url(#mask-2)" points="0 0 48 0 48 48 0 48"></polygon>
            </g>
        </g>
    </g>
</svg>