<?xml version="1.0" encoding="UTF-8"?>
<svg width="32px" height="31px" viewBox="0 0 32 31" version="1.1" xmlns="http://www.w3.org/2000/svg" xmlns:xlink="http://www.w3.org/1999/xlink">
    <!-- Generator: sketchtool 63.1 (101010) - https://sketch.com -->
    <title>48BF8AA0-BACB-4D35-A28F-529B4D00459C</title>
    <desc>Created with sketchtool.</desc>
    <defs>
        <path d="M23.4467333,13.5944 C23.5867333,13.6370667 23.7280667,13.6757333 23.8707333,13.7090667 C24.1434,13.7737333 24.4167333,13.8190667 24.6887333,13.8484 C24.5254,14.3564 24.0620667,14.7337333 23.4980667,14.7530667 C23.4680667,14.7544 23.4374,14.7544 23.4074,14.7530667 C23.2594,14.7490667 23.0940667,14.7250667 22.9560667,14.6704 C22.2774,14.4110667 21.9374,13.6504 22.1974,12.9717333 C22.3820667,12.4884 22.8334,12.1584 23.3500667,12.1284 L23.4707333,12.1284 C23.5634,12.1310667 23.6740667,12.1437333 23.7634,12.1664 C24.1720667,12.2657333 24.5047333,12.5550667 24.6654,12.9397333 C24.4687333,12.9137333 24.2727333,12.8797333 24.0774,12.8337333 C23.9540667,12.8044 23.8320667,12.7717333 23.7107333,12.7344 C23.4734,12.6610667 23.2220667,12.7944 23.1487333,13.0324 C23.0760667,13.2697333 23.2094,13.5217333 23.4467333,13.5944 M24.2640667,20.8510667 C23.6340667,21.1237333 22.9614,21.2844 22.2760667,21.3250667 C21.4287333,21.4397333 20.5667333,21.3350667 19.7720667,21.0204 C19.3934,20.8590667 18.9554,20.9444 18.6660667,21.2357333 L18.4500667,21.4650667 L17.0834,22.9010667 C16.9054,23.0830667 16.8054,23.3270667 16.8040667,23.5810667 L16.9054,25.5324 L14.8520667,25.9137333 C14.4220667,25.9664 14.0760667,26.2937333 14.0007333,26.7210667 L13.7340667,28.0877333 L12.3294,28.6470667 C12.0840667,28.7090667 11.8720667,28.8644 11.7380667,29.0790667 L11.0200667,30.2104 L9.30406667,30.3184 L9.37406667,28.5137333 L16.7527333,20.3144 L16.9560667,20.0664 C17.2807333,19.7124 17.3047333,19.1770667 17.0134,18.7957333 C16.7240667,18.4097333 16.4967333,17.9804 16.3394,17.5244 C16.1560667,16.9630667 16.0740667,16.3730667 16.0474,15.7830667 C15.9367333,13.9777333 16.6634,12.2217333 18.0174,11.0224 C18.9454,10.2017333 20.1094,9.69706667 21.3420667,9.57973333 L21.5447333,9.5604 C22.2047333,9.51973333 22.8667333,9.5904 23.5027333,9.7704 C25.0580667,10.2190667 26.3647333,11.2924 27.1140667,12.7157333 C26.5640667,12.8904 25.9934,12.9804 25.4160667,12.9824 C25.2914,12.4084 24.9054,11.9050667 24.3760667,11.6470667 C23.5007333,11.2190667 22.3554,11.5150667 21.7934,12.3064 C21.1634,13.2110667 21.3860667,14.4550667 22.2914,15.0844 C22.3807333,15.1470667 22.4754,15.2017333 22.5747333,15.2490667 C22.8247333,15.3710667 23.1167333,15.4317333 23.3947333,15.4397333 L23.5727333,15.4397333 C24.4780667,15.3904 25.2087333,14.7377333 25.3960667,13.8870667 C26.1134,13.8864 26.8134,13.7657333 27.4754,13.5444 C28.4694,16.4210667 27.1034,19.6217333 24.2640667,20.8510667 M21.5134,7.30973333 C20.8740667,7.31973333 20.2400667,7.4104 19.6187333,7.58173333 C17.6647333,8.1204 16.0367333,9.38706667 15.0360667,11.1497333 C14.1487333,12.7117333 13.8480667,14.4970667 14.1567333,16.2084 C13.8494,15.9950667 13.5714,15.7390667 13.3334,15.4510667 C13.1747333,15.2597333 12.9194,15.1844 12.6714,15.2610667 L10.6727333,15.9597333 C10.5294,16.0084 10.4100667,16.1077333 10.3247333,16.2644 L9.4814,18.1617333 L7.39273333,17.5337333 C7.14006667,17.4370667 6.85006667,17.5244 6.6994,17.7330667 L5.82073333,18.9184 L4.20673333,18.7644 L4.18273333,18.7644 C4.0534,18.7310667 3.91273333,18.7410667 3.75273333,18.8104 L2.5594,19.5044 L0.6534,18.6864 L1.71806667,16.8284 L11.6020667,13.0590667 C11.8674,12.9570667 12.0267333,12.6804 11.9814,12.4024 C11.8207333,11.3544 11.9820667,10.2964 12.4474,9.34306667 L12.4534,9.3304 C13.3807333,7.21373333 15.4914,5.8884 17.7247333,5.8884 C18.1100667,5.8884 18.5007333,5.92773333 18.8880667,6.00973333 L19.7300667,6.24706667 C19.8247333,6.28106667 19.9187333,6.3164 20.0094,6.35506667 C20.5560667,6.59173333 21.0654,6.91573333 21.5134,7.30973333 M26.9107333,0.8464 C25.1920667,0.4404 23.4187333,0.727733333 21.9180667,1.65506667 C20.5294,2.51306667 19.5367333,3.82706667 19.0720667,5.3764 L19.0460667,5.36973333 C16.0927333,4.74373333 13.0667333,6.29506667 11.8514,9.05973333 C11.3360667,10.1190667 11.1534,11.2924 11.3227333,12.4590667 L1.48473333,16.2110667 C1.3434,16.2644 1.2234,16.3657333 1.1494,16.4964 L0.0780666667,18.3637333 C-0.0939333333,18.6770667 0.0214,19.0710667 0.3874,19.2690667 L2.2794,20.1010667 C2.3674,20.1457333 2.46406667,20.1684 2.56406667,20.1684 C2.66873333,20.1684 2.77673333,20.1430667 2.88073333,20.0904 L4.03273333,19.4110667 L4.0654,19.4244 L4.17473333,19.4224 L5.8054,19.5764 C6.0274,19.5657333 6.2254,19.4444 6.30806667,19.2924 L7.1994,18.1637333 L9.28406667,18.7910667 C9.59873333,18.8944 9.93873333,18.7437333 10.0754,18.4410667 L10.8874,16.5837333 L12.8247333,15.8724 C13.2760667,16.4184 13.8547333,16.8644 14.4974,17.1630667 L14.9660667,17.3417333 L14.9660667,16.8250667 L14.9547333,16.7370667 C14.4627333,14.9530667 14.6960667,13.0844 15.6100667,11.4757333 C16.5240667,9.8664 18.0094,8.70973333 19.7940667,8.21773333 C20.6134,7.9924 21.4574,7.91973333 22.3014,8.00106667 L23.1134,8.07973333 L22.5840667,7.45906667 C21.9580667,6.7244 21.1580667,6.13306667 20.2694,5.7484 C20.1667333,5.70506667 20.0620667,5.66573333 19.9354,5.6204 C20.3387333,4.28773333 21.1954,3.15906667 22.3907333,2.42106667 C23.6874,1.61973333 25.2187333,1.37106667 26.7034,1.72173333 C29.7667333,2.44573333 31.6700667,5.52706667 30.9467333,8.59106667 C30.5960667,10.0750667 29.6880667,11.3337333 28.3907333,12.1350667 C28.1874,12.2604 27.9767333,12.3670667 27.7634,12.4657333 C26.8560667,10.6837333 25.1840667,9.4004 23.2107333,8.99506667 C22.6460667,8.87906667 22.0694,8.83906667 21.4940667,8.87373333 C21.2147333,8.8944 20.9240667,8.95173333 20.6487333,9.00773333 C19.7234,9.1844 18.8480667,9.56106667 18.0807333,10.1084 L18.0814,10.1070667 C18.0794,10.1084 18.0780667,10.1097333 18.0760667,10.1110667 C18.0654,10.1190667 18.0540667,10.1250667 18.0434,10.1324 C18.0420667,10.1350667 18.0420667,10.1377333 18.0407333,10.1404 C16.2394,11.4570667 15.2254,13.5970667 15.3547333,15.8277333 C15.3820667,16.3137333 15.4287333,16.8030667 15.5454,17.2764 C15.7207333,17.9664 16.0320667,18.6144 16.4607333,19.1830667 C16.5487333,19.2924 16.5487333,19.4490667 16.4607333,19.5584 L16.2700667,19.8250667 L8.77673333,28.1324 C8.72206667,28.1917333 8.69073333,28.2677333 8.6874,28.3484 L8.59206667,30.6550667 C8.58473333,30.8444 8.73206667,31.0044 8.9214,31.0117333 C8.93406667,31.0121712 8.9474,31.0121712 8.96073333,31.0110667 L11.2360667,30.8717333 C11.3454,30.8644 11.4447333,30.8050667 11.5027333,30.7124 L12.3167333,29.4417333 C12.3594,29.3730667 12.5074,29.3077333 12.5074,29.3077333 L14.1594,28.6724 C14.2680667,28.6290667 14.3474,28.5330667 14.3694,28.4184 L14.6747333,26.8610667 C14.6967333,26.7297333 14.8027333,26.6284 14.9347333,26.6130667 L17.2994,26.2130667 C17.4714,26.1837333 17.5940667,26.0310667 17.5854,25.8570667 L17.4900667,23.5750667 C17.4920667,23.5010667 17.5214,23.4310667 17.5727333,23.3777333 L19.1234,21.7577333 L19.1620667,21.7130667 C19.2487333,21.6257333 19.3794,21.6004 19.4920667,21.6490667 C20.3854,22.0124 21.3580667,22.1370667 22.3140667,22.0117333 C25.9340667,21.7970667 28.6947333,18.6890667 28.4800667,15.0690667 C28.4440667,14.4624 28.3167333,13.8657333 28.1147333,13.2937333 C29.9147333,12.4764 31.3334,10.8664 31.8220667,8.79773333 C32.6600667,5.25173333 30.4567333,1.6844 26.9107333,0.8464" id="path-1"></path>
    </defs>
    <g id="Breakpoint-S" stroke="none" stroke-width="1" fill="none" fill-rule="evenodd">
        <g id="05_Home-contracts-S" transform="translate(-16.000000, -1034.000000)">
            <g id="06_List_Items/09_Accordions/06.09.06_Left_Icon_Text_Badge/S-Copy-3" transform="translate(0.000000, 1014.000000)">
                <g id="icons/products/red/A-car-home/a01-fire" transform="translate(16.000000, 20.000000)">
                    <g id="icons/products/red/A-car-home/a32-lost-keys">
                        <polygon id="Rectangle-path" fill-opacity="0" fill="#FFFFFF" fill-rule="nonzero" points="-3.78956126e-14 0 32 0 32 32 -3.78956126e-14 32"></polygon>
                        <mask id="mask-2" fill="white">
                            <use xlink:href="#path-1"></use>
                        </mask>
                        <use id="a32-lost-keys" fill="#C5281C" xlink:href="#path-1"></use>
                        <polygon id="Color-Style" fill="#C5281C" mask="url(#mask-2)" points="0 0 32 0 32 32 0 32"></polygon>
                    </g>
                </g>
            </g>
        </g>
    </g>
</svg>