<?xml version="1.0" encoding="UTF-8"?>
<svg width="48px" height="48px" viewBox="0 0 48 48" version="1.1" xmlns="http://www.w3.org/2000/svg" xmlns:xlink="http://www.w3.org/1999/xlink">
    <!-- Generator: sketchtool 62 (101010) - https://sketch.com -->
    <title>25379837-7B3E-4819-A341-85CE7C3FB348</title>
    <desc>Created with sketchtool.</desc>
    <defs>
        <path d="M32.3132,5.7076 C32.8472,4.9946 33.6272,4.5316 34.5182,4.4026 L34.5372,4.3996 C36.3542,4.1466 38.0392,5.4316 38.2902,7.2506 C38.4132,8.1346 38.1822,9.0116 37.6442,9.7216 C37.1062,10.4316 36.3232,10.8906 35.4402,11.0106 C33.6182,11.2716 31.9432,9.9906 31.6842,8.1826 C31.5552,7.2996 31.7802,6.4216 32.3132,5.7076 M19.6118,5.4624 C20.5988,5.0604 21.7308,5.2334 22.5568,5.9124 C25.5088,8.1864 28.7238,10.1394 32.1068,11.7134 C32.3748,11.8084 32.6548,11.9474 32.9198,12.1144 C33.5588,12.5324 34.0768,13.1044 34.4278,13.7804 L34.4278,13.7804 L34.8978,13.6874 L44.7068,11.6244 C45.4328,11.4714 46.1588,11.6094 46.7658,12.0074 C47.3758,12.4044 47.7928,13.0144 47.9408,13.7264 C48.0908,14.4374 47.9538,15.1644 47.5568,15.7734 C47.1608,16.3814 46.5508,16.7994 45.8388,16.9484 L45.8388,16.9484 L35.9268,18.9304 L33.8778,19.3044 L28.9178,28.7964 C28.5688,29.4534 28.0418,29.9864 27.3898,30.3424 C25.0868,33.8554 24.3348,38.2064 25.3258,42.2894 C25.5568,43.3124 25.2058,44.3644 24.4088,45.0414 C23.9328,45.4454 23.3538,45.7034 22.7348,45.7874 C22.5818,45.8104 22.4268,45.8214 22.2698,45.8214 C21.9278,45.8214 21.5838,45.7664 21.2578,45.6554 C20.2838,45.3184 19.5858,44.4774 19.4328,43.4614 C18.4448,39.0654 18.8298,34.5354 20.5478,30.3594 C19.0728,29.8014 17.4688,29.5654 15.8988,29.6834 C15.6828,29.7504 15.4488,29.7564 15.2018,29.7564 C14.0858,30.3684 13.0568,31.1234 12.1358,32.0014 C11.0278,33.1554 9.2188,33.2174 8.0248,32.1374 C7.4318,31.5744 7.0908,30.7864 7.0838,29.9724 C7.0548,29.2274 7.3478,28.4934 7.8858,27.9664 C9.3738,26.4974 11.0718,25.2684 12.9338,24.3164 C13.6378,24.0414 14.3498,23.8974 15.0788,23.8794 L15.0788,23.8794 L15.5178,23.8794 C17.3188,23.6614 19.1408,23.8074 20.9088,24.3134 C20.9708,24.1724 21.0378,24.0334 21.1078,23.9004 L21.1078,23.9004 L25.7888,14.9824 C23.2978,13.6124 20.9028,12.0304 18.6678,10.2794 C17.9008,9.7334 17.5008,8.8024 17.6318,7.8594 C17.8388,6.7564 18.5788,5.8654 19.6118,5.4624 Z M21.6478,7.0384 C21.2018,6.6644 20.6018,6.5714 20.0748,6.7854 C19.4908,7.0134 19.0768,7.5134 18.9628,8.1254 C18.9098,8.5524 19.1038,8.9854 19.4738,9.2374 C21.8438,11.0944 24.3718,12.7464 27.0048,14.1584 L27.0048,14.1584 L27.5958,14.4924 L22.3238,24.6054 C22.1888,24.8624 22.0778,25.1374 21.9958,25.4224 L21.9958,25.4224 L21.7888,26.1214 L21.1028,25.8184 C19.3528,25.3324 17.5088,25.1524 15.6578,25.2884 L15.6578,25.2884 L14.9768,25.2884 C14.4808,25.2654 13.9938,25.3604 13.5578,25.5744 C11.8158,26.4524 10.2218,27.5924 8.8228,28.9604 C8.5618,29.2224 8.4208,29.5884 8.4348,29.9604 C8.4368,30.4064 8.6168,30.8314 8.9298,31.1364 C9.5698,31.7044 10.5378,31.6594 11.1318,31.0254 C12.2938,30.0314 13.5578,29.2104 14.9098,28.5654 C15.2178,28.4864 15.4718,28.4434 15.7218,28.4194 C16.2028,28.3494 16.6868,28.3154 17.1678,28.3154 C18.7478,28.3154 20.3078,28.6894 21.7398,29.4204 L21.7398,29.4204 L22.3668,29.7624 L22.0758,30.3634 C20.2678,34.3704 19.8048,38.9474 20.7738,43.2424 C20.8468,43.7894 21.1968,44.2214 21.6948,44.3944 C22.3098,44.5954 22.9868,44.4654 23.4898,44.0454 C23.8968,43.6984 24.0708,43.1554 23.9418,42.6334 C22.8508,38.1154 23.7198,33.3194 26.3228,29.4724 L26.3228,29.4724 L26.4528,29.2594 L26.6348,29.2594 C27.0758,29.0244 27.4388,28.6524 27.6608,28.2064 L27.6608,28.2064 L33.2868,18.0344 L45.5148,15.6094 C45.8548,15.5364 46.1618,15.3244 46.3508,15.0304 L46.3508,15.0304 L46.3578,15.0204 C46.5628,14.7294 46.6428,14.3614 46.5778,14.0094 C46.4288,13.3294 45.7638,12.8714 45.0658,12.9754 L45.0658,12.9754 L44.9178,12.9784 L33.6358,15.3614 L33.3818,14.7474 C33.1338,14.1734 32.7138,13.6964 32.1718,13.3734 C31.9788,13.2534 31.7798,13.1564 31.5718,13.0844 C28.0398,11.4404 24.7088,9.4094 21.6478,7.0384 Z M0.1854,18.7842 C0.4674,18.4472 0.9684,18.4062 1.3024,18.6852 L1.3024,18.6852 L5.8064,22.4562 C6.1434,22.7372 6.1874,23.2372 5.9064,23.5742 C5.7494,23.7612 5.5234,23.8582 5.2974,23.8582 C5.1174,23.8582 4.9374,23.7972 4.7884,23.6732 L4.7884,23.6732 L0.2844,19.9022 C-0.0516,19.6212 -0.0956,19.1212 0.1854,18.7842 Z M5.0163,14.3263 C5.4013,14.1223 5.8823,14.2743 6.0853,14.6633 L6.0853,14.6633 L9.0653,20.3803 C9.2663,20.7693 9.1163,21.2483 8.7273,21.4503 C8.6113,21.5123 8.4853,21.5403 8.3613,21.5403 C8.0753,21.5403 7.7983,21.3853 7.6573,21.1143 L7.6573,21.1143 L4.6773,15.3963 C4.4763,15.0083 4.6273,14.5293 5.0163,14.3263 Z M11.6345,12.7604 C12.0835,12.7444 12.4405,13.0874 12.4565,13.5254 L12.4565,13.5254 L12.6725,19.6374 C12.6875,20.0754 12.3455,20.4434 11.9065,20.4584 C11.8985,20.4594 11.8885,20.4594 11.8795,20.4594 C11.4525,20.4594 11.1025,20.1214 11.0855,19.6944 L11.0855,19.6944 L10.8695,13.5814 C10.8555,13.1424 11.1975,12.7754 11.6345,12.7604 Z M34.3342,3.0466 C35.5882,2.8716 36.8272,3.1926 37.8342,3.9516 C38.8412,4.7106 39.4932,5.8176 39.6672,7.0666 C40.0302,9.6456 38.2272,12.0386 35.6492,12.3996 L35.6492,12.3996 C35.4312,12.4296 35.2142,12.4446 35.0012,12.4446 C32.6842,12.4446 30.6502,10.7326 30.3132,8.3776 C29.9532,5.7996 31.7572,3.4086 34.3342,3.0466 Z" id="path-1"></path>
    </defs>
    <g id="Asset-Artboard-Page" stroke="none" stroke-width="1" fill="none" fill-rule="evenodd">
        <g id="icons/products/red/A-car-home/a35-person-stuck">
            <g>
                <polygon id="Rectangle-path" fill-opacity="0" fill="#FFFFFF" fill-rule="nonzero" points="-5.68434189e-14 0 48 0 48 48 -5.68434189e-14 48"></polygon>
                <mask id="mask-2" fill="white">
                    <use xlink:href="#path-1"></use>
                </mask>
                <use id="a35-person-stuck" fill="#C5281C" xlink:href="#path-1"></use>
                <polygon id="Color-Style" fill="#C5281C" mask="url(#mask-2)" points="0 0 48 0 48 48 0 48"></polygon>
            </g>
        </g>
    </g>
</svg>