<?xml version="1.0" encoding="UTF-8"?>
<svg width="32px" height="32px" viewBox="0 0 32 32" version="1.1" xmlns="http://www.w3.org/2000/svg" xmlns:xlink="http://www.w3.org/1999/xlink">
    <!-- Generator: sketchtool 63.1 (101010) - https://sketch.com -->
    <title>257CF9D1-D1AA-4ABB-B3A4-001BF23DA315</title>
    <desc>Created with sketchtool.</desc>
    <defs>
        <path d="M12.8696,5.6872 L20.8009333,0.9712 L28.5082667,5.60853333 L28.5082667,15.6138667 C28.5082667,15.9765333 28.2136,16.2712 27.8509333,16.2712 L22.7782667,16.2712 L22.7782667,10.3218667 C22.7782667,9.8332 22.3809333,9.4352 21.8916,9.4352 L19.7169333,9.4352 C19.2289333,9.4352 18.8309333,9.8332 18.8309333,10.3218667 L18.8309333,16.2712 L13.5269333,16.2712 C13.1649333,16.2712 12.8696,15.9765333 12.8696,15.6138667 L12.8696,5.6872 Z M26.8862667,1.04186667 L26.8862667,3.58653333 L25.4289333,2.7092 L25.4196,1.0512 L26.8862667,1.04186667 Z M21.8822667,16.2712 L19.7262667,16.2712 L19.7169333,10.3318667 L21.8822667,10.3218667 L21.8822667,16.2712 Z M6.83973333,16.5662 C7.56373333,16.5662 8.15306667,17.1555333 8.15306667,17.8795333 L8.15306667,17.8795333 L8.15306667,19.7148667 C9.0124,19.6275333 9.81973333,19.5328667 10.5477333,19.4455333 C11.9517333,19.2768667 13.1604,19.1342 13.8857333,19.1548667 C14.8117333,19.1842 15.6070667,19.5142 16.4497333,19.8635333 C16.8957333,20.0475333 17.3537333,20.2375333 17.8417333,20.3868667 C18.2057333,20.4982 18.6004,20.5882 19.0177333,20.6848667 C19.8024,20.8655333 20.6084,21.0515333 21.2484,21.3815333 C21.9824,21.7588667 22.3837333,22.3575333 22.3237333,22.9815333 C22.2624,23.6188667 21.7317333,24.1428667 20.9044,24.3828667 C19.3017333,24.7962 18.0237333,24.4428667 14.6097333,23.4995333 L14.6097333,23.4995333 L14.1077333,23.3608667 C14.0517333,23.3468667 13.9757333,23.3895333 13.9610667,23.4442 C13.9437333,23.5075333 13.9810667,23.5735333 14.0444,23.5908667 L14.0444,23.5908667 L14.5464,23.7302 C17.8997333,24.6568667 19.2884,25.0415333 20.9190667,24.6235333 L20.9190667,24.6235333 L21.0230667,24.5968667 C21.4437333,24.4788667 21.8784,24.3168667 22.3777333,24.0935333 C25.3010667,22.7848667 27.4050667,22.0222 28.8077333,21.7615333 C30.1730667,21.5042 31.2417333,22.2122 31.6570667,22.9788667 C32.0697333,23.7402 31.9217333,24.5782 31.2524,25.2788667 L31.2524,25.2788667 C30.8550667,25.6942 29.3264,26.3695333 27.0390667,27.3528667 C26.2437333,27.6948667 25.4270667,28.0455333 24.6457333,28.3982 C23.6850667,28.8302 22.8110667,29.2715333 22.0404,29.6608667 C20.9830667,30.1942 20.1550667,30.6122 19.6337333,30.7442 C19.5257333,30.7715333 19.4010667,30.7848667 19.2624,30.7848667 C18.2624,30.7848667 16.5104,30.1182 14.6477333,29.3708667 C13.8684,29.0582 13.2030667,28.7908667 12.8230667,28.6975333 C12.6450667,28.6528667 12.0250667,28.5795333 9.87173333,28.5795333 C9.25506667,28.5795333 8.64906667,28.5855333 8.15306667,28.5928667 L8.15306667,28.5928667 L8.15306667,30.6862 C8.15306667,31.4108667 7.56373333,32.0002 6.83973333,32.0002 L6.83973333,32.0002 L1.31306667,32.0002 C0.589066667,32.0002 0.0004,31.4108667 0.0004,30.6862 L0.0004,30.6862 L0.0004,17.8795333 C0.0004,17.1555333 0.589066667,16.5662 1.31306667,16.5662 L1.31306667,16.5662 Z M6.83973333,17.4462 L1.31306667,17.4462 C1.07373333,17.4462 0.8804,17.6408667 0.8804,17.8795333 L0.8804,17.8795333 L0.8804,30.6862 C0.8804,30.9255333 1.07373333,31.1195333 1.31306667,31.1195333 L1.31306667,31.1195333 L6.83973333,31.1195333 C7.0784,31.1195333 7.27306667,30.9255333 7.27306667,30.6862 L7.27306667,30.6862 L7.27306667,17.8795333 C7.27306667,17.6408667 7.0784,17.4462 6.83973333,17.4462 L6.83973333,17.4462 Z M13.8577333,20.0342 C13.2044,20.0162 12.0210667,20.1548667 10.6644,20.3175333 C9.8824,20.4122 9.03906667,20.5135333 8.1564,20.6022 L8.1564,20.6022 L8.1564,27.7122 C8.6524,27.7055333 9.25773333,27.6988667 9.87173333,27.6988667 L10.1312622,27.6992468 C12.4835447,27.7062737 12.8960092,27.8087517 13.0344,27.8428667 C13.4737333,27.9515333 14.1324,28.2162 14.9657333,28.5508667 C16.1004,29.0062 18.7370667,30.0675333 19.4177333,29.8915333 C19.8450667,29.7835333 20.7144,29.3442 21.6364,28.8788667 C22.4230667,28.4822 23.3057333,28.0362 24.2844,27.5955333 C25.0710667,27.2415333 25.8917333,26.8882 26.6810667,26.5488667 C28.1330667,25.9248667 30.3130667,24.9882 30.6157333,24.6708667 C31.0210667,24.2468667 31.1110667,23.8182 30.8837333,23.3982 C30.6157333,22.9035333 29.9044,22.4515333 28.9690667,22.6268667 C27.6350667,22.8742 25.5970667,23.6168667 22.7364,24.8968667 C22.1970667,25.1382 21.7230667,25.3148667 21.2870667,25.4362 L21.2870667,25.4362 L21.2184,25.4575333 C21.1777333,25.4688667 21.1404,25.4768667 21.1030667,25.4835333 C19.2784,25.9515333 17.7217333,25.5208667 14.3110667,24.5782 L14.3110667,24.5782 L13.8097333,24.4395333 C13.5524,24.3682 13.3384,24.2015333 13.2064,23.9695333 C13.0750667,23.7375333 13.0417333,23.4675333 13.1124,23.2102 C13.1837333,22.9528667 13.3504,22.7388667 13.5810667,22.6068667 C13.8137333,22.4748667 14.0824,22.4415333 14.3424,22.5128667 L14.3424,22.5128667 L14.8444,22.6515333 C18.1870667,23.5748667 19.3137333,23.8862 20.6364,23.5462 C21.1204,23.4042 21.4224,23.1582 21.4477333,22.8968667 C21.4717333,22.6482 21.2404,22.3675333 20.8457333,22.1635333 C20.3030667,21.8842 19.5517333,21.7108667 18.8257333,21.5435333 C18.3870667,21.4422 17.9784,21.3488667 17.5850667,21.2282 C17.0557333,21.0668667 16.5784,20.8688667 16.1157333,20.6775333 C15.3470667,20.3588667 14.6237333,20.0588667 13.8577333,20.0342 Z M20.5736,0.0632 C20.7162667,-0.0214666667 20.8916,-0.0214666667 21.0342667,0.0645333333 L21.0342667,0.0645333333 L24.5329333,2.16986667 L24.5329333,1.04186667 C24.5329333,0.552533333 24.9309333,0.1552 25.4196,0.1552 L25.4196,0.1552 L26.8962667,0.1552 C27.3849333,0.1552 27.7829333,0.552533333 27.7829333,1.04186667 L27.7829333,1.04186667 L27.7829333,4.12586667 L31.6689333,6.46386667 C31.7722667,6.5252 31.8442667,6.6232 31.8729333,6.73986667 C31.9022667,6.85586667 31.8836,6.97653333 31.8229333,7.07853333 C31.6949333,7.28986667 31.4196,7.35853333 31.2069333,7.23186667 L31.2069333,7.23186667 L29.4049333,6.14786667 L29.4049333,15.6138667 C29.4049333,16.4705333 28.7076,17.1678667 27.8509333,17.1678667 L27.8509333,17.1678667 L13.5269333,17.1678667 C12.6702667,17.1678667 11.9729333,16.4705333 11.9729333,15.6138667 L11.9729333,15.6138667 L11.9729333,6.21986667 L10.2696,7.2332 C10.2002667,7.27453333 10.1209333,7.29653333 10.0402667,7.29653333 C9.88293333,7.29653333 9.73493333,7.21253333 9.65493333,7.0772 C9.5936,6.97386667 9.57626667,6.85386667 9.6056,6.7372 C9.63493333,6.6212 9.70826667,6.52386667 9.8116,6.46253333 L9.8116,6.46253333 Z" id="path-1"></path>
    </defs>
    <g id="Breakpoint-S" stroke="none" stroke-width="1" fill="none" fill-rule="evenodd">
        <g id="05_Home-contracts-S" transform="translate(-16.000000, -962.000000)">
            <g id="06_List_Items/09_Accordions/06.09.06_Left_Icon_Text_Badge/S-Copy-4" transform="translate(0.000000, 942.000000)">
                <g id="icons/products/red/A-car-home/a01-fire" transform="translate(16.000000, 20.000000)">
                    <g id="icons/products/red/A-car-home/a44-home-liability">
                        <polygon id="Rectangle-path" fill-opacity="0" fill="#FFFFFF" fill-rule="nonzero" points="-3.78956126e-14 0 32 0 32 32 -3.78956126e-14 32"></polygon>
                        <mask id="mask-2" fill="white">
                            <use xlink:href="#path-1"></use>
                        </mask>
                        <use id="a44-home-liability" fill="#C5281C" xlink:href="#path-1"></use>
                        <polygon id="Color-Style" fill="#C5281C" mask="url(#mask-2)" points="0 0 32 0 32 32 0 32"></polygon>
                    </g>
                </g>
            </g>
        </g>
    </g>
</svg>