<?xml version="1.0" encoding="UTF-8"?>
<svg width="49px" height="48px" viewBox="0 0 49 48" version="1.1" xmlns="http://www.w3.org/2000/svg" xmlns:xlink="http://www.w3.org/1999/xlink">
    <!-- Generator: sketchtool 60.1 (101010) - https://sketch.com -->
    <title>F76E4DD2-5276-4390-A784-FAAF5A3DE79A</title>
    <desc>Created with sketchtool.</desc>
    <defs>
        <path d="M35.4865287,46.6367 C29.7215287,46.6367 24.9665287,42.2337 24.4055287,36.6147 C24.3695287,36.2477 24.3495287,35.8767 24.3495287,35.4997 C24.3495287,35.4297 24.3585287,35.3617 24.3595287,35.2917 C24.4075287,32.7337 25.3185287,30.3847 26.8175287,28.5247 C27.2175287,28.0287 27.6625287,27.5727 28.1395287,27.1527 C30.1025287,25.4227 32.6705287,24.3637 35.4865287,24.3637 C37.7535287,24.3637 39.8605287,25.0477 41.6225287,26.2157 C42.0905287,26.5267 42.5275287,26.8767 42.9425287,27.2527 C45.1965287,29.2917 46.6235287,32.2287 46.6235287,35.4997 C46.6235287,41.6407 41.6275287,46.6367 35.4865287,46.6367 L35.4865287,46.6367 Z M22.9965287,35.2917 L21.1825287,35.2917 L21.1825287,22.7977 C21.1825287,22.4497 21.2665287,22.1997 21.4365287,22.0317 C21.7255287,21.7457 22.2095287,21.7447 22.2295287,21.7517 L25.8085287,21.7507 C25.8065287,21.7547 26.2765287,21.7447 26.5545287,22.0087 C26.7285287,22.1737 26.8175287,22.4387 26.8175287,22.7977 L26.8175287,26.5137 C24.5075287,28.7437 23.0535287,31.8487 22.9965287,35.2917 L22.9965287,35.2917 Z M19.8605287,22.7977 L19.8605287,35.2917 L9.07352868,35.2917 C8.10952868,35.2917 7.39452868,35.0417 6.94852868,34.5477 C6.27252868,33.7997 6.37852868,32.6837 6.38252868,32.6017 L6.38252868,12.1727 C6.38252868,12.1117 6.36352868,12.0567 6.34752868,12.0017 L24.1575287,1.4317 L41.6185287,11.9377 C41.6195287,15.4097 41.6215287,20.4107 41.6225287,24.6217 C39.8065287,23.5947 37.7155287,23.0007 35.4865287,23.0007 C32.7395287,23.0007 30.2055287,23.9017 28.1395287,25.4087 L28.1395287,22.7977 C28.1395287,21.8797 27.7725287,21.3397 27.4645287,21.0477 C26.7695287,20.3917 25.8395287,20.4257 25.7715287,20.4287 L22.2545287,20.4297 C22.1535287,20.4237 21.2145287,20.4087 20.5235287,21.0737 C20.2215287,21.3657 19.8605287,21.9017 19.8605287,22.7977 L19.8605287,22.7977 Z M34.3065287,2.5877 L36.9385287,2.5877 L36.9385287,7.5777 L34.3065287,5.9947 L34.3065287,2.5877 Z M23.8215287,0.0927 C24.0295287,-0.0313 24.2925287,-0.0303 24.5005287,0.0947 L24.5005287,0.0947 L32.9845287,5.1987 L32.9845287,1.9267 C32.9845287,1.5607 33.2805287,1.2647 33.6455287,1.2647 L33.6455287,1.2647 L37.5985287,1.2647 C37.9655287,1.2647 38.2595287,1.5607 38.2595287,1.9267 L38.2595287,1.9267 L38.2595287,8.3727 L47.6795287,14.0407 C47.9935287,14.2287 48.0935287,14.6357 47.9055287,14.9487 C47.7165287,15.2597 47.3105287,15.3627 46.9985287,15.1747 L46.9985287,15.1747 L42.9405287,12.7327 L42.9435287,22.2417 C42.9445287,23.4627 42.9445287,24.5347 42.9435287,25.4927 C45.9975287,27.7737 47.9865287,31.4047 47.9865287,35.4997 C47.9865287,42.3927 42.3795287,47.9997 35.4865287,47.9997 C28.9695287,47.9997 23.6095287,42.9867 23.0425287,36.6147 L23.0425287,36.6147 L9.07352868,36.6147 C7.71252868,36.6147 6.66252868,36.2137 5.95552868,35.4217 C4.88552868,34.2247 5.05652868,32.5957 5.06452868,32.5277 L5.06452868,32.5277 L5.06052868,12.7657 L0.999528684,15.1767 C0.893528684,15.2387 0.777528684,15.2687 0.662528684,15.2687 C0.436528684,15.2687 0.215528684,15.1527 0.0925286838,14.9447 C-0.0934713162,14.6307 0.00952868382,14.2247 0.324528684,14.0387 L0.324528684,14.0387 Z M31.6369287,34.4365 C31.1329287,34.4365 30.7259287,34.8445 30.7259287,35.3485 C30.7259287,35.8515 31.1329287,36.2595 31.6369287,36.2595 C32.1409287,36.2595 32.5479287,35.8515 32.5479287,35.3485 C32.5479287,34.8445 32.1409287,34.4365 31.6369287,34.4365 Z M35.5080287,34.4365 C35.0040287,34.4365 34.5960287,34.8445 34.5960287,35.3485 C34.5960287,35.8515 35.0040287,36.2595 35.5080287,36.2595 C36.0110287,36.2595 36.4190287,35.8515 36.4190287,35.3485 C36.4190287,34.8445 36.0110287,34.4365 35.5080287,34.4365 Z M39.3781287,34.4365 C38.8751287,34.4365 38.4671287,34.8445 38.4671287,35.3485 C38.4671287,35.8515 38.8751287,36.2595 39.3781287,36.2595 C39.8821287,36.2595 40.2901287,35.8515 40.2901287,35.3485 C40.2901287,34.8445 39.8821287,34.4365 39.3781287,34.4365 Z" id="path-1"></path>
    </defs>
    <g id="Asset-Artboard-Page" stroke="none" stroke-width="1" fill="none" fill-rule="evenodd">
        <g id="icons/products/red/A-car-home/a45-home-others" transform="translate(0.382023, 0.000000)">
            <g>
                <polygon id="Rectangle-path" fill-opacity="0" fill="#FFFFFF" fill-rule="nonzero" points="-5.68434189e-14 0 48 0 48 48 -5.68434189e-14 48"></polygon>
                <mask id="mask-2" fill="white">
                    <use xlink:href="#path-1"></use>
                </mask>
                <use id="a45-home-others" fill="#C5281C" xlink:href="#path-1"></use>
                <polygon id="Color-Style" fill="#C5281C" mask="url(#mask-2)" points="0 0 48 0 48 48 0 48"></polygon>
            </g>
        </g>
    </g>
</svg>