<?xml version="1.0" encoding="UTF-8"?>
<svg width="49px" height="48px" viewBox="0 0 49 48" version="1.1" xmlns="http://www.w3.org/2000/svg" xmlns:xlink="http://www.w3.org/1999/xlink">
    <!-- Generator: sketchtool 60.1 (101010) - https://sketch.com -->
    <title>39DA0331-2DC9-4A5B-9A86-A1295F7112CA</title>
    <desc>Created with sketchtool.</desc>
    <defs>
        <path d="M45.6199837,39.4963592 C45.6199837,40.2721959 44.9871673,40.9040327 44.2123102,40.9040327 L43.9399837,40.9040327 C43.5520653,40.9040327 43.2366367,41.2194612 43.2366367,41.6083592 L43.2366367,45.2896653 C43.2366367,45.9264 42.7184327,46.4455837 42.0807184,46.4455837 L38.0898612,46.4455837 C37.4521469,46.4455837 36.9329633,45.9264 36.9329633,45.2896653 L36.9329633,41.6083592 C36.9329633,41.2194612 36.6185143,40.9040327 36.2296163,40.9040327 L32.0457796,40.9040327 C31.655902,40.9040327 31.3414531,41.2194612 31.3414531,41.6083592 C31.3414531,42.1863184 31.127902,42.3117061 30.8702694,42.4057469 C30.4196571,42.571298 29.719249,42.5654204 28.9061878,42.5703184 L26.6217796,42.5703184 C25.8753306,42.5624816 25.1641469,42.5703184 24.7145143,42.4057469 C24.4568816,42.3117061 24.2433306,42.1863184 24.2433306,41.6083592 C24.2433306,41.2194612 23.927902,40.9040327 23.5399837,40.9040327 L17.7476571,40.9040327 C17.3587592,40.9040327 17.0433306,41.2194612 17.0433306,41.6083592 L17.0433306,45.2896653 C17.0433306,45.9264 16.5251265,46.4455837 15.8874122,46.4455837 L11.8779429,46.4455837 C11.239249,46.4455837 10.7210449,45.9264 10.7210449,45.2896653 L10.7210449,41.6083592 C10.7210449,41.2194612 10.4065959,40.9040327 10.0167184,40.9040327 L9.74635102,40.9040327 C8.96953469,40.9040327 8.33769796,40.2721959 8.33769796,39.4963592 L8.33769796,28.5886041 C8.33769796,26.8870531 9.18112653,25.2854204 10.5917388,24.304849 L12.4128,23.0460735 C12.5430857,22.9549714 12.6390857,22.8237061 12.6861061,22.6718694 L14.5385143,16.5778286 C15.0087184,14.5167673 16.8141061,13.0767673 18.9290449,13.0767673 L35.0276571,13.0767673 C37.1445551,13.0767673 38.9489633,14.5167673 39.431902,16.6277878 L41.2725551,22.6718694 C41.3176163,22.8237061 41.4145959,22.9549714 41.5448816,23.0460735 L43.367902,24.3058286 C44.7785143,25.2746449 45.6199837,26.8762776 45.6199837,28.5886041 L45.6199837,39.4963592 Z M35.0276571,11.6700735 C37.8048,11.6700735 40.1734531,13.5597061 40.7896163,16.2663184 L40.7896163,16.2663184 L42.5460245,22.027298 L44.1662694,23.147951 C45.9569633,24.3773388 47.0276571,26.411951 47.0276571,28.5886041 L47.0276571,28.5886041 L47.0276571,39.4963592 C47.0276571,40.9020735 45.9922286,42.0697469 44.6443102,42.2784 L44.6443102,42.2784 L44.6443102,45.2896653 C44.6443102,46.7022367 43.4942694,47.8522776 42.0807184,47.8522776 L42.0807184,47.8522776 L38.0898612,47.8522776 C36.6763102,47.8522776 35.5252898,46.7022367 35.5252898,45.2896653 L35.5252898,45.2896653 L35.5252898,42.3117061 L32.6658612,42.3117061 C32.4532898,43.1453388 31.8645551,43.5391347 31.3551673,43.7262367 C30.6704327,43.9779918 29.8377796,43.9809306 28.9620245,43.9779918 L26.6785959,43.9779918 C25.7489633,43.9750531 24.914351,43.9779918 24.2296163,43.7262367 C23.7202286,43.5391347 23.1324735,43.1453388 22.9189224,42.3117061 L22.9189224,42.3117061 L18.4510041,42.3117061 L18.4510041,45.2896653 C18.4510041,46.7022367 17.3009633,47.8522776 15.8874122,47.8522776 L15.8874122,47.8522776 L11.8779429,47.8522776 C10.4634122,47.8522776 9.31337143,46.7022367 9.31337143,45.2896653 L9.31337143,45.2896653 L9.31337143,42.2784 C7.96643265,42.0697469 6.93100408,40.9020735 6.93100408,39.4963592 L6.93100408,39.4963592 L6.93100408,28.5886041 C6.93100408,26.4266449 7.99973878,24.3930122 9.79043265,23.1489306 L9.79043265,23.1489306 L11.4106776,22.027298 L13.1808,16.2173388 C13.783249,13.5597061 16.1528816,11.6700735 18.9290449,11.6700735 L18.9290449,11.6700735 Z M34.7956898,34.860049 L19.1427918,34.860049 C18.7538939,34.860049 18.4394449,35.174498 18.4394449,35.5633959 C18.4394449,35.9522939 18.7538939,36.2667429 19.1427918,36.2667429 L34.7956898,36.2667429 C35.1845878,36.2667429 35.5000163,35.9522939 35.5000163,35.5633959 C35.5000163,35.174498 35.1845878,34.860049 34.7956898,34.860049 Z M14.066351,26.1418776 C11.8622694,26.1418776 10.0696163,27.9345306 10.0696163,30.1386122 C10.0696163,32.3426939 11.8622694,34.1363265 14.066351,34.1363265 C16.2704327,34.1363265 18.0630857,32.3426939 18.0630857,30.1386122 C18.0630857,27.9345306 16.2704327,26.1418776 14.066351,26.1418776 Z M39.8715429,26.1418776 C37.6674612,26.1418776 35.8748082,27.9345306 35.8748082,30.1386122 C35.8748082,32.3426939 37.6674612,34.1363265 39.8715429,34.1363265 C42.0756245,34.1363265 43.8692571,32.3426939 43.8692571,30.1386122 C43.8692571,27.9345306 42.0756245,26.1418776 39.8715429,26.1418776 Z M14.066351,27.5485714 C15.4945959,27.5485714 16.6563918,28.7103673 16.6563918,30.1386122 C16.6563918,31.5668571 15.4945959,32.7286531 14.066351,32.7286531 C12.6381061,32.7286531 11.4763102,31.5668571 11.4763102,30.1386122 C11.4763102,28.7103673 12.6381061,27.5485714 14.066351,27.5485714 Z M39.8715429,27.5485714 C41.2997878,27.5485714 42.4625633,28.7103673 42.4625633,30.1386122 C42.4625633,31.5668571 41.2997878,32.7286531 39.8715429,32.7286531 C38.4442776,32.7286531 37.281502,31.5668571 37.281502,30.1386122 C37.281502,28.7103673 38.4442776,27.5485714 39.8715429,27.5485714 Z M35.0281469,14.0333388 L18.9481469,14.0333388 C17.3004735,14.0333388 15.8800653,15.1637878 15.503902,16.744849 L13.6936163,22.8202776 C13.5829224,23.2630531 13.6906776,23.7440327 13.9825959,24.1074612 C14.2735347,24.472849 14.7074939,24.681502 15.1698612,24.681502 L38.7868408,24.681502 C39.2501878,24.681502 39.6841469,24.472849 39.9760653,24.1074612 C40.2670041,23.7430531 40.3747592,23.2610939 40.2562286,22.7908898 L38.4851265,16.7918694 C38.121698,15.1677061 36.7003102,14.0333388 35.0281469,14.0333388 Z M35.0281469,15.4410122 C36.0371265,15.4410122 36.8932898,16.1228082 37.1244735,17.1445224 L38.8985143,23.1611755 C38.9014531,23.1739102 38.8985143,23.2023184 38.8769633,23.2287673 C38.863249,23.2464 38.8338612,23.2748082 38.7868408,23.2748082 L15.1698612,23.2748082 C15.1248,23.2748082 15.0944327,23.2464 15.0807184,23.2287673 C15.0640653,23.2081959 15.0572082,23.1866449 15.0532898,23.1866449 L15.050351,23.1905633 L16.8625959,17.1092571 C17.1006367,16.1110531 17.9391673,15.4410122 18.9481469,15.4410122 L35.0281469,15.4410122 Z M7.47330612,14.7406041 C7.92979592,15.1108898 8.05910204,15.705502 7.7642449,16.0689306 C7.46840816,16.4323592 6.86008163,16.4264816 6.40359184,16.0561959 C5.94808163,15.6859102 5.81877551,15.091298 6.11363265,14.7278694 C6.40946939,14.3644408 7.01779592,14.3703184 7.47330612,14.7406041 Z M6.4917551,14.0920163 C6.2037551,14.1174857 5.94710204,14.2369959 5.77371429,14.4515265 C5.60522449,14.6582204 5.53861224,14.9236898 5.56604082,15.2009143 C5.56604082,15.2009143 0.567183673,10.4704653 0.696489796,10.3117714 C0.825795918,10.1530776 6.4917551,14.0920163 6.4917551,14.0920163 Z M11.7465796,9.71402449 C12.5371102,10.3556571 12.7614367,11.3861878 12.2500898,12.0160653 C11.7377633,12.6449633 10.6827429,12.6351673 9.89319184,11.9935347 C9.10462041,11.351902 8.87931429,10.3213714 9.39164082,9.69247347 C9.90298776,9.06161633 10.9570286,9.07239184 11.7465796,9.71402449 Z M10.0456163,8.58994286 C9.54602449,8.63402449 9.10226939,8.84071837 8.8005551,9.21198367 C8.50863673,9.57149388 8.39500408,10.0299429 8.4410449,10.5109224 C8.4410449,10.5109224 -0.219526531,2.31565714 0.00382040816,2.03941224 C0.229126531,1.76414694 10.0456163,8.58994286 10.0456163,8.58994286 Z M19.0552163,6.63320816 C19.6370939,7.10537143 19.8026449,7.86357551 19.425502,8.32692245 C19.0493388,8.79026939 18.2725224,8.78243265 17.6916245,8.31026939 C17.1117061,7.83810612 16.9451755,7.07990204 17.3213388,6.6165551 C17.6984816,6.15320816 18.4743184,6.1610449 19.0552163,6.63320816 Z M17.8039837,5.80613878 C17.4366367,5.83846531 17.1094531,5.99030204 16.8870857,6.26360816 C16.6725551,6.52809796 16.5892898,6.86605714 16.6225959,7.2196898 C16.6225959,7.2196898 10.2493714,1.18834286 10.4139429,0.985567347 C10.5785143,0.782791837 17.8039837,5.80613878 17.8039837,5.80613878 Z" id="path-1"></path>
    </defs>
    <g id="Asset-Artboard-Page" stroke="none" stroke-width="1" fill="none" fill-rule="evenodd">
        <g id="icons/products/red/A-car-home/a46-car-hit-by-objects" transform="translate(0.382023, 0.000000)">
            <g>
                <polygon id="Rectangle-path" fill-opacity="0" fill="#FFFFFF" fill-rule="nonzero" points="-5.68434189e-14 0 48 0 48 48 -5.68434189e-14 48"></polygon>
                <mask id="mask-2" fill="white">
                    <use xlink:href="#path-1"></use>
                </mask>
                <use id="a46-car-hit-by-objects" fill="#C5281C" xlink:href="#path-1"></use>
                <polygon id="Color-Style" fill="#C5281C" mask="url(#mask-2)" points="0 0 48 0 48 48 0 48"></polygon>
            </g>
        </g>
    </g>
</svg>