<?xml version="1.0" encoding="UTF-8"?>
<svg width="21px" height="32px" viewBox="0 0 21 32" version="1.1" xmlns="http://www.w3.org/2000/svg" xmlns:xlink="http://www.w3.org/1999/xlink">
    <!-- Generator: sketchtool 63.1 (101010) - https://sketch.com -->
    <title>94FC8D32-7A4E-4CA3-BD6B-1F9F62448DA4</title>
    <desc>Created with sketchtool.</desc>
    <defs>
        <path d="M10.0770859,29.9416222 L14.2790859,17.1316222 C14.3230859,16.9962889 14.3004192,16.8476222 14.2164192,16.7322889 C14.1324192,16.6162889 13.9984192,16.5476222 13.8557526,16.5476222 L13.6317526,16.5476222 L7.53308591,16.5476222 L22.1857526,2.0522889 L17.9844192,14.8616222 C17.9410859,14.9969556 17.9637526,15.1456222 18.0477526,15.2609556 C18.1310859,15.3769556 18.2650859,15.4449556 18.4077526,15.4449556 L18.6317526,15.4449556 L23.1837526,15.4449556 L24.7310859,15.4449556 L10.0770859,29.9416222 Z M26.2257526,14.8309556 C26.1570859,14.6636222 25.9944192,14.5549556 25.8137526,14.5549556 C25.1784192,14.5549556 24.5430859,14.5549556 23.9077526,14.5542889 C22.7737526,14.5542889 21.6397526,14.5536222 20.5057526,14.5516222 C20.1870859,14.5516222 19.8690859,14.5509556 19.5510859,14.5496222 C19.4024192,14.5489556 19.1704192,14.5896222 19.0357526,14.5316222 C19.1464192,13.9922889 19.3850859,13.4509556 19.5570859,12.9269556 C19.7337526,12.3869556 19.9104192,11.8469556 20.0877526,11.3076222 C20.4417526,10.2282889 20.7950859,9.14895557 21.1490859,8.06895557 L23.2724192,1.59295557 C23.3464192,1.3662889 23.4210859,1.13895557 23.4950859,0.912955567 C23.5604192,0.714288901 23.6684192,0.494288901 23.5930859,0.282955567 C23.5630859,0.198288901 23.5050859,0.123622234 23.4304192,0.073622234 C23.3310859,0.00695556736 23.2030859,-0.016377766 23.0870859,0.011622234 C22.8684192,0.0649555674 22.7217526,0.269622234 22.5690859,0.419622234 C22.3684192,0.619622234 22.1664192,0.818955567 21.9644192,1.0182889 C21.5617526,1.41695557 21.1577526,1.8162889 20.7550859,2.21562223 C19.9484192,3.01295557 19.1417526,3.81095557 18.3350859,4.60895557 C16.7217526,6.20562223 15.1084192,7.80095557 13.4950859,9.39695557 C11.8824192,10.9929556 10.2690859,12.5889556 8.65575257,14.1849556 C8.65575257,14.2376222 8.43175257,14.4062889 8.38975257,14.4482889 C8.29241924,14.5436222 8.19641924,14.6396222 8.09908591,14.7356222 C7.90575257,14.9269556 7.71175257,15.1182889 7.51841924,15.3102889 C7.07908591,15.7449556 6.62641924,16.1696222 6.19908591,16.6156222 C6.13641924,16.6816222 6.07375257,16.7496222 6.03575257,16.8322889 C5.90441924,17.1129556 6.15575257,17.4382889 6.45041924,17.4382889 L13.2417526,17.4382889 C13.1390859,17.7509556 13.0357526,18.0642889 12.9337526,18.3776222 C12.6744192,19.1682889 12.4150859,19.9589556 12.1550859,20.7502889 C11.8124192,21.7976222 11.4684192,22.8449556 11.1244192,23.8922889 C10.7690859,24.9756222 10.4144192,26.0589556 10.0590859,27.1416222 C9.76441924,28.0396222 9.46975257,28.9376222 9.17508591,29.8349556 C9.01375257,30.3269556 8.85641924,30.8189556 8.69175257,31.3096222 C8.62775257,31.4996222 8.60775257,31.6976222 8.75775257,31.8609556 C8.86375257,31.9756222 9.03508591,32.0289556 9.18441924,31.9849556 C9.27108591,31.9589556 9.34641924,31.9049556 9.41575257,31.8456222 C10.0477526,31.3082889 10.6184192,30.6582889 11.2097526,30.0736222 C11.9037526,29.3869556 12.5984192,28.7002889 13.2924192,28.0129556 C14.1344192,27.1802889 14.9764192,26.3476222 15.8177526,25.5149556 C16.7217526,24.6209556 17.6244192,23.7276222 18.5284192,22.8336222 C19.4077526,21.9636222 20.2864192,21.0942889 21.1657526,20.2242889 C21.9350859,19.4636222 22.7037526,18.7022889 23.4737526,17.9416222 C24.0464192,17.3742889 24.6197526,16.8076222 25.1930859,16.2402889 L26.0677526,15.3749556 C26.0877526,15.3556222 26.1070859,15.3362889 26.1270859,15.3169556 C26.2550859,15.1896222 26.2937526,14.9976222 26.2257526,14.8309556 L26.2257526,14.8309556 Z" id="path-1"></path>
    </defs>
    <g id="Breakpoint-S" stroke="none" stroke-width="1" fill="none" fill-rule="evenodd">
        <g id="05_Home-contracts-S" transform="translate(-22.000000, -794.000000)">
            <g id="06_List_Items/09_Accordions/06.09.06_Left_Icon_Text_Badge/S-Copy-7" transform="translate(0.000000, 774.000000)">
                <g id="icons/products/red/A-car-home/a01-fire" transform="translate(16.000000, 20.000000)">
                    <g id="icons/products/red/A-car-home/a47-eletricity">
                        <polygon id="Rectangle-path" fill-opacity="0" fill="#FFFFFF" fill-rule="nonzero" points="0 0 32 0 32 32 0 32"></polygon>
                        <mask id="mask-2" fill="white">
                            <use xlink:href="#path-1"></use>
                        </mask>
                        <use id="a47-eletricity" fill="#C5281C" xlink:href="#path-1"></use>
                        <polygon id="Color-Style" fill="#C5281C" mask="url(#mask-2)" points="0 0 32 0 32 32 0 32"></polygon>
                    </g>
                </g>
            </g>
        </g>
    </g>
</svg>