<?xml version="1.0" encoding="UTF-8"?>
<svg width="49px" height="33px" viewBox="0 0 49 33" version="1.1" xmlns="http://www.w3.org/2000/svg" xmlns:xlink="http://www.w3.org/1999/xlink">
    <!-- Generator: sketchtool 62 (101010) - https://sketch.com -->
    <title>1EFDCEF7-17CC-46E8-8E06-F5A11EA27B2B</title>
    <desc>Created with sketchtool.</desc>
    <defs>
        <path d="M-0.0003,31.2652 L-0.0003,29.3512 L4.4247,24.9722 C5.4347,23.9822 5.9887,22.6732 5.9887,21.2822 C5.9887,19.8902 5.4347,18.5802 4.4267,17.5932 C2.9117,16.1082 2.7147,13.7962 3.9697,12.2162 C4.6767,11.3292 5.7457,10.7812 6.9037,10.7092 C8.0797,10.6402 9.2217,11.0562 10.0387,11.8582 L12.6017,14.3702 L12.2777,14.8412 C10.6787,17.1702 11.0007,20.3142 13.0457,22.3182 L15.4507,24.6752 C15.5367,24.7592 15.6647,24.7592 15.7507,24.6752 L17.4297,23.0302 L20.9117,26.4432 C21.1447,26.6472 21.5317,26.6782 21.7707,26.4922 C21.9357,26.3562 21.9697,26.1722 21.9737,26.0742 C21.9807,25.9092 21.9227,25.7532 21.8137,25.6462 L18.2617,22.1652 L21.5887,18.9052 L25.0707,22.3182 C25.3037,22.5212 25.6907,22.5532 25.9287,22.3672 C26.0947,22.2312 26.1287,22.0462 26.1327,21.9492 C26.1407,21.7842 26.0817,21.6282 25.9737,21.5222 L22.4207,18.0402 L24.1187,16.3762 C24.1677,16.3282 24.1787,16.2802 24.1787,16.2482 C24.1787,16.2162 24.1677,16.1672 24.1187,16.1192 L21.7137,13.7632 C19.6617,11.7512 16.4367,11.4352 14.0467,13.0102 L13.5877,13.3122 L11.1907,10.9642 C9.0527,8.9122 5.6947,8.8102 3.5547,10.7382 C2.4757,11.7322 1.8657,13.0802 1.8437,14.5302 C1.8207,15.9662 2.3827,17.3192 3.4247,18.3402 C4.2497,19.1782 4.6657,20.2042 4.6557,21.2882 C4.6457,22.3482 4.2267,23.3382 3.4757,24.0752 L0.0017,27.4432 L-0.0003,25.5502 L2.5257,23.1012 C3.0157,22.6212 3.2897,21.9732 3.2957,21.2762 C3.3027,20.5552 3.0247,19.8722 2.5147,19.3522 C1.1617,18.0272 0.4547,16.3212 0.4827,14.5092 C0.5117,12.6832 1.2767,10.9872 2.6387,9.7332 C5.3117,7.3262 9.4817,7.4402 12.1387,9.9882 L13.7707,11.5872 C16.6347,9.9962 20.2917,10.4642 22.6657,12.7912 L25.0707,15.1482 C25.3727,15.4442 25.5377,15.8342 25.5377,16.2482 C25.5377,16.6612 25.3727,17.0522 25.0707,17.3472 L24.3637,18.0402 L26.9257,20.5502 C27.3097,20.9272 27.5167,21.4592 27.4907,22.0112 C27.4667,22.5622 27.2067,23.0792 26.7787,23.4292 C26.0197,24.0242 24.8917,23.9722 24.1457,23.3132 L21.5887,20.8092 L20.2047,22.1652 L22.7667,24.6752 C23.1507,25.0522 23.3567,25.5842 23.3317,26.1362 C23.3077,26.6872 23.0477,27.2042 22.6197,27.5532 C21.8607,28.1492 20.7317,28.0962 19.9857,27.4392 L17.4297,24.9342 L16.7027,25.6462 C16.0847,26.2522 15.1167,26.2522 14.4987,25.6462 L12.0937,23.2892 C9.7157,20.9592 9.2327,17.3712 10.8507,14.5582 L9.0867,12.8302 C8.5427,12.2962 7.7777,12.0192 6.9867,12.0672 C6.2127,12.1152 5.5007,12.4772 5.0337,13.0632 C4.2147,14.0952 4.3617,15.6252 5.3787,16.6212 C6.6487,17.8672 7.3497,19.5222 7.3497,21.2822 C7.3497,23.0412 6.6487,24.6962 5.3787,25.9412 L-0.0003,31.2652 Z M40.8167,40.4272 C39.0427,40.4272 37.2607,39.7522 35.8947,38.4132 L34.2667,36.8192 C31.4047,38.4112 27.7467,37.9412 25.3717,35.6152 L22.9667,33.2582 C22.6647,32.9622 22.4997,32.5722 22.4997,32.1582 C22.4997,31.7442 22.6647,31.3542 22.9667,31.0592 L31.3347,22.8582 C31.9537,22.2522 32.9217,22.2532 33.5387,22.8582 L35.9437,25.2152 C38.3217,27.5442 38.8057,31.1332 37.1877,33.9472 L38.9507,35.6742 C39.5007,36.2332 40.2607,36.5242 41.0467,36.4742 C41.8297,36.4272 42.5227,36.0632 42.9977,35.4502 C43.8057,34.4322 43.6527,32.8972 42.6487,31.8732 C41.3887,30.6372 40.6877,28.9822 40.6877,27.2232 C40.6877,25.4632 41.3887,23.8082 42.6587,22.5632 L47.9997,17.2752 L47.9997,19.1892 L43.6127,23.5332 C42.6037,24.5222 42.0487,25.8312 42.0487,27.2232 C42.0487,28.6142 42.6037,29.9242 43.6107,30.9112 C45.1037,32.4342 45.2957,34.7422 44.0677,36.2882 C43.3657,37.1972 42.2917,37.7622 41.1277,37.8312 C39.9507,37.9092 38.8077,37.4672 37.9897,36.6382 L35.4367,34.1352 L35.7597,33.6642 C37.3587,31.3342 37.0367,28.1892 34.9917,26.1862 L32.5867,23.8292 C32.5007,23.7452 32.3727,23.7452 32.2867,23.8292 L23.9187,32.0302 C23.8697,32.0772 23.8587,32.1262 23.8587,32.1582 C23.8587,32.1902 23.8697,32.2392 23.9187,32.2862 L26.3237,34.6432 C28.3777,36.6562 31.6027,36.9742 33.9907,35.3962 L34.4497,35.0942 L36.8467,37.4422 C38.9647,39.5182 42.3197,39.6172 44.4827,37.6682 C45.5937,36.7052 46.2197,35.3892 46.2557,33.9512 C46.2927,32.5202 45.7137,31.1232 44.6687,30.1202 C43.8607,29.3292 43.4417,28.3392 43.4327,27.2792 C43.4217,26.1952 43.8377,25.1692 44.6037,24.3902 L47.9997,21.0432 L47.9997,22.9522 L45.5657,25.3502 C45.0627,25.8632 44.7847,26.5462 44.7917,27.2662 C44.7987,27.9632 45.0727,28.6122 45.5647,29.0942 C46.9307,30.4072 47.6617,32.1732 47.6157,33.9862 C47.5687,35.8102 46.7767,37.4792 45.3837,38.6872 C44.0927,39.8492 42.4577,40.4272 40.8167,40.4272 L40.8167,40.4272 Z" id="path-1"></path>
    </defs>
    <g id="Page-1" stroke="none" stroke-width="1" fill="none" fill-rule="evenodd">
        <g id="Generali-Group-GDF---Warranty-Icons" transform="translate(-990.000000, -1427.000000)">
            <g id="Dommages-electriques" transform="translate(731.000000, 1419.000000)">
                <g id="icons/products/red/A-car-home/a50-connection" transform="translate(259.500000, 0.000000)">
                    <g>
                        <polygon id="Rectangle-path" fill-opacity="0" fill="#FFFFFF" fill-rule="nonzero" points="0 0 48 0 48 48 0 48"></polygon>
                        <mask id="mask-2" fill="white">
                            <use xlink:href="#path-1"></use>
                        </mask>
                        <use id="a50-connection" fill="#C5281C" xlink:href="#path-1"></use>
                        <polygon id="Color-Style" fill="#C5281C" mask="url(#mask-2)" points="0 0 48 0 48 48 0 48"></polygon>
                    </g>
                </g>
            </g>
        </g>
    </g>
</svg>