<?xml version="1.0" encoding="UTF-8"?>
<svg width="32px" height="31px" viewBox="0 0 32 31" version="1.1" xmlns="http://www.w3.org/2000/svg" xmlns:xlink="http://www.w3.org/1999/xlink">
    <!-- Generator: sketchtool 63.1 (101010) - https://sketch.com -->
    <title>1B18DC60-4E06-4B5E-906D-577C123A96E1</title>
    <desc>Created with sketchtool.</desc>
    <defs>
        <path d="M26.6529655,6.97255944 C26.3470968,6.97242132 26.0418076,6.99916199 25.7406205,7.05247287 C25.6490667,5.63425639 25.1184106,4.27968704 24.2222653,3.17667136 C24.1689896,3.12339574 22.9902665,2.00460767 22.8903747,1.95799151 C21.1045527,0.672335445 18.8099631,0.322488688 16.7221496,1.01754727 C14.634336,1.71260585 13.0073169,3.36800396 12.348461,5.46752312 C10.7818353,5.15220534 9.16892122,5.72568589 8.15300572,6.95924054 C5.30997804,6.39284175 2.54609179,8.23841412 1.979693,11.0814418 C1.41329421,13.9244695 3.25886658,16.6883557 6.10189427,17.2547545 C6.45087171,17.321605 6.80542476,17.3550534 7.16074726,17.3546463 L13.3074222,17.3546463 L11.2629702,22.6822085 C11.1785796,22.9212623 11.3037377,23.1834984 11.5426672,23.2682404 C11.5932286,23.2782883 11.6452732,23.2782883 11.6958346,23.2682404 L16.6038513,23.2682404 L13.4006545,30.2473469 C13.3490299,30.3575612 13.3439422,30.4839165 13.3865387,30.5979245 C13.4291351,30.7119326 13.5158296,30.8039957 13.6270759,30.8533571 C13.8105329,30.9340753 14.0250508,30.8884902 14.1598321,30.7401464 L23.5296822,20.3247622 C23.6133322,20.2309539 23.6555573,20.1073418 23.6467806,19.9819611 C23.638004,19.8565805 23.5789694,19.7400565 23.483066,19.658817 C23.3965395,19.5923258 23.2922676,19.5529342 23.1833906,19.5456063 L18.1355254,19.5456063 L18.9546381,17.3413274 L26.6196683,17.3413274 C28.518593,17.4093525 30.3031219,16.4350924 31.2727665,14.8009774 C32.2424112,13.1668623 32.2424112,11.1337056 31.2727665,9.49959057 C30.3031219,7.86547552 28.518593,6.89121541 26.6196683,6.95924054 L26.6529655,6.97255944 Z M17.1832237,20.291465 C17.269853,20.4113609 17.4082435,20.4830274 17.556153,20.4845891 L22.21777,20.4845891 L15.4917227,27.909879 L17.7426177,23.0218406 C17.8415019,22.7900428 17.7382639,22.521624 17.5095369,22.4158304 C17.4477896,22.4057629 17.3848194,22.4057629 17.3230722,22.4158304 L12.3684393,22.4158304 L14.2863617,17.394603 L17.9890175,17.394603 L17.0766724,19.9052167 C17.0502003,20.04353 17.0895814,20.1862867 17.1832237,20.291465 Z M26.6862628,16.3690473 L7.19404452,16.3690473 C5.67849836,16.3690473 4.27807594,15.5605131 3.52030286,14.2480116 C2.76252977,12.9355101 2.76252977,11.3184416 3.52030286,10.0059402 C4.27807594,8.69343869 5.67849836,7.88490445 7.19404452,7.88490447 C7.55548604,7.88609812 7.91546849,7.93081644 8.26621642,8.01809353 C8.47017076,8.07211712 8.68607294,7.99215335 8.80563209,7.81830994 C9.64296958,6.64101957 11.1439529,6.13800185 12.5216067,6.57299228 C12.6528261,6.6255594 12.8001751,6.62006162 12.9271124,6.55786235 C13.0540497,6.49566307 13.1486859,6.38258809 13.187552,6.24667909 C13.1904396,6.23351669 13.1904396,6.21988477 13.187552,6.20672237 C13.7909533,3.54462198 16.1651307,1.66079396 18.894703,1.67817096 C20.1236491,1.67035767 21.3246043,2.04507432 22.3309807,2.75046638 C22.719171,3.07755779 23.0903661,3.4243029 23.4431093,3.78934102 C24.2976825,4.81924898 24.768418,6.11377156 24.7749998,7.45204004 L24.7749998,7.64516417 C24.7714206,7.77940814 24.8213403,7.90957119 24.9137679,8.00699493 C25.0061956,8.10441867 25.1335529,8.1611152 25.2677993,8.16460149 C25.3228819,8.17417483 25.3792031,8.17417483 25.4342857,8.16460149 C26.8772664,7.7577594 28.4276833,8.15164289 29.5015092,9.19787986 C30.5753352,10.2441168 31.0094305,11.783759 30.6402757,13.236838 C30.2711208,14.689917 29.1547993,15.8356757 27.7118185,16.2425177 C27.3658623,16.3305106 27.0099143,16.3730453 26.6529655,16.3690473 L26.6862628,16.3690473 Z M5.78889999,18.4401371 C6.15669141,18.4401371 6.45484526,18.738291 6.45484526,19.1060824 C6.45484526,19.4738738 6.15669141,19.7720277 5.78889999,19.7720277 C5.42110856,19.7720277 5.12295471,19.4738738 5.12295471,19.1060824 C5.12295471,18.738291 5.42110856,18.4401371 5.78889999,18.4401371 Z M8.9587995,18.4401371 C9.32659093,18.4401371 9.62474478,18.738291 9.62474478,19.1060824 C9.62474478,19.4738738 9.32659093,19.7720277 8.9587995,19.7720277 C8.59100808,19.7720277 8.29285423,19.4738738 8.29285423,19.1060824 C8.29285423,18.738291 8.59100808,18.4401371 8.9587995,18.4401371 Z M25.6074314,18.4401371 C25.9752229,18.4401371 26.2733767,18.738291 26.2733767,19.1060824 C26.2733767,19.4738738 25.9752229,19.7720277 25.6074314,19.7720277 C25.23964,19.7720277 24.9414862,19.4738738 24.9414862,19.1060824 C24.9414679,18.740876 25.2355839,18.4437892 25.600772,18.4401371 L25.6074314,18.4401371 Z M28.777331,18.4401371 C29.1451224,18.4401371 29.4432762,18.738291 29.4432762,19.1060824 C29.4432762,19.4738738 29.1451224,19.7720277 28.777331,19.7720277 C28.4095395,19.7720277 28.1113857,19.4738738 28.1113857,19.1060824 C28.1113674,18.740876 28.4054834,18.4437892 28.7706715,18.4401371 L28.777331,18.4401371 Z M4.47032834,20.9773886 C4.83811976,20.9773886 5.13627361,21.2755425 5.13627361,21.6433339 C5.13627361,22.0111253 4.83811976,22.3092792 4.47032834,22.3092792 C4.10253692,22.3092792 3.80438306,22.0111253 3.80438306,21.6433339 C3.80438306,21.2755425 4.10253692,20.9773886 4.47032834,20.9773886 L4.47032834,20.9773886 Z M7.64022786,20.9773886 C8.00801928,20.9773886 8.30617313,21.2755425 8.30617313,21.6433339 C8.30617313,22.0111253 8.00801928,22.3092792 7.64022786,22.3092792 C7.27243644,22.3092792 6.97428258,22.0111253 6.97428258,21.6433339 C6.97428258,21.2755425 7.27243644,20.9773886 7.64022786,20.9773886 L7.64022786,20.9773886 Z M24.2888598,20.9773886 C24.6566512,20.9773886 24.9548051,21.2755425 24.9548051,21.6433339 C24.9548051,22.0111253 24.6566512,22.3092792 24.2888598,22.3092792 C23.9210684,22.3092792 23.6229145,22.0111253 23.6229145,21.6433339 C23.6228962,21.2781275 23.9170122,20.9810407 24.2822003,20.9773886 L24.2888598,20.9773886 Z M27.4587593,20.9773886 C27.8265507,20.9773886 28.1247046,21.2755425 28.1247046,21.6433339 C28.1247046,22.0111253 27.8265507,22.3092792 27.4587593,22.3092792 C27.0909679,22.3092792 26.792814,22.0111253 26.792814,21.6433339 C26.7927958,21.2781275 27.0869117,20.9810407 27.4520998,20.9773886 L27.4587593,20.9773886 Z M3.15175669,23.4946618 C3.51954811,23.4946618 3.81770197,23.7928156 3.81770197,24.160607 C3.81770197,24.5283985 3.51954811,24.8265523 3.15175669,24.8265523 C2.78396527,24.8265523 2.48581141,24.5283985 2.48581141,24.160607 C2.48581141,23.7928156 2.78396527,23.4946618 3.15175669,23.4946618 Z M6.32165621,23.4946618 C6.68944763,23.4946618 6.98760148,23.7928156 6.98760148,24.160607 C6.98760148,24.5283985 6.68944763,24.8265523 6.32165621,24.8265523 C5.95386479,24.8265523 5.65571093,24.5283985 5.65571093,24.160607 C5.65571093,23.7928156 5.95386479,23.4946618 6.32165621,23.4946618 Z M22.9702881,23.4946618 C23.3380796,23.4946618 23.6362334,23.7928156 23.6362334,24.160607 C23.6362334,24.5283985 23.3380796,24.8265523 22.9702881,24.8265523 C22.6024967,24.8265523 22.3043429,24.5283985 22.3043429,24.160607 C22.3043246,23.7954007 22.5984406,23.4983138 22.9636287,23.4946618 L22.9702881,23.4946618 Z M26.1401877,23.4946618 C26.5079791,23.4946618 26.8061329,23.7928156 26.8061329,24.160607 C26.8061329,24.5283985 26.5079791,24.8265523 26.1401877,24.8265523 C25.7723962,24.8265523 25.4742424,24.5283985 25.4742424,24.160607 C25.4742241,23.7954007 25.7683401,23.4983138 26.1335282,23.4946618 L26.1401877,23.4946618 Z M1.8664823,26.0119349 C2.23427372,26.0119349 2.53242758,26.3100888 2.53242758,26.6778802 C2.53242758,27.0456716 2.23427372,27.3438255 1.8664823,27.3438255 C1.49869088,27.3438255 1.20053703,27.0456716 1.20053703,26.6778802 C1.20053703,26.3100888 1.49869088,26.0119349 1.8664823,26.0119349 Z M5.03638182,26.0119349 C5.40417324,26.0119349 5.7023271,26.3100888 5.7023271,26.6778802 C5.7023271,27.0456716 5.40417324,27.3438255 5.03638182,27.3438255 C4.6685904,27.3438255 4.37043601,27.0456716 4.37043601,26.6778802 C4.36999232,26.3227093 4.64835759,26.0296932 5.00308456,26.0119349 L5.03638182,26.0119349 Z M21.6850137,26.0119349 C22.0528052,26.0119349 22.350959,26.3100888 22.350959,26.6778802 C22.350959,27.0456716 22.0528052,27.3438255 21.6850137,27.3438255 C21.3172223,27.3438255 21.0190674,27.0456716 21.0190674,26.6778802 C21.018433,26.3251441 21.2929559,26.0330985 21.645057,26.0119349 L21.6850137,26.0119349 Z M24.8549133,26.0119349 C25.2227047,26.0119349 25.5208585,26.3100888 25.5208585,26.6778802 C25.5208585,27.0456716 25.2227047,27.3438255 24.8549133,27.3438255 C24.4871218,27.3438255 24.1889669,27.0456716 24.1889669,26.6778802 C24.1883325,26.3251441 24.4628554,26.0330985 24.8149566,26.0119349 L24.8549133,26.0119349 Z M3.68451291,28.5358675 C4.05230433,28.5358675 4.35045819,28.8340214 4.35045819,29.2018128 C4.35045819,29.5696042 4.05230433,29.8677581 3.68451291,29.8677581 C3.31672149,29.8677581 3.01856763,29.5696042 3.01856763,29.2018128 C3.01856763,28.8340214 3.31672149,28.5358675 3.68451291,28.5358675 Z M9.35170722,23.4946618 C9.71949864,23.4946618 10.0176525,23.7928156 10.0176525,24.160607 C10.0176525,24.5283985 9.71949864,24.8265523 9.35170722,24.8265523 C8.9839158,24.8265523 8.68576194,24.5283985 8.68576194,24.160607 C8.68576194,23.7928156 8.9839158,23.4946618 9.35170722,23.4946618 L9.35170722,23.4946618 Z M8.01981666,26.0119349 C8.38760808,26.0119349 8.68576194,26.3100888 8.68576194,26.6778802 C8.68576194,27.0456716 8.38760808,27.3438255 8.01981666,27.3438255 C7.65202524,27.3438255 7.35387137,27.0456716 7.35387137,26.6778802 C7.35383559,26.4989285 7.42582283,26.3274925 7.5536074,26.2022136 C7.68139197,26.0769346 7.85421964,26.0083559 8.03313557,26.0119349 L8.01981666,26.0119349 Z M11.1897162,26.0119349 C11.5575076,26.0119349 11.8556615,26.3100888 11.8556615,26.6778802 C11.8556615,27.0456716 11.5575076,27.3438255 11.1897162,27.3438255 C10.8219248,27.3438255 10.5237709,27.0456716 10.5237709,26.6778802 C10.5237709,26.3100888 10.8219248,26.0119349 11.1897162,26.0119349 Z M6.70124502,28.5358675 C7.06903644,28.5358675 7.36719029,28.8340214 7.36719029,29.2018128 C7.36719029,29.5696042 7.06903644,29.8677581 6.70124502,29.8677581 C6.33345359,29.8677581 6.03529972,29.5696042 6.03529972,29.2018128 C6.03526394,29.0228611 6.10725118,28.8514251 6.23503575,28.7261462 C6.36282032,28.6008672 6.53564799,28.5322885 6.71456392,28.5358675 L6.70124502,28.5358675 Z M9.87114453,28.5358675 C10.238936,28.5358675 10.5370898,28.8340214 10.5370898,29.2018128 C10.5370898,29.5696042 10.238936,29.8677581 9.87114453,29.8677581 C9.50335311,29.8677581 9.20519924,29.5696042 9.20519924,29.2018128 C9.20512672,28.8391606 9.49524593,28.5431206 9.85782563,28.5358675 L9.87114453,28.5358675 Z M20.3198259,28.5358675 C20.6876174,28.5358675 20.9857712,28.8340214 20.9857712,29.2018128 C20.9857712,29.5696042 20.6876174,29.8677581 20.3198259,29.8677581 C19.9520345,29.8677581 19.6538806,29.5696042 19.6538806,29.2018128 C19.6538449,29.0228611 19.7258321,28.8514251 19.8536167,28.7261462 C19.9814012,28.6008672 20.1542289,28.5322885 20.3331448,28.5358675 L20.3198259,28.5358675 Z M23.483066,28.5358675 C23.8508574,28.5358675 24.1490113,28.8340214 24.1490113,29.2018128 C24.1490113,29.5696042 23.8508574,29.8677581 23.483066,29.8677581 C23.1152746,29.8677581 22.8171207,29.5696042 22.8171207,29.2018128 C22.8170849,29.0228611 22.8890722,28.8514251 23.0168567,28.7261462 C23.1446413,28.6008672 23.317469,28.5322885 23.4963849,28.5358675 L23.483066,28.5358675 Z M0.665945277,28.5358675 C1.0337367,28.5358675 1.33189055,28.8340214 1.33189055,29.2018128 C1.33189055,29.5696042 1.0337367,29.8677581 0.665945277,29.8677581 C0.298153856,29.8677581 0,29.5696042 0,29.2018128 C0,28.8340214 0.298153856,28.5358675 0.665945277,28.5358675 Z" id="path-1"></path>
    </defs>
    <g id="Breakpoint-S" stroke="none" stroke-width="1" fill="none" fill-rule="evenodd">
        <g id="05_Home-contracts-S" transform="translate(-16.000000, -578.000000)">
            <g id="06_List_Items/09_Accordions/06.09.06_Left_Icon_Text_Badge/S-Copy" transform="translate(0.000000, 558.000000)">
                <g id="icons/products/red/A-car-home/a01-fire" transform="translate(16.000000, 20.000000)">
                    <g id="icons/products/red/A-car-home/a52-hallstorm">
                        <polygon id="Rectangle-path" fill-opacity="0" fill="#FFFFFF" fill-rule="nonzero" points="0 0 32 0 32 32 0 32"></polygon>
                        <mask id="mask-2" fill="white">
                            <use xlink:href="#path-1"></use>
                        </mask>
                        <use id="Shape" fill="#C5281C" xlink:href="#path-1"></use>
                        <polygon id="Color-Style" fill="#C5281C" mask="url(#mask-2)" points="0 0 32 0 32 32 0 32"></polygon>
                    </g>
                </g>
            </g>
        </g>
    </g>
</svg>