<?xml version="1.0" encoding="UTF-8"?>
<svg width="48px" height="48px" viewBox="0 0 48 48" version="1.1" xmlns="http://www.w3.org/2000/svg" xmlns:xlink="http://www.w3.org/1999/xlink">
    <!-- Generator: sketchtool 62 (101010) - https://sketch.com -->
    <title>07EFAE51-58C8-4748-AB72-616D9BA8B333</title>
    <desc>Created with sketchtool.</desc>
    <defs>
        <path d="M42.81,18.7 C42.8180868,19.2104505 42.5173624,19.6753338 42.0484688,19.8772345 C41.5795752,20.0791352 41.0351921,19.9781463 40.6699153,19.6214981 C40.3046385,19.2648499 40.1906672,18.723036 40.3813031,18.2494507 C40.5719391,17.7758655 41.0295021,17.4641158 41.54,17.46 C41.8732454,17.4546571 42.1948254,17.5826185 42.4332955,17.8154554 C42.6717656,18.0482924 42.8073765,18.3667221 42.81,18.7 L42.81,18.7 Z M47.39,32.16 C47.4730955,32.7543037 47.3900271,33.3600102 47.15,33.91 C46.9311268,34.2104936 46.6177215,34.4288209 46.26,34.53 L42.78,34.53 C42.7659455,35.5127226 42.3716852,36.4517788 41.68,37.15 C40.8860446,38.0978103 39.7163675,38.6497517 38.48,38.66 L38.35,38.66 C37.1630621,38.6805375 36.0099699,38.2641431 35.11,37.49 C34.2162171,36.7912837 33.6456961,35.7585685 33.53,34.63 L14.36,34.85 C14.3368389,35.8307985 13.9439345,36.7666254 13.26,37.47 C12.4698491,38.425276 11.2996207,38.9847915 10.06,39 L9.92,39 C8.74055865,39.0564036 7.58554447,38.6510725 6.7,37.87 C5.79543367,37.1734213 5.21690818,36.1356912 5.1,35 L1.35,35 L1.28,35 C0.58,35 0.09,34.28 0.07,33.59 L0.07,33 C0.0895165185,32.6873376 0.233603598,32.3955612 0.47,32.19 L0.39,26.41 C0.31001595,25.0045587 1.37558376,23.7963207 2.78,23.7 L6.78,23.65 C6.78,23.51 6.92,23.39 6.91,23.25 L9.3,20.14 L10.3,18.52 C11.75,16.22 12.41,15.41 13.48,15.26 L26.88,15.26 C27.481427,15.3405865 28.045316,15.5981654 28.5,16 C29.9386274,11.3220085 34.568412,8.38734331 39.4129793,9.08262842 C44.2575465,9.77791353 47.8750985,13.8962243 47.94,18.79 C47.9685177,21.6268644 46.7907271,24.3423261 44.7,26.26 L44.63,26.32 C45.5509677,27.7630319 46.0816034,29.4204069 46.17,31.13 C46.71,31.1 47.25,31.77 47.39,32.16 Z M29.67,17 C29.1689255,19.166316 29.5273849,21.4425328 30.67,23.35 C31.0047899,23.9166941 31.4114999,24.4376862 31.88,24.9 C33.4850979,26.5504899 35.6979092,27.4688789 38,27.44 L38.11,27.44 C39.7020059,27.418579 41.2566516,26.954609 42.6,26.1 C43.0136164,25.8357337 43.4049214,25.5380744 43.77,25.21 C45.5173361,23.6226857 46.5325355,21.3849006 46.5760689,19.0246348 C46.6196022,16.664369 45.6876138,14.3906694 44,12.74 C42.3963726,11.1775709 40.2387848,10.3145358 38,10.34 L37.85,10.34 C33.9103391,10.3986567 30.5261063,13.1540345 29.67,17 Z M16.67,16.75 L16.76,23.59 L29.21,23.45 C28.4825272,22.0775584 28.0885559,20.5530606 28.06,19 C28.0641558,18.5250628 28.0975523,18.0508321 28.16,17.58 C27.8277925,17.1200362 27.3641248,16.7714139 26.83,16.58 L16.67,16.75 Z M8.4,23.63 L15.4,23.56 L15.32,16.72 L13.58,16.72 C13.17,16.72 12.12,18.34 11.46,19.29 C11.2,19.83 10.8,20.29 10.4,20.91 L8.4,23.63 Z M5.3,33.2 L1.22,33.2 L1.28,33.87 L5.28,33.87 L5.3,33.2 Z M11.72,32.2 C11.1881064,31.6784135 10.4643447,31.3997653 9.72,31.43 C8.88910397,31.3945275 8.09347364,31.7680628 7.59,32.43 C7.0764792,33.0275483 6.79907517,33.7921877 6.81,34.58 C6.79517082,35.3703205 7.16884608,36.117671 7.81,36.58 C8.40941358,37.0903213 9.17280778,37.3672736 9.96,37.36 C10.7450608,37.3523217 11.4828209,36.9834417 11.96,36.36 C12.4908718,35.7758185 12.7645301,35.0026998 12.7193901,34.2146292 C12.67425,33.4265587 12.3141038,32.6897437 11.72,32.17 L11.72,32.2 Z M33.72,32.9 L14.14,33 C14.2993157,33.2524026 14.4048484,33.5349578 14.45,33.83 L33.58,33.68 C33.65,33.63 33.73,32.94 33.72,32.87 L33.72,32.9 Z M41.11,33.48 C41.0319437,33.049412 40.8500172,32.6443682 40.58,32.3 L40.15,31.87 C39.6168012,31.3504464 38.8939497,31.0721486 38.15,31.1 L38,31.1 C37.2227531,31.1387088 36.4973151,31.5014278 36,32.1 C35.4884145,32.6993587 35.2081889,33.4619979 35.2099913,34.25 C35.2558173,35.0253633 35.6171997,35.7481282 36.2099913,36.25 C36.8075483,36.7635208 37.5721877,37.0409248 38.36,37.03 C39.1326485,36.9741636 39.8517418,36.6146169 40.36,36.03 C40.911418,35.4512512 41.1944296,34.6675271 41.14,33.87 L41.11,33.48 Z M41.89,31.48 L44.89,31.48 C44.7985697,29.9767995 44.3271931,28.5213814 43.52,27.25 L43.4,27.34 C41.8331982,28.340173 40.0186366,28.8838489 38.16,28.91 L38,28.91 C35.3263834,28.9190126 32.7651579,27.8352782 30.91,25.91 C30.6479637,25.6439239 30.4009161,25.3634915 30.17,25.07 L2.79,25.3 C2.12,25.3 1.72,26 1.72981682,26.79 L1.8,32.16 L5.8,32.16 C5.98830057,31.9461211 6.16521201,31.7224784 6.33,31.49 C7.12812088,30.5476031 8.29516273,29.9969052 9.53,29.98 C10.7679239,29.8636743 11.9959459,30.2863762 12.9,31.14 C13.1061516,31.2878848 13.2882881,31.4666484 13.44,31.67 L34.44,31.42 C34.57,31.3 34.57,31.16 34.7,31.02 C35.5137644,30.0357559 36.7229207,29.4641548 38,29.46 L38.13,29.46 C39.634204,29.4453542 41.045801,30.1849409 41.89,31.43 L41.89,31.48 Z M45.89,32.64 L42.54,32.64 C42.54,32.78 42.75,33.23 42.76,33.36 L45.82,33.36 L45.89,32.64 Z M11.76,34.36 C11.7802461,35.1915677 11.2959925,35.9529352 10.5342732,36.2871483 C9.77255391,36.6213614 8.8843893,36.4621582 8.28618024,35.8841784 C7.68797118,35.3061987 7.49832009,34.424034 7.80614164,33.6512724 C8.11396319,32.8785107 8.85822793,32.3683617 9.69,32.36 C10.2324546,32.3410023 10.7593335,32.5432991 11.1496853,32.9204507 C11.5400372,33.2976022 11.7603326,33.817213 11.76,34.36 Z M10.86,34.36 C10.8544534,33.7249081 10.3351218,33.2145562 9.70002974,33.2200867 C9.06493768,33.2256172 8.55457267,33.744936 8.5600872,34.3800282 C8.56560174,35.0151204 9.08490766,35.5254985 9.72,35.52 C10.3512188,35.5145109 10.8600239,35.0012426 10.86,34.37 L10.86,34.36 Z M40.3,34 C40.3202461,34.8315677 39.8359925,35.5929352 39.0742732,35.9271483 C38.3125539,36.2613614 37.4243893,36.1021582 36.8261802,35.5241784 C36.2279712,34.9461987 36.0383201,34.064034 36.3461416,33.2912724 C36.6539632,32.5185107 37.3982279,32.0083617 38.23,32 C38.7724546,31.9810023 39.2993335,32.1832991 39.6896853,32.5604507 C40.0800372,32.9376022 40.3003326,33.457213 40.3,34 Z M39.4,34 C39.3889543,33.3662985 38.8672696,32.8609934 38.2335381,32.8701623 C37.5998066,32.8793312 37.0929588,33.3995171 37.1002508,34.033273 C37.1075428,34.6670288 37.6262253,35.175415 38.26,35.17 C38.5667585,35.167379 38.859755,35.0423039 39.0738387,34.8225864 C39.2879224,34.6028689 39.4053463,34.3067231 39.4,34 Z M34,20.05 C34.71232,20.0388706 35.2807638,19.4524291 35.2696916,18.7401082 C35.2586193,18.0277872 34.6722233,17.4592964 33.9599015,17.4703116 C33.2475797,17.4813268 32.6790419,18.0676773 32.69,18.78 C32.6952634,19.1221425 32.836248,19.448176 33.0819297,19.686356 C33.3276114,19.924536 33.6578588,20.0553456 34,20.05 Z M37.82,20.05 C38.3466775,20.0458864 38.8188282,19.724392 39.0156574,19.2358591 C39.2124867,18.7473263 39.0950942,18.1883057 38.7183771,17.8202157 C38.3416599,17.4521256 37.7800702,17.3477132 37.2962275,17.5558055 C36.8123849,17.7638977 36.5019131,18.2433685 36.51,18.77 C36.541377,19.4474676 37.0919731,19.9849543 37.77,20 L37.82,20.05 Z" id="path-1"></path>
    </defs>
    <g id="Asset-Artboard-Page" stroke="none" stroke-width="1" fill="none" fill-rule="evenodd">
        <g id="icons/products/red/A-car-home/a56-other-damages">
            <g>
                <polygon id="Rectangle-path" fill-opacity="0" fill="#FFFFFF" fill-rule="nonzero" points="0 0 48 0 48 48 0 48"></polygon>
                <mask id="mask-2" fill="white">
                    <use xlink:href="#path-1"></use>
                </mask>
                <use id="Shape" fill="#C5281C" xlink:href="#path-1"></use>
                <polygon id="Color-Style" fill="#C5281C" mask="url(#mask-2)" points="0 0 48 0 48 48 0 48"></polygon>
            </g>
        </g>
    </g>
</svg>