<?xml version="1.0" encoding="UTF-8"?>
<svg width="49px" height="37px" viewBox="0 0 49 37" version="1.1" xmlns="http://www.w3.org/2000/svg" xmlns:xlink="http://www.w3.org/1999/xlink">
    <!-- Generator: sketchtool 62 (101010) - https://sketch.com -->
    <title>FE10CB47-5F78-4E29-BB66-B4039BBC0F06</title>
    <desc>Created with sketchtool.</desc>
    <defs>
        <path d="M47.6444275,19.9884446 L38.2944275,14.4084446 L38.2944275,7.98844461 C38.2944275,7.7921844 38.2164634,7.60396251 38.0776865,7.46518559 C37.9389096,7.32640867 37.7506877,7.24844461 37.5544275,7.24844461 L33.6144275,7.24844461 C33.2057368,7.24844461 32.8744275,7.57975389 32.8744275,7.98844461 L32.8744275,11.1084446 L24.5444275,6.10844461 C24.3117262,5.9638518 24.0171288,5.9638518 23.7844275,6.10844461 L0.364427497,19.9884446 C0.0109652575,20.1983128 -0.105440708,20.6549824 0.104427497,21.0084446 C0.314295702,21.3619068 0.770965257,21.4783128 1.1244275,21.2684446 L5.0044275,18.9384446 L5.0044275,38.5284446 C4.95621873,39.5811444 5.31420488,40.6121446 6.0044275,41.4084446 C6.82689976,42.2593813 7.98396162,42.7024334 9.1644275,42.6184446 L38.8844275,42.6184446 C40.0736544,42.7017672 41.2396213,42.2595039 42.0744275,41.4084446 C42.7385641,40.601189 43.0710151,39.5716632 43.0044275,38.5284446 L43.0044275,18.9084446 L46.9244275,21.2584446 C47.2697044,21.4648845 47.7169195,21.3530807 47.9244275,21.0084446 C48.1275513,20.6493071 48.0024401,20.1935446 47.6444275,19.9884446 Z M34.3544275,8.72844461 L36.8144275,8.72844461 L36.8144275,13.4784446 L34.3544275,11.9984446 L34.3544275,8.72844461 Z M26.7344275,41.1584446 L21.2744275,41.1584446 L26.7344275,41.1584446 Z M19.7944275,41.1584446 L9.1244275,41.1584446 C8.38829725,41.2082788 7.66435971,40.9512809 7.1244275,40.4484446 C6.72294519,39.934211 6.52692048,39.2891115 6.5744275,38.6384446 C6.5744275,38.6384446 6.5744275,38.6384446 6.5744275,38.5584446 L6.5744275,18.1984446 C6.57799895,18.1551849 6.57799895,18.1117044 6.5744275,18.0684446 L24.1544275,7.58844461 L41.4744275,18.0084446 L41.4744275,38.5584446 C41.4744275,38.5584446 41.4744275,38.6184446 41.4744275,38.6484446 C41.5379119,39.2728192 41.3707349,39.898844 41.0044275,40.4084446 C40.4507185,40.9434494 39.6910395,41.2100675 38.9244275,41.1384446 L28.2144275,41.1384446 L19.7944275,41.1584446 Z M31.9544275,36.1384446 C30.4496684,36.9242231 28.7717119,37.3196432 27.0744275,37.2884446 C24.6300372,37.3681887 22.2499259,36.497154 20.4344275,34.8584446 C19.1297107,33.6117363 18.2989641,31.9502431 18.0844275,30.1584446 L16.0844275,30.1584446 L16.0844275,28.8084446 L17.9444275,28.8084446 L17.9444275,28.4084446 C17.9444275,27.9684446 17.9444275,27.5584446 18.0144275,27.1784446 L16.0544275,27.1784446 L16.0544275,25.7984446 L18.2144275,25.7984446 C18.5670287,24.0052907 19.5106464,22.3821273 20.8944275,21.1884446 C22.6983317,19.6556815 25.0085721,18.8499495 27.3744275,18.9284446 C28.8691444,18.9128546 30.3506849,19.2091627 31.7244275,19.7984446 L31.0744275,21.5984446 C29.9204424,21.0827124 28.6683245,20.8234182 27.4044275,20.8384446 C25.8276741,20.7816764 24.286709,21.3167337 23.0844275,22.3384446 C22.0481496,23.2344763 21.3436555,24.4532511 21.0844275,25.7984446 L30.2144275,25.7984446 L30.2144275,27.1684446 L20.8344275,27.1684446 C20.79027,27.5468791 20.7669015,27.9274506 20.7644275,28.3084446 L20.7644275,28.8084446 L30.2544275,28.8084446 L30.2544275,30.1384446 L21.0044275,30.1384446 C21.1826576,31.5008907 21.8171326,32.7627909 22.8044275,33.7184446 C24.0977707,34.7882918 25.7367357,35.3500195 27.4144275,35.2984446 C28.7968349,35.2884247 30.1609527,34.9814982 31.4144275,34.3984446 L31.9544275,36.1384446 Z" id="path-1"></path>
    </defs>
    <g id="Page-1" stroke="none" stroke-width="1" fill="none" fill-rule="evenodd">
        <g id="Generali-Group-GDF---Warranty-Icons" transform="translate(-990.000000, -1573.000000)">
            <g id="Valeur-remplacement-a-neuf" transform="translate(731.000000, 1567.000000)">
                <g id="icons/products/red/A-car-home/a58-inner-damages" transform="translate(259.500000, 0.000000)">
                    <g>
                        <polygon id="Rectangle-path" fill-opacity="0" fill="#FFFFFF" fill-rule="nonzero" points="0 0 48 0 48 48 0 48"></polygon>
                        <mask id="mask-2" fill="white">
                            <use xlink:href="#path-1"></use>
                        </mask>
                        <use id="Shape" fill="#C5281C" xlink:href="#path-1"></use>
                        <polygon id="Color-Style" fill="#C5281C" mask="url(#mask-2)" points="0 0 48 0 48 48 0 48"></polygon>
                    </g>
                </g>
            </g>
        </g>
    </g>
</svg>