<?xml version="1.0" encoding="UTF-8"?>
<svg width="49px" height="35px" viewBox="0 0 49 35" version="1.1" xmlns="http://www.w3.org/2000/svg" xmlns:xlink="http://www.w3.org/1999/xlink">
    <!-- Generator: sketchtool 62 (101010) - https://sketch.com -->
    <title>C80EED00-9BDC-4BDA-A5AC-46B01C64366C</title>
    <desc>Created with sketchtool.</desc>
    <defs>
        <path d="M47.528495,22.0711498 C47.0813952,20.3296579 46.3503492,18.6737538 45.3647434,17.1700008 C44.3384283,15.6315405 43.0669405,14.2716605 41.600822,13.1444164 C40.2278472,12.0707102 38.7099345,11.1965552 37.0921675,10.5479145 L37.8570285,8.63576195 L37.8570285,8.57537819 C37.9220603,8.42791561 37.9220603,8.25989856 37.8570285,8.11243598 C37.7916714,7.97324232 37.6713558,7.8675104 37.5249178,7.82058112 C37.1996692,7.68573899 36.8260391,7.83252225 36.6795451,8.15269183 L35.8442364,10.1252282 C32.4286382,8.99672722 28.766571,8.83993082 25.2670134,9.67234992 L21.1005336,7.10603989 C20.8687977,6.96465337 20.5774725,6.96465337 20.3457366,7.10603989 L0.368774159,18.8406183 C0.20287843,18.944334 0.0810498642,19.1055777 0.0265994881,19.2934966 C-0.0535073413,19.5832583 0.0510092433,19.8925884 0.290445701,20.0743827 C0.529882159,20.2561771 0.855918992,20.2737487 1.11350727,20.1187413 L4.23333515,18.2770365 L4.23333515,36.2311428 C4.23065948,36.9455422 4.51257983,37.6315991 5.01679493,38.1377027 C5.52101002,38.6438062 6.20600831,38.9282893 6.92041271,38.9282843 L24.7738794,38.9282843 L24.1901696,40.5083261 C24.0535455,40.8530632 24.2075573,41.2446932 24.5424083,41.4040502 L24.7336235,41.4040502 L24.7336235,41.4040502 C25.0163444,41.4068247 25.2667577,41.2220936 25.3475251,40.9511404 L26.1023222,38.9383482 L33.5496533,38.9383482 C35.0068898,38.9273911 36.1855179,37.7487631 36.196475,36.2915265 L36.196475,23.8424069 L47.2064482,27.8679912 C47.2726518,27.8834418 47.3415239,27.8834418 47.4077274,27.8679912 C47.4880615,27.8566121 47.5661459,27.8328473 47.6391985,27.7975435 C47.7972535,27.7119224 47.902745,27.5536852 47.9209895,27.3748572 C48.1029284,25.5976275 47.9700627,23.8022376 47.528495,22.0711498 Z M25.5085485,10.8397694 C25.6704639,10.7900512 25.8351162,10.7497282 26.0016826,10.7190019 C26.2432177,10.6586181 26.5048806,10.6183622 26.7464157,10.5781064 L26.7866715,10.5781064 C27.0080787,10.5781064 27.2194219,10.4975947 27.450893,10.4774668 L27.5112767,10.4774668 C27.7528118,10.4774668 28.0044108,10.417083 28.2459459,10.3868911 L28.6283764,10.3868911 L29.0108069,10.3868911 C29.8263623,10.3467549 30.6437687,10.3669377 31.4563494,10.4472749 C32.2650649,10.5263265 33.0682826,10.6540348 33.8616361,10.8297054 C33.1731425,11.0438877 32.5005545,11.306197 31.8488439,11.6146944 C31.4877151,11.7743021 31.1350128,11.9523328 30.792128,12.1480843 C30.5261345,12.2854916 30.267476,12.4366557 30.017203,12.6009625 C29.9029997,12.6621035 29.7921387,12.729292 29.6850923,12.8022418 C29.4334933,12.9532012 29.1919582,13.1242885 28.9604871,13.2953759 C28.8577616,13.3542163 28.7601365,13.4215439 28.6686322,13.4966551 L27.8735793,14.1206206 C26.441956,15.3371463 25.1974281,16.7580106 24.1801057,18.3374203 L17.135333,15.8013021 L17.5882113,15.3383599 C17.6989148,15.2175924 17.8297463,15.1068888 17.9505139,14.9961852 C18.0712814,14.8854817 18.3329444,14.6439466 18.5241596,14.4929872 C18.7153749,14.3420278 18.9166541,14.1608765 19.1179333,14.0099171 L19.8123466,13.4865911 L20.5671437,13.003521 C20.7526057,12.883165 20.9440682,12.7723183 21.1407895,12.6714103 C21.3320047,12.5506427 21.5433479,12.4399392 21.7446271,12.3292356 L21.8251388,12.3292356 L21.8855226,12.3292356 L22.288081,12.1380203 L22.3484648,12.1380203 L22.8919187,11.8964853 L23.7171635,11.5643746 C24.0492742,11.443607 24.3914488,11.3329035 24.7235596,11.2322639 C24.9768108,11.0852446 25.2389824,10.9541588 25.5085485,10.8397694 L25.5085485,10.8397694 Z M22.9925583,37.6904171 L18.5140957,37.6904171 L18.5140957,24.1342618 L23.0126862,24.1342618 L22.9925583,37.6904171 Z M24.2203615,37.6904171 L24.2203615,23.5102962 C24.2149745,23.1790629 23.9477572,22.9118455 23.6165239,22.9064585 L17.8901301,22.9064585 C17.7299824,22.9064585 17.5763939,22.9700769 17.4631524,23.0833185 C17.3499109,23.19656 17.2862924,23.3501485 17.2862924,23.5102962 L17.2862924,37.6501613 L6.93047667,37.6501613 C6.5507903,37.6614187 6.18327958,37.5155334 5.91468279,37.2469366 C5.64608599,36.9783399 5.50020073,36.6108291 5.51145818,36.2311428 L5.51145818,17.5222394 L20.748295,8.59550611 L20.8589986,8.65588987 L23.4353726,10.2258678 L22.7208313,10.4975947 C19.9797044,11.5816665 17.5565901,13.3401552 15.6760587,15.6100869 C15.5821013,15.7567705 15.5598853,15.9382009 15.6156749,16.1032209 C15.6811443,16.268894 15.8123045,16.4000542 15.9779775,16.4655235 L30.9934072,21.9403183 L25.1865018,37.6702892 L24.2203615,37.6904171 Z M34.9384799,36.2915265 C34.9581952,36.6692073 34.8195942,37.0380141 34.5560172,37.309231 C34.2924401,37.580448 33.9277431,37.7295275 33.5496533,37.720609 L26.5753284,37.720609 L32.2212104,22.3931965 L34.9384799,23.3995926 L34.9384799,36.2915265 Z M38.7225292,23.6109358 L36.186411,22.6951153 L34.908288,22.2019813 L25.2972053,18.6795949 C26.4799438,16.8856367 27.9847257,15.3262595 29.7354121,14.0803648 C30.1882903,13.768382 30.6512325,13.4664632 31.1242387,13.2048002 C31.5093138,12.967785 31.9093574,12.7559972 32.32185,12.5707707 C33.4937321,12.0116603 34.7416747,11.6284606 36.0253877,11.4335431 C36.8155924,12.3660937 37.450994,13.4194332 37.9073483,14.553371 C38.3602777,15.6312225 38.6812968,16.759858 38.8634246,17.9147339 C38.9624724,18.5210771 39.0263177,19.1326482 39.0546399,19.7463748 C39.1048583,21.0266977 38.9932728,22.3082396 38.7225292,23.560616 L38.7225292,23.6109358 Z M46.9145934,26.5294844 L39.8698207,23.9732384 C40.1196666,22.7954115 40.2444804,21.5945006 40.2421873,20.3904683 C40.2488602,19.822684 40.2253444,19.2549465 40.1717396,18.6896589 C40.1717396,18.6896589 40.1717396,18.5990833 40.1717396,18.5588274 C39.9948547,17.0402066 39.5982154,15.5553518 38.9942561,14.1508125 C38.7206784,13.4763299 38.383702,12.8293354 37.98786,12.218532 C43.5082393,14.8301948 46.9968881,20.4230454 46.9145934,26.5294844 Z" id="path-1"></path>
    </defs>
    <g id="Page-1" stroke="none" stroke-width="1" fill="none" fill-rule="evenodd">
        <g id="Generali-Group-GDF---Warranty-Icons" transform="translate(-990.000000, -1352.000000)">
            <g id="Installation-exterieures" transform="translate(731.000000, 1345.000000)">
                <g id="icons/products/red/A-car-home/a64-holiday" transform="translate(259.500000, 0.000000)">
                    <g>
                        <polygon id="Rectangle-path" fill-opacity="0" fill="#FFFFFF" fill-rule="nonzero" points="0 0 48 0 48 48 0 48"></polygon>
                        <mask id="mask-2" fill="white">
                            <use xlink:href="#path-1"></use>
                        </mask>
                        <use id="Shape" fill="#C5281C" xlink:href="#path-1"></use>
                        <polygon id="Color-Style" fill="#C5281C" mask="url(#mask-2)" points="0 0 48 0 48 48 0 48"></polygon>
                    </g>
                </g>
            </g>
        </g>
    </g>
</svg>