<?xml version="1.0" encoding="UTF-8"?>
<svg width="48px" height="48px" viewBox="0 0 48 48" version="1.1" xmlns="http://www.w3.org/2000/svg" xmlns:xlink="http://www.w3.org/1999/xlink">
    <!-- Generator: sketchtool 62 (101010) - https://sketch.com -->
    <title>B22575D0-83EE-496B-9CB8-C48521ACF712</title>
    <desc>Created with sketchtool.</desc>
    <defs>
        <path d="M17.006949,10.5705357 L15.7741897,13.5703585 L31.3121897,13.5703585 L31.9911897,11.9203585 L29.7120361,11.9205357 C29.3392439,11.9205357 29.0370361,11.6183279 29.0370361,11.2455357 C29.0370361,10.8727435 29.3392439,10.5705357 29.7120361,10.5705357 L35.3411865,10.5705357 C35.7139787,10.5705357 36.0161865,10.8727435 36.0161865,11.2455357 C36.0161865,11.6183279 35.7139787,11.9205357 35.3411865,11.9205357 L33.4511897,11.9203585 L32.6127759,13.9620779 C32.6176322,13.9725561 32.6222261,13.9831788 32.6265508,13.9939387 L35.0581001,19.6675907 C36.0961858,19.2871223 37.2176202,19.0794643 38.3875558,19.0794643 C43.7309108,19.0794643 48.0625558,23.4111093 48.0625558,28.7544643 C48.0625558,34.0978192 43.7309108,38.4294643 38.3875558,38.4294643 C33.0998119,38.4294643 28.8028288,34.1875134 28.7139596,28.9209651 L26,28.9205357 L25.9830581,28.9205723 C25.9606798,28.9200682 25.9382825,28.9184541 25.9159545,28.9157104 L26,28.9205357 C25.9646977,28.9205357 25.9300284,28.9178257 25.8961887,28.9126022 C25.8685513,28.9087836 25.8402783,28.9026163 25.8123421,28.8945606 C25.809504,28.8932902 25.8062328,28.8923206 25.802972,28.891327 C25.7524169,28.8763412 25.7036564,28.8550146 25.6571026,28.8273731 C25.6484987,28.8219848 25.640419,28.8169687 25.6324554,28.811789 L25.6209949,28.8043491 C25.6126941,28.7986782 25.6044767,28.7927934 25.596349,28.7866933 C25.5794539,28.7739431 25.563715,28.7610073 25.5485943,28.7473981 C25.5470986,28.7460461 25.54549,28.7445852 25.5438859,28.7431148 L13.9191897,18.0863585 L13.2419849,19.7365268 C16.8491665,21.1422715 19.4051897,24.6498723 19.4051897,28.7544643 C19.4051897,34.0978192 15.0735447,38.4294643 9.73018973,38.4294643 C4.38683478,38.4294643 0.0551897321,34.0978192 0.0551897321,28.7544643 C0.0551897321,23.4111093 4.38683478,19.0794643 9.73018973,19.0794643 C10.4933725,19.0794643 11.2359165,19.1678296 11.9481483,19.334887 L14.993051,11.9205357 L11.6972656,11.9205357 C11.3244734,11.9205357 11.0222656,11.6183279 11.0222656,11.2455357 C11.0222656,10.8727435 11.3244734,10.5705357 11.6972656,10.5705357 L17.006949,10.5705357 Z M38.3875558,20.4294643 C37.4065338,20.4294643 36.4651443,20.5991515 35.5911371,20.9107762 L38.6204229,27.9796402 C38.8113134,28.4250514 38.4845929,28.9205357 38,28.9205357 L30.0651897,28.9203585 L30.0663723,29.0089822 C30.2008999,33.4890022 33.8749292,37.0794643 38.3875558,37.0794643 C42.9853263,37.0794643 46.7125558,33.3522348 46.7125558,28.7544643 C46.7125558,24.1566937 42.9853263,20.4294643 38.3875558,20.4294643 Z M9.73018973,20.4294643 C5.13241919,20.4294643 1.40518973,24.1566937 1.40518973,28.7544643 C1.40518973,33.3522348 5.13241919,37.0794643 9.73018973,37.0794643 C14.3279603,37.0794643 18.0551897,33.3522348 18.0551897,28.7544643 C18.0551897,25.2139918 15.8450792,22.1897182 12.7292397,20.9860253 L9.64219474,28.5019825 C9.50056308,28.8468223 9.10620003,29.0115551 8.7613602,28.8699234 C8.41652038,28.7282918 8.25178762,28.3339287 8.39341928,27.9890889 L11.4271984,20.6025577 C10.8793082,20.4890887 10.311712,20.4294643 9.73018973,20.4294643 Z M31.8911897,15.7073585 L27.0071897,27.5703585 L28.7842761,27.5704829 C29.1732697,24.3824368 31.1129359,21.673253 33.8261272,20.2200788 L31.8911897,15.7073585 Z M30.1460598,27.5708072 L36.9763362,27.5705357 L34.3608771,21.466325 C32.1261202,22.70366 30.5206756,24.9389929 30.1460598,27.5708072 Z M30.7561897,14.9203585 L15.2191897,14.9203585 L14.4651897,16.7563585 L25.7437749,27.094979 L30.7561897,14.9203585 Z" id="path-1"></path>
    </defs>
    <g id="Asset-Artboard-Page" stroke="none" stroke-width="1" fill="none" fill-rule="evenodd">
        <g id="icons/products/red/A-car-home/a75-bicycle">
            <g id="icons/products/red/A-car-home/a74-house">
                <polygon id="Rectangle-path" fill-opacity="0" fill="#FFFFFF" fill-rule="nonzero" points="0 0 48 0 48 48 0 48"></polygon>
                <mask id="mask-2" fill="white">
                    <use xlink:href="#path-1"></use>
                </mask>
                <use id="Combined-Shape" fill="#C5281C" fill-rule="nonzero" xlink:href="#path-1"></use>
                <polygon id="Color-Style" fill="#C5281C" mask="url(#mask-2)" points="0 0 48 0 48 48 0 48"></polygon>
            </g>
        </g>
    </g>
</svg>