<?xml version="1.0" encoding="UTF-8"?>
<svg width="48px" height="48px" viewBox="0 0 48 48" version="1.1" xmlns="http://www.w3.org/2000/svg" xmlns:xlink="http://www.w3.org/1999/xlink">
    <!-- Generator: sketchtool 62 (101010) - https://sketch.com -->
    <title>3C52CBA0-4CAE-4219-A6A1-C8798D5FBC69</title>
    <desc>Created with sketchtool.</desc>
    <defs>
        <path d="M47.666033,37.9065354 C48.2980272,37.9065354 48.5834401,38.6973194 48.0971238,39.1009445 L37.2532799,48.1009445 C37.1321266,48.2014973 36.9796344,48.2565354 36.8221891,48.2565354 L6.07766783,48.2565354 C5.84059735,48.2565354 5.62090496,48.132167 5.49890622,47.9288969 L0.0972811734,38.9288969 C-0.172741575,38.4789944 0.151328997,37.9065354 0.67604279,37.9065354 L47.666033,37.9065354 Z M45.7958328,39.2565354 L1.86840589,39.2565354 L6.45978717,46.9065354 L36.5785655,46.9065354 L45.7958328,39.2565354 Z M6.06131844,37.0479599 C5.54339459,37.0479599 5.21842931,36.488753 5.47485625,36.0387637 L25.817318,0.340917096 C25.9632353,0.0848550511 26.252525,-0.0404501571 26.5286678,0.0116136714 C26.6564639,0.0102858053 26.7860149,0.0463969877 26.9009095,0.122197732 C27.1016419,0.254629249 27.300598,0.388401199 27.4977792,0.523513261 C27.7716162,0.69760769 28.0390735,0.885485825 28.2997442,1.08717013 C38.9400057,8.76674861 44.1518991,20.5465948 44.1518991,36.3729599 C44.1518991,36.7457521 43.8496913,37.0479599 43.4768991,37.0479599 L6.06131844,37.0479599 Z M32.4323204,6.45024709 L32.5681222,6.73238489 C34.009837,9.76016454 35.0471012,13.5959858 35.739125,18.1009791 C36.5961507,23.6801153 36.8076418,29.0125796 36.7294975,35.0867711 C36.726006,35.3368699 36.7232492,35.5365379 36.7211092,35.6990527 L42.7985888,35.6979599 C42.6766369,23.3124554 39.2629524,13.5795435 32.4323204,6.45024709 Z M26.6581466,1.59208579 L7.22287233,35.6979599 L35.3709988,35.6979599 C35.3731822,35.5313513 35.3760123,35.3265502 35.3796092,35.0694048 C35.4568712,29.0638019 35.2478846,23.7944865 34.4047764,18.3059519 C33.2022661,10.4777519 30.933174,4.812681 27.4300249,2.1238062 C27.217749,1.97248033 27.003459,1.82191801 26.7869396,1.67303156 C26.7439159,1.64522631 26.7011162,1.61844928 26.6581466,1.59208579 Z" id="path-1"></path>
    </defs>
    <g id="Asset-Artboard-Page" stroke="none" stroke-width="1" fill="none" fill-rule="evenodd">
        <g id="icons/products/red/A-car-home/a76-boat">
            <g id="icons/products/red/A-car-home/a74-house">
                <polygon id="Rectangle-path" fill-opacity="0" fill="#FFFFFF" fill-rule="nonzero" points="0 0 48 0 48 48 0 48"></polygon>
                <mask id="mask-2" fill="white">
                    <use xlink:href="#path-1"></use>
                </mask>
                <use id="Combined-Shape" fill="#C21B17" fill-rule="nonzero" xlink:href="#path-1"></use>
                <polygon id="Color-Style" fill="#C5281C" mask="url(#mask-2)" points="0 0 48 0 48 48 0 48"></polygon>
            </g>
        </g>
    </g>
</svg>