<?xml version="1.0" encoding="UTF-8"?>
<svg width="48px" height="48px" viewBox="0 0 48 48" version="1.1" xmlns="http://www.w3.org/2000/svg" xmlns:xlink="http://www.w3.org/1999/xlink">
    <!-- Generator: sketchtool 62 (101010) - https://sketch.com -->
    <title>29B53A71-6612-49D4-8ADA-6B56B08AA66E</title>
    <desc>Created with sketchtool.</desc>
    <defs>
        <path d="M33.8329,1.9661 C33.8329,1.8171 33.9589,1.6901 34.1079,1.6901 L37.3179,1.6901 C37.4689,1.6901 37.5949,1.8171 37.5949,1.9661 L37.5949,8.0231 L33.8329,5.7591 L33.8329,1.9661 Z M36.1586,24.7041 C42.5276,24.7041 47.7096,29.9021 47.7096,36.2901 C47.7026,42.6721 42.5206,47.8691 36.1586,47.8761 C29.7896,47.8761 24.6076,42.6781 24.6076,36.2901 C24.6076,29.9021 29.7896,24.7041 36.1586,24.7041 Z M36.1586,26.0791 C30.5406,26.0791 25.9706,30.6621 25.9706,36.2961 C25.9706,41.9301 30.5406,46.5141 36.1586,46.5141 C41.7766,46.5141 46.3466,41.9301 46.3466,36.2961 C46.3406,30.6701 41.7696,26.0861 36.1586,26.0791 Z M36.8803,30.1343 C38.1803,30.1343 39.1943,30.4463 39.8113,30.7223 L39.3703,31.9353 C38.8193,31.6593 37.8943,31.4213 36.9023,31.4213 C35.7123,31.4213 34.7423,31.7703 33.9943,32.4313 C33.3323,32.9653 32.8913,33.7923 32.6723,34.7663 L38.8193,34.7663 L38.8193,35.6843 L32.4733,35.6843 C32.4513,35.9243 32.4303,36.1993 32.4303,36.4573 L32.4303,36.7883 L38.8193,36.7883 L38.8193,37.6883 L32.5843,37.6883 C32.7603,38.7543 33.2013,39.5443 33.7953,40.0953 C34.6113,40.8123 35.7123,41.1623 36.9023,41.1623 C38.0713,41.1623 39.0843,40.7943 39.5903,40.5553 L39.9653,41.7133 C39.2823,42.0993 38.1363,42.4853 36.6813,42.4853 C34.8983,42.4853 33.3113,41.9153 32.2093,40.8493 C31.3723,40.0773 30.8213,39.0113 30.6223,37.6883 L29.2573,37.6883 L29.2573,36.7883 L30.5113,36.7883 L30.5113,36.5123 C30.5113,36.2183 30.5343,35.9423 30.5563,35.6843 L29.2573,35.6843 L29.2573,34.7663 L30.7103,34.7663 C30.9753,33.4793 31.6353,32.4133 32.5163,31.6593 C33.6413,30.6853 35.0743,30.1343 36.8803,30.1343 Z M23.7269,0.0951 C23.9409,-0.0329 24.2089,-0.0319 24.4219,0.0971 L24.4219,0.0971 L32.4789,4.9451 L32.4789,1.9661 C32.4789,1.0671 33.2099,0.3361 34.1079,0.3361 L34.1079,0.3361 L37.3179,0.3361 C38.2179,0.3361 38.9489,1.0671 38.9489,1.9661 L38.9489,1.9661 L38.9489,8.8381 L47.5389,14.0071 C47.6939,14.1001 47.8049,14.2491 47.8479,14.4241 C47.8919,14.6001 47.8639,14.7811 47.7709,14.9361 C47.5799,15.2551 47.1639,15.3591 46.8419,15.1671 L46.8419,15.1671 L42.4739,12.5391 L42.4739,24.8171 C42.0359,24.5941 41.5829,24.3981 41.1189,24.2241 L41.1189,24.2241 L41.1189,11.8151 C41.1189,11.7841 41.1259,11.7571 41.1329,11.7321 L41.1329,11.7321 L24.0709,1.4661 L6.5309,11.8951 L6.5309,33.6421 C6.5309,34.5941 7.3059,35.3691 8.2579,35.3691 L8.2579,35.3691 L20.0839,35.3691 L20.0839,22.1381 C20.0839,21.2391 20.8149,20.5081 21.7139,20.5081 L21.7139,20.5081 L26.4399,20.5081 C27.3389,20.5081 28.0699,21.2391 28.0699,22.1381 L28.0699,22.1381 L28.0699,26.4651 C27.5849,26.8731 27.1379,27.3221 26.7159,27.7951 L26.7159,27.7951 L26.7159,22.1381 C26.7159,21.9881 26.5899,21.8621 26.4399,21.8621 L26.4399,21.8621 L21.7139,21.8621 C21.5639,21.8621 21.4379,21.9881 21.4379,22.1381 L21.4379,22.1381 L21.4379,35.3691 L23.4149,35.3691 C23.3779,35.7711 23.3529,36.1771 23.3529,36.5881 C23.3529,36.6341 23.3599,36.6771 23.3599,36.7221 L23.3599,36.7221 L8.2579,36.7221 C6.5589,36.7221 5.1759,35.3411 5.1759,33.6421 L5.1759,33.6421 L5.1759,12.7001 L1.0229,15.1691 C0.9199,15.2311 0.7999,15.2641 0.6779,15.2641 C0.4399,15.2641 0.2169,15.1371 0.0959,14.9331 C0.0029,14.7781 -0.0231,14.5951 0.0209,14.4201 C0.0659,14.2451 0.1769,14.0971 0.3319,14.0051 L0.3319,14.0051 Z" id="path-1"></path>
    </defs>
    <g id="Asset-Artboard-Page" stroke="none" stroke-width="1" fill="none" fill-rule="evenodd">
        <g id="icons/products/red/A-car-home/a79-home-loan">
            <g>
                <polygon id="Rectangle-path" fill-opacity="0" fill="#FFFFFF" fill-rule="nonzero" points="0 0 48 0 48 48 0 48"></polygon>
                <mask id="mask-2" fill="white">
                    <use xlink:href="#path-1"></use>
                </mask>
                <use id="Mask" fill="#C5281C" xlink:href="#path-1"></use>
                <polygon id="Color-Style" fill="#C5281C" mask="url(#mask-2)" points="0 0 48 0 48 48 0 48"></polygon>
            </g>
        </g>
    </g>
</svg>