<?xml version="1.0" encoding="UTF-8"?>
<svg width="48px" height="48px" viewBox="0 0 48 48" version="1.1" xmlns="http://www.w3.org/2000/svg" xmlns:xlink="http://www.w3.org/1999/xlink">
    <!-- Generator: sketchtool 62 (101010) - https://sketch.com -->
    <title>D116E18E-00EB-42F5-B1F0-440C817028B1</title>
    <desc>Created with sketchtool.</desc>
    <defs>
        <path d="M39.718197,18.9202 L39.716197,18.9202 C37.047197,18.9692 34.380197,19.9562 32.676197,21.4502 C32.849197,17.8802 32.555197,7.6202 26.172197,2.2052 C30.533197,2.6272 34.746197,4.3102 38.220197,7.0662 C42.213197,10.2342 45.064197,16.1242 46.257197,21.0142 C44.532197,19.7452 42.096197,18.9632 39.718197,18.9202 M23.985197,18.9202 C21.157197,18.9722 18.332197,20.0762 16.654197,21.7222 C16.444197,18.4552 16.515197,7.2992 23.973197,2.2652 C31.389197,7.2712 31.501197,18.3492 31.295197,21.6682 C29.604197,20.0312 26.845197,18.9722 23.985197,18.9202 M8.25519698,18.9202 C5.92119698,18.9622 3.51219698,19.7322 1.78619698,20.9822 C2.98619698,16.1022 5.84019698,10.2202 9.83219698,7.0582 C13.277197,4.3302 17.444197,2.6582 21.758197,2.2192 C15.419197,7.6102 15.099197,17.8032 15.267197,21.4012 C13.559197,19.9182 10.954197,18.9692 8.25519698,18.9202 M40.075197,6.8342 C35.749197,3.0132 30.223197,0.8462 24.510197,0.7302 L24.480197,0.4922 C24.480197,0.2212 24.259197,0.000200000009 23.987197,0.000200000009 C23.855197,0.000200000009 23.730197,0.0522 23.637197,0.1452 C23.545197,0.2392 23.494197,0.3622 23.494197,0.4982 L23.524197,0.7302 C17.831197,0.8472 12.317197,3.0052 7.99619698,6.8112 C3.65719698,10.6292 0.821196976,17.3022 0.00719697622,22.9532 C-0.0388030238,23.2732 0.139196976,23.5772 0.441196976,23.6922 C0.745196976,23.8072 1.07819698,23.7002 1.25819698,23.4322 C2.43319698,21.6662 5.37619698,20.3462 8.25519698,20.2932 C11.429197,20.3512 14.550197,21.8772 15.517197,23.8422 C15.624197,24.0602 15.860197,24.1962 16.132197,24.1962 L16.133197,24.1962 C16.406197,24.1962 16.643197,24.0612 16.750197,23.8422 C17.634197,22.0412 20.359197,20.5942 23.282197,20.3412 L23.354197,43.3452 C23.354197,45.1562 21.881197,46.6282 20.070197,46.6282 C18.260197,46.6282 16.788197,45.1562 16.788197,43.3452 C16.788197,42.9672 16.480197,42.6592 16.101197,42.6592 C15.724197,42.6592 15.416197,42.9672 15.416197,43.3452 C15.416197,45.9122 17.504197,48.0002 20.070197,48.0002 C22.637197,48.0002 24.726197,45.9112 24.726197,43.3432 L24.654197,20.3392 C27.606197,20.5822 30.356197,22.0292 31.247197,23.8422 C31.362197,24.0752 31.604197,24.2262 31.863197,24.2262 C32.124197,24.2262 32.365197,24.0752 32.479197,23.8422 C33.446197,21.8772 36.557197,20.3512 39.716197,20.2932 C42.661197,20.3472 45.632197,21.6932 46.782197,23.4952 C46.954197,23.7672 47.298197,23.8822 47.599197,23.7702 C47.905197,23.6572 48.086197,23.3532 48.040197,23.0302 C47.243197,17.3592 44.414197,10.6682 40.075197,6.8342" id="path-1"></path>
    </defs>
    <g id="Asset-Artboard-Page" stroke="none" stroke-width="1" fill="none" fill-rule="evenodd">
        <g id="icons/products/red/A-car-home/a80-term-plan">
            <g transform="translate(0.000000, -1.000000)" id="Color-Style">
                <g transform="translate(-0.000197, 0.000000)">
                    <polygon id="Rectangle-path" fill-opacity="0" fill="#FFFFFF" fill-rule="nonzero" points="0.000196976222 1 48.000197 1 48.000197 49 0.000196976222 49"></polygon>
                    <mask id="mask-2" fill="white">
                        <use xlink:href="#path-1"></use>
                    </mask>
                    <use id="Mask" fill="#C5281C" xlink:href="#path-1"></use>
                    <polygon fill="#C5281C" mask="url(#mask-2)" points="0.000196976223 0 48.000197 0 48.000197 48 0.000196976223 48"></polygon>
                </g>
            </g>
        </g>
    </g>
</svg>