<?xml version="1.0" encoding="UTF-8"?>
<svg width="49px" height="48px" viewBox="0 0 49 48" version="1.1" xmlns="http://www.w3.org/2000/svg" xmlns:xlink="http://www.w3.org/1999/xlink">
    <!-- Generator: sketchtool 60.1 (101010) - https://sketch.com -->
    <title>35A347D2-E259-4632-85F5-EC8A7FC7C64B</title>
    <desc>Created with sketchtool.</desc>
    <defs>
        <path d="M22.61,18.0009478 C25.0249301,18.1420455 27.0866481,19.7946288 27.75,22.1209478 L27.75,22.1209478 L29.18,26.8009478 L30.46,27.6909478 C31.9728118,28.6995369 32.8868715,30.3927951 32.9,32.2109478 L32.9,32.2109478 L32.9,41.0809478 C32.8982243,42.2293599 32.0863632,43.2169847 30.96,43.4409478 L30.96,43.4409478 L30.96,45.8009478 C30.96,47.0159742 29.9750264,48.0009478 28.76,48.0009478 L28.76,48.0009478 L25.51,48.0009478 C24.2949736,48.0009478 23.31,47.0159742 23.31,45.8009478 L23.31,45.8009478 L23.31,43.4809478 L21.18,43.4809478 C20.7766667,44.6909478 19.4322222,44.7917811 18.2866435,44.8001839 L16.18,44.8009478 C15.5085183,44.8601313 14.8318594,44.8026153 14.18,44.6309478 C13.6291474,44.4629245 13.1980233,44.0318004 13.03,43.4809478 L13.03,43.4809478 L9.59,43.4809478 L9.59,45.8009478 C9.59560056,46.9972017 8.63615387,47.9744985 7.44,47.9909478 L7.44,47.9909478 L4.18,47.9909478 C2.97667852,47.9800203 2.00542025,47.0043067 2,45.8009478 L2,45.8009478 L2,43.4509478 C0.847645713,43.2561687 0.00313278303,42.2596434 0,41.0909478 L0,41.0909478 L0,32.2109478 C0.00594199323,30.4080223 0.890411063,28.7211868 2.37,27.6909478 L2.37,27.6909478 L3.66,26.8009478 L5.09,22.1109478 C5.58572394,19.8798452 7.57458864,18.2995942 9.86,18.3209478 L9.86,18.3209478 L9.96,18.3209478 L16.33,19.1509478 C16.4338498,19.1647847 16.5330979,19.2024306 16.62,19.2609478 L16.62,19.2609478 L19.55,21.1809478 L22.05,18.2409478 C22.1893267,18.0784049 22.3962092,17.989741 22.61,18.0009478 Z M22.88,19.3909478 L20.22,22.5209478 C19.9950204,22.7837929 19.6101645,22.8393832 19.32,22.6509478 L19.32,22.6509478 L16.02,20.4809478 L9.83,19.6709478 C8.18832592,19.6855118 6.77605694,20.8360956 6.43,22.4409478 L6.43,22.4409478 L4.92,27.4409478 C4.87606231,27.5866626 4.78451151,27.7134252 4.66,27.8009478 L4.66,27.8009478 L3.18,28.8009478 C2.06521871,29.5785682 1.40062752,30.8517457 1.4,32.2109478 L1.4,32.2109478 L1.4,41.1209478 C1.4,41.6732325 1.84771525,42.1209478 2.4,42.1209478 L2.4,42.1209478 L2.66,42.1209478 C3.03555363,42.1209478 3.34,42.4253942 3.34,42.8009478 L3.34,42.8009478 L3.34,45.8009478 C3.3399839,46.0228211 3.42880145,46.2354646 3.58662619,46.3914104 C3.74445093,46.5473563 3.9581428,46.633621 4.18,46.6310081 L4.18,46.6310081 L7.39,46.6310081 C7.83502206,46.6146925 8.1857275,46.2462298 8.18,45.8009478 L8.18,45.8009478 L8.18,42.8009478 C8.17982192,42.61263 8.2566217,42.4324216 8.39258499,42.3021234 C8.52854828,42.1718253 8.7118602,42.10276 8.9,42.1109478 L8.9,42.1109478 L13.66,42.1109478 C14.0372051,42.1109082 14.3445333,42.4137823 14.35,42.7909478 C14.35,43.1909478 14.48,43.2609478 14.66,43.3309478 C15.1578121,43.446941 15.6697209,43.4907226 16.18,43.4609478 L16.18,43.4609478 L18.1869256,43.4601007 C19.7122396,43.4470068 19.85,43.2796978 19.85,42.7909478 C19.8554667,42.4137823 20.1627949,42.1109082 20.54,42.1109478 L20.54,42.1109478 L23.94,42.1109478 C24.1238208,42.1082241 24.300912,42.1800453 24.4309072,42.3100406 C24.5609025,42.4400358 24.6327237,42.617127 24.63,42.8009478 L24.63,42.8009478 L24.63,45.7409478 C24.63,46.1993441 25.0016037,46.5709478 25.46,46.5709478 L25.46,46.5709478 L28.67,46.5709478 C29.1283963,46.5709478 29.5,46.1993441 29.5,45.7409478 L29.5,45.7409478 L29.5,42.7409478 C29.5,42.3653942 29.8044464,42.0609478 30.18,42.0609478 L30.18,42.0609478 L30.45,42.0609478 C31.0022847,42.0609478 31.45,41.6132325 31.45,41.0609478 L31.45,41.0609478 L31.45,32.1909478 C31.4491436,30.8348395 30.7793985,29.5664395 29.66,28.8009478 L29.66,28.8009478 L28.18,27.8009478 C28.0641107,27.7000249 27.9864372,27.5623309 27.96,27.4109478 L27.96,27.4109478 L26.46,22.4909478 C25.9944273,20.8343855 24.5861084,19.6148915 22.88,19.3909478 L22.88,19.3909478 Z M22.78,38.6509478 C23.1583151,38.6509478 23.465,38.9576327 23.465,39.3359478 C23.465,39.7142629 23.1583151,40.0209478 22.78,40.0209478 L22.78,40.0209478 L10.05,40.0209478 C9.67168495,40.0209478 9.365,39.7142629 9.365,39.3359478 C9.365,38.9576327 9.67168495,38.6509478 10.05,38.6509478 L10.05,38.6509478 Z M5.91,31.5609329 C6.80459434,31.5582813 7.66331717,31.9124776 8.29589371,32.5450541 C8.92847025,33.1776306 9.28266647,34.0363535 9.28001495,34.9309478 C9.28001495,36.7921474 7.77119961,38.3009478 5.91,38.3009478 C4.04880039,38.3009478 2.54,36.7921474 2.54,34.9309478 C2.54,33.0697482 4.04880039,31.5609329 5.91,31.5609329 Z M26.91,31.5609478 C28.7711996,31.5609478 30.28,33.0697482 30.28,34.9309478 C30.28,36.7921474 28.7711996,38.3009478 26.91,38.3009478 C25.0488004,38.3009478 23.54,36.7921474 23.54,34.9309478 C23.54,33.0697482 25.0488004,31.5609478 26.91,31.5609478 Z M5.91,32.9309478 L5.76073766,32.9364335 C4.72587779,33.0127827 3.91,33.876586 3.91,34.9309478 C3.91,36.0355173 4.8054305,36.9309478 5.91,36.9309478 C7.0145695,36.9309478 7.91,36.0355173 7.91,34.9309478 C7.91,33.8263783 7.0145695,32.9309478 5.91,32.9309478 L5.91,32.9309478 Z M26.92,32.9309478 C25.8154305,32.9309478 24.919975,33.8263783 24.919975,34.9309478 L24.919975,34.9309478 L24.9268911,35.097407 C24.9659504,35.5650744 25.1685844,36.0063073 25.5022391,36.3416303 C25.8776007,36.7188686 26.3878299,36.9309478 26.92,36.9309478 C28.0245695,36.9309478 28.92,36.0355173 28.92,34.9309478 C28.92,33.8263783 28.0245695,32.9309478 26.92,32.9309478 Z M25.06,2.23296673 C26.2748439,0.323716257 28.6543297,-0.483312143 30.78,0.292966726 L30.78,0.292966726 L42.96,4.63296673 C45.112554,5.3871194 46.4487753,7.53922659 46.17,9.80296673 L46.17,9.80296673 L45.95,14.6029667 L46.95,15.8529667 C47.9776489,17.3143515 48.2207012,19.1877241 47.6,20.8629667 L47.6,20.8629667 L44.66,29.1429667 C44.2802825,30.2149968 43.1951697,30.8685783 42.07,30.7029667 L42.07,30.7029667 L41.29,32.9029667 C40.9803558,33.7742832 40.1546976,34.3554503 39.23,34.3529747 C38.9809924,34.3520353 38.7340209,34.3080541 38.5,34.2229667 L38.5,34.2229667 L35.5,33.1429667 C34.369376,32.7380742 33.7791545,31.4950318 34.18,30.3629667 L34.18,30.3629667 L34.95,28.2129667 L32.95,27.5029667 C32.6804383,27.8862931 32.2481811,28.1227415 31.78,28.1429667 L31.78,28.1429667 L31.67,28.1429667 L31.6,28.0629667 C31.3532217,27.797265 31.078271,27.5591979 30.78,27.3529667 L30.78,27.3529667 L30.2,26.9529667 L30.04,26.3629667 L30.21,26.4229667 C30.6253808,26.6159716 31.0666931,26.7473547 31.52,26.8129667 L31.52,26.8129667 L31.5818793,26.8114304 C31.7430864,26.8021025 31.8744444,26.7418556 31.99,26.4129667 C32.0509835,26.243216 32.1769112,26.1046487 32.3400732,26.0277563 C32.5032353,25.9508638 32.6902624,25.9419466 32.86,26.0029667 L32.86,26.0029667 L36.07,27.1929667 C36.2397508,27.2539502 36.378318,27.3798779 36.4552105,27.54304 C36.5321029,27.706202 36.5410202,27.8932291 36.48,28.0629667 L36.48,28.0629667 L35.48,30.8529667 C35.3583691,31.2658666 35.5767015,31.7025315 35.98,31.8529667 L35.98,31.8529667 L38.98,32.9329667 C39.3928999,33.0545977 39.8295648,32.8362652 39.98,32.4329667 L39.98,32.4329667 L40.98,29.6429667 C41.0409835,29.473216 41.1669112,29.3346487 41.3300732,29.2577563 C41.4932353,29.1808638 41.6802624,29.1719466 41.85,29.2329667 L41.85,29.2329667 L42.06,29.3029667 C42.3143513,29.398411 42.5965881,29.3862631 42.8417978,29.2693169 C43.0870075,29.1523708 43.2740836,28.9406925 43.36,28.6829667 L43.36,28.6829667 L46.3,20.4029667 C46.7482416,19.1402841 46.5462948,17.7378761 45.76,16.6529667 L45.76,16.6529667 L44.76,15.2029667 C44.6699153,15.0781469 44.6241557,14.9267883 44.63,14.7729667 L44.63,14.7729667 L44.86,9.68296673 C45.0698267,8.03998459 44.1091113,6.4720638 42.55,5.91296673 L42.55,5.91296673 L30.32,1.57296673 C28.7754057,1.0205515 27.054371,1.61501518 26.18,3.00296673 L26.18,3.00296673 L23.12,7.14296673 C23.0288821,7.26615721 22.8982919,7.35439386 22.75,7.39296673 L22.75,7.39296673 L21.03,7.85296673 C19.7357993,8.20204544 18.6939662,9.1617268 18.24,10.4229667 L18.24,10.4229667 L15.36,18.5029667 L14,18.3229667 L14.08,18.0729667 L14.08,18.0029667 L16.95,10.0029667 C17.5424932,8.30400563 18.9339892,7.0060242 20.67,6.53296673 L20.67,6.53296673 L22.17,6.13296673 Z M23.04,20.9109402 C24.55,20.9109402 25.75,22.6409478 26.04,23.9109402 L26.04,23.9109402 L27.33,28.2409478 C27.4355618,28.6433636 27.3482241,29.0719842 27.0936201,29.4010109 C26.839016,29.7300377 26.4460293,29.9221441 26.03,29.9209534 L26.03,29.9209534 L6.81,29.9209534 C6.40045417,29.9203368 6.01367373,29.732472 5.76,29.4109402 C5.49970604,29.0925262 5.40684361,28.6690735 5.51,28.2709478 L5.51,28.2709478 L6.99,23.3109478 C7.31517062,21.9758162 8.50588822,21.0323064 9.88,21.0209478 L9.88,21.0209478 L9.96,21.0209478 L15.74,21.6809478 C15.855143,21.6930537 15.9652883,21.7343582 16.06,21.8009478 L16.06,21.8009478 L19.79,24.5309478 L22.51,21.1609478 C22.6398546,21.0018614 22.8346472,20.9099781 23.04,20.9109402 Z M23.32,22.3109478 L20.45,25.8609478 C20.2218406,26.1410734 19.8162277,26.197772 19.52,25.9909478 L19.52,25.9909478 L15.41,23.0409478 L9.86,22.4009478 C9.11584866,22.4201823 8.48057859,22.9440739 8.32,23.6709478 L8.32,23.6709478 L6.85,28.5509478 L25.99,28.5509478 L24.71,24.2609478 L24.72,24.2609478 C24.5362652,23.4483565 24.0311874,22.7448553 23.32,22.3109478 L23.32,22.3109478 Z M38.9768746,18.2101808 C39.884826,17.2148086 41.303094,16.8646101 42.57,17.3229667 C43.4031013,17.6186864 44.0832914,18.2353766 44.4589846,19.0356031 C44.8346778,19.8358296 44.8746525,20.7530904 44.57,21.5829667 C44.1133689,22.8504957 42.9379607,23.7179855 41.5921501,23.7807176 C40.2463394,23.8434497 38.9953308,23.0890622 38.4227696,21.8695068 C37.8502084,20.6499514 38.0689231,19.205553 38.9768746,18.2101808 Z M42.11,18.6029667 C41.3467811,18.3208356 40.4887182,18.5292212 39.9399154,19.1299845 C39.3911127,19.7307478 39.2609878,20.6041114 39.6108229,21.3387653 C39.9606581,22.0734192 40.720705,22.5228916 41.5330198,22.4755036 C42.3453346,22.4281157 43.047962,21.8933154 43.31,21.1229667 C43.6591363,20.0965632 43.1269038,18.9788749 42.11,18.6029667 Z M19.3568746,11.2501808 C20.264826,10.2548086 21.683094,9.90461007 22.95,10.3629667 C24.6777389,10.9880491 25.5727291,12.8943783 24.95,14.6229667 C24.4933689,15.8904957 23.3179607,16.7579855 21.9721501,16.8207176 C20.6263394,16.8834497 19.3753308,16.1290622 18.8027696,14.9095068 C18.2302084,13.6899514 18.4489231,12.245553 19.3568746,11.2501808 Z M3.12,12.09 L9.85,15.3 C10.101458,15.4217844 10.2355756,15.7010162 10.1734488,15.9734182 C10.118225,16.2155532 9.92093751,16.3953203 9.68154895,16.4327799 L9.595,16.44 L9.51053141,16.4332952 C9.45148272,16.4243156 9.39396503,16.4063951 9.34,16.38 L2.6,13.17 C2.39647659,13.0835759 2.25698064,12.8922185 2.23697636,12.6720124 C2.21697209,12.4518062 2.31970195,12.2384442 2.50432009,12.11676 C2.68893823,11.9950758 2.92552023,11.984793 3.12,12.09 Z M26.56,3.59296673 C27.3180855,2.45582638 28.7489139,1.97477202 30.04,2.42296673 L30.04,2.42296673 L42.25,6.76296673 C43.5641381,7.2417389 44.3730778,8.56508138 44.2,9.95296673 L44.2,9.95296673 L43.93,14.9529667 C43.8915397,15.3650676 43.6620145,15.7352695 43.31,15.9529667 C42.9619255,16.1679478 42.5347114,16.2121424 42.15,16.0729667 L42.15,16.0729667 L24.24,9.71296673 C23.8542435,9.57606421 23.5522168,9.27035429 23.42,8.88296673 C23.2836762,8.49557471 23.3354246,8.06680194 23.56,7.72296673 L23.56,7.72296673 Z M22.49,11.6429667 C21.7267811,11.3608356 20.8687182,11.5692212 20.3199154,12.1699845 C19.7711127,12.7707478 19.6409878,13.6441114 19.9908229,14.3787653 C20.3406581,15.1134192 21.100705,15.5628916 21.9130198,15.5155036 C22.7253346,15.4681157 23.427962,14.9333154 23.69,14.1629667 C24.0391363,13.1365632 23.5069038,12.0188749 22.49,11.6429667 Z M29.61,3.70296673 C28.9002459,3.45554834 28.1135293,3.72882882 27.71,4.36296673 L27.71,4.36296673 L24.71,8.43296673 L42.58,14.7629667 L42.85,9.76296673 L42.85,9.79296673 C42.9857059,9.01667502 42.5359408,8.25716602 41.79,8.00296673 L41.79,8.00296673 Z M6.24,7.89 L11.41,13.28 C11.5658212,13.4540247 11.6064784,13.7026645 11.5142034,13.9172575 C11.4219284,14.1318505 11.2134974,14.2733823 10.98,14.28 L11,14.2900019 C10.8382647,14.2904077 10.6832146,14.225503 10.57,14.11 L5.37,8.72 C5.22173477,8.56458947 5.16764259,8.34188566 5.22809944,8.13577894 C5.2885563,7.92967222 5.45437737,7.77147511 5.66309945,7.72077893 C5.87182153,7.67008275 6.09173478,7.73458946 6.24,7.89 Z M11.12,5.36 L13.83,12.36 C13.9029205,12.5450205 13.8794263,12.7541511 13.7672702,12.9183797 C13.6551141,13.0826082 13.4688709,13.1805932 13.27,13.1800027 L13.27,13.14 C13.0228922,13.1407362 12.8006055,12.9898988 12.71,12.76 L10,5.8 C9.87849736,5.49072054 10.0307205,5.14150265 10.34,5.02000001 C10.6492795,4.89849737 10.9984974,5.05072055 11.12,5.36 Z" id="path-1"></path>
    </defs>
    <g id="Asset-Artboard-Page" stroke="none" stroke-width="1" fill="none" fill-rule="evenodd">
        <g id="icons/products/red/A-car-home/a81-third_party_liability" transform="translate(0.382023, 0.000000)">
            <polygon id="Rectangle-path" fill-opacity="0" fill="#FFFFFF" fill-rule="nonzero" points="-3.091e-13 0 48 0 48 48 -3.091e-13 48"></polygon>
            <g id="Color-Style" transform="translate(0.000000, -0.000000)">
                <mask id="mask-2" fill="white">
                    <use xlink:href="#path-1"></use>
                </mask>
                <use id="Mask" fill="#B94033" fill-rule="nonzero" xlink:href="#path-1"></use>
                <polygon fill="#C5281C" mask="url(#mask-2)" points="0 0 48 0 48 48 0 48"></polygon>
            </g>
        </g>
    </g>
</svg>