<?xml version="1.0" encoding="UTF-8"?>
<svg width="48px" height="48px" viewBox="0 0 48 48" version="1.1" xmlns="http://www.w3.org/2000/svg" xmlns:xlink="http://www.w3.org/1999/xlink">
    <!-- Generator: sketchtool 62 (101010) - https://sketch.com -->
    <title>AFC459C2-CA54-4E70-AE32-52FC955ECEA7</title>
    <desc>Created with sketchtool.</desc>
    <defs>
        <path d="M29.344542,46.6404787 L18.655458,46.6404787 C17.9384349,46.6404787 17.3549264,46.0549914 17.3549264,45.3355367 L17.3549264,27.3531381 C17.523056,27.7580174 17.7060205,28.1480115 17.9275559,28.5012886 C18.4131537,29.2773073 19.1370998,29.7665365 19.9144517,29.8409629 C21.33663,29.9878309 22.2277167,29.0083801 22.9437508,28.228392 C23.3779206,27.7560327 23.7873656,27.3094746 24.2541723,27.1179508 C24.397577,27.0594021 24.5291136,27.0613868 24.5844975,27.0941344 C24.7021882,27.163599 24.8119669,27.4722202 24.8713067,27.6379429 C24.9840524,27.95748 25.1670169,28.5131968 25.3895414,29.1929575 C26.4022747,32.2851242 27.3635802,35.1361496 27.9767586,36.0342276 C28.3110397,36.5244491 28.8322413,36.8191775 29.3554209,36.8191775 C29.3860799,36.8191775 29.4177278,36.8181851 29.4483867,36.8162004 C29.9201385,36.7834528 30.3147484,36.4867398 30.6450736,36.0600287 L30.6450736,45.3355367 C30.6450736,46.0549914 30.0615651,46.6404787 29.344542,46.6404787 M18.655458,18.472586 L29.344542,18.472586 C30.0615651,18.472586 30.6450736,19.0580732 30.6450736,19.777528 L30.6450736,32.1481797 C30.5788107,33.1832022 29.8014588,35.2959182 29.3573989,35.4586638 C29.315861,35.4626332 29.1872914,35.4040845 29.0943256,35.26714 C28.5394981,34.4534119 27.3269873,30.7549185 26.676227,28.7682311 C26.4487576,28.0745775 26.2628261,27.5059602 26.1471134,27.1804689 C26.0215107,26.8301689 25.8128322,26.2417046 25.2718507,25.9221674 C24.8337248,25.6631637 24.2759303,25.6393473 23.7408827,25.8596493 C22.9961676,26.1652935 22.463098,26.7458191 21.9468414,27.3074899 C21.2337743,28.0835087 20.7620225,28.5548755 20.0440104,28.488388 C19.6939053,28.4536557 19.3309433,28.1886979 19.0747929,27.7778644 C18.0501916,26.1404847 17.7238225,23.5385395 17.4617382,21.4486476 L17.3549264,20.6200342 L17.3549264,19.777528 C17.3549264,19.0580732 17.9384349,18.472586 18.655458,18.472586 M18.1975522,13.0970188 C17.0671282,9.77760353 18.4853505,4.42486042 22.3622203,1.50337808 C25.5695389,3.74509975 28.8361973,9.4193647 28.1251082,13.0781641 C27.9253307,14.100286 27.419953,14.9060752 26.6327111,15.5044631 C27.0995179,13.0851105 25.0443813,9.6396667 23.0288045,8.39823517 C22.8003461,8.25930599 22.5135369,8.26625244 22.2910125,8.41708985 C20.1389541,9.89569334 18.9610582,12.8082445 19.4694029,15.1442396 C18.9155643,14.6034081 18.4794165,13.9256321 18.1975522,13.0970188 M20.8688342,15.2156889 C20.3476326,13.6864755 20.968723,11.2482682 22.6895784,9.81729759 C24.1691186,10.9843028 25.6199777,13.6120491 25.3025096,15.2494288 C25.1897639,15.828962 24.8475708,16.235826 24.2937322,16.5007838 C24.1701076,16.5275773 24.0543949,16.5603249 23.9248362,16.583149 C23.1326493,16.6238354 22.4106812,16.5504014 21.7539869,16.3866634 C21.347509,16.1246827 21.0458648,15.7376657 20.8688342,15.2156889 M29.344542,17.1130646 L26.6426011,17.1130646 C28.4920262,16.1355986 29.2060823,14.6133316 29.4543207,13.3381601 C30.3276054,8.84777033 26.4734825,2.42428012 22.6994684,0.100193288 C22.471999,-0.0397282503 22.1842008,-0.0327817909 21.9626653,0.119047964 C17.6654716,3.07030084 15.4016566,9.08990406 16.9158116,13.5366304 C17.4716281,15.1700407 18.5051304,16.3737629 19.8867598,17.1130646 L18.655458,17.1130646 C17.1917419,17.1130646 16,18.3078556 16,19.777528 L16,45.3355367 C16,46.805209 17.1917419,48 18.655458,48 L29.344542,48 C30.8082581,48 32,46.805209 32,45.3355367 L32,19.777528 C32,18.3078556 30.8082581,17.1130646 29.344542,17.1130646" id="path-1"></path>
    </defs>
    <g id="Asset-Artboard-Page" stroke="none" stroke-width="1" fill="none" fill-rule="evenodd">
        <g id="icons/products/red/B-life-health/b01-funeral-insurance">
            <g>
                <polygon id="Rectangle-path" fill-opacity="0" fill="#FFFFFF" fill-rule="nonzero" points="0 0 48 0 48 48 0 48"></polygon>
                <mask id="mask-2" fill="white">
                    <use xlink:href="#path-1"></use>
                </mask>
                <use id="b01-funeral-insurance" fill="#C5281C" xlink:href="#path-1"></use>
                <polygon id="Color-Style" fill="#C5281C" mask="url(#mask-2)" points="0 0 48 0 48 48 0 48"></polygon>
            </g>
        </g>
    </g>
</svg>