<?xml version="1.0" encoding="UTF-8"?>
<svg width="48px" height="48px" viewBox="0 0 48 48" version="1.1" xmlns="http://www.w3.org/2000/svg" xmlns:xlink="http://www.w3.org/1999/xlink">
    <!-- Generator: sketchtool 62 (101010) - https://sketch.com -->
    <title>3735BC0B-D392-4F9B-B28D-D20DA16286EB</title>
    <desc>Created with sketchtool.</desc>
    <defs>
        <path d="M19.24,24.43 L14.79,24.43 L14.79,28.88 L10.79,28.88 L10.79,24.43 L6.35,24.43 L6.35,20.43 L10.79,20.43 L10.79,16 L14.79,16 L14.79,20.45 L19.24,20.45 L19.24,24.43 Z M48.0000079,15.43 L48.0000079,40.73 C48.0055489,44.328637 45.0986033,47.2534715 41.4999921,47.27 L6.49999207,47.27 C2.90139668,47.2534715 -0.00554889401,44.328637 -7.93074911e-06,40.73 L-7.93074911e-06,15.43 C-0.00554889401,11.831363 2.90139668,8.90652853 6.49999207,8.89 L13.1,8.89 L13.1,5.41 C13.0944619,2.83471966 15.1747373,0.741023109 17.75,0.73 L30.25,0.73 C32.8252627,0.741023109 34.9055381,2.83471966 34.9,5.41 L34.9,8.89 L41.4999921,8.89 C45.0986033,8.90652853 48.0055489,11.831363 48.0000079,15.43 Z M14.4399849,8.89 L33.5600151,8.89 L33.5600151,5.41 C33.5626562,4.52948004 33.2154163,3.68396917 32.59467,3.05947216 C31.9739237,2.43497515 31.13052,2.08264817 30.25,2.08 L17.75,2.08 C16.86948,2.08264817 16.0260763,2.43497515 15.40533,3.05947216 C14.7845837,3.68396917 14.4373438,4.52948004 14.4399849,5.41 L14.4399849,8.89 Z M46.66,15.43 C46.66,12.5753171 44.3546352,10.2565011 41.5,10.24 L6.5,10.24 C3.64536481,10.2565011 1.34,12.5753171 1.34,15.43 L1.34,40.73 C1.34,43.5846829 3.64536481,45.9034989 6.5,45.92 L41.5,45.92 C44.3546352,45.9034989 46.66,43.5846829 46.66,40.73 L46.66,15.43 Z" id="path-1"></path>
    </defs>
    <g id="Asset-Artboard-Page" stroke="none" stroke-width="1" fill="none" fill-rule="evenodd">
        <g id="icons/products/red/B-life-health/b02-health-insurance">
            <g>
                <polygon id="Rectangle-path" fill-opacity="0" fill="#FFFFFF" fill-rule="nonzero" points="0 0 48 0 48 48 0 48"></polygon>
                <mask id="mask-2" fill="white">
                    <use xlink:href="#path-1"></use>
                </mask>
                <use id="Shape" fill="#C5281C" xlink:href="#path-1"></use>
                <polygon id="Color-Style" fill="#C5281C" mask="url(#mask-2)" points="0 0 48 0 48 48 0 48"></polygon>
            </g>
        </g>
    </g>
</svg>