<?xml version="1.0" encoding="UTF-8"?>
<svg width="24px" height="32px" viewBox="0 0 24 32" version="1.1" xmlns="http://www.w3.org/2000/svg" xmlns:xlink="http://www.w3.org/1999/xlink">
    <!-- Generator: sketchtool 63.1 (101010) - https://sketch.com -->
    <title>A10F84B4-FB06-4840-9F9B-4C198D992BD8</title>
    <desc>Created with sketchtool.</desc>
    <defs>
        <path d="M16.3265306,9.8677551 C18.8692947,9.8677551 20.9306122,7.80643754 20.9306122,5.26367347 C20.9306122,2.7209094 18.8692947,0.659591837 16.3265306,0.659591837 C13.7837665,0.659591837 11.722449,2.7209094 11.722449,5.26367347 C11.726046,7.80494613 13.785258,9.86415811 16.3265306,9.8677551 Z M21.7861224,11.755102 C25.1535012,11.8222353 27.8550877,14.5585689 27.8791837,17.9265306 L27.8791837,17.9265306 L27.8791837,26.7755102 C27.8991132,27.44597 27.6424363,28.0951197 27.169377,28.5706492 C26.6963177,29.0461788 26.0485136,29.3062332 25.3779592,29.2897959 C24.7193434,29.3252694 24.0749725,29.0892361 23.595102,28.6367347 C23.1324175,28.1258041 22.8702874,27.4646795 22.8571429,26.7755102 L22.8571429,26.7755102 L22.8571429,17.7632653 C22.8571429,17.5180058 23.055965,17.3191837 23.3012245,17.3191837 C23.546484,17.3191837 23.7453061,17.5180058 23.7453061,17.7632653 L23.7453061,17.7632653 L23.7453061,26.7755102 C23.7453061,27.6771996 24.4762698,28.4081633 25.3779592,28.4081633 C26.2796486,28.4081633 27.0106122,27.6771996 27.0106122,26.7755102 L27.0106122,26.7755102 L27.0106122,17.9330612 C26.9932265,15.0463224 24.6725454,12.7024344 21.7861224,12.6563265 L21.7861224,12.6563265 L11.3763265,12.6563265 L14.1191837,21.4791837 L16.9795918,21.4791837 C17.6559011,21.4587974 18.3103644,21.7198739 18.7869441,22.2001672 C19.2635238,22.6804605 19.5195126,23.3369306 19.4938776,24.0130612 C19.529351,24.671677 19.2933177,25.3160479 18.8408163,25.7959184 C18.3318231,26.261707 17.6694772,26.5243214 16.9795918,26.5338776 L16.9795918,26.5338776 L8.43102041,26.5338776 L8.43102041,31.1053061 L21.877551,31.1053061 C22.1228105,31.1053061 22.3216327,31.3041282 22.3216327,31.5493878 C22.3216327,31.7946473 22.1228105,31.9934694 21.877551,31.9934694 L21.877551,31.9934694 L7.96081633,31.9934694 C7.71555681,31.9934694 7.51673469,31.7946473 7.51673469,31.5493878 L7.51673469,31.5493878 L7.51673469,26.5273469 L5.19183673,26.5273469 C4.94657722,26.5273469 4.7477551,26.3285248 4.7477551,26.0832653 L4.7477551,26.0832653 L4.7477551,17.9591837 C4.75880669,15.8401143 5.8462126,13.8719588 7.63428571,12.7346939 C7.68904143,12.6754633 7.75910451,12.6325214 7.83673469,12.6106122 C8.72519671,12.0745847 9.73816492,11.7796984 10.7755102,11.755102 L10.7755102,11.755102 Z M7.54285714,13.9167347 C6.36104173,14.9150013 5.67407671,16.3795726 5.66204082,17.9265306 L5.66204082,17.9265306 L5.66204082,25.6391837 L7.54285714,25.6391837 Z M10.4489796,12.6432653 C9.73803602,12.717332 9.05055844,12.9398167 8.43102041,13.2963265 L8.43102041,13.2963265 L8.43102041,25.6391837 L14.4783673,25.6065306 Z M17.0057143,22.3738776 L14.3934694,22.3738776 L15.4122449,25.6391837 L17.0057143,25.6391837 C17.9074037,25.6391837 18.6383673,24.90822 18.6383673,24.0065306 C18.6383673,23.1048412 17.9074037,22.3738776 17.0057143,22.3738776 L17.0057143,22.3738776 Z M16.3265306,1.54122449 C18.3787757,1.54122449 20.042449,3.20489781 20.042449,5.25714286 C20.042449,7.3093879 18.3787757,8.97306122 16.3265306,8.97306122 C14.2742856,8.97306122 12.6106122,7.3093879 12.6106122,5.25714286 C12.6142069,3.20638862 14.2757764,1.54481916 16.3265306,1.54122449 Z" id="path-1"></path>
    </defs>
    <g id="Breakpoint-S" stroke="none" stroke-width="1" fill="none" fill-rule="evenodd">
        <g id="05_Home-contracts-S" transform="translate(-20.000000, -1202.000000)">
            <g id="06_List_Items/09_Accordions/06.09.06_Left_Icon_Text_Badge/S-Copy-6" transform="translate(0.000000, 1182.000000)">
                <g id="icons/products/red/A-car-home/a01-fire" transform="translate(16.000000, 20.000000)">
                    <g id="icons/products/red/B-life-health/b03-accident-insurance">
                        <polygon id="Rectangle-path" fill-opacity="0" fill="#FFFFFF" fill-rule="nonzero" points="0 0 32 0 32 32 0 32"></polygon>
                        <mask id="mask-2" fill="white">
                            <use xlink:href="#path-1"></use>
                        </mask>
                        <use id="b03-accident-insurance" fill="#C5281C" xlink:href="#path-1"></use>
                        <polygon id="Color-Style" fill="#C5281C" mask="url(#mask-2)" points="0 0 32 0 32 32 0 32"></polygon>
                    </g>
                </g>
            </g>
        </g>
    </g>
</svg>