<?xml version="1.0" encoding="UTF-8"?>
<svg width="48px" height="48px" viewBox="0 0 48 48" version="1.1" xmlns="http://www.w3.org/2000/svg" xmlns:xlink="http://www.w3.org/1999/xlink">
    <!-- Generator: sketchtool 62 (101010) - https://sketch.com -->
    <title>34C40ACF-CB29-4D11-A0CD-56AFD9FB4126</title>
    <desc>Created with sketchtool.</desc>
    <defs>
        <path d="M15.9232,1.416 C13.9392,1.416 12.3842,2.86 12.3842,4.704 C12.3842,6.548 13.9392,7.993 15.9232,7.993 C17.9072,7.993 19.4622,6.548 19.4622,4.704 C19.4622,2.921 17.8412,1.416 15.9232,1.416 M25.9717,8.2644 L36.6947,16.1194 C39.1017,17.8224 39.7997,20.6444 38.4547,23.1764 C38.4277,23.2814 38.3867,23.3674 38.3577,23.4264 L38.3347,23.5044 C37.5087,26.4314 35.3637,34.4364 35.3637,36.3014 C35.3637,38.5414 37.3117,44.8974 37.3317,44.9604 C37.5817,46.0374 37.2797,46.6954 36.9847,47.0664 C36.5057,47.6684 35.6787,48.0004 34.6567,48.0004 C33.7957,48.0004 32.6327,47.5444 31.9807,45.3724 C31.9147,45.1424 30.7397,41.0124 30.2097,37.9624 C30.2087,41.4124 30.3667,45.3414 30.3687,45.3904 C30.3687,47.0144 28.9757,47.8754 27.6627,47.8754 C26.1827,47.8754 25.1467,46.7214 24.9607,44.8654 L24.9602137,44.6924671 C24.9583094,43.3877711 24.9665125,35.7489625 25.0837,33.7624 C25.0827,30.7044 28.5997,26.0444 29.9027,24.4234 L21.5277,17.8984 C20.9377,18.9084 19.7187,20.6134 17.8377,21.4604 C16.3567,22.2024 15.1137,22.7004 15.0627,22.7214 C14.7287,22.8494 14.3887,23.0054 14.0397,23.1664 C12.5927,23.8304 10.7927,24.6554 9.1827,23.6664 L9.0537,23.5644 C8.9047,23.4154 8.7767,23.1764 8.3287,22.2144 C8.2597,22.0674 8.2037,21.9444 8.1717,21.8814 C7.8167,20.8394 8.0797,20.1864 8.3577,19.8064 C8.6827,19.3584 9.2047,19.0204 9.9547,18.7704 C11.4877,18.3594 13.8197,17.6004 14.3387,17.1554 C14.9177,16.6584 16.4777,14.3824 17.3257,13.0644 C17.4167,12.8764 19.1027,10.2074 19.8217,9.0714 C21.4187,7.1454 24.0937,6.8214 25.9717,8.2644 Z M12.0512,25.187 C14.1742,25.187 15.7982,26.685 15.7982,28.434 L15.7982,28.434 L15.7982,47.042 C15.7982,47.417 15.4242,47.667 15.0492,47.667 C14.6742,47.667 14.4242,47.417 14.4242,47.167 L14.4242,47.167 L14.4242,28.559 C14.4242,27.435 13.3002,26.436 12.0512,26.436 C10.8022,26.436 9.6782,27.31 9.8032,28.559 L9.8032,28.559 L9.8032,30.182 C9.8032,30.557 9.4292,30.807 9.0542,30.807 C8.6792,30.807 8.3052,30.557 8.3052,30.182 L8.3052,30.182 L8.3052,28.559 C8.3052,26.685 9.9282,25.187 12.0512,25.187 Z M20.9637,9.9034 C20.1287,11.2324 18.6727,13.5434 18.5507,13.7714 C18.2807,14.1964 16.1857,17.4364 15.2597,18.2304 C14.3107,19.0434 11.0127,19.9514 10.3607,20.1254 C9.8377,20.3014 9.6007,20.5024 9.5017,20.6384 C9.4477,20.7124 9.3227,20.8834 9.4767,21.3404 C9.4707,21.3324 9.5277,21.4354 9.6117,21.6174 C9.7157,21.8394 9.9357,22.3124 10.0537,22.5314 C11.0037,23.0024 12.2457,22.4304 13.4487,21.8794 C13.8267,21.7064 14.1947,21.5384 14.5447,21.4034 C14.5477,21.4024 15.7777,20.9084 17.2317,20.1824 C19.4787,19.1704 20.6327,16.5624 20.6437,16.5364 L21.0087,15.6994 L31.9287,24.2094 L31.4487,24.7714 C30.0717,26.3844 26.4977,31.1524 26.4977,33.8034 C26.3747,35.9234 26.3727,44.7064 26.3727,44.7944 C26.4217,45.2454 26.6517,46.4594 27.6627,46.4594 C28.1817,46.4594 28.9537,46.1824 28.9537,45.4194 C28.9517,45.3864 28.7047,39.2584 28.8287,35.5294 C28.9617,31.5574 30.5537,30.2514 30.7347,30.1154 L32.2157,29.0044 L31.8537,30.8204 C31.8487,30.8444 31.3677,33.2824 31.3677,35.6774 C31.3677,38.0484 33.3197,44.9054 33.3397,44.9744 C33.6587,46.0394 34.1027,46.5844 34.6567,46.5844 C35.2217,46.5844 35.6777,46.4354 35.8767,46.1854 C36.0237,46.0004 36.0537,45.7114 35.9657,45.3284 C35.8957,45.1084 33.9497,38.7534 33.9497,36.3014 C33.9497,33.9274 36.6897,24.1274 36.9557,23.1804 C36.9787,23.0304 37.0327,22.9124 37.0717,22.8334 L37.0717,22.7544 L37.1597,22.5944 C38.2307,20.6694 37.7247,18.5794 35.8727,17.2724 L35.8627,17.2644 L25.1227,9.3964 C23.8397,8.4114 22.0187,8.6364 20.9637,9.9034 Z M15.9232,0 C18.6082,0 20.8772,2.154 20.8772,4.704 C20.8772,7.342 18.7012,9.409 15.9232,9.409 C13.1452,9.409 10.9692,7.342 10.9692,4.704 C10.9692,2.066 13.1452,0 15.9232,0 Z" id="path-1"></path>
    </defs>
    <g id="Asset-Artboard-Page" stroke="none" stroke-width="1" fill="none" fill-rule="evenodd">
        <g id="icons/products/red/B-life-health/b12-pension">
            <g>
                <polygon id="Rectangle-path" fill-opacity="0" fill="#FFFFFF" fill-rule="nonzero" points="0 0 48 0 48 48 0 48"></polygon>
                <mask id="mask-2" fill="white">
                    <use xlink:href="#path-1"></use>
                </mask>
                <use id="b12-pension" fill="#C5281C" xlink:href="#path-1"></use>
                <polygon id="Color-Style" fill="#C5281C" mask="url(#mask-2)" points="0 0 48 0 48 48 0 48"></polygon>
            </g>
        </g>
    </g>
</svg>