<?xml version="1.0" encoding="UTF-8"?>
<svg width="49px" height="48px" viewBox="0 0 49 48" version="1.1" xmlns="http://www.w3.org/2000/svg" xmlns:xlink="http://www.w3.org/1999/xlink">
    <!-- Generator: sketchtool 62 (101010) - https://sketch.com -->
    <title>7C6615F3-FE16-42C7-AD94-53B4F8CAA339</title>
    <desc>Created with sketchtool.</desc>
    <defs>
        <path d="M47.1107715,0.499713872 C47.1163188,0.465771075 47.1163188,0.431152815 47.1107715,0.397210018 C47.1107715,0.397210018 47.1107715,0.397210018 47.1107715,0.397210018 C47.066825,0.311632942 46.9992266,0.240476756 46.9160142,0.192202309 C46.898162,0.169213774 46.8775004,0.14855214 46.8545118,0.130699996 L46.7212568,0.058947298 L46.6085026,0.00769537079 L46.4957484,0.00769537079 C46.4415611,-0.0025651236 46.3859295,-0.0025651236 46.3317422,0.00769537079 L46.3317422,0.00769537079 L46.3317422,0.00769537079 L46.1779864,0.0486969126 C43.2549726,1.35525997 40.1394171,2.17915131 36.9526395,2.48828865 C33.1394961,3.04180946 29.2033481,3.61583105 24.7341801,6.82420169 C17.897173,11.7751379 17.4769072,21.646259 19.3629781,29.252045 L19.3629781,29.252045 C18.6325026,30.9516866 18.0161136,32.6981222 17.5179087,34.4797416 C16.8788427,32.2182384 15.6883645,30.1507511 14.0532784,28.4627654 C11.7070195,25.8816187 8.43463801,24.3338707 4.95093617,24.1576035 L4.95093617,24.1576035 C4.88300948,24.1470273 4.81385515,24.1470273 4.74592846,24.1576035 L4.74592846,24.1576035 L4.66392538,24.1576035 C4.54154458,24.2268799 4.44185569,24.3301292 4.37691458,24.4548646 C4.3818921,24.4785232 4.3818921,24.5029587 4.37691458,24.5266173 C4.3675383,24.5843245 4.3675383,24.6431668 4.37691458,24.7008739 L4.37691458,24.7008739 L4.37691458,24.7008739 C4.41019936,28.1648049 5.80146787,31.477349 8.25156028,33.9262208 C10.4684215,36.3318452 13.485562,37.8477033 16.7388794,38.1903811 C16.1899246,41.2032533 15.9256668,44.2610935 15.9495997,47.3234746 C15.9551019,47.6948063 16.2547934,47.9944979 16.6261252,48 L16.6261252,48 C16.9973916,47.9889125 17.2925658,47.6846561 17.2924002,47.3132242 C17.1783283,41.257128 18.3341058,35.2442915 20.6852778,29.6620604 C21.9542085,29.8557024 23.2353492,29.9584677 24.518922,29.969572 C31.0726746,30.0497106 37.3639872,27.3980003 41.8830749,22.6507968 C47.2289576,16.6104099 49.1919074,8.29289093 47.1107715,0.499713872 Z M5.65821276,25.5721567 C8.51211416,25.9267503 11.1465659,27.2857641 13.0897422,29.4058008 C15.114706,31.4488921 16.3495897,34.1438442 16.5748733,37.0115868 C13.7201633,36.6596097 11.0848566,35.3001549 9.14334381,33.1779427 C7.1123987,31.1389956 5.87645195,28.4417236 5.65821276,25.5721567 Z M40.8067844,21.9127691 C35.734831,27.1844196 28.420867,29.6682631 21.1875467,28.5755196 C25.0944469,20.3639397 31.6764096,13.7241453 39.8534986,9.74556154 C40.1806208,9.59280038 40.3301503,9.21009189 40.1932381,8.8760261 C40.0563258,8.54196031 39.6812213,8.37426574 39.3409793,8.49501451 C34.8863646,10.5514727 30.8674016,13.4430383 27.5017841,17.0130848 C24.5903691,20.0349988 22.169372,23.4935661 20.3265143,27.2634703 C19.0042146,20.3854616 19.7524927,12.1646525 25.5849621,7.97224486 C29.7876201,4.89712923 33.3957558,4.4256115 37.2088991,3.87209068 C40.2230367,3.54920626 43.17676,2.80387421 45.9832291,1.65800743 C47.6805111,8.84992119 45.7465975,16.4170765 40.8067844,21.9127691 Z M8.00555103,17.443601 L0.676525439,17.443601 C0.302890756,17.443601 0,17.1407102 0,16.7670756 C0,16.3934409 0.302890756,16.0905501 0.676525439,16.0905501 L8.03630218,16.0905501 C8.40993687,16.0905501 8.71282762,16.3934409 8.71282762,16.7670756 C8.71282762,17.1407102 8.40993687,17.443601 8.03630218,17.443601 L8.00555103,17.443601 Z M14.4017915,8.32075796 L14.4017915,1.59650511 C14.4017915,1.22287043 14.7046823,0.919979675 15.078317,0.919979675 C15.4519517,0.919979675 15.7548424,1.22287043 15.7548424,1.59650511 L15.7548424,8.32075796 C15.7548424,8.69439265 15.4519517,8.9972834 15.078317,8.9972834 C14.7046823,8.9972834 14.4017915,8.69439265 14.4017915,8.32075796 Z M4.05915263,6.13742586 C3.83274792,5.86876925 3.84966924,5.47151772 4.09809979,5.22308717 C4.34653033,4.97465663 4.74378186,4.95773531 5.01243848,5.18414002 L11.4599309,11.6316325 C11.5882907,11.7570041 11.660659,11.9288478 11.660659,12.1082754 C11.660659,12.287703 11.5882907,12.4595467 11.4599309,12.5849183 C11.3360181,12.7159478 11.1636296,12.7901882 10.983288,12.7901882 C10.8029464,12.7901882 10.6305579,12.7159478 10.5066451,12.5849183 L4.05915263,6.13742586 Z" id="path-1"></path>
    </defs>
    <g id="Page-1" stroke="none" stroke-width="1" fill="none" fill-rule="evenodd">
        <g id="Generali-Group-GDF---Warranty-Icons" transform="translate(-990.000000, -1493.000000)">
            <g id="Dev-Durable" transform="translate(731.000000, 1493.000000)">
                <g id="icons/products/red/B-life-health/b18-future-plan" transform="translate(259.500000, 0.000000)">
                    <g>
                        <polygon id="Rectangle-path" fill-opacity="0" fill="#FFFFFF" fill-rule="nonzero" points="0 0 48 0 48 48 0 48"></polygon>
                        <mask id="mask-2" fill="white">
                            <use xlink:href="#path-1"></use>
                        </mask>
                        <use id="Shape" fill="#C5281C" xlink:href="#path-1"></use>
                        <polygon id="Color-Style" fill="#C5281C" mask="url(#mask-2)" points="0 0 48 0 48 48 0 48"></polygon>
                    </g>
                </g>
            </g>
        </g>
    </g>
</svg>