<?xml version="1.0" encoding="UTF-8"?>
<svg width="49px" height="48px" viewBox="0 0 49 48" version="1.1" xmlns="http://www.w3.org/2000/svg" xmlns:xlink="http://www.w3.org/1999/xlink">
    <!-- Generator: sketchtool 60.1 (101010) - https://sketch.com -->
    <title>AD778CF0-7480-4F95-BDFC-7B4F9649E2B2</title>
    <desc>Created with sketchtool.</desc>
    <defs>
        <path d="M3.11740216,11 C4.83909584,11 6.23480433,12.4063741 6.23480433,14.1412245 L6.23480433,14.1412245 L6.23480433,22.0345578 C7.1005783,20.1160739 9.07823139,18.9616406 11.1605596,19.1592022 C13.2428878,19.3567638 14.9719352,20.8628717 15.4671107,22.9104762 C16.0591116,22.3297091 16.8762839,22.043479 17.6981435,22.1290146 C18.5200031,22.2145501 19.2618646,22.6630378 19.7235637,23.3534694 L19.7235637,23.3534694 L19.7235637,22.084898 L32.0133222,22.084898 C36.3835828,22.153206 40.26055,24.9270477 41.7651957,29.0620408 L41.7651957,29.0620408 L41.7651957,23.8367347 C41.7651868,22.1058085 43.1548158,20.701058 44.8726062,20.6955102 C45.7011224,20.6928344 46.4966152,21.0226022 47.0834043,21.6119864 C47.6701934,22.2013705 48,23.0018828 48,23.8367347 L48,23.8367347 L48,48 L41.7651957,48 L41.7651957,39.3616327 L6.22481266,39.3616327 L6.22481266,48 L0,48 L0,14.1412245 C0,12.4063741 1.39570849,11 3.11740216,11 Z M3.10741049,12.3591837 C2.13068043,12.3591837 1.33888426,13.1570305 1.33888426,14.1412245 L1.33888426,14.1412245 L1.33888426,46.6408163 L4.87593672,46.6408163 L4.87593672,38.002449 L43.1040799,38.002449 L43.1040799,46.6508844 L46.6511241,46.6508844 L46.6411324,23.8367347 C46.6411324,22.8525407 45.8493362,22.0546939 44.8726062,22.0546939 C43.8958761,22.0546939 43.1040799,22.8525407 43.1040799,23.8367347 L43.1040799,23.8367347 L43.1040799,33.9047619 L4.87593672,33.9047619 L4.87593672,14.1412245 C4.87593672,13.1570305 4.08414056,12.3591837 3.10741049,12.3591837 Z M32.0133222,23.4440816 L21.0224813,23.4440816 L21.0224813,32.5053061 L41.0058285,32.5053061 C40.8550332,27.5652373 36.9159267,23.5960293 32.0133222,23.4440816 L32.0133222,23.4440816 Z M17.4004996,23.595834 C16.6416024,23.595834 16.0094641,24.18214 15.9467111,24.9442177 L15.9467111,24.9442177 L15.9467111,29.5352381 L8.46294754,29.5352381 C7.66004232,29.5352381 7.00915903,30.1910953 7.00915903,31.0001361 C7.00915903,31.8091769 7.66004232,32.465034 8.46294754,32.465034 L8.46294754,32.465034 L17.4354704,32.465034 C18.1222883,32.4608383 18.7131712,31.9744566 18.8542881,31.2971429 C18.8649144,31.1933821 18.8649144,31.0887948 18.8542881,30.985034 L18.8542881,30.985034 L18.8542881,24.9442177 C18.7915351,24.18214 18.1593968,23.595834 17.4004996,23.595834 Z M6.22481266,26.1423129 L6.22481266,29.3238095 C6.64792816,28.7472278 7.27320369,28.3547943 7.97335554,28.2263946 C7.21118517,27.7071839 6.60610077,26.9859861 6.22481266,26.1423129 L6.22481266,26.1423129 Z M14.5978351,27.0786395 C14.2842057,27.5012895 13.9065712,27.8716173 13.4787677,28.1760544 L13.4787677,28.1760544 L14.5978351,28.1760544 Z M10.6910908,20.4941497 C8.71555763,20.4941497 7.11407161,22.1078738 7.11407161,24.0985034 C7.11407161,26.089133 8.71555763,27.7028571 10.6910908,27.7028571 C12.6666239,27.7028571 14.2681099,26.089133 14.2681099,24.0985034 C14.2681099,22.1078738 12.6666239,20.4941497 10.6910908,20.4941497 Z M34.9318186,0 C35.2686223,0 35.5565853,0.23288079 35.6141339,0.551800507 L35.6141339,0.551800507 L36.9074778,10.9749399 L38.4044979,8.15628809 C38.5220932,7.93562936 38.7575664,7.79607915 39.0155265,7.79416963 L39.0155265,7.79416963 L47.2236776,7.79416963 C47.4892422,7.76304819 47.749706,7.88171927 47.8927311,8.09900017 C48.0357563,8.31628106 48.0357563,8.59330121 47.8927311,8.81058211 C47.749706,9.02786301 47.4892422,9.14653409 47.2236776,9.11541265 L47.2236776,9.11541265 L39.4126951,9.11541265 L37.0806026,13.519556 C36.9376065,13.7711902 36.6429908,13.9065264 36.3494266,13.8554329 C36.0558624,13.8043394 35.8293458,13.5783024 35.7872587,13.2944554 L35.7872587,13.2944554 L34.7688777,4.92658294 L32.2432927,17.4734981 C32.175049,17.7805531 31.8927811,18 31.5660694,18 C31.2393576,18 30.9570897,17.7805531 30.888846,17.4734981 L30.888846,17.4734981 L29.4631125,6.8154711 L28.8113487,8.66521132 C28.7186265,8.93520129 28.4554231,9.11700717 28.1595848,9.11541265 L28.1595848,9.11541265 L20.7763224,9.11541265 C20.5107578,9.14653409 20.250294,9.02786301 20.1072689,8.81058211 C19.9642437,8.59330121 19.9642437,8.31628106 20.1072689,8.09900017 C20.250294,7.88171927 20.5107578,7.76304819 20.7763224,7.79416963 L20.7763224,7.79416963 L27.6605781,7.79416963 L29.1066792,3.59555294 C29.2156624,3.31101996 29.510985,3.13324514 29.824934,3.16318638 C30.138883,3.19312762 30.3920896,3.42321554 30.4407583,3.72278374 L30.4407583,3.72278374 L31.7035508,13.2748814 L34.2495034,0.551800507 C34.307052,0.23288079 34.5950149,0 34.9318186,0 Z" id="path-1"></path>
    </defs>
    <g id="Asset-Artboard-Page" stroke="none" stroke-width="1" fill="none" fill-rule="evenodd">
        <g id="icons/products/red/B-life-health/b25-critical-illness" transform="translate(0.382023, 0.000000)">
            <g>
                <polygon id="Rectangle-path" fill-opacity="0" fill="#FFFFFF" fill-rule="nonzero" points="0 0 48 0 48 48 0 48"></polygon>
                <mask id="mask-2" fill="white">
                    <use xlink:href="#path-1"></use>
                </mask>
                <use id="Mask" fill="#C5281C" xlink:href="#path-1"></use>
                <polygon id="Color-Style" fill="#C5281C" mask="url(#mask-2)" points="0 0 48 0 48 48 0 48"></polygon>
            </g>
        </g>
    </g>
</svg>