<?xml version="1.0" encoding="UTF-8"?>
<svg width="49px" height="48px" viewBox="0 0 49 48" version="1.1" xmlns="http://www.w3.org/2000/svg" xmlns:xlink="http://www.w3.org/1999/xlink">
    <!-- Generator: sketchtool 60.1 (101010) - https://sketch.com -->
    <title>1B5AC37E-E69B-4BCD-9202-B16C46B7D080</title>
    <desc>Created with sketchtool.</desc>
    <defs>
        <path d="M41.5,9.16 L34.9000079,9.16 L34.9000079,5.68 C34.9055461,3.10471966 32.8252706,1.01102311 30.2500079,1 L17.7500079,1 C15.1747452,1.01102311 13.0944698,3.10471966 13.1000079,5.68 L13.1000079,9.16 L6.5,9.16 C2.90140461,9.17652853 -0.00554096326,12.101363 0,15.7 L0,41 C-0.00554096326,44.598637 2.90140461,47.5234715 6.5,47.54 L41.5,47.54 C45.0986112,47.5234715 48.0055568,44.598637 48.0000159,41 L48.0000159,15.7 C48.0055568,12.101363 45.0986112,9.17652853 41.5,9.16 Z M14.4399928,5.68 C14.4373518,4.79948004 14.7845916,3.95396917 15.4053379,3.32947216 C16.0260842,2.70497515 16.8694879,2.35264817 17.7500079,2.35 L30.2500079,2.35 C31.1305279,2.35264817 31.9739317,2.70497515 32.5946779,3.32947216 C33.2154242,3.95396917 33.5626641,4.79948004 33.5600231,5.68 L33.5600231,9.16 L14.4399928,9.16 L14.4399928,5.68 Z M6.50000793,10.51 L41.5000079,10.51 C44.3546431,10.5265011 46.6600079,12.8453171 46.6600079,15.7 L46.6600079,23.57 L1.34000793,23.57 L1.34000793,15.7 C1.34000793,12.8453171 3.64537274,10.5265011 6.50000793,10.51 Z M29.0600079,25.51 L29.0600079,28.71 C29.0600079,29.0027109 28.8227188,29.24 28.5300079,29.24 L19.5300079,29.24 C19.3877186,29.2426852 19.2503277,29.1880337 19.14876,29.0883469 C19.0471923,28.9886601 18.9900079,28.8523146 18.9900079,28.71 L18.9900079,25.51 C18.9954593,25.2156787 19.2356362,24.9799495 19.5300079,24.98 L28.5800079,24.98 C28.8492428,25.0054849 29.0561088,25.2295897 29.0600079,25.5 L29.0600079,25.51 Z M41.5000079,46.19 L6.50000793,46.19 C3.64537274,46.1734989 1.34000793,43.8546829 1.34000793,41 L1.34000793,25 L17.6300079,25 C17.5750401,25.1715082 17.5447369,25.3499607 17.5400079,25.53 L17.5400079,28.73 C17.5400079,29.24452 17.7444002,29.7379666 18.1082208,30.1017872 C18.4720413,30.4656077 18.9654879,30.67 19.4800079,30.67 L28.5300079,30.67 C29.597533,30.6644972 30.4600221,29.7975393 30.4600079,28.73 L30.4600079,25.53 C30.455279,25.3499607 30.4249757,25.1715082 30.3700079,25 L46.6600079,25 L46.6600079,41 C46.6600079,43.8546829 44.3546431,46.1734989 41.5000079,46.19 L41.5000079,46.19 Z" id="path-1"></path>
    </defs>
    <g id="Asset-Artboard-Page" stroke="none" stroke-width="1" fill="none" fill-rule="evenodd">
        <g id="icons/products/red/C-assistance-travel/c04-luggage" transform="translate(0.382023, 0.000000)">
            <g>
                <polygon id="Rectangle-path" fill-opacity="0" fill="#FFFFFF" fill-rule="nonzero" points="0 0 48 0 48 48 0 48"></polygon>
                <mask id="mask-2" fill="white">
                    <use xlink:href="#path-1"></use>
                </mask>
                <use id="Shape" fill="#C5281C" fill-rule="nonzero" xlink:href="#path-1"></use>
                <polygon id="Color-Style" fill="#C5281C" mask="url(#mask-2)" points="0 0 48 0 48 48 0 48"></polygon>
            </g>
        </g>
    </g>
</svg>