<?xml version="1.0" encoding="UTF-8"?>
<svg width="48px" height="48px" viewBox="0 0 48 48" version="1.1" xmlns="http://www.w3.org/2000/svg" xmlns:xlink="http://www.w3.org/1999/xlink">
    <!-- Generator: sketchtool 62 (101010) - https://sketch.com -->
    <title>47E66C89-C7CA-4B8B-BD82-ECF552770249</title>
    <desc>Created with sketchtool.</desc>
    <defs>
        <path d="M7.36956164,1.17780705 L27.1165878,12.8443309 L31.6393371,7.76797818 C33.5653676,5.83675668 36.1915523,4.76809275 38.905536,4.80572519 C40.0987905,4.79896608 41.2861058,4.97148089 42.4277748,5.31733639 C42.7717512,5.337466 43.1018703,5.47705328 43.3771591,5.72977963 C43.7219809,6.0038773 43.9272566,6.40758616 43.9387755,6.85714286 C45.0275264,10.433404 44.6886899,14.4411275 41.4622222,17.6664337 L36.4637253,22.1940577 L47.7258118,41.4895749 C48.0440891,41.9826184 47.959325,42.6270588 47.5419317,43.0220872 L46.215555,45.1548878 C45.9742381,45.4658101 45.6231662,45.6726918 45.2342563,45.7331531 L45.0865063,45.7407544 C44.701875,45.7550645 44.3284204,45.6098321 44.046664,45.3315472 L28.3815518,29.3523714 L14.8148147,41.7156333 C14.7819292,41.8073866 14.7287063,41.8934814 14.6551516,41.9669215 L14.7214652,41.888466 L14.4149716,46.8153768 C14.3349215,47.3109359 14.0127334,47.7338079 13.5561961,47.9425197 L13.4137868,47.989447 C13.2604756,48.0217784 13.1027708,48.0260265 12.948305,48.0021911 C12.5990581,47.9839916 12.2686886,47.8353989 12.0283314,47.5891802 L1.49404185,37.044693 C1.11979982,36.6481635 1.00878894,36.0709069 1.19830004,35.5935978 C1.38836295,35.0385142 1.90959719,34.6650926 2.47053198,34.6642268 L7.52365124,34.4602477 L19.8453199,20.8150715 L3.51141742,4.76649979 C3.19892153,4.47276953 3.04131234,4.05009034 3.08563298,3.61941042 C3.13082134,3.20465165 3.35201452,2.82929353 3.72032468,2.5704808 L5.90121346,1.18536831 C6.3547599,0.904104973 6.92850541,0.904104973 7.36956164,1.17780705 Z M7.55646521,35.819466 L2.49960166,36.0236715 C2.4782627,36.0612938 5.97703531,39.5979054 12.9959195,46.6335063 C13.0002151,46.6379056 13.1257608,44.9752456 13.3725566,41.6455262 L7.55646521,35.819466 Z M35.4179105,23.1056886 L29.4654652,28.514466 L45.0099768,44.3715968 C45.0628552,44.3722225 45.5403466,43.6532835 46.4424509,42.21478 C46.4567186,42.1917643 42.7818717,35.8220672 35.4179105,23.1056886 Z M38.899992,6.16564937 C36.5405717,6.13304555 34.26857,7.05758301 32.6286025,8.7004388 L27.9287788,13.9800867 C27.9018706,14.0336503 27.8673784,14.0845172 27.8252243,14.1311421 L27.8252243,14.1311421 L21.3599182,21.2821626 C21.2841096,21.3660114 21.1921622,21.4265845 21.0930627,21.4634291 L8.76946521,35.108466 L14.1404652,40.488466 L27.9501651,27.9055325 C28.0510454,27.8136101 28.1723108,27.7576098 28.2980113,27.7370821 L35.1409498,21.5180652 C35.1984538,21.465789 35.25775,21.4253869 35.3176864,21.3955915 L40.5248817,16.6816164 C43.3252884,13.8812097 43.6002913,10.3339031 42.6103393,7.19905504 L42.5787755,6.99428571 C42.5784231,6.85254813 42.5677913,6.83163891 42.4840653,6.76001628 C42.4099261,6.68725369 42.3739489,6.67383847 42.3369161,6.67484901 L42.115907,6.64426288 C41.0793186,6.32097158 39.9990548,6.15955285 38.899992,6.16564937 Z M6.66529509,2.3411623 C6.65563208,2.33516986 5.92614939,2.78817107 4.476847,3.70016591 C4.45101413,3.74442482 9.89615541,9.1305168 20.8122708,19.8584418 L26.2094652,13.888466 L6.66529509,2.3411623 Z M35.5815257,9.31340059 C35.6640683,8.94703022 36.0279841,8.71694232 36.3943545,8.79948489 C37.5003427,9.04866201 38.5070188,9.62169298 39.2571203,10.4167587 C39.9134687,11.0325918 40.411051,11.798103 40.7073897,12.6479424 C40.8310431,13.0025554 40.6438134,13.3902669 40.2892005,13.5139203 C39.9345875,13.6375737 39.546876,13.450344 39.4232225,13.0957311 C39.1991362,12.4530968 38.8228728,11.87423 38.2977408,11.379846 C37.7045002,10.752444 36.9377902,10.316009 36.0954414,10.1262294 C35.729071,10.0436868 35.4989831,9.67977097 35.5815257,9.31340059 Z" id="path-1"></path>
    </defs>
    <g id="Asset-Artboard-Page" stroke="none" stroke-width="1" fill="none" fill-rule="evenodd">
        <g id="icons/products/red/C-assistance-travel/c1-holiday-and-journey-1">
            <g>
                <polygon id="Rectangle-path" fill-opacity="0" fill="#FFFFFF" fill-rule="nonzero" points="0 0 48 0 48 48 0 48"></polygon>
                <mask id="mask-2" fill="white">
                    <use xlink:href="#path-1"></use>
                </mask>
                <use id="c01-holiday-and-journey-1" fill="#C5281C" fill-rule="nonzero" xlink:href="#path-1"></use>
                <polygon id="Color-Style" fill="#C5281C" mask="url(#mask-2)" points="0 0 48 0 48 48 0 48"></polygon>
            </g>
        </g>
    </g>
</svg>