<?xml version="1.0" encoding="UTF-8"?>
<svg width="48px" height="48px" viewBox="0 0 48 48" version="1.1" xmlns="http://www.w3.org/2000/svg" xmlns:xlink="http://www.w3.org/1999/xlink">
    <!-- Generator: sketchtool 62 (101010) - https://sketch.com -->
    <title>5CCFD2DE-75A4-48CD-96E2-1E1611A2AE35</title>
    <desc>Created with sketchtool.</desc>
    <defs>
        <path d="M33.6685714,0.979591837 C24.244898,0.979591837 19.317551,3.42857143 19.317551,5.80897959 L19.317551,10.2465306 C18.1028571,10.1485714 16.7902041,10.08 15.3991837,10.08 C5.93632653,10.08 0.979591837,12.4897959 0.979591837,14.8702041 L0.979591837,21.4138776 C0.979591837,23.04 3.00734694,24.2742857 5.94612245,25.0873469 C5.7379167,25.3928517 5.61298905,25.7473761 5.58367347,26.1159184 C5.57800304,26.1647338 5.57800304,26.2140417 5.58367347,26.2628571 L5.58367347,32.8163265 C5.57896719,32.8946232 5.57896719,32.9731319 5.58367347,33.0514286 C2.60571429,33.9330612 0.979591837,35.1673469 0.979591837,36.6367347 L0.979591837,43.1804082 C0.979591837,46.2955102 8.4244898,48 15.3795918,48 C22.3346939,48 29.7306122,46.324898 29.7306122,43.2097959 L29.7306122,43.2097959 C31.1020408,43.3273469 32.395102,43.3861224 33.6489796,43.3861224 C40.6040816,43.3861224 48,41.7110204 48,38.5959184 L48,5.80897959 C48,3.42857143 43.1020408,0.979591837 33.6685714,0.979591837 Z M46.6873469,32.0130612 C46.6873469,33.4530612 41.7306122,35.4612245 33.6685714,35.4612245 L32.1110204,35.4612245 C33.4628571,34.7265306 34.2857143,33.8546939 34.2857143,32.8163265 L34.2857143,30.2497959 C39.2620408,30.1812245 44.3363265,29.2702041 46.6873469,27.5755102 L46.6873469,32.0130612 Z M7.12163265,33.3061224 L7.12163265,33.3061224 C7.09287216,33.2031401 7.03901973,33.1088983 6.96489796,33.0318367 C6.9345261,32.9536525 6.91795366,32.8707903 6.91591837,32.7869388 L6.91591837,28.3395918 C9.34530612,30.1028571 14.7526531,31.0334694 19.9542857,31.0334694 C25.1559184,31.0334694 30.5044898,30.1126531 32.9534694,28.4081633 L32.9534694,32.8163265 C32.9534694,34.2857143 28.0065306,36.244898 19.9346939,36.244898 C12.8130612,36.244898 8.13061224,34.6971429 7.12163265,33.3061224 Z M46.6873469,25.4693878 C46.6873469,26.8702041 41.9853061,28.8097959 34.2857143,28.9077551 L34.2857143,26.5371429 C34.2930716,26.4393218 34.2930716,26.3410863 34.2857143,26.2432653 C34.2857143,25.2636735 33.5608163,24.4016327 32.1893878,23.6571429 L33.6391837,23.6571429 C38.8114286,23.6571429 44.2187755,22.7265306 46.6579592,20.9828571 L46.6873469,25.4693878 Z M46.6873469,18.8963265 C46.6873469,20.3363265 41.7306122,22.3444898 33.6685714,22.3444898 C32.3167347,22.3444898 30.9355102,22.2759184 29.5640816,22.1485714 C29.6611131,21.9123561 29.7110288,21.6594496 29.7110204,21.4040816 L29.7110204,16.9665306 C30.9257143,17.0840816 32.2579592,17.1428571 33.6293878,17.1428571 C38.8016327,17.1428571 44.2089796,16.2122449 46.6481633,14.4685714 L46.6873469,18.8963265 Z M33.6685714,2.35102041 C41.7306122,2.35102041 46.6873469,4.35918367 46.6873469,5.79918367 C46.6873469,7.23918367 41.7306122,9.25714286 33.6685714,9.25714286 C25.6065306,9.25714286 20.6497959,7.24897959 20.6497959,5.80897959 C20.6497959,4.36897959 25.6065306,2.35102041 33.6685714,2.35102041 Z M20.6497959,7.8955102 C22.6971429,9.41387755 27.0759184,10.5991837 33.6685714,10.5991837 C40.2612245,10.5991837 44.64,9.42367347 46.6873469,7.8955102 L46.6873469,12.3526531 C46.6873469,13.7926531 41.7306122,15.8008163 33.6685714,15.8008163 C32.2481633,15.8008163 30.9257143,15.7420408 29.7502041,15.6244898 L29.7502041,14.8702041 C29.7502041,12.9893878 26.644898,11.0889796 20.6889796,10.3836735 L20.6497959,7.8955102 Z M15.36,11.4220408 C23.4220408,11.4220408 28.3787755,13.4302041 28.3787755,14.8702041 C28.3787755,16.3102041 23.4220408,18.3183673 15.36,18.3183673 C7.29795918,18.3183673 2.34122449,16.3102041 2.34122449,14.8702041 C2.34122449,13.4302041 7.28816327,11.4220408 15.36,11.4220408 Z M2.34122449,21.4138776 L2.34122449,16.9567347 C4.38857143,18.475102 8.81632653,19.6604082 15.36,19.6604082 C21.9036735,19.6604082 26.3314286,18.484898 28.3787755,16.9567347 L28.3787755,21.4138776 C28.3787755,22.8538776 23.4220408,24.8620408 15.36,24.8620408 C7.29795918,24.8620408 2.34122449,22.8538776 2.34122449,21.4138776 Z M15.36,26.2040816 C20.404898,26.2040816 25.675102,25.322449 28.1926531,23.6473469 C31.4057143,24.4016327 32.8946939,25.4497959 32.9730612,26.1844898 C32.971427,26.2105867 32.971427,26.2367603 32.9730612,26.2628571 L32.9730612,26.3510204 C32.7379592,27.7812245 27.84,29.6914286 19.9738776,29.6914286 C11.9118367,29.6914286 6.95510204,27.6832653 6.95510204,26.2432653 C7.00056314,25.9194065 7.1778105,25.6287208 7.44489796,25.44 C10.0510472,25.9589309 12.7027108,26.2149083 15.36,26.2040816 L15.36,26.2040816 Z M6.19102041,34.2857143 C8.09142857,36.4604082 14.164898,37.6163265 19.9053061,37.6163265 C22.7437514,37.6317221 25.5753397,37.3360807 28.3493878,36.7346939 C28.1534694,38.164898 23.2555102,40.0946939 15.3502041,40.0946939 C7.28816327,40.0946939 2.33142857,38.0865306 2.33142857,36.6465306 C2.36081633,36.0293878 3.37959184,35.0693878 6.19102041,34.2857143 Z M15.3795918,46.6383673 C7.31755102,46.6383673 2.36081633,44.6302041 2.36081633,43.1902041 L2.36081633,38.7428571 C4.8,40.4963265 10.197551,41.4171429 15.3795918,41.4171429 C20.5616327,41.4171429 25.9591837,40.4963265 28.4081633,38.7428571 L28.4081633,43.1804082 C28.4081633,44.6204082 23.4514286,46.6383673 15.3795918,46.6383673 Z M33.6685714,42.0146939 C32.404898,42.0146939 31.1118367,41.9559184 29.7502041,41.8383673 L29.7502041,36.6367347 L29.7502041,36.6367347 C31.0040816,36.7444898 32.3167347,36.8032653 33.6685714,36.8032653 C38.8408163,36.8032653 44.2481633,35.8726531 46.6873469,34.1289796 L46.6873469,38.5665306 C46.6873469,39.9967347 41.7306122,42.0146939 33.6685714,42.0146939 L33.6685714,42.0146939 Z" id="path-1"></path>
    </defs>
    <g id="Asset-Artboard-Page" stroke="none" stroke-width="1" fill="none" fill-rule="evenodd">
        <g id="icons/products/red/D-investments/d01-investments">
            <g>
                <polygon id="Rectangle-path" fill-opacity="0" fill="#FFFFFF" fill-rule="nonzero" points="0 0 48 0 48 48 0 48"></polygon>
                <mask id="mask-2" fill="white">
                    <use xlink:href="#path-1"></use>
                </mask>
                <use id="d1-investments" fill="#C5281C" xlink:href="#path-1"></use>
                <polygon id="Color-Style" fill="#C5281C" mask="url(#mask-2)" points="0 0 48 0 48 48 0 48"></polygon>
            </g>
        </g>
    </g>
</svg>