<?xml version="1.0" encoding="UTF-8"?>
<svg width="48px" height="48px" viewBox="0 0 48 48" version="1.1" xmlns="http://www.w3.org/2000/svg" xmlns:xlink="http://www.w3.org/1999/xlink">
    <!-- Generator: sketchtool 62 (101010) - https://sketch.com -->
    <title>32279627-B79E-4CDA-8CE1-F8A84197ECA7</title>
    <desc>Created with sketchtool.</desc>
    <defs>
        <path d="M26.9376,2.112 C27.2981315,2.112 27.5904,2.40426852 27.5904,2.7648 C27.5904,3.12533148 27.2981315,3.41759999 26.9376,3.4176 L9.024,3.4176 L9.024,45.7344 L37.824,45.7344 L37.824,14.3424 C37.824,13.9818685 38.1162685,13.6896 38.4768,13.6896 C38.8373315,13.6896 39.1296001,13.9818685 39.1296001,14.3424 L39.1296001,46.3872 C39.1296001,46.7403646 38.8490118,47.0296128 38.496,47.04 L8.3616,47.04 C8.18353272,47.0478637 8.00999362,46.9825741 7.88126811,46.8592877 C7.75254261,46.7360013 7.67999969,46.5654407 7.67999969,46.3872 L7.67999969,2.7648 C7.67999969,2.40426852 7.97226852,2.112 8.3328,2.112 L26.9376,2.112 Z M30.7776,36.528 C31.1381315,36.528 31.4304,36.8202685 31.4304,37.1808 C31.4304,37.5413315 31.1381315,37.8336 30.7776,37.8336 L17.0976,37.8336 C16.7370685,37.8336 16.4448,37.5413315 16.4448,37.1808 C16.4448,36.8202685 16.7370685,36.528 17.0976,36.528 L30.7776,36.528 Z M25.5936,32.1984 C25.9541315,32.1984 26.2464,32.4906685 26.2464,32.8512 C26.2464,33.2117315 25.9541315,33.504 25.5936,33.504 L17.0976,33.504 C16.7370685,33.504 16.4448,33.2117315 16.4448,32.8512 C16.4448,32.4906685 16.7370685,32.1984 17.0976,32.1984 L25.5936,32.1984 Z M30.6624,27.9072 C31.0229315,27.9072 31.3151999,28.1994685 31.3151999,28.56 C31.3151999,28.9205315 31.0229315,29.2128 30.6624,29.2128 L16.992,29.2128 C16.6314685,29.2128 16.3392,28.9205315 16.3392,28.56 C16.3392,28.1994685 16.6314685,27.9072 16.992,27.9072 L30.6624,27.9072 Z M30.8352,23.6544 C31.068423,23.6544 31.2839299,23.778823 31.4005414,23.9808 C31.5171529,24.182777 31.5171529,24.431623 31.4005414,24.6336 C31.2839299,24.835577 31.068423,24.96 30.8352,24.96 L17.1456,24.96 C16.912377,24.96 16.6968701,24.835577 16.5802586,24.6336 C16.4636471,24.431623 16.4636471,24.182777 16.5802586,23.9808 C16.6968701,23.778823 16.912377,23.6544 17.1456,23.6544 L30.8352,23.6544 Z M25.9872,19.296 C26.220423,19.296 26.4359299,19.420423 26.5525414,19.6224 C26.6691529,19.824377 26.6691529,20.073223 26.5525414,20.2752 C26.4359299,20.477177 26.220423,20.6016 25.9872,20.6016 L17.0976,20.6016 C16.7370685,20.6016 16.4448,20.3093315 16.4448,19.9488 C16.4448,19.5882685 16.7370685,19.296 17.0976,19.296 L25.9872,19.296 Z M32.0448,15.0144 C32.4053315,15.0144 32.6976,15.3066685 32.6976,15.6672 C32.6976,16.0277315 32.4053315,16.32 32.0448,16.32 L16.992,16.32 C16.6314685,16.32 16.3392,16.0277315 16.3392,15.6672 C16.3392,15.3066685 16.6314685,15.0144 16.992,15.0144 L32.0448,15.0144 Z M25.9872,10.7616 C26.220423,10.7616 26.4359299,10.886023 26.5525414,11.088 C26.6691529,11.289977 26.6691529,11.538823 26.5525414,11.7408 C26.4359299,11.942777 26.220423,12.0672 25.9872,12.0672 L16.9248,12.0672 C16.691577,12.0672 16.4760701,11.942777 16.3594586,11.7408 C16.2428471,11.538823 16.2428471,11.289977 16.3594586,11.088 C16.4760701,10.886023 16.691577,10.7616 16.9248,10.7616 L25.9872,10.7616 Z M29.8944,2.3808 C30.2549315,2.3808 30.5472,2.67306852 30.5472,3.0336 L30.5472,10.2336 C30.5472,10.3765732 30.6021978,10.5140677 30.7008,10.6176 C30.7943987,10.6959024 30.9152355,10.7338797 31.0368,10.7232 L38.2368,10.7232 C38.5973315,10.7232 38.8896,11.0154685 38.8896,11.376 C38.8896,11.7365315 38.5973315,12.0288 38.2368,12.0288 L38.2176,12.0672 L31.008,12.0672 C30.535556,12.0590625 30.0860674,11.861979 29.76,11.52 C29.4329528,11.17077 29.2480808,10.7120135 29.2416,10.2336 L29.2416,3.0336 C29.2416,2.7058441 29.4831442,2.43450389 29.797934,2.38787803 L29.8944,2.3808 Z M40.176,1.15200002 C40.4410966,1.41709669 40.4410967,1.84690332 40.176,2.112 L34.6656,7.536 C34.543503,7.65852126 34.377771,7.72757627 34.2048,7.728 C33.9412632,7.72735598 33.7039612,7.5683144 33.6031971,7.3248012 C33.502433,7.081288 33.5579727,6.80107058 33.744,6.6144 L39.216,1.152 C39.4810967,0.886903341 39.9109033,0.886903352 40.176,1.15200002 Z" id="path-1"></path>
    </defs>
    <g id="Asset-Artboard-Page" stroke="none" stroke-width="1" fill="none" fill-rule="evenodd">
        <g id="icons/products/red/D-investments/d02-foreign-contract">
            <g>
                <polygon id="Rectangle-path" fill-opacity="0" fill="#FFFFFF" fill-rule="nonzero" points="0 0 48 0 48 48 0 48"></polygon>
                <mask id="mask-2" fill="white">
                    <use xlink:href="#path-1"></use>
                </mask>
                <use id="d2-foreign-contract" fill="#C5281C" xlink:href="#path-1"></use>
                <polygon id="Color-Style" fill="#C5281C" mask="url(#mask-2)" points="0 0 48 0 48 48 0 48"></polygon>
            </g>
        </g>
    </g>
</svg>