<?xml version="1.0" encoding="UTF-8"?>
<svg width="32px" height="32px" viewBox="0 0 32 32" version="1.1" xmlns="http://www.w3.org/2000/svg" xmlns:xlink="http://www.w3.org/1999/xlink">
    <!-- Generator: sketchtool 63.1 (101010) - https://sketch.com -->
    <title>3754FEAF-C20F-485C-A8D3-BE682DDD5875</title>
    <desc>Created with sketchtool.</desc>
    <defs>
        <path d="M31.997598,11.3869181 C31.9984628,11.3708651 31.9984628,11.3547748 31.997598,11.3387217 C32.0008007,11.2836898 32.0008007,11.2285089 31.997598,11.173477 L31.997598,11.1252806 L28.4445314,1.2519084 C28.3213376,0.901227623 27.9991086,0.667430909 27.6379253,0.666666667 L27.6379253,0.666666667 C27.5195528,0.669920327 27.4033872,0.700504097 27.2979508,0.756174225 L18.0386459,4.55680287 C17.234017,3.70279507 16.009863,3.43491191 14.9390552,3.87851554 C13.8682475,4.32211917 13.1626036,5.38945986 13.152346,6.58105074 L4.07969375,10.3541386 L4.07969375,10.3541386 C3.86570763,10.4475038 3.69739477,10.6263139 3.61306211,10.8498728 L0.0466631638,20.5717707 C0.0159188868,20.667256 0,20.7672073 0,20.8678342 C0,20.9366861 0,21.0055381 0,21.0675049 L0,21.0675049 C0.139989491,22.7750337 1.99984988,24.0901063 4.37300506,24.0901063 C6.74616025,24.0901063 8.60602063,22.7819189 8.74601012,21.0675049 L8.74601012,21.0675049 C8.74601012,20.9986529 8.74601012,20.9366861 8.74601012,20.8678342 C8.74414854,20.779159 8.73069448,20.6911503 8.70601313,20.6061967 L8.70601313,20.5373447 L4.8396367,11.0495435 L13.2990017,7.5312079 C13.447339,7.98691341 13.7013728,8.3982127 14.0389461,8.72923215 L13.2190077,27.5533603 C12.0483011,27.845295 11.2223884,28.9258247 11.2191578,30.1697351 L11.2191578,30.4451429 C11.2191578,30.935677 11.604164,31.3333333 12.0790933,31.3333333 L19.9984988,31.3333333 C20.4629833,31.3184504 20.831993,30.9251198 20.8317695,30.4451429 L20.8317695,30.1972759 C20.828539,28.9533655 20.0026262,27.8728358 18.8319197,27.5809011 L17.9986489,8.70857656 C18.8717059,7.83409458 19.10529,6.48082589 18.5786053,5.34860051 L26.824653,1.94731328 L23.2715864,11.1665918 C23.2409529,11.2621052 23.2252022,11.3620381 23.2249232,11.4626553 C23.2249232,13.2734621 25.1514453,14.6918126 27.6112606,14.6918126 C30.071076,14.6918126 31.997598,13.2321509 31.997598,11.4419997 C31.997598,11.4419997 31.997598,11.4419997 31.997598,11.4075737 L31.997598,11.3869181 Z M4.38633739,23.1606047 C2.78645749,23.1606047 1.47988891,22.472085 1.05325427,21.5425834 L7.71942052,21.5425834 C7.28611971,22.4858554 5.99954963,23.1606047 4.38633739,23.1606047 Z M7.71942052,20.6061967 L1.0065911,20.6061967 L4.19301857,11.8551115 L7.71942052,20.6061967 Z M15.998799,4.60499925 C17.070151,4.60499925 17.9386534,5.50203807 17.9386534,6.60859153 C17.9386534,7.71514499 17.070151,8.6121838 15.998799,8.6121838 C14.927447,8.6121838 14.0589446,7.71514499 14.0589446,6.60859153 C14.0589446,5.50203807 14.927447,4.60499925 15.998799,4.60499925 Z M19.9251709,30.1766203 L19.9251709,30.3694058 L12.1124241,30.3694058 L12.1124241,30.1766203 C12.116913,29.2611312 12.8017253,28.5028675 13.6856393,28.4346655 L18.3519557,28.4346655 C19.2358697,28.5028675 19.920682,29.2611312 19.9251709,30.1766203 L19.9251709,30.1766203 Z M17.9253211,27.4913935 L14.1322725,27.4913935 L14.9188801,9.32824427 C15.6185015,9.62966322 16.4057611,9.62966322 17.1053826,9.32824427 L17.9253211,27.4913935 Z M27.7579163,2.05059123 L30.8976806,10.9187247 L24.338173,10.9187247 L27.7579163,2.05059123 Z M27.6112606,13.7554258 C25.8713912,13.7554258 24.4648302,12.9498578 24.1848512,11.8826523 L31.0310039,11.8826523 C30.7443588,12.9360874 29.3311315,13.727885 27.6112606,13.727885 L27.6112606,13.7554258 Z" id="path-1"></path>
    </defs>
    <g id="Breakpoint-S" stroke="none" stroke-width="1" fill="none" fill-rule="evenodd">
        <g id="05_Home-contracts-S" transform="translate(-16.000000, -1274.000000)">
            <g id="06_List_Items/09_Accordions/06.09.06_Left_Icon_Text_Badge/S-Copy-5" transform="translate(0.000000, 1254.000000)">
                <g id="icons/products/red/A-car-home/a01-fire" transform="translate(16.000000, 20.000000)">
                    <g id="icons/products/red/D-investments/d04-legal-expenses">
                        <polygon id="Rectangle-path" fill-opacity="0" fill="#FFFFFF" fill-rule="nonzero" points="0 0 32 0 32 32 0 32"></polygon>
                        <mask id="mask-2" fill="white">
                            <use xlink:href="#path-1"></use>
                        </mask>
                        <use id="d4-legal-expenses" fill="#C5281C" xlink:href="#path-1"></use>
                        <polygon id="Color-Style" fill="#C5281C" mask="url(#mask-2)" points="0 0 32 0 32 32 0 32"></polygon>
                    </g>
                </g>
            </g>
        </g>
    </g>
</svg>