<?xml version="1.0" encoding="UTF-8"?>
<svg width="48px" height="48px" viewBox="0 0 48 48" version="1.1" xmlns="http://www.w3.org/2000/svg" xmlns:xlink="http://www.w3.org/1999/xlink">
    <!-- Generator: sketchtool 62 (101010) - https://sketch.com -->
    <title>507278BD-084F-4EC9-9930-1BF3FF3C366E</title>
    <desc>Created with sketchtool.</desc>
    <defs>
        <path d="M6.1931,8.99982662 C6.9801,8.9851 7.6091,9.5891 7.6261,10.3881 L7.6261,10.3881 L7.6261,10.5541 C7.6491,10.5591 7.6731,10.5611 7.6961,10.5681 L7.6961,10.5681 L22.9411,13.5011 L24.6711,13.8331 C24.7661,13.8921 24.8521,13.9691 24.9251,14.0601 C24.9351,14.0731 24.9451,14.0871 24.9551,14.1021 L24.9551,14.1021 L30.8581,22.9341 C30.8751,22.9581 30.8841,22.9851 30.8991,23.0101 L30.8991,23.0101 L48.0001,23.0101 L48.0001,39.8411 L11.9091,39.8411 L11.9091,27.2181 L7.6501,24.4691 L7.6511,24.6681 C7.6661,25.4541 7.0411,26.1071 6.2561,26.1271 L6.2561,26.1271 L1.4581,26.3151 C1.0771,26.3221 0.7201,26.1851 0.4521,25.9271 C0.1841,25.6701 0.0331,25.3191 0.0251,24.9271 L0.0251,24.9271 L-0.000198629585,10.6471 C-0.0159,9.8581 0.6131,9.2031 1.3901,9.1881 L1.3901,9.1881 Z M46.6191,24.3591 L23.4811,24.3591 L25.1351,27.5541 C25.9491,29.1041 25.3281,31.0591 23.7431,31.9161 C22.9611,32.3271 22.0921,32.4221 21.2951,32.1841 C20.4741,31.9391 19.8071,31.3891 19.4201,30.6371 L19.4201,30.6371 L18.2501,28.3671 L17.4591,26.8341 L17.2511,26.4291 L14.1761,28.1001 C13.9591,28.2281 13.6891,28.2601 13.4491,28.1851 C13.3951,28.1681 13.3431,28.1441 13.2961,28.1141 L13.2961,28.1141 L13.2901,28.1101 L13.2901,38.4911 L46.6191,38.4911 L46.6191,24.3591 Z M31.47,27.5000048 C32.1570689,27.4945037 32.8378984,27.6306696 33.47,27.9000048 L33.17,28.7300048 C32.6388469,28.4917508 32.0620904,28.3723041 31.48,28.3800048 C30.7508081,28.353852 30.037945,28.5997898 29.48,29.0700048 C29.0092279,29.4889634 28.6894408,30.0512265 28.57,30.6700048 L32.79,30.6700048 L32.79,31.3000048 L28.42,31.3000048 C28.4100523,31.4765314 28.4100523,31.6534782 28.42,31.8300048 L28.42,32.0600048 L32.8,32.0600048 L32.8,32.6800048 L28.49,32.6800048 C28.5747925,33.3093459 28.8709949,33.891172 29.33,34.3300048 C29.9267478,34.8257885 30.6845914,35.0855189 31.46,35.0600048 C32.0950943,35.0521155 32.7216396,34.9125049 33.3,34.6500048 L33.61,35.4000048 C32.9167204,35.7636535 32.1427016,35.9459779 31.36,35.9300048 C30.2298282,35.9709193 29.1283235,35.5690674 28.29,34.8100048 C27.6814714,34.2383392 27.2952711,33.4694817 27.2,32.6400048 L26.26,32.6400048 L26.26,32.0200048 L27.12,32.0200048 L27.12,31.2600048 L27.12,31.2600048 L26.23,31.2600048 L26.23,30.6300048 L27.23,30.6300048 C27.3922854,29.800854 27.8290972,29.0505239 28.47,28.5000048 C29.3105796,27.8047159 30.3803629,27.4481214 31.47,27.5000048 Z M7.6281,11.8451 L7.6481,22.9891 L13.7411,26.9231 L17.2151,25.0351 C17.3621,24.9551 17.5351,24.9381 17.6941,24.9871 C17.8541,25.0361 17.9871,25.1471 18.0641,25.2961 L18.0641,25.2961 L20.5241,30.0681 C20.7591,30.5241 21.1481,30.8441 21.6501,30.9941 C22.1351,31.1381 22.6731,31.0751 23.1581,30.8201 C24.1411,30.2881 24.5351,29.0821 24.0341,28.1281 L24.0341,28.1281 L20.4541,21.2151 L17.4971,20.3611 C17.1671,20.2661 16.9771,19.9211 17.0731,19.5921 C17.1681,19.2621 17.5121,19.0721 17.8421,19.1671 L17.8421,19.1671 L20.0711,19.8111 L21.2431,20.2251 C21.3301,20.2941 21.4071,20.3801 21.4691,20.4791 L21.4691,20.4791 L21.4951,20.5231 L22.7821,23.0101 L29.4131,23.0101 L23.9951,14.9421 L22.4951,14.6601 L22.4941,14.6631 L7.6281,11.8451 Z M6.2301,10.2420499 L1.4271,10.4301 C1.3271,10.4321 1.2401,10.5221 1.24206618,10.6331 L1.24206618,10.6331 L1.2671,24.9131 C1.2691,25.0121 1.3461,25.0741 1.4211,25.0731119 L1.4211,25.0731119 L6.2121,24.8851 L6.2121,24.8851 L6.2241,24.8851 C6.3241,24.8831 6.4111,24.7931 6.4081,24.6811 L6.4081,24.6811 L6.3831,10.4021 C6.3821,10.3491 6.3651,10.3081 6.3371,10.2801 C6.3101,10.2551 6.2731,10.2411 6.2301,10.2420499 L6.2301,10.2420499 Z" id="path-1"></path>
    </defs>
    <g id="Asset-Artboard-Page" stroke="none" stroke-width="1" fill="none" fill-rule="evenodd">
        <g id="icons/products/red/D-investments/d13-emi_euro">
            <g id="icons/products/red/D-investments/d13-emi">
                <polygon id="Rectangle-path" fill-opacity="0" fill="#FFFFFF" fill-rule="nonzero" points="0 0 48 0 48 48 0 48"></polygon>
                <mask id="mask-2" fill="white">
                    <use xlink:href="#path-1"></use>
                </mask>
                <use id="Mask" fill="#C5281C" xlink:href="#path-1"></use>
                <polygon id="Color-Style" fill="#C5281C" mask="url(#mask-2)" points="6.65158033e-17 0 48 0 48 48 6.65158033e-17 48"></polygon>
            </g>
        </g>
    </g>
</svg>