<?xml version="1.0" encoding="UTF-8"?>
<svg width="48px" height="48px" viewBox="0 0 48 48" version="1.1" xmlns="http://www.w3.org/2000/svg" xmlns:xlink="http://www.w3.org/1999/xlink">
    <!-- Generator: sketchtool 62 (101010) - https://sketch.com -->
    <title>C660CDA4-4119-4457-85F4-E66A707C5898</title>
    <desc>Created with sketchtool.</desc>
    <defs>
        <path d="M2.68,48 C2.00183361,47.9924341 1.35559174,47.7107544 0.888426435,47.2191006 C0.421261128,46.7274467 0.172937534,46.0676684 0.2,45.39 L0.2,1.39 C0.2,0.83771525 0.64771525,0.389957071 1.2,0.389957071 C1.44735163,0.387612092 1.68524408,0.484931727 1.86,0.66 L1.86,0.66 L16.07,11.07 L16.07,1.4 C16.07,0.84771525 16.5177153,0.4 17.07,0.4 C17.3205282,0.406084565 17.5596404,0.506012045 17.74,0.68 L17.74,0.68 L31.94,11.21 L31.94,1.44 C31.94,0.88771525 32.3877153,0.44 32.94,0.44 C33.194003,0.443575916 33.4371249,0.543684932 33.62,0.72 L33.62,0.72 L47,10.77 C47.5008066,11.1455927 47.7968641,11.7340069 47.8,12.36 L47.8,12.36 L47.8,45.43 C47.8160867,46.1008555 47.5628756,46.7502186 47.0969033,47.2331012 C46.630931,47.7159839 45.9910027,47.9921723 45.32,48 L45.32,48 L28.37,48 C28.2785351,48.0398786 28.1797799,48.0603107 28.08,48.06 L28.08,48.06 L19.92,48.06 C19.8202201,48.0603107 19.7214649,48.0398786 19.63,48 L19.63,48 Z M27.39,46.57 L27.39,31.7 L20.61,31.7 L20.61,46.57 L27.39,46.57 Z M24.75,48 L24.6389986,46.6799571 L23.7973745,46.6801163 C23.8150837,46.9518592 23.8579737,47.6571316 23.85,48 L24.75,48 Z M45.32,46.57 C45.5921876,46.5689612 45.8521912,46.4570153 46.04,46.26 C46.2548467,46.0415433 46.3736316,45.7463809 46.37,45.44 L46.37,45.44 L46.37,12.36 C46.36714,12.1847703 46.2865275,12.0198811 46.15,11.91 L46.15,11.91 L33.38,2.33 L33.38,11.23 C33.3758593,11.7705716 33.071349,12.2639554 32.59,12.51 C32.3903811,12.6067044 32.1717998,12.6579343 31.95,12.66 C31.6410312,12.6593648 31.3401175,12.5613929 31.09,12.38 L31.09,12.38 L17.51,2.29 L17.51,11.12 C17.5058593,11.6605716 17.201349,12.1539554 16.72,12.4 C16.517691,12.4991504 16.2952987,12.5504717 16.07,12.55 C15.7667262,12.5522164 15.4712892,12.4537374 15.23,12.27 L15.23,12.27 L1.63,2.27 L1.63,45.45 C1.61313206,46.0482981 2.08185863,46.5482731 2.68,46.57 L2.68,46.57 L19.22,46.57 L19.22,31 C19.22,30.6134007 19.5334007,30.3 19.92,30.3 L19.92,30.3 L28.08,30.3 C28.4665993,30.3 28.78,30.6134007 28.78,31 L28.78,31 L28.78,46.57 Z" id="path-1"></path>
    </defs>
    <g id="Asset-Artboard-Page" stroke="none" stroke-width="1" fill="none" fill-rule="evenodd">
        <g id="icons/products/red/E-people/e16-factory">
            <g>
                <polygon id="Rectangle-path" fill-opacity="0" fill="#FFFFFF" fill-rule="nonzero" points="0 0 48 0 48 48 0 48"></polygon>
                <mask id="mask-2" fill="white">
                    <use xlink:href="#path-1"></use>
                </mask>
                <use id="Combined-Shape" fill="#C5281C" fill-rule="nonzero" xlink:href="#path-1"></use>
                <polygon id="Color-Style" fill="#C5281C" mask="url(#mask-2)" points="0 0 48 0 48 49 0 49"></polygon>
            </g>
        </g>
    </g>
</svg>