<?xml version="1.0" encoding="UTF-8"?>
<svg width="48px" height="48px" viewBox="0 0 48 48" version="1.1" xmlns="http://www.w3.org/2000/svg" xmlns:xlink="http://www.w3.org/1999/xlink">
    <!-- Generator: sketchtool 62 (101010) - https://sketch.com -->
    <title>D508FA7E-6EBD-454F-ACA8-9896713487B7</title>
    <desc>Created with sketchtool.</desc>
    <defs>
        <path d="M40.623297,41.0038052 C40.3914904,41.0057793 40.174381,40.8913405 40.0462627,40.6996235 C39.9181444,40.5079064 39.8963896,40.2649073 39.9884427,40.0537794 L42.0038531,35.2037794 L42.0038531,14.4237794 L39.9582115,15.2937794 L39.9582115,32.1937794 C39.8970727,33.0832283 39.4971615,33.9162628 38.8396587,34.5237794 C37.8319535,35.6137794 32.4004223,39.6637794 24.0062378,39.6637794 C18.6339131,39.7132011 13.4101645,37.9145935 9.22320207,34.5737794 C8.51286139,33.9794617 8.08836538,33.1151725 8.05426401,32.1937794 L8.05426401,15.2937794 L1.00032741,12.3537794 C0.3966069,12.1168782 0,11.5380217 0,10.8937794 C0,10.2495371 0.3966069,9.67068057 1.00032741,9.43377939 L22.6659898,0.273779392 C23.5391211,-0.0912597973 24.5237397,-0.0912597973 25.396871,0.273779392 L47.0121481,9.43377939 C47.6238423,9.6797938 48.0173636,10.2767937 47.9994105,10.9315267 C47.9814574,11.5862597 47.5558024,12.1611395 46.9315317,12.3737794 L43.4851798,13.8237794 L43.4247175,35.1837794 L45.4401279,40.0537794 C45.4741836,40.1362574 45.4913131,40.2246496 45.4905132,40.3137794 C45.4905132,40.689333 45.183721,40.9937794 44.8052737,40.9937794 L40.623297,41.0038052 Z M41.6310022,39.6337794 L43.7874914,39.6337794 L42.7193238,37.0837794 L41.6310022,39.6337794 Z M9.5557448,32.1937794 C9.59941396,32.6974344 9.85108288,33.1607287 10.2510614,33.4737794 C14.1492652,36.5728311 19.0118279,38.2307829 24.0062378,38.1637794 C31.765568,38.1637794 36.8746335,34.4337794 37.731183,33.5137794 C38.1259647,33.1753531 38.3837369,32.7063843 38.4567307,32.1937794 L38.4567307,15.7037794 L25.205407,21.2337794 C24.8220874,21.3917063 24.4112033,21.4732548 23.9961607,21.4737794 C23.594509,21.4698435 23.1974734,21.3883263 22.8272226,21.2337794 L9.5557448,15.7037794 L9.5557448,32.1937794 Z M24.0062378,1.49375437 C23.7401511,1.49245847 23.4764347,1.54343898 23.2303047,1.64377939 L1.39333245,10.8437794 L23.3109212,19.9337794 C23.7533313,20.1132819 24.2490672,20.1132819 24.6914773,19.9337794 L46.609066,10.8237794 L24.7821708,1.65377939 C24.5372468,1.54843532 24.2731773,1.49398331 24.0062378,1.49375437 Z" id="path-1"></path>
    </defs>
    <g id="Asset-Artboard-Page" stroke="none" stroke-width="1" fill="none" fill-rule="evenodd">
        <g id="icons/products/red/E-people/e22-education">
            <polygon id="Rectangle-path" fill-opacity="0" fill="#FFFFFF" fill-rule="nonzero" points="-3.091e-13 0 48 0 48 48 -3.091e-13 48"></polygon>
            <g id="Color-Style" transform="translate(0.000000, 3.000000)">
                <mask id="mask-2" fill="white">
                    <use xlink:href="#path-1"></use>
                </mask>
                <use id="Mask" fill="#B94033" fill-rule="nonzero" xlink:href="#path-1"></use>
                <polygon fill="#C5281C" mask="url(#mask-2)" points="0 -3 48 -3 48 45 0 45"></polygon>
            </g>
        </g>
    </g>
</svg>