<?xml version="1.0" encoding="UTF-8"?>
<svg width="33px" height="32px" viewBox="0 0 33 32" version="1.1" xmlns="http://www.w3.org/2000/svg" xmlns:xlink="http://www.w3.org/1999/xlink">
    <!-- Generator: sketchtool 60.1 (101010) - https://sketch.com -->
    <title>17E041B5-FF67-49E6-B9F3-2EA0553B3A4E</title>
    <desc>Created with sketchtool.</desc>
    <defs>
        <path d="M28.7000676,31.8232006 C28.8507343,31.7912006 28.9720676,31.6785339 29.0154009,31.5312006 C29.0594009,31.3832006 29.0187343,31.2232006 28.9094009,31.1145339 L24.9327341,27.1378672 C24.6320675,26.8372005 24.6320675,26.3472005 24.9327341,26.0465339 L26.0474008,24.9325339 C26.3487342,24.6318672 26.8380675,24.6318672 27.1387342,24.9325339 L31.115401,28.9085339 C31.2240677,29.0178672 31.3847343,29.0585339 31.5320677,29.0145339 C31.679401,28.9712006 31.791401,28.8505339 31.8240677,28.6992006 C32.387401,26.0625339 31.5747343,23.0992005 29.801401,21.3258672 C28.1014009,19.6258672 25.7214008,19.2978672 23.5247341,20.4385338 L18.9074006,15.8205338 C18.742734,15.6565338 18.476734,15.6565338 18.3120673,15.8205338 C18.1480673,15.9852005 18.1480673,16.2512005 18.3120673,16.4152005 L23.1534008,21.2558672 C23.2874008,21.3912005 23.4967341,21.4185338 23.6620674,21.3225338 C25.6200675,20.1838672 27.6927342,20.4065338 29.2067343,21.9205339 C30.587401,23.3018672 31.3240677,25.5972005 31.1227343,27.7265339 L27.7334009,24.3372005 C27.1047342,23.7092005 26.0820675,23.7085339 25.4527342,24.3372005 L24.3380675,25.4518672 C23.7094008,26.0805339 23.7094008,27.1038672 24.3380675,27.7325339 L27.7280676,31.1225339 C25.5967342,31.3238672 23.3020674,30.5865339 21.9214007,29.2058672 C20.436734,27.7212005 20.1954007,25.6825339 21.2740674,23.7512005 C21.3660674,23.5865339 21.3374007,23.3812005 21.204734,23.2485339 L16.3420672,18.3858672 C16.1774006,18.2218672 15.9114006,18.2218672 15.7474006,18.3858672 C15.5827339,18.5498672 15.5827339,18.8165338 15.7474006,18.9805338 L20.390734,23.6238672 C19.3134007,25.7918672 19.6594007,28.1332005 21.3260674,29.8005339 C22.7254008,31.1985339 24.8627341,32.0005339 26.9974009,31.9998677 C27.5700676,31.9998677 28.1427342,31.9425339 28.7000676,31.8232006 L28.7000676,31.8232006 Z M13.598067,16.2365333 C13.762067,16.0725333 13.762067,15.8058667 13.598067,15.6418667 L8.75206691,10.7958667 C8.61873357,10.6625333 8.4140669,10.6338667 8.24940023,10.7258667 C6.31806684,11.8052 4.27873345,11.5632 2.79473341,10.0792 C1.41340004,8.69786666 0.676733352,6.40253333 0.878066691,4.27253333 L4.26806678,7.66186666 C4.89673347,8.29119999 5.92006683,8.29119999 6.54873351,7.66186666 L7.66273354,6.54786666 C7.96740022,6.24319999 8.13540022,5.83786666 8.13540022,5.40719999 C8.13540022,4.97653333 7.96740022,4.57186666 7.66273354,4.2672 L4.27340012,0.877866666 C6.40273351,0.675866666 8.69873357,1.4132 10.0794003,2.79453333 C11.5934003,4.30786666 11.8167337,6.37986666 10.678067,8.33786666 C10.5814003,8.50319999 10.6087336,8.71186666 10.744067,8.84719999 L15.5680671,13.6712 C15.7327338,13.8358667 15.9987338,13.8358667 16.1627338,13.6712 C16.3274004,13.5072 16.3274004,13.2405333 16.1627338,13.0765333 L11.5614003,8.47586666 C12.702067,6.27919999 12.374067,3.8992 10.674067,2.1992 C8.90140025,0.4252 5.9367335,-0.386133333 3.30073342,0.176533333 C3.15006675,0.2092 3.02940008,0.3212 2.98540008,0.468533333 C2.94206675,0.616533333 2.98273342,0.776533333 3.09140009,0.885199999 L7.06806686,4.86186666 C7.21406687,5.00786666 7.29406687,5.2012 7.29406687,5.40719999 C7.29406687,5.61386666 7.21406687,5.80719999 7.06806686,5.95319999 L5.95406683,7.06719999 C5.65273349,7.36786666 5.16340014,7.36786666 4.86273347,7.06719999 L0.886066691,3.09053333 C0.777400021,2.98186666 0.617400017,2.9412 0.469400013,2.9852 C0.322066675,3.02853333 0.209400006,3.14986666 0.177400005,3.30053333 C-0.385933344,5.93653333 0.426066678,8.89986666 2.20006673,10.6738667 C3.86606677,12.3405333 6.20806684,12.6865333 8.3760669,11.6098667 L13.0034004,16.2365333 C13.0854004,16.3185333 13.1927337,16.3598667 13.3007337,16.3598667 C13.4087337,16.3598667 13.516067,16.3185333 13.598067,16.2365333 L13.598067,16.2365333 Z M23.9433992,6.8771997 L23.9473992,6.8771997 L23.9433992,6.8771997 Z M11.2987332,18.2898673 C11.1027332,18.2898673 10.9073998,18.3652006 10.7580665,18.5138673 L1.05739998,28.2145343 C0.758733322,28.513201 0.758733322,28.9985344 1.05739998,29.2965344 L2.70273329,30.9425344 C3.00139996,31.2405344 3.48673328,31.2405344 3.78539995,30.9425344 L13.4860665,21.2418674 C13.7840665,20.9438674 13.7840665,20.4578674 13.4860665,20.1598674 L13.2527331,19.926534 C13.0893998,19.7638673 13.0893998,19.4998673 13.2527331,19.3372007 L24.8280663,7.7618669 C24.880733,7.70920023 24.946733,7.67120023 25.0193996,7.65253356 L27.3547329,7.05120021 L31.0147329,2.77920005 L29.2213996,0.985199981 L24.9133996,4.68053345 L24.348733,6.97653354 C24.3300663,7.05053354 24.2920663,7.11786688 24.2380663,7.17186688 L12.6627332,18.7472006 C12.5000665,18.9098673 12.2360665,18.9098673 12.0733998,18.7472006 L11.8400665,18.5138673 C11.6907332,18.3652006 11.4947332,18.2898673 11.2987332,18.2898673 L11.2987332,18.2898673 Z M3.24406678,31.9998664 C2.83473344,31.9998664 2.42473342,31.8438664 2.11340008,31.5318664 L0.467400017,29.8865331 C-0.155933339,29.2625331 -0.155933339,28.2485331 0.467400017,27.6251998 L10.168067,17.9238665 C10.7707337,17.3218665 11.7394004,17.3011998 12.3667338,17.8645332 L23.5660675,6.66453327 L24.1354009,4.35119996 C24.1560675,4.26719996 24.2027342,4.19119996 24.2694009,4.1345333 L28.9714011,0.100533332 C29.1367344,-0.0414666663 29.3834011,-0.032133333 29.5380677,0.122533332 L31.8780678,2.46186664 C32.0320678,2.61586664 32.0414012,2.86253331 31.8994012,3.02786664 L27.9027343,7.6938666 C27.847401,7.75853326 27.7727343,7.80519993 27.6900677,7.82653326 L25.3374009,8.43186659 L14.1360672,19.6331998 C14.6987339,20.2605332 14.6787339,21.2285331 14.0754005,21.8318665 L4.37540016,31.5318664 C4.06340015,31.8438664 3.6540668,31.9998664 3.24406678,31.9998664 L3.24406678,31.9998664 Z" id="path-1"></path>
    </defs>
    <g id="Asset-Artboard-Page" stroke="none" stroke-width="1" fill="none" fill-rule="evenodd">
        <g id="icons/products/red/G-communication/g15-appointment-icons/products/red/F-action-navigation/f32-assistance-2tools" transform="translate(0.409779, 0.000000)">
            <g id="icons/products/red/F-action-navigation/f32-assistance-2tools">
                <polygon id="Rectangle-path" fill-opacity="0" fill="#FFFFFF" fill-rule="nonzero" points="0 0 32 0 32 32 0 32"></polygon>
                <mask id="mask-2" fill="white">
                    <use xlink:href="#path-1"></use>
                </mask>
                <use id="f32-assistance-2tools" fill="#C5281C" xlink:href="#path-1"></use>
            </g>
        </g>
    </g>
</svg>