<?xml version="1.0" encoding="UTF-8"?>
<svg width="49px" height="48px" viewBox="0 0 49 48" version="1.1" xmlns="http://www.w3.org/2000/svg" xmlns:xlink="http://www.w3.org/1999/xlink">
    <!-- Generator: sketchtool 62 (101010) - https://sketch.com -->
    <title>6B6B7720-A7E2-4B6F-826E-AC2C8FBD6DB9</title>
    <desc>Created with sketchtool.</desc>
    <defs>
        <path d="M35.0564,45.8079 C29.1414,45.8079 24.3274,40.9959 24.3274,35.0799 C24.3274,29.1649 29.1414,24.3519 35.0564,24.3519 C40.9714,24.3519 45.7854,29.1649 45.7854,35.0799 C45.7854,40.9959 40.9714,45.8079 35.0564,45.8079 L35.0564,45.8079 Z M23.1684,30.1549 C22.9444,30.6969 22.9484,31.2729 22.9514,31.7819 C22.9534,32.1019 22.9564,32.4039 22.9054,32.6639 C22.8724,32.8249 22.8084,32.9999 22.7354,33.1809 L12.7974,44.4389 C11.5914,45.8059 9.9224,46.5909 8.0984,46.6469 C6.2634,46.7119 4.5604,46.0249 3.2684,44.7339 C1.9794,43.4439 1.3004,41.7299 1.3564,39.9069 C1.4144,38.0839 2.1994,36.4149 3.5674,35.2079 L24.7784,16.4819 L24.6434,16.0599 C24.3064,15.0059 24.1264,13.9149 24.1084,12.8179 C24.0104,7.0219 28.6294,1.8979 34.4054,1.3969 C34.7314,1.3689 35.0574,1.3549 35.3834,1.3549 C36.1814,1.3549 36.9744,1.4399 37.7554,1.6099 L31.6434,7.7229 L40.2844,16.3599 L46.3954,10.2479 C46.7924,12.0659 46.7294,13.9239 46.2064,15.7859 C45.2714,19.1069 42.7644,21.7919 39.5894,23.0689 C39.1664,22.9709 38.7394,22.9719 38.3534,22.9749 C38.0344,22.9789 37.7314,22.9789 37.4734,22.9289 C37.2304,22.8809 36.9594,22.7659 36.6744,22.6449 C36.2004,22.4429 35.6624,22.2149 35.0564,22.2149 C34.4514,22.2149 33.9134,22.4429 33.4394,22.6439 C33.1534,22.7659 32.8824,22.8809 32.6394,22.9289 C32.3804,22.9789 32.0754,22.9779 31.7594,22.9749 C31.2484,22.9719 30.6734,22.9669 30.1314,23.1919 C29.5794,23.4209 29.1724,23.8359 28.8134,24.2019 C28.5934,24.4269 28.3854,24.6389 28.1744,24.7799 C27.9594,24.9229 27.6824,25.0359 27.3884,25.1549 C26.9154,25.3469 26.3784,25.5639 25.9604,25.9829 C25.5414,26.4019 25.3244,26.9379 25.1314,27.4119 C25.0124,27.7049 24.9004,27.9819 24.7564,28.1969 C24.6154,28.4079 24.4034,28.6159 24.1784,28.8359 C23.8124,29.1959 23.3974,29.6029 23.1684,30.1549 L23.1684,30.1549 Z M47.2074,32.6629 C47.1574,32.4049 47.1594,32.1029 47.1614,31.7829 C47.1654,31.2739 47.1694,30.6979 46.9454,30.1549 C46.7154,29.6029 46.3004,29.1959 45.9354,28.8369 C45.7104,28.6169 45.4984,28.4089 45.3574,28.1979 C45.2134,27.9829 45.1014,27.7049 44.9814,27.4119 C44.7894,26.9389 44.5734,26.4029 44.1544,25.9829 C43.7354,25.5649 43.1994,25.3479 42.7264,25.1559 C42.4324,25.0369 42.1544,24.9239 41.9404,24.7809 C41.7284,24.6389 41.5214,24.4269 41.3004,24.2029 C41.2094,24.1099 41.1164,24.0149 41.0184,23.9199 C44.1344,22.3629 46.5544,19.5509 47.5094,16.1519 C48.2024,13.6879 48.1604,11.1229 47.3864,8.7349 L47.0454,7.6829 L40.2844,14.4449 L33.5594,7.7229 L40.3214,0.9579 L39.2694,0.6169 C37.6524,0.0929 35.9754,-0.0991 34.2874,0.0479 C27.8194,0.6089 22.6454,6.3479 22.7544,12.8409 C22.7724,13.9219 22.9294,14.9979 23.2254,16.0459 L2.6704,34.1929 C1.0194,35.6499 0.0724,37.6639 0.0044,39.8649 C-0.0656,42.0649 0.7544,44.1349 2.3114,45.6919 C3.8084,47.1889 5.7804,48.0049 7.8854,48.0049 C7.9704,48.0049 8.0554,48.0039 8.1404,48.0009 C10.3424,47.9319 12.3564,46.9859 13.8134,45.3349 L22.2834,35.7409 C22.3684,36.0829 22.4954,36.4029 22.6204,36.6969 C22.7424,36.9829 22.8574,37.2529 22.9054,37.4969 C22.9564,37.7559 22.9534,38.0579 22.9514,38.3779 C22.9484,38.8869 22.9444,39.4629 23.1684,40.0049 C23.3974,40.5569 23.8124,40.9639 24.1784,41.3229 C24.4024,41.5429 24.6144,41.7509 24.7554,41.9629 C24.9004,42.1779 25.0134,42.4559 25.1324,42.7499 C25.3244,43.2229 25.5414,43.7579 25.9594,44.1769 C26.3784,44.5949 26.9134,44.8129 27.3874,45.0049 C27.6814,45.1239 27.9584,45.2369 28.1734,45.3799 C28.3844,45.5219 28.5924,45.7339 28.8134,45.9579 C29.1724,46.3239 29.5794,46.7389 30.1314,46.9679 C30.6724,47.1929 31.2424,47.1879 31.7594,47.1849 C32.0794,47.1829 32.3814,47.1809 32.6394,47.2309 C32.8824,47.2799 33.1534,47.3939 33.4394,47.5159 C33.9134,47.7169 34.4514,47.9449 35.0564,47.9449 C35.6624,47.9449 36.2004,47.7169 36.6744,47.5159 C36.9594,47.3939 37.2304,47.2799 37.4734,47.2309 C37.7314,47.1799 38.0354,47.1819 38.3534,47.1849 C38.8684,47.1879 39.4394,47.1929 39.9814,46.9689 C40.5334,46.7399 40.9404,46.3249 41.2994,45.9589 C41.5204,45.7339 41.7284,45.5219 41.9394,45.3809 C42.1544,45.2369 42.4314,45.1239 42.7254,45.0049 C43.1994,44.8129 43.7354,44.5959 44.1534,44.1769 C44.5714,43.7589 44.7884,43.2239 44.9804,42.7509 C45.0994,42.4569 45.2124,42.1789 45.3574,41.9639 C45.4984,41.7519 45.7104,41.5439 45.9354,41.3239 C46.3014,40.9649 46.7154,40.5579 46.9454,40.0049 C47.1694,39.4629 47.1654,38.8859 47.1614,38.3769 C47.1594,38.0579 47.1574,37.7559 47.2074,37.4969 C47.2554,37.2539 47.3704,36.9839 47.4924,36.6979 C47.6934,36.2239 47.9204,35.6859 47.9204,35.0799 C47.9204,34.4739 47.6934,33.9359 47.4924,33.4619 C47.3704,33.1759 47.2554,32.9069 47.2074,32.6629 L47.2074,32.6629 Z M35.0564,38.1109 L37.9024,39.6069 L37.3584,36.4379 L39.6604,34.1939 L36.4794,33.7319 L35.0564,30.8499 L33.6344,33.7319 L30.4514,34.1939 L32.7544,36.4379 L32.2104,39.6069 L35.0564,38.1109 Z M39.7224,42.1109 L35.0564,39.6589 L30.3924,42.1109 L31.2824,36.9169 L27.5084,33.2379 L32.7244,32.4799 L35.0564,27.7539 L37.3894,32.4799 L42.6044,33.2379 L38.8304,36.9169 L39.7224,42.1109 Z" id="path-1"></path>
    </defs>
    <g id="Page-1" stroke="none" stroke-width="1" fill="none" fill-rule="evenodd">
        <g id="Generali-Group-GDF---Warranty-Icons" transform="translate(-990.000000, -2159.000000)">
            <g id="Assistance-confort" transform="translate(731.000000, 2159.000000)">
                <g id="icons/products/red/F-action-navigation/f34-assistance-premium" transform="translate(259.500000, 0.000000)">
                    <g>
                        <polygon id="Rectangle-path" fill-opacity="0" fill="#FFFFFF" fill-rule="nonzero" points="0 0 48 0 48 48 0 48"></polygon>
                        <mask id="mask-2" fill="white">
                            <use xlink:href="#path-1"></use>
                        </mask>
                        <use id="f34-assistance-premium" fill="#C5281C" xlink:href="#path-1"></use>
                    </g>
                </g>
            </g>
        </g>
    </g>
</svg>