<?xml version="1.0" encoding="UTF-8"?>
<svg width="48px" height="48px" viewBox="0 0 48 48" version="1.1" xmlns="http://www.w3.org/2000/svg" xmlns:xlink="http://www.w3.org/1999/xlink">
    <!-- Generator: sketchtool 62 (101010) - https://sketch.com -->
    <title>873B9252-3B80-4E9F-A083-E4209CF46AE4</title>
    <desc>Created with sketchtool.</desc>
    <defs>
        <path d="M24,46.65 C36.5092496,46.65 46.65,36.5092496 46.65,24 C46.65,11.4907504 36.5092496,1.35 24,1.35 C11.4907504,1.35 1.35,11.4907504 1.35,24 C1.35,36.5092496 11.4907504,46.65 24,46.65 Z M24,48 C10.745166,48 0,37.254834 0,24 C0,10.745166 10.745166,0 24,0 C37.254834,0 48,10.745166 48,24 C48,37.254834 37.254834,48 24,48 Z M12,26.65 C13.4635546,26.65 14.65,25.4635546 14.65,24 C14.65,22.5364454 13.4635546,21.35 12,21.35 C10.5364454,21.35 9.35,22.5364454 9.35,24 C9.35,25.4635546 10.5364454,26.65 12,26.65 Z M12,28 C9.790861,28 8,26.209139 8,24 C8,21.790861 9.790861,20 12,20 C14.209139,20 16,21.790861 16,24 C16,26.209139 14.209139,28 12,28 Z M36,26.65 C37.4635546,26.65 38.65,25.4635546 38.65,24 C38.65,22.5364454 37.4635546,21.35 36,21.35 C34.5364454,21.35 33.35,22.5364454 33.35,24 C33.35,25.4635546 34.5364454,26.65 36,26.65 Z M36,28 C33.790861,28 32,26.209139 32,24 C32,21.790861 33.790861,20 36,20 C38.209139,20 40,21.790861 40,24 C40,26.209139 38.209139,28 36,28 Z M24,26.65 C25.4635546,26.65 26.65,25.4635546 26.65,24 C26.65,22.5364454 25.4635546,21.35 24,21.35 C22.5364454,21.35 21.35,22.5364454 21.35,24 C21.35,25.4635546 22.5364454,26.65 24,26.65 Z M24,28 C21.790861,28 20,26.209139 20,24 C20,21.790861 21.790861,20 24,20 C26.209139,20 28,21.790861 28,24 C28,26.209139 26.209139,28 24,28 Z" id="path-1"></path>
    </defs>
    <g id="Asset-Artboard-Page" stroke="none" stroke-width="1" fill="none" fill-rule="evenodd">
        <g id="icons/products/red/F-action-navigation/f54-other-claims">
            <g>
                <polygon id="Rectangle-path" fill-opacity="0" fill="#FFFFFF" fill-rule="nonzero" points="5.68434189e-14 0 48 0 48 48 5.68434189e-14 48"></polygon>
                <mask id="mask-2" fill="white">
                    <use xlink:href="#path-1"></use>
                </mask>
                <use id="Combined-Shape" fill="#C5281C" xlink:href="#path-1"></use>
            </g>
        </g>
    </g>
</svg>