<?xml version="1.0" encoding="UTF-8"?>
<svg width="49px" height="48px" viewBox="0 0 49 48" version="1.1" xmlns="http://www.w3.org/2000/svg" xmlns:xlink="http://www.w3.org/1999/xlink">
    <!-- Generator: sketchtool 60.1 (101010) - https://sketch.com -->
    <title>A1E7852C-16DD-4D61-8F37-32464BB526E3</title>
    <desc>Created with sketchtool.</desc>
    <defs>
        <path d="M0.7068,33.9816 C1.0908,33.9816 1.4148,34.3056 1.4148,34.6886 L1.4148,39.6026 C1.4148,42.8946 4.0928,45.5726 7.3848,45.5726 L12.7268,45.5726 C13.1098,45.5726 13.4338,45.8966 13.4338,46.2796 C13.4338,46.6316 13.1908,46.9876 12.7268,46.9876 L7.3848,46.9876 C3.3128,46.9876 -0.0002,43.6746 -0.0002,39.6026 L-0.0002,34.6886 C-0.0002,34.3056 0.3238,33.9816 0.7068,33.9816 Z M47.2958,33.9782 C47.6788,33.9782 48.0038,34.3022 48.0038,34.6852 L48.0038,39.5992 C48.0038,43.6712 44.6908,46.9842 40.6188,46.9842 L35.2768,46.9842 C34.8928,46.9842 34.5688,46.6602 34.5688,46.2762 C34.5688,45.8932 34.8928,45.5692 35.2768,45.5692 L40.6188,45.5692 C43.9108,45.5692 46.5888,42.8912 46.5888,39.5992 L46.5888,34.6852 C46.5888,34.3022 46.9128,33.9782 47.2958,33.9782 Z M30.0065,31.9676 C30.2595,33.0876 30.5695,34.1316 30.9275,35.1036 C31.0525,35.4436 30.8795,35.8206 30.5385,35.9456 C30.1985,36.0716 29.8205,35.8976 29.6955,35.5576 C29.3175,34.5336 28.9905,33.4336 28.7275,32.2666 C28.4175,30.9756 27.1495,30.9676 26.6995,32.3206 L26.6715,32.3896 C25.4685,34.9766 23.9935,37.0646 22.4095,38.6926 C22.1565,38.9526 21.7405,38.9576 21.4815,38.7046 C21.2215,38.4526 21.2155,38.0366 21.4685,37.7766 C22.8535667,36.3532667 24.1567489,34.5440311 25.2495868,32.318811 L25.4718,31.8516 L25.525093,31.7084506 C25.8972109,30.7634945 26.485375,30.3456625 27.4585,30.0166 C28.8175,29.9036 29.6195,30.7416 30.0065,31.9676 Z M27.5355,34.0962 L27.5355,34.0952 C27.7405,34.1272 27.8765,34.2272 27.9785,34.3572 C28.0235,34.4132 28.0565,34.4702 28.0865,34.5332 C28.1455,34.6592 28.1945,34.8192 28.2705,35.1002 C28.3005,35.2102 28.4375,35.7412 28.4785,35.8942 C28.5745,36.2552 28.6635,36.5702 28.7595,36.8832 C28.8675,37.2302 28.6735,37.5972 28.3265,37.7042 C27.9795,37.8122 27.6115,37.6172 27.5055,37.2712 C27.3265,36.6692 27.4025,36.9372 27.2735,36.4682 C26.5035,37.7622 26.9185,37.1272 26.0255,38.3692 C25.8075,38.6592 25.3955,38.7152 25.1055,38.4972 C24.8165,38.2782 24.7595,37.8662 24.9785,37.5772 C25.8605,36.4102 26.5345,35.2992 26.7685,34.5952 C26.7975,34.5082 26.8365,34.4292 26.8995,34.3492 C27.0405,34.1712 27.2655,34.0552 27.5355,34.0962 Z M23.4444,15.0075 C25.2604,15.0075 26.7324,16.4795 26.7324,18.2955 C26.7324,27.8225 23.8124,34.0735 19.7444,37.6635 C19.4724,37.9045 19.0574,37.8785 18.8174,37.6065 C18.5774,37.3345 18.6034,36.9195 18.8754,36.6795 C22.6654,33.3345 25.4194,27.4385 25.4194,18.2955 C25.4194,17.2055 24.5354,16.3205 23.4444,16.3205 L23.0464,16.3605 C22.0754,16.6445 21.5694,17.3075 21.4694,18.2955 C21.4694,25.3685 19.0884,30.3945 15.4874,33.6705 C15.2184,33.9145 14.8034,33.8955 14.5594,33.6265 C14.3154,33.3585 14.3354,32.9435 14.6034,32.6995 C17.9394,29.6645 20.1564,24.9855 20.1564,18.2955 C20.1564,16.4795 21.6284,15.0075 23.4444,15.0075 Z M23.4444,17.6393 C23.8074,17.6393 24.1014,17.9333 24.1014,18.2963 C24.1014,26.3963 21.4854,32.2163 17.3874,36.0923 C17.1234,36.3423 16.7084,36.3313 16.4594,36.0673 C16.2094,35.8043 16.2214,35.3883 16.4844,35.1383 C20.3254,31.5053 22.7874,26.0273 22.7874,18.2963 C22.7874,17.9333 23.0814,17.6393 23.4444,17.6393 Z M23.9516,9.6676 L25.1176,9.7096 C25.3006,9.7246 25.4346,9.7396 25.5356,9.7546 C29.1516,10.4116 31.2116,12.9246 31.9036,16.7816 C32.4286,19.7036 32.1506,23.2646 31.3226,26.9916 C31.0276,28.3226 31.6306,30.2266 33.0126,32.7766 C33.1846,33.0956 33.0666,33.4936 32.7476,33.6666 C32.4286,33.8396 32.0296,33.7206 31.8576,33.4026 C30.3316,30.5856 29.6536,28.4476 30.0406,26.7076 C31.9226,18.2386 30.8116,12.0486 25.3256,11.0506 C25.2746,11.0436 25.1676,11.0316 25.0116,11.0186 C23.6676,10.9106 22.1246,11.0226 20.6786,11.5196 C18.0836,12.4116 16.4616,14.3386 16.2036,17.6886 C15.7666,23.3696 14.5256,26.8296 12.8946,28.6096 C12.6496,28.8766 12.2336,28.8946 11.9666,28.6496 C11.6996,28.4046 11.6806,27.9896 11.9266,27.7226 C13.3356,26.1846 14.4776,22.9986 14.8946,17.5876 C15.1936,13.6926 17.1796,11.3346 20.2516,10.2776 C22.2876,9.7126 21.0656,9.9796 23.9516,9.6676 Z M23.4444,12.3757 L24.0344,12.4017 C25.3364,12.4747 26.4034,13.1017 27.4174,13.8577 C28.0424,14.4127 28.4384,14.9727 28.6374,15.3707 C29.8204,17.7357 29.1354,24.3527 28.0154,27.7147 C27.9004,28.0587 27.5284,28.2447 27.1844,28.1307 C26.8404,28.0157 26.6544,27.6437 26.7694,27.2997 C27.7864,24.2467 28.4414,17.9157 27.4624,15.9577 C27.4364,15.9047 27.3674,15.7887 27.2574,15.6327 C27.0664,15.3627 26.8284,15.0917 26.5444,14.8387 C25.7344,14.1187 24.7144,13.6887 23.4444,13.6887 C21.0124,13.6887 18.8374,15.3617 18.8374,18.2957 C18.8374,24.0257 16.8354,28.6587 14.0484,31.5057 C13.7944,31.7657 13.3794,31.7697 13.1194,31.5167 C12.8604,31.2627 12.8564,30.8467 13.1094,30.5877 C15.6624,27.9787 17.5244,23.6717 17.5244,18.2957 C17.5244,14.5497 20.3504,12.3757 23.4444,12.3757 Z M23.4924,6.949 L24.8134,6.955 L26.1964,7.121 C31.4334,7.994 34.0964,11.676 34.7224,17.142 C35.0074,19.627 34.8494,22.271 34.4144,24.841 C34.3154,25.422 34.2104,25.952 34.1044,26.422 C34.0404,26.706 33.9904,26.909 33.9614,27.018 C33.8094,27.586 34.0594,28.547 34.6674,29.751 C34.8314,30.076 34.7014,30.471 34.3774,30.634 C34.0534,30.798 33.6594,30.667 33.4954,30.344 C32.7534,28.873 32.4344,27.648 32.6914,26.679 C32.7174,26.585 32.7624,26.399 32.8234,26.133 C32.9244,25.685 33.0244,25.178 33.1194,24.621 C33.5364,22.164 33.6874,19.636 33.4184,17.291 C32.8524,12.352 30.5574,9.179 25.9804,8.417 C19.2614,7.297 13.9724,11.332 13.5844,16.373 C13.2714,20.443 12.7884,22.856 12.1854,24.026 C12.0194,24.349 11.6234,24.475 11.3004,24.309 C10.9784,24.143 10.8514,23.747 11.0174,23.425 C11.5204,22.45 11.9744,20.18 12.2754,16.272 C12.8124,11.132 17.1834,7.562 22.1754,7.005 L23.4924,6.949 Z M12.7898,-0.997 C13.1718,-0.997 13.4968,-0.673 13.4968,-0.29 C13.4968,0.094 13.1718,0.418 12.7898,0.418 L7.4478,0.418 C4.1558,0.418 1.4778,3.096 1.4778,6.388 L1.4778,12.103 C1.4778,12.487 1.1538,12.811 0.7698,12.811 C0.3868,12.811 0.0628,12.487 0.0628,12.103 L0.0628,6.388 C0.0628,2.316 3.3748,-0.997 7.4478,-0.997 L12.7898,-0.997 Z M40.6274,-1.0004 C44.7004,-1.0004 48.0124,2.3126 48.0124,6.3846 L48.0124,12.0996 C48.0124,12.4836 47.6884,12.8076 47.3044,12.8076 C46.9214,12.8076 46.5974,12.4836 46.5974,12.0996 L46.5974,6.3846 C46.5974,3.0926 43.9194,0.4146 40.6274,0.4146 L35.2854,0.4146 C34.9024,0.4146 34.5774,0.0906 34.5774,-0.2934 C34.5774,-0.6764 34.9024,-1.0004 35.2854,-1.0004 L40.6274,-1.0004 Z" id="path-1"></path>
    </defs>
    <g id="Asset-Artboard-Page" stroke="none" stroke-width="1" fill="none" fill-rule="evenodd">
        <g id="icons/products/red/F-action-navigation/f09-edit-icons/products/white/F-action-navigation/f59-touch-ID" transform="translate(0.818870, 0.000000)">
            <g id="icons/products/white/F-action-navigation/f59-touch-ID" transform="translate(0.000000, 1.000000)">
                <polygon id="Rectangle-path" fill-opacity="0" fill="#FFFFFF" fill-rule="nonzero" points="-8.17e-14 -1 48 -1 48 47 -8.17e-14 47"></polygon>
                <mask id="mask-2" fill="white">
                    <use xlink:href="#path-1"></use>
                </mask>
                <use id="Mask" fill="#FFFFFF" xlink:href="#path-1"></use>
                <polygon id="Color-Style" fill="#FFFFFF" mask="url(#mask-2)" points="0 -1 48 -1 48 47 0 47"></polygon>
            </g>
        </g>
    </g>
</svg>