<?xml version="1.0" encoding="UTF-8"?>
<svg width="24px" height="24px" viewBox="0 0 24 24" version="1.1" xmlns="http://www.w3.org/2000/svg" xmlns:xlink="http://www.w3.org/1999/xlink">
    <!-- Generator: sketchtool 63.1 (101010) - https://sketch.com -->
    <title>9A7F9403-03F8-4E0F-B5B4-0ED7E005690B</title>
    <desc>Created with sketchtool.</desc>
    <defs>
        <path d="M22.89975,20.79885 L22.61525,21.08285 C21.23325,20.49835 16.17625,17.47735 14.28225,16.20085 L15.06375,15.42035 C15.52775,14.94635 16.25225,14.84985 16.82675,15.18485 L22.58575,18.49435 C22.98725,18.72385 23.24975,19.11285 23.30575,19.56185 C23.36225,20.01485 23.21175,20.46785 22.89975,20.79885 L22.89975,20.79885 Z M21.19125,22.50585 C20.65175,23.04485 19.88225,23.31835 18.90425,23.31835 C17.90725,23.31835 16.70225,23.03235 15.42075,22.49135 C12.78775,21.38385 9.89625,19.33335 7.27775,16.71735 C4.65725,14.11035 2.60525,11.22185 1.50075,8.58485 C0.40875,5.94685 0.40325,3.89885 1.48525,2.81785 L2.20175,2.10135 C3.02325,3.87885 5.94175,8.73735 7.22725,10.31435 C6.82975,10.83385 5.99925,12.04235 6.41975,12.55385 C7.12225,13.42835 7.92175,14.31485 8.79525,15.18735 C9.61275,16.01585 10.50075,16.81535 11.43125,17.56185 C11.99375,18.02285 13.32725,17.03985 13.77575,16.68135 C15.46025,17.83235 20.27375,20.74085 22.10025,21.59785 L21.19125,22.50585 Z M3.19375,1.11085 C3.51675,0.78835 3.96375,0.63735 4.42025,0.69335 C4.86975,0.74935 5.25925,1.01185 5.48925,1.41335 L8.79975,7.16435 C9.12575,7.73935 9.02825,8.46535 8.56325,8.93035 L7.69025,9.80235 C6.31625,8.08035 3.23225,2.82985 2.71975,1.58435 L3.19375,1.11085 Z M23.98325,19.47785 C23.89975,18.81335 23.51425,18.23935 22.92525,17.90285 L17.16875,14.59485 C16.32575,14.10335 15.25925,14.24635 14.57875,14.94035 L13.51475,16.00385 C13.51225,16.00635 13.50875,16.00885 13.50625,16.01185 L13.44325,16.07485 C13.14375,16.37435 12.12725,17.00085 11.82825,17.00585 C10.92725,16.28135 10.07075,15.50835 9.27975,14.70685 C8.43425,13.86235 7.66125,13.00735 6.97925,12.16135 C6.98725,11.86785 7.60825,10.86135 7.91025,10.54735 C7.91075,10.54635 7.91175,10.54585 7.91225,10.54485 L9.04575,9.41285 C9.72725,8.73135 9.87025,7.66885 9.39275,6.82635 L6.08075,1.07435 C5.74425,0.48585 5.16975,0.09985 4.50475,0.01685 C3.83875,-0.06465 3.18375,0.15635 2.71125,0.62835 L1.00275,2.33585 C-0.28725,3.62435 -0.33425,5.93585 0.87025,8.84685 C2.00925,11.56535 4.11375,14.53185 6.79575,17.19985 C9.47475,19.87685 12.44325,21.97885 15.15575,23.11985 C16.53975,23.70385 17.80125,23.99985 18.90425,23.99985 C20.07025,23.99985 21.00175,23.65985 21.67375,22.98785 L22.93325,21.72935 C22.93925,21.72385 22.94525,21.71835 22.95075,21.71185 L23.38925,21.27385 C23.84825,20.78735 24.06475,20.13235 23.98325,19.47785 L23.98325,19.47785 Z" id="path-1"></path>
    </defs>
    <g id="Breakpoint-S" stroke="none" stroke-width="1" fill="none" fill-rule="evenodd">
        <g id="24_My-contacts_S" transform="translate(-62.000000, -268.000000)">
            <g id="11_Covers/02_Special_Pages/11.02.01_Cover_Agents/S" transform="translate(0.000000, 56.000000)">
                <g id="Action-1" transform="translate(30.000000, 202.000000)">
                    <g id="99/Pieces/Items/Action-button" transform="translate(22.000000, 0.000000)">
                        <g id="Group">
                            <g id="icons/products/red/A-car-home/_placeholder" transform="translate(10.000000, 10.000000)">
                                <g id="icons/products/red/G-communication/g12-phone">
                                    <polygon id="Rectangle-path" fill-opacity="0" fill="#FFFFFF" fill-rule="nonzero" points="-1.5455e-13 0 24 0 24 24 -1.5455e-13 24"></polygon>
                                    <mask id="mask-2" fill="white">
                                        <use xlink:href="#path-1"></use>
                                    </mask>
                                    <use id="Mask" fill="#C5281C" xlink:href="#path-1"></use>
                                    <polygon id="Color-Style" fill="#C5281C" mask="url(#mask-2)" points="0 0 24 0 24 24 0 24"></polygon>
                                </g>
                            </g>
                        </g>
                    </g>
                </g>
            </g>
        </g>
    </g>
</svg>