<?xml version="1.0" encoding="UTF-8"?>
<svg width="49px" height="48px" viewBox="0 0 49 48" version="1.1" xmlns="http://www.w3.org/2000/svg" xmlns:xlink="http://www.w3.org/1999/xlink">
    <!-- Generator: sketchtool 60.1 (101010) - https://sketch.com -->
    <title>F43DC8D9-8C3E-4378-BF0F-ED6C60C220F5</title>
    <desc>Created with sketchtool.</desc>
    <defs>
        <path d="M34.6187672,19.2153 L36.0157594,24.4963 C36.3217962,25.6563 36.6054649,26.7293 36.8016946,27.8033 L36.8677822,27.8033 C37.1077314,26.7513 37.4564711,25.6343 37.8062275,24.5183 L39.5306079,19.2153 L41.1461978,19.2153 L42.7821224,24.4113 C43.1755984,25.6563 43.4816352,26.7513 43.7215844,27.8033 L43.7876721,27.8033 C43.9615336,26.7513 44.2452023,25.6563 44.5949587,24.4323 L46.1007414,19.2153 L48,19.2153 L44.5949587,29.6063 L42.8482101,29.6063 L41.2336369,24.6473 C40.8625291,23.4873 40.5564923,22.4573 40.294175,21.2333 L40.2504554,21.2333 C39.9881381,22.4783 39.6617666,23.5523 39.2906588,24.6683 L37.5876297,29.6063 L35.8408812,29.6063 L32.6544376,19.2153 L34.6187672,19.2153 Z M18.29104,19.2153 L19.6880322,24.4963 C19.9940691,25.6563 20.2787545,26.7293 20.4749841,27.8033 L20.5400551,27.8033 C20.781021,26.7513 21.1287439,25.6343 21.4785003,24.5183 L23.2028807,19.2153 L24.8184707,19.2153 L26.455412,24.4113 C26.8478712,25.6563 27.1539081,26.7513 27.394874,27.8033 L27.4599449,27.8033 C27.6348231,26.7513 27.9174751,25.6563 28.2672315,24.4323 L29.7730142,19.2153 L31.6732896,19.2153 L28.2672315,29.6063 L26.5204829,29.6063 L24.9059098,24.6473 C24.5348019,23.4873 24.2287651,22.4573 23.9664478,21.2333 L23.9227282,21.2333 C23.6614277,22.4783 23.3340394,23.5523 22.9629316,24.6683 L21.2599026,29.6063 L19.5141707,29.6063 L16.3277272,19.2153 L18.29104,19.2153 Z M1.96432959,19.2153 L3.36132175,24.4963 C3.66735861,25.6563 3.95102732,26.7293 4.14725694,27.8033 L4.21334463,27.8033 C4.45329379,26.7513 4.80203347,25.6343 5.15178988,24.5183 L6.8761703,19.2153 L8.49176022,19.2153 L10.1276848,24.4113 C10.5211608,25.6563 10.8271976,26.7513 11.0671468,27.8033 L11.1322178,27.8033 C11.307096,26.7513 11.5907647,25.6563 11.9395043,24.4323 L13.4463037,19.2153 L15.3455624,19.2153 L11.9395043,29.6063 L10.1937725,29.6063 L8.57919932,24.6473 C8.20707477,23.4873 7.90205465,22.4573 7.63973734,21.2333 L7.59601779,21.2333 C7.33370049,22.4783 7.00732896,23.5523 6.63622114,24.6683 L4.93319212,29.6063 L3.18644355,29.6063 L0,19.2153 L1.96432959,19.2153 Z M29.082652,46.0813 C31.0479983,44.4903 32.7398433,41.9773 34.0229612,38.8113 L41.3739462,38.8113 C38.2169879,42.3943 33.9406058,44.9943 29.082652,46.0813 L29.082652,46.0813 Z M24.7289981,46.6093 L24.7289981,38.8113 L32.5293794,38.8113 C30.6108028,43.2973 27.8391866,46.2463 24.7289981,46.6093 L24.7289981,46.6093 Z M23.3574243,46.6093 C20.2645202,46.2283 17.5162889,43.2733 15.6038128,38.8113 L23.3472569,38.8113 L23.3472569,40.0363 L23.3503071,45.3213 C23.3513239,45.8423 23.3513239,46.2593 23.3574243,46.5973 L23.3574243,46.6093 Z M6.64130481,38.8113 L14.1000635,38.8113 C15.3902987,41.9983 17.0963779,44.5253 19.0790087,46.1143 C14.1600508,45.0473 9.83079856,42.4303 6.64130481,38.8113 L6.64130481,38.8113 Z M43.5802584,38.2663 C44.6945986,36.7893 45.6381275,35.1803 46.388477,33.4703 L44.8755772,33.4703 C44.2116501,34.8833 43.4135141,36.2233 42.4801525,37.4613 L34.5343783,37.4613 C34.9685236,36.2143 35.3386147,34.8763 35.6456683,33.4703 L34.2303749,33.4703 C33.9080703,34.8833 33.5206948,36.2233 33.0672315,37.4613 L24.7289981,37.4613 L24.7289981,33.4703 L23.3492904,33.4703 L23.3482737,37.4613 L15.0669773,37.4613 C14.6124974,36.2233 14.2251218,34.8833 13.9028172,33.4703 L12.4763398,33.4703 C12.7833933,34.8763 13.1534844,36.2143 13.5886465,37.4613 L5.53611523,37.4613 C4.60275365,36.2233 3.80360093,34.8833 3.1396738,33.4703 L1.63490786,33.4703 C2.44219445,35.3093 3.47011226,37.0333 4.69629316,38.6013 C4.70137683,38.6053 4.70341029,38.6113 4.70849396,38.6153 C9.12925228,44.2603 16.0410083,47.9223 23.8119043,47.9943 C23.858674,47.9983 23.9125609,47.9993 23.969498,47.9993 L23.9715315,48.0003 C23.9766151,48.0003 23.9806821,47.9993 23.984749,47.9993 C24.0050837,48.0003 24.0223681,48.0003 24.0437196,48.0003 C24.0477865,48.0003 24.04982,47.9983 24.0538869,47.9983 C24.0579538,47.9983 24.0630375,47.9973 24.0671044,47.9973 C24.0711714,47.9973 24.0752383,48.0003 24.0793052,48.0003 C24.1199746,48.0003 24.1606439,47.9953 24.2013133,47.9943 C31.9112053,47.9233 38.774158,44.3183 43.2,38.7493 L43.5802584,38.2663 Z M19.0790087,1.8853 C17.0475747,3.5133 15.3059098,6.1253 14.0044906,9.4233 L6.43490786,9.4233 C9.64168608,5.6823 14.0543105,2.9753 19.0790087,1.8853 L19.0790087,1.8853 Z M23.3553908,9.4233 L15.5041728,9.4233 C17.4186825,4.8293 20.2106333,1.7783 23.3574243,1.3913 L23.3553908,9.4233 Z M24.7289981,1.3903 C27.8930735,1.7593 30.7084092,4.8053 32.630036,9.4233 L24.7289981,9.4233 L24.7289981,1.3903 Z M41.5803431,9.4233 L34.1185342,9.4233 C32.8252489,6.1463 31.0968015,3.5493 29.082652,1.9183 C34.0473628,3.0293 38.4050837,5.7183 41.5803431,9.4233 L41.5803431,9.4233 Z M4.33636941,9.8703 C3.21389536,11.3813 2.26833298,13.0273 1.52408388,14.7753 L3.02986655,14.7753 C3.67345901,13.3603 4.45227706,12.0173 5.36632069,10.7733 L13.510358,10.7733 C13.0843465,12.0263 12.7223893,13.3673 12.4244863,14.7753 L13.8479136,14.7753 C14.1610676,13.3603 14.5392925,12.0183 14.9836052,10.7733 L23.3543741,10.7733 L23.3533573,14.7753 L24.7289981,14.7753 L24.7289981,10.7733 L33.149587,10.7733 C33.5928829,12.0173 33.9711078,13.3603 34.2842618,14.7753 L35.6985384,14.7753 C35.3996187,13.3673 35.0376615,12.0263 34.6116501,10.7733 L42.6489303,10.7733 C43.5629739,12.0173 44.341792,13.3603 44.9864012,14.7753 L46.4911671,14.7753 C45.7418344,13.0153 44.7901716,11.3593 43.6575302,9.8403 C43.6178776,9.7483 43.5568735,9.6703 43.482652,9.6043 C39.0700275,3.8323 32.0759161,0.0773 24.2013133,0.0063 C24.1606439,0.0053 24.1199746,0.0003 24.0793052,0.0003 C24.0752383,0.0003 24.0711714,0.0023 24.0671044,0.0023 C24.0630375,0.0023 24.0589706,0.0023 24.0538869,0.0023 C24.0508367,0.0023 24.0477865,0.0003 24.0437196,0.0003 L24.0437196,0.0003 C24.0315187,0.0003 24.0193179,0.0013 24.0071171,0.0013 C23.9959331,0.0013 23.984749,0.0003 23.9715315,0.0003 C23.9684813,0.0003 23.9654311,0.0023 23.9623809,0.0023 C16.0379581,0.0283 8.99199322,3.7873 4.5498835,9.5823 L4.33636941,9.8703 Z" id="path-1"></path>
    </defs>
    <g id="Asset-Artboard-Page" stroke="none" stroke-width="1" fill="none" fill-rule="evenodd">
        <g id="icons/products/red/G-communication/g53-site-www" transform="translate(0.382023, 0.000000)">
            <g>
                <polygon id="Rectangle-path" fill-opacity="0" fill="#FFFFFF" fill-rule="nonzero" points="-3.091e-13 0 48 0 48 48 -3.091e-13 48"></polygon>
                <mask id="mask-2" fill="white">
                    <use xlink:href="#path-1"></use>
                </mask>
                <use id="g53-site-www" fill="#C5281C" xlink:href="#path-1"></use>
                <polygon id="Color-Style" fill="#C5281C" mask="url(#mask-2)" points="0 0 48 0 48 48 0 48"></polygon>
            </g>
        </g>
    </g>
</svg>