<?xml version="1.0" encoding="UTF-8"?>
<svg width="49px" height="48px" viewBox="0 0 49 48" version="1.1" xmlns="http://www.w3.org/2000/svg" xmlns:xlink="http://www.w3.org/1999/xlink">
    <!-- Generator: sketchtool 60.1 (101010) - https://sketch.com -->
    <title>7648CECF-FBCC-49A4-9FBA-5157990DB757</title>
    <desc>Created with sketchtool.</desc>
    <defs>
        <path d="M23.9337981,47.277539 C19.9409998,47.2829704 16.0116091,46.2790611 12.5107268,44.3590897 L1.24812007,47.9695424 C0.902987569,48.0565629 0.53758866,47.9541352 0.287976685,47.7003974 C0.0383647102,47.4466596 -0.058059516,47.0796307 0.0346067909,46.7359711 L3.71526277,35.9647871 C1.48504102,32.3205019 0.301792756,28.1322889 0.295361711,23.8597414 C0.205935093,14.2793151 5.9082101,5.59239827 14.7338312,1.86399691 C23.5594523,-1.86440445 33.7627408,0.10317519 40.5691108,6.84601523 C47.3754808,13.5888553 49.4386548,23.7732442 45.7931793,32.6334402 C42.1477037,41.4936361 33.5146417,47.2771216 23.9337981,47.277539 Z M23.9337981,4.15230727 C13.0100827,4.119361 4.12153838,12.9361149 4.06627546,23.8597414 C4.06377222,28.0153147 5.38843585,32.0630932 7.84722534,35.4131901 L5.37005361,42.734386 L13.0021495,40.3073594 C20.0439722,45.0570872 29.3328888,44.7772142 36.075981,39.6121499 C42.8190731,34.4470856 45.5086708,25.551673 42.7569887,17.5157893 C40.0053066,9.47990566 32.427586,4.1002727 23.9337981,4.15230727 L23.9337981,4.15230727 Z M35.8583211,29.2252753 C35.7179146,28.9845785 35.3267823,28.844172 34.7551272,28.5533299 C34.1834722,28.2624879 31.3251971,26.878481 30.7435131,26.6879294 C30.161829,26.4973777 29.8208418,26.3970873 29.4397385,26.9787714 C29.0586351,27.5604554 27.9955574,28.8742591 27.6545702,29.2252753 C27.313583,29.5762916 26.9826248,29.6565238 26.4009408,29.3757108 C24.7061801,28.7047256 23.139006,27.7481388 21.7675264,26.5475229 C20.49707,25.3788214 19.4085767,24.0266559 18.538177,22.5359087 C18.2072189,21.9642537 18.538177,21.6533536 18.798932,21.3725406 C19.0596869,21.0917276 19.370587,20.7005952 19.661429,20.3696371 C19.9062647,20.0675965 20.1025159,19.7292325 20.2431131,19.3667335 C20.3971264,19.0454737 20.3782589,18.6681247 20.1929679,18.36383 C20.0525614,18.072988 18.8891933,15.2448 18.4077996,14.10149 C17.9264059,12.9581799 17.2945767,13.0384122 16.9535895,13.0384122 C16.6184967,13.0293563 16.2832041,13.046121 15.9506859,13.0885574 C15.3647641,13.1318359 14.8151434,13.3888014 14.4062145,13.810648 C13.0917169,15.0544008 12.3633243,16.7952591 12.4004074,18.6045269 C12.4004074,21.4327148 14.4764177,24.1606125 14.7672597,24.5517448 C15.0581018,24.9428772 18.7788739,30.9201823 24.6659177,33.2268604 C30.5529614,35.5335386 30.5529614,34.7613028 31.6160392,34.6610125 C32.6791169,34.5607221 35.0359402,33.2770056 35.527363,31.9331149 C35.9021708,31.0828531 36.0173131,30.1407792 35.8583211,29.2252753 L35.8583211,29.2252753 Z" id="path-1"></path>
    </defs>
    <g id="Asset-Artboard-Page" stroke="none" stroke-width="1" fill="none" fill-rule="evenodd">
        <g id="icons/products/red/G-communication/g66-whatsapp" transform="translate(0.382023, 0.000000)">
            <g>
                <polygon id="Rectangle-path" fill-opacity="0" fill="#FFFFFF" fill-rule="nonzero" points="0 0 48 0 48 48 0 48"></polygon>
                <mask id="mask-2" fill="white">
                    <use xlink:href="#path-1"></use>
                </mask>
                <use id="Shape" fill="#C5281C" fill-rule="nonzero" xlink:href="#path-1"></use>
                <polygon id="Color-Style" fill="#C5281C" mask="url(#mask-2)" points="0 0 48 0 48 48 0 48"></polygon>
            </g>
        </g>
    </g>
</svg>