<?xml version="1.0" encoding="UTF-8"?>
<svg width="48px" height="48px" viewBox="0 0 48 48" version="1.1" xmlns="http://www.w3.org/2000/svg" xmlns:xlink="http://www.w3.org/1999/xlink">
    <!-- Generator: sketchtool 62 (101010) - https://sketch.com -->
    <title>0841C235-D00A-4E44-8340-4BF0F881C7A1</title>
    <desc>Created with sketchtool.</desc>
    <defs>
        <path d="M28.9775424,10 C30.1304344,10 31.0927303,10.8123087 31.3354617,11.8974798 L43.0921359,11.8977663 C43.4240135,11.8977663 43.743702,11.9639888 44.0363509,12.0853649 L44.1852433,12.153234 L44.1852433,12.153234 L44.2593962,12.1913106 L44.2593962,12.1913106 C44.7750914,12.4660508 45.1836961,12.917823 45.3884432,13.4785086 L45.4436548,13.6499136 L47.9730485,22.6775053 L48,22.8735934 C48,22.928731 47.9951396,22.9825917 47.9858387,23.034813 L48,23.150594 L48,31.8073976 C48,33.0924782 46.9891209,34.1399291 45.7158602,34.221669 L45.5553902,34.2268041 L45.1054196,34.2274038 C44.7496906,36.9052029 42.4571827,38.9712199 39.6821306,38.9712199 C36.9070785,38.9712199 34.6145705,36.9052029 34.2588415,34.2274038 L31.3939794,34.2268041 L31.3945447,34.6386598 C31.3945447,35.9279453 30.3988339,36.9857086 29.1366505,37.0682668 L28.9775424,37.0734536 L23.3435486,37.0734536 C22.0604252,37.0734536 21.0133895,36.0672617 20.9316796,34.7985608 L20.9265464,34.6386598 L20.9260619,34.4632577 L19.4488356,34.4640916 C19.0052743,36.9591198 16.87062,38.8692706 14.2721476,38.9672692 L14.0622852,38.9712199 C11.2872331,38.9712199 8.99472517,36.9052029 8.63899617,34.2274038 L6.75588488,34.2268041 C5.46930366,34.2268041 4.4090524,33.246038 4.32629083,31.996938 L4.32109107,31.8394545 L4.32101031,27.5838144 L3.46326031,27.584622 C2.15798744,27.584622 1.08869778,26.5723071 1.00524304,25.2910049 L1,25.129495 L1,12.455127 C1,11.1526998 2.01707875,10.0882878 3.30138452,10.0052187 L3.46326031,10 L28.9775424,10 Z M14.0622852,29.4823883 C11.8434196,29.4823883 10.0446735,31.2811343 10.0446735,33.5 C10.0446735,35.7188657 11.8434196,37.5176117 14.0622852,37.5176117 C16.2811509,37.5176117 18.0798969,35.7188657 18.0798969,33.5 C18.0798969,31.2811343 16.2811509,29.4823883 14.0622852,29.4823883 Z M39.6821306,29.4823883 C37.4632649,29.4823883 35.6645189,31.2811343 35.6645189,33.5 C35.6645189,35.7188657 37.4632649,37.5176117 39.6821306,37.5176117 C41.9009962,37.5176117 43.6997423,35.7188657 43.6997423,33.5 C43.6997423,31.2811343 41.9009962,29.4823883 39.6821306,29.4823883 Z M14.0622852,30.8754296 C15.5117955,30.8754296 16.6868557,32.0504898 16.6868557,33.5 C16.6868557,34.9495102 15.5117955,36.1245704 14.0622852,36.1245704 C12.612775,36.1245704 11.4377148,34.9495102 11.4377148,33.5 C11.4377148,32.0504898 12.612775,30.8754296 14.0622852,30.8754296 Z M39.6821306,30.8754296 C41.1316408,30.8754296 42.306701,32.0504898 42.306701,33.5 C42.306701,34.9495102 41.1316408,36.1245704 39.6821306,36.1245704 C38.2326204,36.1245704 37.0575601,34.9495102 37.0575601,33.5 C37.0575601,32.0504898 38.2326204,30.8754296 39.6821306,30.8754296 Z M29.9403711,27.5838144 L22.3796701,27.5838144 L22.3801546,34.6386598 C22.3801546,35.1434197 22.7535409,35.5567906 23.2315131,35.6132683 L23.3435486,35.6198454 L28.9775424,35.6198454 C29.4700143,35.6198454 29.8785771,35.2425287 29.9344306,34.7533997 L29.9409364,34.6386598 L29.9403711,27.5838144 Z M14.0622852,32.3290378 C13.4155807,32.3290378 12.891323,32.8532954 12.891323,33.5 C12.891323,34.1467046 13.4155807,34.6709622 14.0622852,34.6709622 C14.7089898,34.6709622 15.2332474,34.1467046 15.2332474,33.5 C15.2332474,32.8532954 14.7089898,32.3290378 14.0622852,32.3290378 Z M39.6821306,32.3290378 C39.035426,32.3290378 38.5111684,32.8532954 38.5111684,33.5 C38.5111684,34.1467046 39.035426,34.6709622 39.6821306,34.6709622 C40.3288351,34.6709622 40.8530928,34.1467046 40.8530928,33.5 C40.8530928,32.8532954 40.3288351,32.3290378 39.6821306,32.3290378 Z M20.9260619,27.5838144 L5.77461856,27.5838144 L5.77461856,31.8394545 C5.77461856,32.3139894 6.14958703,32.7123589 6.64062448,32.7668478 L6.75588488,32.7731959 L8.63886757,32.773565 C8.9941723,30.0952954 11.2868985,28.0287801 14.0622852,28.0287801 C16.918885,28.0287801 19.2641639,30.2180051 19.5118803,33.0102137 L20.9260619,33.0096495 L20.9260619,27.5838144 Z M35.6336701,13.3510515 L31.3939794,13.3510515 L31.3939794,32.7731959 L34.2587129,32.773565 C34.6140177,30.0952954 36.9067439,28.0287801 39.6821306,28.0287801 C42.4575173,28.0287801 44.7502435,30.0952954 45.1055482,32.773565 L45.5553902,32.7731959 C46.0684435,32.7731959 46.4870698,32.3944134 46.5406064,31.9122096 L46.5463918,31.8073976 L46.5463918,27.5838144 L44.2288624,27.584622 C43.8274596,27.584622 43.5020583,27.2592207 43.5020583,26.8578179 C43.5020583,26.4898653 43.7754857,26.1857751 44.1302394,26.1376486 L44.2288624,26.1310137 L46.5463918,26.1302062 L46.5463918,23.7889278 L36.9353635,23.7890893 C36.2656753,23.7890893 35.7040203,23.2895348 35.6402605,22.6369918 L35.6342354,22.5129318 L35.6336701,13.3510515 Z M28.9312844,11.4536082 L3.46326031,11.4536082 C2.94210816,11.4536082 2.51425423,11.8448774 2.45952327,12.3461339 L2.45360825,12.455127 L2.45360825,25.129495 C2.45360825,25.6450288 2.84671871,26.070667 3.35311486,26.1251274 L3.46326031,26.1310137 L28.9312844,26.1310137 C29.4524365,26.1310137 29.8802904,25.7397446 29.9350214,25.238488 L29.9409364,25.129495 L29.9409364,12.455127 C29.9409364,11.9395932 29.547826,11.513955 29.0414298,11.4594946 L28.9312844,11.4536082 Z M43.0795613,13.3513746 L37.0872784,13.3510515 L37.0872784,22.3353196 L46.2983093,22.3353196 L44.0500618,14.0697691 C43.9725638,13.7848432 43.7686362,13.5571594 43.5054843,13.4393206 C43.4427786,13.4121692 43.3766046,13.390697 43.3078278,13.3757707 L43.2028187,13.358399 L43.0795613,13.3513746 Z" id="path-1"></path>
    </defs>
    <g id="Asset-Artboard-Page" stroke="none" stroke-width="1" fill="none" fill-rule="evenodd">
        <g id="icons/products/red/H-others-GFrance/h01-transport-truck">
            <mask id="mask-2" fill="white">
                <use xlink:href="#path-1"></use>
            </mask>
            <use id="Shape" fill="#000000" fill-rule="nonzero" xlink:href="#path-1"></use>
            <polygon id="Color-Style" fill="#C5281C" mask="url(#mask-2)" points="0 0 48 0 48 48 0 48"></polygon>
        </g>
    </g>
</svg>