<?xml version="1.0" encoding="UTF-8"?>
<svg width="48px" height="48px" viewBox="0 0 48 48" version="1.1" xmlns="http://www.w3.org/2000/svg" xmlns:xlink="http://www.w3.org/1999/xlink">
    <!-- Generator: sketchtool 62 (101010) - https://sketch.com -->
    <title>9BEC9C1C-51FE-4E7A-81B1-72509EC0410A</title>
    <desc>Created with sketchtool.</desc>
    <defs>
        <path d="M21.0680234,29.499813 C23.5826972,29.499813 25.6215299,31.5355935 25.6215299,34.0472156 C25.6215299,36.5588376 23.5826972,38.5946182 21.0680234,38.5946182 C18.5532623,38.5946182 16.5139065,36.5587507 16.5139065,34.0472156 C16.5139065,31.5356805 18.5532623,29.499813 21.0680234,29.499813 Z M21.0680234,30.7205922 C19.2270127,30.7205922 17.7346857,32.2103665 17.7346857,34.0472156 C17.7346857,35.8840646 19.2270127,37.373839 21.0680234,37.373839 C22.9088885,37.373839 24.4007506,35.8842101 24.4007506,34.0472156 C24.4007506,32.210221 22.9088885,30.7205922 21.0680234,30.7205922 Z M21.0680234,31.7790078 C22.3211627,31.7790078 23.3386727,32.7949679 23.3386727,34.0472156 C23.3386727,35.2985944 22.3208101,36.3154234 21.0680234,36.3154234 C19.815671,36.3154234 18.797374,35.2984187 18.797374,34.0472156 C18.797374,32.7951435 19.8153183,31.7790078 21.0680234,31.7790078 Z M21.0680234,32.999787 C20.4890506,32.999787 20.0181532,33.4698477 20.0181532,34.0472156 C20.0181532,34.6238536 20.489542,35.0946442 21.0680234,35.0946442 C21.6468699,35.0946442 22.1178935,34.6240988 22.1178935,34.0472156 C22.1178935,33.4696026 21.6473612,32.999787 21.0680234,32.999787 Z M27.3447818,9.45803636 C34.5641909,9.45803636 40.4836031,15.246286 40.6012694,22.3723902 L40.6030545,22.5887377 L40.6026883,30.1255844 L45.745587,30.1258286 C46.8246013,30.1258286 47.7201578,30.9422423 47.8347697,31.9868488 L47.844034,32.0996173 L47.8471584,32.2139714 C47.8471584,33.3251229 46.9633164,34.2370202 45.8604326,34.2965787 L45.745587,34.2996727 L25.6228727,34.2996727 L25.6228727,33.6892831 C25.6228727,31.1160864 23.5132027,29.0271273 20.9070026,29.0271273 C18.3518197,29.0271273 16.2730789,31.036805 16.1940723,33.5413949 L16.1917429,33.6892831 L16.1917429,34.2996727 L5.15223636,34.2996727 C3.16662495,34.2996727 1.53332495,32.7279715 1.46010967,30.7731069 L1.45754805,30.6361143 L1.45754805,13.1215948 C1.45754805,11.1495515 3.04572052,9.53303108 5.01429215,9.4605715 L5.15223636,9.45803636 L27.3447818,9.45803636 Z M27.3447818,10.6788156 L5.15223636,10.6788156 C3.83305752,10.6788156 2.7460392,11.7149997 2.68137067,13.000384 L2.67832727,13.1215948 L2.67832727,30.6361143 C2.67832727,31.936305 3.72537047,33.0118889 5.02926762,33.0758818 L5.15223636,33.0788935 L15.0029481,33.0786494 L15.0082376,33.026367 C15.3283767,30.1975949 17.672832,27.9763169 20.5703079,27.8156582 L20.7380731,27.8086859 L20.9070026,27.8063481 C23.9021757,27.8063481 26.3806198,30.0047913 26.7856788,32.8637877 L26.8063818,33.0263128 L26.8115455,33.0786494 L45.745587,33.0788935 C46.1728946,33.0788935 46.5318679,32.7733293 46.6104179,32.3768865 L46.622326,32.2964499 L46.6263792,32.2139714 C46.6263792,31.76757 46.2751254,31.3931315 45.8300711,31.3506246 L45.745587,31.3466078 L39.3822753,31.3466078 L39.3822753,22.5887377 C39.3822753,16.1097396 34.0790849,10.7918312 27.5534567,10.6805931 L27.3447818,10.6788156 Z M13.1141584,16.8858675 C13.7577834,16.8858675 14.290553,17.384226 14.3376568,18.0150561 L14.3410416,18.1060364 L14.3410416,30.1984649 C14.3410416,30.8424286 13.8379177,31.3693286 13.2053635,31.4158981 L13.1141584,31.4192442 L6.66234026,31.4192442 C6.01790222,31.4192442 5.48531565,30.9217865 5.43823017,30.2896475 L5.43484675,30.1984649 L5.43484675,18.1060364 C5.43484675,17.46324 5.93853106,16.9358349 6.57113216,16.8892171 L6.66234026,16.8858675 L13.1141584,16.8858675 Z M13.1185104,30.1974868 L13.1202623,18.1060364 L6.66234026,18.1066468 L6.6576856,18.1077775 L6.65642678,22.6669573 C6.77026625,22.4698769 6.98294156,22.3636814 7.19949777,22.3452805 L7.26772468,22.3423844 L8.53062078,22.3423844 C8.84894311,22.3423844 9.17868962,22.5342532 9.22124105,22.9197067 L9.22585455,23.0052675 L9.22585455,25.761787 C9.22585455,26.1732689 8.91808944,26.3951595 8.59905072,26.4229162 L8.53062078,26.4258909 L7.26772468,26.4258909 C7.02768203,26.4258909 6.78096006,26.3172147 6.65557072,26.0983511 L6.65557072,30.1984649 L13.1141584,30.1984649 L13.1185104,30.1974868 Z M8.00483117,23.5626753 L7.79180519,23.5626753 L7.79180519,25.2046234 L8.00483117,25.2046234 L8.00483117,23.5626753 Z M33.0055351,16.7466987 C33.6497945,16.7466987 34.1836558,17.245097 34.2308575,17.8769545 L34.2342494,17.9680883 L34.2342494,23.4072701 C34.2342494,24.0506095 33.7295005,24.5780771 33.096757,24.6246995 L33.0055351,24.6280494 L26.7832234,24.6280494 C26.1380076,24.6280494 25.6066842,24.129831 25.5597152,23.498349 L25.5563403,23.4072701 L25.5563403,17.9680883 C25.5563403,17.3243401 26.0581635,16.796688 26.691841,16.7500497 L26.7832234,16.7466987 L33.0055351,16.7466987 Z M33.0134701,17.9680883 L26.7771195,17.9680883 L26.7771195,23.4072701 L33.0055351,23.4072701 L33.0110256,23.4058362 L33.0134701,23.4072701 L33.0134701,17.9680883 Z" id="path-1"></path>
    </defs>
    <g id="Asset-Artboard-Page" stroke="none" stroke-width="1" fill="none" fill-rule="evenodd">
        <g id="icons/products/red/H-others-GFrance/h02-caravaning">
            <mask id="mask-2" fill="white">
                <use xlink:href="#path-1"></use>
            </mask>
            <use id="Shape" fill="#000000" fill-rule="nonzero" xlink:href="#path-1"></use>
            <polygon id="Color-Style" fill="#C5281C" mask="url(#mask-2)" points="0 0 48 0 48 48 0 48"></polygon>
            <g id="Group-5" transform="translate(1.000000, 9.000000)"></g>
        </g>
    </g>
</svg>