<?xml version="1.0" encoding="UTF-8"?>
<svg width="48px" height="48px" viewBox="0 0 48 48" version="1.1" xmlns="http://www.w3.org/2000/svg" xmlns:xlink="http://www.w3.org/1999/xlink">
    <!-- Generator: sketchtool 62 (101010) - https://sketch.com -->
    <title>934A1B2E-6BBA-4AB4-8379-EECD450BECFF</title>
    <desc>Created with sketchtool.</desc>
    <defs>
        <path d="M41.0389661,5.7496 C42.0606051,5.7496 42.8886201,6.577615 42.8886201,7.59925395 C42.8886201,8.50634613 42.2358711,9.26079879 41.3744101,9.41857505 L43.7848023,23.4850276 C43.7919726,23.5268674 43.7946119,23.5684363 43.7930755,23.6092319 C46.2041827,25.5281501 47.7502,28.4889734 47.7502,31.8108711 C47.7502,37.597367 43.0591166,42.2882541 37.272817,42.2882541 C32.0460017,42.2882541 27.7133721,38.4613358 26.9239094,33.4564805 L15.2790511,33.4562926 C15.3784962,33.9379929 15.4307436,34.4369455 15.4307436,34.948102 C15.4307436,39.0017353 12.1440013,42.2882541 8.0901726,42.2882541 C4.0364416,42.2882541 0.7502,39.001833 0.7502,34.948102 C0.7502,33.049871 1.47059021,31.3199766 2.65287348,30.0169167 L2.65281233,26.5193408 C2.65281233,23.0827017 4.9272592,20.0700544 8.21426451,19.1190896 L8.39455231,19.0692733 L19.5249954,16.1354279 L21.6083369,9.31597196 C20.9284908,9.04253444 20.4486256,8.3770003 20.4486256,7.59925395 C20.4486256,6.61284393 21.2205207,5.80693471 22.1933094,5.75252767 L22.2982795,5.7496 L41.0389661,5.7496 Z M8.0901726,28.8043307 C4.69733152,28.8043307 1.94699971,31.5548311 1.94699971,34.948102 C1.94699971,38.3408587 4.69741583,41.0912749 8.0901726,41.0912749 C11.4830599,41.0912749 14.2339439,38.3407282 14.2339439,34.948102 C14.2339439,34.3107836 14.1369,33.696132 13.9567844,33.1181159 C13.9341477,33.0727165 13.9176997,33.02387 13.9077723,32.9726961 C13.0863906,30.5483125 10.7918597,28.8043307 8.0901726,28.8043307 Z M37.272817,22.5302877 C32.1470942,22.5302877 27.9922336,26.6851483 27.9922336,31.8108711 C27.9922336,36.9365938 32.1470942,41.0914544 37.272817,41.0914544 C42.3981536,41.0914544 46.5534003,36.9363815 46.5534003,31.8108711 C46.5534003,26.6853606 42.3981536,22.5302877 37.272817,22.5302877 Z M8.09041196,30.3081095 C10.653336,30.3081095 12.7304044,32.3853904 12.7304044,34.948102 C12.7304044,37.5108135 10.653336,39.5880944 8.09041196,39.5880944 C5.52789339,39.5880944 3.4504195,37.5106205 3.4504195,34.948102 C3.4504195,32.3855834 5.52789339,30.3081095 8.09041196,30.3081095 Z M8.09041196,31.5049092 C6.18886762,31.5049092 4.6472192,33.0465576 4.6472192,34.948102 C4.6472192,36.8496463 6.18886762,38.3912947 8.09041196,38.3912947 C9.99233433,38.3912947 11.5336047,36.8498667 11.5336047,34.948102 C11.5336047,33.0463372 9.99233433,31.5049092 8.09041196,31.5049092 Z M37.2732358,25.2901079 C40.87408,25.2901079 43.7934006,28.2096322 43.7934006,31.8108711 C43.7934006,35.4121099 40.87408,38.3316343 37.2732358,38.3316343 C33.6718951,38.3316343 30.7524726,35.4122118 30.7524726,31.8108711 C30.7524726,28.2095303 33.6718951,25.2901079 37.2732358,25.2901079 Z M8.09071116,32.2666722 C9.5715029,32.2666722 10.7721409,33.467072 10.7721409,34.948102 C10.7721409,36.4287136 9.57132279,37.6295317 8.09071116,37.6295317 C6.60962025,37.6295317 5.40868302,36.4288327 5.40868302,34.948102 C5.40868302,33.4669529 6.60944009,32.2666722 8.09071116,32.2666722 Z M37.2732358,26.4869076 C34.3328694,26.4869076 31.9492724,28.8705046 31.9492724,31.8108711 C31.9492724,34.7512375 34.3328694,37.1348345 37.2732358,37.1348345 C40.2130871,37.1348345 42.5966009,34.7511544 42.5966009,31.8108711 C42.5966009,28.8705878 40.2130871,26.4869076 37.2732358,26.4869076 Z M8.09071116,33.4634719 C7.27030803,33.4634719 6.60548272,34.1280335 6.60548272,34.948102 C6.60548272,35.7678053 7.27054133,36.432732 8.09071116,36.432732 C8.91034857,36.432732 9.5753412,35.7677394 9.5753412,34.948102 C9.5753412,34.1280994 8.91058183,33.4634719 8.09071116,33.4634719 Z M37.2726973,28.1594351 C39.2892867,28.1594351 40.9241332,29.794503 40.9241332,31.8108711 C40.9241332,33.8272391 39.2892867,35.462307 37.2726973,35.462307 C35.2565956,35.462307 33.6218598,33.8271284 33.6218598,31.8108711 C33.6218598,29.7946137 35.2565956,28.1594351 37.2726973,28.1594351 Z M37.2726973,29.3562349 C35.9176424,29.3562349 34.8186595,30.4555154 34.8186595,31.8108711 C34.8186595,33.1662267 35.9176424,34.2655073 37.2726973,34.2655073 C38.6282762,34.2655073 39.7273335,33.1663011 39.7273335,31.8108711 C39.7273335,30.455441 38.6282762,29.3562349 37.2726973,29.3562349 Z M27.2995033,28.5908389 L23.4130386,28.5910011 C22.5829625,28.5910011 21.753279,28.6483841 20.9301566,28.7626042 L20.5191706,28.8244481 L13.4802784,29.9650468 C14.0935409,30.6280782 14.5859974,31.4044871 14.9226702,32.2593041 L26.8048683,32.2595871 C26.7985997,32.1107968 26.7954339,31.9612038 26.7954339,31.8108711 C26.7954339,30.6874512 26.9722245,29.6053397 27.2995033,28.5908389 Z M40.0434083,8.74004343 L29.6235913,8.73980407 L29.6238905,16.6295865 C29.6238905,16.9364673 29.3928841,17.1893938 29.0952767,17.2239604 L29.0254907,17.2279863 L20.0771988,17.2277469 L8.69948162,20.2265752 C5.89726262,20.9647364 3.92804745,23.46313 3.85190068,26.345923 L3.84936153,26.5193408 L3.84936153,28.9559353 C5.04697227,28.1066934 6.51027016,27.607531 8.0901726,27.607531 C9.66151363,27.607531 11.1175765,28.1012891 12.3116472,28.9421264 L20.3276087,27.6430787 C21.2025751,27.501135 22.0857572,27.4196748 22.9705428,27.3992972 L23.4130386,27.3942014 L27.7691962,27.393785 C29.4355114,23.814512 33.0643101,21.333488 37.272817,21.333488 C39.1494878,21.333488 40.9109529,21.8269224 42.4345347,22.6911335 L40.1054456,9.10663598 C40.0686188,9.02899136 40.048016,8.94215573 40.048016,8.85050804 L40.0513072,8.78887286 L40.0434083,8.74004343 Z M9.02687407,20.8187404 C9.34430508,20.805315 9.612498,21.0412237 9.64684625,21.3495027 L9.65056006,21.4166058 L9.65056006,23.8102052 C9.65056006,24.0855914 9.46331951,24.3221466 9.20214469,24.3895415 L9.13537626,24.4027906 L5.22782522,24.9515233 C4.83582866,25.0065709 4.4993581,24.6726654 4.55140428,24.2802591 C4.61309506,23.8151365 4.83939108,23.1654545 5.34520743,22.5167123 C6.12579697,21.5155557 7.34063912,20.8900581 9.02687407,20.8187404 Z M8.45328163,22.0747858 L8.36216401,22.0894525 C7.41537501,22.2548665 6.74618594,22.6662664 6.28902968,23.2525989 C6.24264873,23.3120855 6.19916952,23.3725698 6.15849623,23.433819 L6.09957878,23.5262373 L6.04053342,23.6282318 L8.45328163,23.2895375 L8.45328163,22.0747858 Z M28.4267916,8.73980407 L23.0356877,8.74004343 L20.8079647,16.0307079 L28.4266719,16.0309472 L28.4267916,8.73980407 Z M41.0389661,6.94639971 L22.2982795,6.94639971 C21.9376148,6.94639971 21.6454253,7.23858923 21.6454253,7.59925395 C21.6454253,7.83685314 21.7722335,8.04473459 21.9618884,8.15893692 L22.0204003,7.96717599 C22.0902913,7.73838907 22.2885998,7.57551785 22.5217842,7.5477957 L22.5926922,7.54360276 L40.5482782,7.54360276 C40.8154738,7.54360276 41.0470365,7.72008233 41.1216986,7.970788 L41.1380798,8.04092577 L41.1719727,8.23855996 C41.4688162,8.1771626 41.6918204,7.91433901 41.6918204,7.59925395 C41.6918204,7.26263354 41.4372908,6.98566264 41.1101198,6.95022928 L41.0389661,6.94639971 Z" id="path-1"></path>
    </defs>
    <g id="Asset-Artboard-Page" stroke="none" stroke-width="1" fill="none" fill-rule="evenodd">
        <g id="icons/products/red/H-others-GFrance/h03-agricultural-risks">
            <mask id="mask-2" fill="white">
                <use xlink:href="#path-1"></use>
            </mask>
            <g id="Shape" fill-rule="nonzero"></g>
            <polygon id="Color-Style" fill="#C5281C" mask="url(#mask-2)" points="0 0 48 0 48 48 0 48"></polygon>
        </g>
    </g>
</svg>