<?xml version="1.0" encoding="UTF-8"?>
<svg width="48px" height="48px" viewBox="0 0 48 48" version="1.1" xmlns="http://www.w3.org/2000/svg" xmlns:xlink="http://www.w3.org/1999/xlink">
    <!-- Generator: sketchtool 62 (101010) - https://sketch.com -->
    <title>98ACAAAA-037C-46F1-92CD-A8A30F24AC91</title>
    <desc>Created with sketchtool.</desc>
    <defs>
        <path d="M26.7400759,21.4200759 L22.3300759,21.4200759 C21.9584333,21.41461 21.6600011,21.1117587 21.6600759,20.7400759 L21.6600759,16.3200759 C21.6573976,16.1406546 21.7268026,15.9676571 21.8527434,15.8398366 C21.9786843,15.712016 22.1506346,15.6400759 22.3300759,15.6400759 L26.7400759,15.6400759 C27.1156295,15.6400759 27.4200759,15.9445222 27.4200759,16.3200759 L27.4200759,20.7400759 C27.4147037,21.1133816 27.1133816,21.4147037 26.7400759,21.4200759 L26.7400759,21.4200759 Z M26.7400759,12.4200759 L22.3300759,12.4200759 C21.9584333,12.41461 21.6600011,12.1117587 21.6600759,11.7400759 L21.6600759,7.32007587 C21.6573976,7.14065455 21.7268026,6.96765711 21.8527434,6.83983657 C21.9786843,6.71201603 22.1506346,6.64007587 22.3300759,6.64007587 L26.7400759,6.64007587 C27.1156295,6.64007587 27.4200759,6.94452224 27.4200759,7.32007587 L27.4200759,11.7400759 C27.4147037,12.1133816 27.1133816,12.4147037 26.7400759,12.4200759 L26.7400759,12.4200759 Z M23.0100759,20.0600759 L26.0700759,20.0600759 L26.0700759,17.0000759 L23.0100759,17.0000759 L23.0100759,20.0600759 Z M23.0100759,11.0600759 L26.0700759,11.0600759 L26.0700759,8.00007587 L23.0100759,8.00007587 L23.0100759,11.0600759 Z M18.1400759,21.4200759 L13.7300759,21.4200759 C13.3584333,21.41461 13.0600011,21.1117587 13.0600759,20.7400759 L13.0600759,16.3200759 C13.0573976,16.1406546 13.1268026,15.9676571 13.2527434,15.8398366 C13.3786843,15.712016 13.5506346,15.64 13.7300759,15.6400759 L18.1400759,15.6400759 C18.3212447,15.6373511 18.495793,15.7081184 18.6239132,15.8362386 C18.7520334,15.9643587 18.8228007,16.1389071 18.8200759,16.3200759 L18.8200759,20.7400759 C18.8200759,21.1156295 18.5156295,21.4200759 18.1400759,21.4200759 Z M18.1400759,12.4200759 L13.7300759,12.4200759 C13.3584333,12.41461 13.0600011,12.1117587 13.0600759,11.7400759 L13.0600759,7.32007587 C13.0573976,7.14065455 13.1268026,6.96765711 13.2527434,6.83983657 C13.3786843,6.71201603 13.5506346,6.64 13.7300759,6.64007587 L18.1400759,6.64007587 C18.3212447,6.63735106 18.495793,6.70811839 18.6239132,6.83623856 C18.7520334,6.96435873 18.8228007,7.13890708 18.8200759,7.32007587 L18.8200759,11.7400759 C18.8200759,12.1156295 18.5156295,12.4200759 18.1400759,12.4200759 Z M14.4100759,20.0600759 L17.4900759,20.0600759 L17.4900759,17.0000759 L14.4100759,17.0000759 L14.4100759,20.0600759 Z M14.4100759,11.0600759 L17.4900759,11.0600759 L17.4900759,8.00007587 L14.4100759,8.00007587 L14.4100759,11.0600759 Z M26.7400759,30.5400759 L22.3300759,30.5400759 C21.9584333,30.53461 21.6600011,30.2317587 21.6600759,29.8600759 L21.6600759,25.4400759 C21.6573976,25.2606546 21.7268026,25.0876571 21.8527434,24.9598366 C21.9786843,24.832016 22.1506346,24.7600759 22.3300759,24.7600759 L26.7400759,24.7600759 C27.1156295,24.7600759 27.4200759,25.0645222 27.4200759,25.4400759 L27.4200759,29.8600759 C27.4147037,30.2333816 27.1133816,30.5347037 26.7400759,30.5400759 L26.7400759,30.5400759 Z M23.0100759,29.1800759 L26.0700759,29.1800759 L26.0700759,26.1100759 L23.0100759,26.1100759 L23.0100759,29.1800759 Z M35.2900759,21.4200759 L30.8800759,21.4200759 C30.5045222,21.4200759 30.2000759,21.1156295 30.2000759,20.7400759 L30.2000759,16.3200759 C30.1973511,16.1389071 30.2681184,15.9643587 30.3962386,15.8362386 C30.5243587,15.7081184 30.6989071,15.6373511 30.8800759,15.6400759 L35.2900759,15.6400759 C35.4695172,15.64 35.6414675,15.712016 35.7674083,15.8398366 C35.8933491,15.9676571 35.9627541,16.1406546 35.9600759,16.3200759 L35.9600759,20.7400759 C35.9601506,21.1117587 35.6617185,21.41461 35.2900759,21.4200759 Z M35.2900759,12.4200759 L30.8800759,12.4200759 C30.5045222,12.4200759 30.2000759,12.1156295 30.2000759,11.7400759 L30.2000759,7.32007587 C30.1973511,7.13890708 30.2681184,6.96435873 30.3962386,6.83623856 C30.5243587,6.70811839 30.6989071,6.63735106 30.8800759,6.64007587 L35.2900759,6.64007587 C35.4695172,6.64 35.6414675,6.71201603 35.7674083,6.83983657 C35.8933491,6.96765711 35.9627541,7.14065455 35.9600759,7.32007587 L35.9600759,11.7400759 C35.9601506,12.1117587 35.6617185,12.41461 35.2900759,12.4200759 Z M31.5500759,20.0600759 L34.6100759,20.0600759 L34.6100759,17.0000759 L31.5500759,17.0000759 L31.5500759,20.0600759 Z M31.5500759,11.0600759 L34.6100759,11.0600759 L34.6100759,8.00007587 L31.5500759,8.00007587 L31.5500759,11.0600759 Z M35.2900759,30.5400759 L30.8800759,30.5400759 C30.5045222,30.5400759 30.2000759,30.2356295 30.2000759,29.8600759 L30.2000759,25.4400759 C30.1973511,25.2589071 30.2681184,25.0843587 30.3962386,24.9562386 C30.5243587,24.8281184 30.6989071,24.7573511 30.8800759,24.7600759 L35.2900759,24.7600759 C35.4695172,24.76 35.6414675,24.832016 35.7674083,24.9598366 C35.8933491,25.0876571 35.9627541,25.2606546 35.9600759,25.4400759 L35.9600759,29.8600759 C35.9601506,30.2317587 35.6617185,30.53461 35.2900759,30.5400759 Z M31.5500759,29.1800759 L34.6100759,29.1800759 L34.6100759,26.1100759 L31.5500759,26.1100759 L31.5500759,29.1800759 Z M18.1400759,30.5400759 L13.7300759,30.5400759 C13.3584333,30.53461 13.0600011,30.2317587 13.0600759,29.8600759 L13.0600759,25.4400759 C13.0573976,25.2606546 13.1268026,25.0876571 13.2527434,24.9598366 C13.3786843,24.832016 13.5506346,24.76 13.7300759,24.7600759 L18.1400759,24.7600759 C18.3212447,24.7573511 18.495793,24.8281184 18.6239132,24.9562386 C18.7520334,25.0843587 18.8228007,25.2589071 18.8200759,25.4400759 L18.8200759,29.8600759 C18.8200759,30.2356295 18.5156295,30.5400759 18.1400759,30.5400759 Z M14.4100759,29.1800759 L17.4900759,29.1800759 L17.4900759,26.1100759 L14.4100759,26.1100759 L14.4100759,29.1800759 Z M42.3000759,48.0001517 L28.4900759,48.0001517 C28.3089071,48.0028007 28.1343587,47.9320334 28.0062386,47.8039132 C27.8781184,47.675793 27.8073511,47.5012447 27.8100759,47.3200759 L27.8100759,36.3200759 L21.0200759,36.3200759 L21.0200759,47.3200759 C21.0227541,47.4994972 20.9533491,47.6724946 20.8274083,47.8003152 C20.7014675,47.9281357 20.5295172,48.0001517 20.3500759,48.0001517 L6.68007587,48.0001517 C6.49890708,48.0028007 6.32435873,47.9320334 6.19623856,47.8039132 C6.06811839,47.675793 5.99735106,47.5012447 6,47.3200759 L6,0.680075872 C5.99735106,0.498907077 6.06811839,0.324358734 6.19623856,0.196238563 C6.32435873,0.0681183907 6.49890708,-0.00264893506 6.68007587,1.7485559e-11 L42.3000759,1.7485559e-11 C42.4812447,-0.00264893506 42.655793,0.0681183907 42.7839132,0.196238563 C42.9120334,0.324358734 42.9828007,0.498907077 42.9801517,0.680075872 L42.9801517,47.3200759 C42.9828007,47.5012447 42.9120334,47.675793 42.7839132,47.8039132 C42.655793,47.9320334 42.4812447,48.0028007 42.3000759,48.0001517 Z M29.1800759,46.6500759 L41.6300759,46.6500759 L41.6300759,1.35007587 L7.35007587,1.35007587 L7.35007587,46.6500759 L19.6700759,46.6500759 L19.6700759,35.6500759 C19.6700759,35.2745222 19.9745222,34.9700759 20.3500759,34.9700759 L28.4900759,34.9700759 C28.6695172,34.9700559 28.8414675,35.042016 28.9674083,35.1698366 C29.0933491,35.2976571 29.1627541,35.4706546 29.1600759,35.6500759 L29.1800759,46.6500759 Z" id="path-1"></path>
    </defs>
    <g id="Asset-Artboard-Page" stroke="none" stroke-width="1" fill="none" fill-rule="evenodd">
        <g id="icons/products/red/H-others-GFrance/h04-building-risks">
            <g>
                <polygon id="Rectangle-path" fill-opacity="0" fill="#FFFFFF" fill-rule="nonzero" points="0 0 48 0 48 48 0 48"></polygon>
                <mask id="mask-2" fill="white">
                    <use xlink:href="#path-1"></use>
                </mask>
                <g id="Shape" fill-rule="nonzero"></g>
                <polygon id="Color-Style" fill="#C5281C" mask="url(#mask-2)" points="0 0 48 0 48 48 0 48"></polygon>
            </g>
        </g>
    </g>
</svg>