<?xml version="1.0" encoding="UTF-8"?>
<svg width="48px" height="48px" viewBox="0 0 48 48" version="1.1" xmlns="http://www.w3.org/2000/svg" xmlns:xlink="http://www.w3.org/1999/xlink">
    <!-- Generator: sketchtool 62 (101010) - https://sketch.com -->
    <title>1CC752C7-6BF4-4A87-AB73-F9CC5F6091CA</title>
    <desc>Created with sketchtool.</desc>
    <defs>
        <path d="M28.0437622,24.0930057 L29.3624698,24.8078556 L24.663,33.476 L25.3623665,33.8535726 C25.9156613,34.154225 26.3368188,34.6344827 26.5611883,35.2147976 L26.6286011,35.4118326 C26.8100914,36.0146961 26.7690135,36.6526782 26.5159134,37.2259333 L26.4237084,37.4144841 L21.2922161,46.9160167 C20.832577,47.7651209 19.9462379,48.2934733 18.980132,48.2934733 C18.6158352,48.2934733 18.2548485,48.2173484 17.9252331,48.0723857 L17.731453,47.9772059 L15.099474,46.5562253 C14.4825214,46.2224067 14.0300124,45.6663419 13.8305505,44.9970917 C13.649876,44.3943173 13.6911918,43.7566407 13.9441501,43.1837825 L14.036294,42.9953673 L19.1654656,33.4959034 C19.6180439,32.6571722 20.5322212,32.1250867 21.5037187,32.1250867 C21.8616343,32.1250867 22.2154815,32.1983197 22.5380695,32.3390266 L22.7276536,32.4315017 L23.343,32.763 L28.0437622,24.0930057 Z M21.5037187,33.6250867 C21.1247889,33.6250867 20.7633555,33.8109488 20.5558028,34.0967152 L20.48545,34.2083927 L15.3566818,43.707108 C15.2120802,43.9758165 15.1809872,44.2781424 15.2677284,44.5675357 C15.3415051,44.815076 15.4930572,45.0237218 15.7029644,45.1692449 L15.812691,45.2366341 L18.4466846,46.6587088 C18.6076548,46.7464431 18.793163,46.7934733 18.980132,46.7934733 C19.3493235,46.7934733 19.6906239,46.614475 19.9004308,46.3188058 L19.9727422,46.2025826 L25.1033555,36.7026787 C25.2479464,36.4339901 25.2789073,36.1319997 25.1918627,35.8428556 C25.1176185,35.5945104 24.9657712,35.3852195 24.7569778,35.2397847 L24.6479313,35.1725035 L22.0136602,33.7506728 C21.8635901,33.6693399 21.6858141,33.6250867 21.5037187,33.6250867 Z M33.7713285,14.8181785 C34.3886092,15.1525794 34.7597578,15.8125196 34.7627196,16.5244277 L34.7568117,16.6895121 L33.6206245,32.3040927 C33.5700407,32.9922237 33.1950276,33.6205259 32.6141664,33.9889468 C32.0696909,34.3346749 31.3913235,34.4003126 30.8156052,34.1578163 L30.6613139,34.0840202 L27.0561006,32.1369668 L27.7688914,30.8171452 L31.3731474,32.7636824 C31.488476,32.8257516 31.6638129,32.8155506 31.810425,32.7224558 C31.9601424,32.627495 32.0675523,32.4735186 32.1083382,32.3004747 L32.1246203,32.1946799 L33.2609312,16.5784413 C33.2760661,16.37861 33.1885664,16.2084423 33.0578832,16.137646 C32.9504391,16.0796603 32.7993061,16.0840831 32.6589429,16.1582013 L32.5764531,16.2110939 L20.1426418,25.726671 C19.9722692,25.8561542 19.8714021,26.0632447 19.8740289,26.2779089 C19.8759471,26.4259006 19.934379,26.5514329 20.0219284,26.6258765 L20.0777331,26.6641829 L23.6653997,28.6012095 L22.9527656,29.9211158 L19.3656371,27.9843794 C18.7573797,27.6566138 18.3833584,27.0074136 18.3738289,26.2968067 C18.3664101,25.6644927 18.6347275,25.0595925 19.1010034,24.6428289 L19.2330189,24.5339514 L31.6653037,15.0195376 C32.2833365,14.5473327 33.1079116,14.4601429 33.7713285,14.8181785 Z M16.22236,21.5829867 L16.22236,23.0829867 L13.525,23.082 L13.5256933,33.137164 L1.07958667,33.137164 L1.07958667,31.637164 L12.025,31.637 L12.025,23.082 L1,23.0829867 L1,21.5829867 L16.22236,21.5829867 Z M43.6911027,31.637164 L43.6911027,33.137164 L39.2261027,33.137164 L39.2261027,31.637164 L43.6911027,31.637164 Z M35.7028,0.72 L35.702,11.038 L46.7127067,11.0386933 L46.7127067,22.6342933 L37.34604,22.6342933 L37.34604,21.1342933 L45.212,21.134 L45.212,12.538 L24.557,12.538 L24.5578467,16.379528 L23.0578467,16.379528 L23.057,12.538 L1.26050533,12.538568 L1.26050533,11.038568 L11.946,11.038 L11.946,2.219 L1,2.22 L1,0.72 L35.7028,0.72 Z M34.202,2.22 L13.446,2.219 L13.446,11.038 L34.202,11.038 L34.202,2.22 Z" id="path-1"></path>
    </defs>
    <g id="Asset-Artboard-Page" stroke="none" stroke-width="1" fill="none" fill-rule="evenodd">
        <g id="icons/products/red/H-others-GFrance/h05-building">
            <g>
                <polygon id="Rectangle-path" fill-opacity="0" fill="#FFFFFF" fill-rule="nonzero" points="0 0 48 0 48 48 0 48"></polygon>
                <mask id="mask-2" fill="white">
                    <use xlink:href="#path-1"></use>
                </mask>
                <use id="Shape" fill="#000000" fill-rule="nonzero" xlink:href="#path-1"></use>
                <polygon id="Color-Style" fill="#C5281C" mask="url(#mask-2)" points="0 0 48 0 48 48 0 48"></polygon>
            </g>
        </g>
    </g>
</svg>