<?xml version="1.0" encoding="UTF-8"?>
<svg width="48px" height="48px" viewBox="0 0 48 48" version="1.1" xmlns="http://www.w3.org/2000/svg" xmlns:xlink="http://www.w3.org/1999/xlink">
    <!-- Generator: sketchtool 62 (101010) - https://sketch.com -->
    <title>7F3C95FD-56F0-4624-8BA9-E88BF9F8AE77</title>
    <desc>Created with sketchtool.</desc>
    <defs>
        <path d="M47.4240543,9.06154264 L40.8676357,0.627464272 C40.5950818,0.217682436 40.1280675,-0.0197164682 39.6363834,0.00157767729 L8.72168976,0.00157767729 C8.22926827,-0.0215683871 7.75980778,0.211221941 7.48017701,0.617203836 L0.482559675,9.26675136 C0.171912938,9.72403316 0.00407048896,10.2632717 -2.5873286e-11,10.8160772 L-2.5873286e-11,13.2785818 C-0.0277136869,15.8628423 1.79364749,18.0985415 4.33022317,18.5934877 L4.33022317,43.5058262 C4.33022317,45.7724991 6.16772463,47.6100006 8.43439756,47.6100006 L39.5748207,47.6100006 C41.8414937,47.6100006 43.6789951,45.7724991 43.6789951,43.5058262 L43.6789951,18.5421855 C46.2637874,18.1317354 48.1252428,15.8413936 47.9986387,13.2272797 L47.9986387,11.1751925 C48.0265176,10.4286042 47.8260758,9.69126478 47.4240543,9.06154264 Z M8.90637761,1.43803871 L39.4516955,1.43803871 L46.0081141,9.6463875 L2.34995902,9.6463875 L8.90637761,1.43803871 Z M37.532994,11.0828485 L37.532994,13.2375401 C37.6063105,14.6539927 36.8923415,15.9953806 35.6764222,16.7256226 C34.4605029,17.4558647 32.9409394,17.4558647 31.7250201,16.7256226 C30.5091008,15.9953806 29.7951318,14.6539927 29.8684483,13.2375401 L29.8684483,11.1854529 L37.532994,11.0828485 Z M28.2986016,11.0828485 L28.2986016,13.2375401 C28.3719182,14.6539927 27.6579491,15.9953806 26.4420298,16.7256226 C25.2261105,17.4558647 23.706547,17.4558647 22.4906277,16.7256226 C21.2747084,15.9953806 20.5607394,14.6539927 20.6340559,13.2375401 L20.6340559,11.1854529 L28.2986016,11.0828485 Z M18.8384796,11.000765 L18.8384796,13.0528522 C18.9314431,14.4379608 18.2690736,15.7652803 17.1063874,16.5237846 C15.9437012,17.2822888 14.462009,17.3536956 13.2317716,16.710513 C12.0015343,16.0673304 11.2145964,14.809857 11.173934,13.4222279 L11.173934,11.000765 L18.8384796,11.000765 Z M5.55121505,17.1570266 L5.55121505,17.1570266 C3.42520701,17.1458074 1.70451039,15.4251107 1.69329112,13.2991027 L1.69329112,11.1751925 L9.39887854,11.1751925 L9.39887854,13.6479575 C9.18121604,15.6058586 7.56099735,17.1081638 5.59225679,17.1775475 L5.59225679,17.1775475 L5.55121505,17.1570266 Z M39.4106538,45.8144243 L20.941869,45.8144243 L10.3120573,45.9375495 L8.66012715,45.9375495 C7.252364,45.9325416 6.10302481,44.8104595 6.06423685,43.4032219 L6.06423685,18.6653107 C7.77934424,18.4588502 9.31732771,17.5098019 10.2710156,16.0694204 C11.2250367,17.6997363 12.948992,18.7263614 14.8369096,18.788436 C16.7853797,18.8199109 18.5924117,17.7743574 19.5361893,16.0694204 C20.4976941,17.7585939 22.291813,18.8017645 24.235469,18.8017645 C26.1791249,18.8017645 27.9732439,17.7585939 28.9347486,16.0694204 C29.8962534,17.7585939 31.6903723,18.8017645 33.6340283,18.8017645 C35.5776843,18.8017645 37.3718032,17.7585939 38.333308,16.0694204 C38.9695911,17.5793434 40.3853047,18.6164818 42.0168045,18.7679151 L42.0783671,43.5058262 C41.9551124,44.8471757 40.8190412,45.8669562 39.4722164,45.8452056 L39.4106538,45.8144243 Z M46.8084281,13.2478005 C46.734206,15.4036479 45.0037472,17.1341067 42.8478998,17.2083288 C40.7041765,17.1745771 38.9922067,15.4121203 39.0207572,13.2683214 L39.0207572,11.1751925 L46.8084281,11.1751925 L46.8084281,13.2478005 Z M37.999688,25.25 L28.999688,25.25 C28.5854744,25.25 28.249688,25.5783245 28.249688,25.9833333 L28.249688,46.5166667 C28.249688,46.9216755 28.5854744,47.25 28.999688,47.25 L37.999688,47.25 C38.4139016,47.25 38.749688,46.9216755 38.749688,46.5166667 L38.749688,25.9833333 C38.749688,25.5783245 38.4139016,25.25 37.999688,25.25 Z M37.249688,26.75 L37.249688,46.25 L29.749688,46.25 L29.749688,26.75 L37.249688,26.75 Z M24,25.25 L10,25.25 C9.58578644,25.25 9.25,25.5857864 9.25,26 L9.25,36 C9.25,36.4142136 9.58578644,36.75 10,36.75 L24,36.75 C24.4142136,36.75 24.75,36.4142136 24.75,36 L24.75,26 C24.75,25.5857864 24.4142136,25.25 24,25.25 Z M23.249688,26.75 L23.249688,35.25 L10.749688,35.25 L10.749688,26.75 L23.249688,26.75 Z" id="path-1"></path>
    </defs>
    <g id="Asset-Artboard-Page" stroke="none" stroke-width="1" fill="none" fill-rule="evenodd">
        <g id="icons/products/red/H-others-GFrance/h06-other-professionnal-risks">
            <g>
                <polygon id="Rectangle-path" fill-opacity="0" fill="#FFFFFF" fill-rule="nonzero" points="0 0 48 0 48 48 0 48"></polygon>
                <mask id="mask-2" fill="white">
                    <use xlink:href="#path-1"></use>
                </mask>
                <use id="Shape" fill="#C5281C" fill-rule="nonzero" xlink:href="#path-1"></use>
                <polygon id="Color-Style" fill="#C5281C" mask="url(#mask-2)" points="0 0 48 0 48 48 0 48"></polygon>
            </g>
        </g>
    </g>
</svg>