<?xml version="1.0" encoding="UTF-8"?>
<svg width="48px" height="48px" viewBox="0 0 48 48" version="1.1" xmlns="http://www.w3.org/2000/svg" xmlns:xlink="http://www.w3.org/1999/xlink">
    <!-- Generator: sketchtool 62 (101010) - https://sketch.com -->
    <title>597B4718-F766-49AD-A3DA-01918D3875C6</title>
    <desc>Created with sketchtool.</desc>
    <defs>
        <path d="M29.7142329,6.69608354 C29.9536913,6.69608354 30.1919271,6.70563903 30.4284574,6.7244998 L30.8166314,6.76437784 L30.8166314,6.76437784 C33.2116644,7.06029123 35.4009266,8.31263209 36.8704263,10.2545664 L37.048076,10.4976866 L39.8454659,14.4629361 C40.6520663,15.6062633 41.9363209,16.3120341 43.3248608,16.3869243 L43.5709038,16.3935519 C45.7703209,16.3935519 47.5662783,18.123072 47.6731045,20.2963674 L47.6781316,20.5013747 L47.6781316,26.0580835 C47.6781316,27.967563 46.1806121,29.5268968 44.2955127,29.625512 L44.1057519,29.6304633 L41.3823616,29.6307597 C41.0853334,31.3289628 39.7969924,32.7129578 38.0901332,33.1087142 C37.686624,33.2022728 37.283671,32.9510082 37.1901124,32.547499 C37.0965538,32.1439898 37.3478184,31.7410368 37.7513275,31.6474782 C39.0275222,31.3515767 39.9473,30.2086216 39.9473,28.8804633 C39.9473,27.3118256 38.6756402,26.0400203 37.1074519,26.0400203 C35.7803952,26.0400203 34.6377629,26.9587938 34.3408694,28.2337175 C34.2469245,28.6371369 33.843731,28.8880156 33.4403116,28.7940707 C33.0368922,28.7001257 32.7860135,28.2969323 32.8799584,27.8935129 C33.3341461,25.9431347 35.0791287,24.5400203 37.1074519,24.5400203 C39.2483185,24.5400203 41.0273528,26.0907442 41.3827085,28.1302939 L44.1057519,28.1304633 C45.2008599,28.1304633 46.097069,27.281744 46.1729301,26.2061091 L46.1781316,26.0580835 L46.1781316,20.5013747 C46.1781316,19.1166317 45.0986686,17.9837772 43.7357622,17.898683 L43.2955891,17.8873096 L43.2955891,17.8873096 L43.202162,17.8937304 L30.7025418,17.8937304 C30.322846,17.8937304 30.0090508,17.6115765 29.9593884,17.2455009 L29.9525418,17.1437304 L29.9522025,8.20008354 L29.7142329,8.19608354 L11.8578025,8.19608354 C10.763199,8.19608354 9.86707359,9.04486467 9.79121883,10.1204458 L9.78601772,10.2684633 L9.78520253,23.0840835 L10.1847848,22.5285213 C10.4856246,22.109197 10.9519993,21.8433577 11.4603976,21.7943831 L11.6312506,21.7861772 L21.7392253,21.7861772 C22.2469192,21.7861772 22.7278519,22.0030606 23.064398,22.3774398 L23.1710711,22.5079846 L27.5972025,28.4960835 L31.5934595,28.4964089 C34.724088,28.4964089 37.2762436,30.9759607 37.3932553,34.0783572 L37.3974468,34.3009911 L37.3977325,34.8872659 C38.1227192,35.0274352 38.6706114,35.6660692 38.6706114,36.4320544 C38.6706114,37.2523699 38.0422403,37.9266278 37.2409251,37.9990135 L37.0978139,38.0054468 L34.4553157,38.0060275 C34.3156226,40.087146 32.583831,41.731357 30.4672443,41.731357 C28.3505895,41.731357 26.6183136,40.0870808 26.4785806,38.0060194 L11.9871739,38.0060275 C11.8474808,40.087146 10.1156893,41.731357 7.99910253,41.731357 C5.88244772,41.731357 4.15017187,40.0870808 4.01043884,38.0060194 L1.26959494,38.0052089 C0.400376406,38.0052089 -0.303797468,37.3006834 -0.303797468,36.4318165 C-0.303797468,35.8464873 0.0157781497,35.3357414 0.490100447,35.06473 L0.490383544,30.8699911 C0.490383544,29.6136677 1.46606446,28.585393 2.70141886,28.5018845 L2.86396582,28.4964089 L5.90120253,28.4960835 L8.29020253,25.1670835 L8.28601772,25.0990456 L8.28601772,10.2684633 C8.28601772,8.35909649 9.78342821,6.79965735 11.6680869,6.70103522 L11.8578025,6.69608354 L29.7142329,6.69608354 Z M7.99910253,35.2370278 C6.61942592,35.2370278 5.50134304,36.3548278 5.50134304,37.7341924 C5.50134304,39.113557 6.61942592,40.231357 7.99910253,40.231357 C9.37862315,40.231357 10.4962671,39.113713 10.4962671,37.7341924 C10.4962671,36.3546718 9.37862315,35.2370278 7.99910253,35.2370278 Z M30.4672443,35.2370278 C29.0875677,35.2370278 27.9694848,36.3548278 27.9694848,37.7341924 C27.9694848,39.113557 29.0875677,40.231357 30.4672443,40.231357 C31.8467649,40.231357 32.9644089,39.113713 32.9644089,37.7341924 C32.9644089,36.3546718 31.8467649,35.2370278 30.4672443,35.2370278 Z M7.99910253,36.3450152 C8.76657089,36.3450152 9.38827975,36.9667241 9.38827975,37.7341924 C9.38827975,38.5016608 8.76657089,39.1233696 7.99910253,39.1233696 C7.23163418,39.1233696 6.60933038,38.5016608 6.60933038,37.7341924 C6.60933038,36.9667241 7.23163418,36.3450152 7.99910253,36.3450152 Z M30.4672443,36.3450152 C31.2347127,36.3450152 31.8564215,36.9667241 31.8564215,37.7341924 C31.8564215,38.5016608 31.2347127,39.1233696 30.4672443,39.1233696 C29.6997759,39.1233696 29.0774722,38.5016608 29.0774722,37.7341924 C29.0774722,36.9667241 29.6997759,36.3450152 30.4672443,36.3450152 Z M37.0978139,36.2121453 L34.2214318,36.211341 L34.2719986,36.6517941 L34.2719986,36.6517941 L37.0978139,36.6524997 C37.1375453,36.6524997 37.1706114,36.5532519 37.1706114,36.4323225 C37.1706114,36.3416255 37.1520117,36.2631243 37.1259502,36.2295423 L37.0978139,36.2121453 Z M26.712527,36.2117389 L11.75329,36.2116536 L11.8038569,36.6521066 L11.8038569,36.6521066 L26.6619472,36.6521872 L26.712527,36.2117389 Z M4.24438518,36.2116962 L1.26959494,36.2117013 C1.22897118,36.2117013 1.19620253,36.3100563 1.19620253,36.4318785 C1.19620253,36.5232451 1.21463489,36.6014115 1.24098922,36.6347842 L1.26959494,36.6520557 L4.1938054,36.6521445 L4.24438518,36.2116962 L4.24438518,36.2116962 Z M31.5934595,29.9964089 L2.86396582,29.9964089 C2.4183938,29.9964089 2.05106215,30.3295501 1.99718611,30.7603837 L1.99020253,30.8699911 L1.99020253,34.8580835 L5.22247357,34.8582803 C5.89698911,34.2071107 6.80000184,33.7910321 7.799564,33.7419189 L7.99910253,33.7370278 C9.07773265,33.7370278 10.0564312,34.1640304 10.775417,34.8582803 L27.6906153,34.8582803 C28.4097381,34.1640473 29.3885795,33.7370278 30.4672443,33.7370278 C31.5458744,33.7370278 32.524573,34.1640304 33.2435588,34.8582803 L35.8974468,34.8580835 L35.8974468,34.3009911 C35.8974468,31.9937562 34.0818743,30.1101762 31.8019655,30.0013732 L31.5934595,29.9964089 Z M37.1074519,27.3443367 C37.9558316,27.3443367 38.6435785,28.0320835 38.6435785,28.8804633 C38.6435785,29.728843 37.9558316,30.4165899 37.1074519,30.4165899 C36.2590722,30.4165899 35.5713253,29.728843 35.5713253,28.8804633 C35.5713253,28.0320835 36.2590722,27.3443367 37.1074519,27.3443367 Z M12.4342025,23.2860835 L11.6312506,23.2861772 C11.563535,23.2861772 11.4988488,23.3106865 11.4485448,23.353875 L11.4034553,23.4030739 L7.74620253,28.4960835 L12.4342025,28.4960835 L12.4342025,23.2860835 Z M21.7392253,23.2861772 L13.9342025,23.2860835 L13.9342025,28.4960835 L25.7322025,28.4960835 L21.9655221,23.4005374 C21.9255489,23.3466286 21.8681606,23.3092554 21.804527,23.2939381 L21.7392253,23.2861772 Z M42.0572227,18.5203508 C42.5235858,18.4755456 43.034746,18.4992255 43.5381328,18.6468464 C44.7857111,19.0127056 45.5262045,20.034665 45.3865177,21.6644608 C45.3370728,22.2413585 44.6897192,22.5343786 44.2283994,22.2283544 L44.1442734,22.1638778 L41.5057291,19.8460044 C41.0585376,19.4531615 41.2297996,18.7373994 41.771595,18.567904 L41.8774633,18.5427373 L42.0572227,18.5203508 Z M31.4531982,8.4011037 L31.452,16.393 L39.5805621,16.3944653 C39.285972,16.1367261 39.0147491,15.8489793 38.7718295,15.5337795 L38.6197822,15.3276324 L35.8223498,11.3623225 C34.763375,9.86094972 33.2021565,8.81955774 31.4531982,8.4011037 Z" id="path-1"></path>
    </defs>
    <g id="Asset-Artboard-Page" stroke="none" stroke-width="1" fill="none" fill-rule="evenodd">
        <g id="icons/products/red/H-others-GFrance/h07-professionnal-fleet">
            <mask id="mask-2" fill="white">
                <use xlink:href="#path-1"></use>
            </mask>
            <use id="Shape" fill="#000000" xlink:href="#path-1"></use>
            <polygon id="Color-Style" fill="#C5281C" mask="url(#mask-2)" points="0 0 48 0 48 48 0 48"></polygon>
        </g>
    </g>
</svg>