<?xml version="1.0" encoding="UTF-8"?>
<svg width="48px" height="48px" viewBox="0 0 48 48" version="1.1" xmlns="http://www.w3.org/2000/svg" xmlns:xlink="http://www.w3.org/1999/xlink">
    <!-- Generator: sketchtool 62 (101010) - https://sketch.com -->
    <title>F737776C-63D9-41F2-954F-5E568BFE45DE</title>
    <desc>Created with sketchtool.</desc>
    <defs>
        <path d="M31.1642083,26.3874111 C31.5439041,26.3874111 31.8576993,26.669565 31.9073617,27.0356406 L31.9142083,27.1374111 L31.9142083,40.3803139 C31.9142083,40.7945275 31.5784219,41.1303139 31.1642083,41.1303139 C30.7845126,41.1303139 30.4707174,40.84816 30.4210549,40.4820844 L30.4142083,40.3803139 L30.4142083,27.1374111 C30.4142083,26.7231975 30.7499948,26.3874111 31.1642083,26.3874111 Z M29.6819458,20.2284528 C32.287431,20.2284528 34.5664163,21.6090449 35.794726,23.6668193 L42.5512639,23.6672208 C45.7356017,23.6672208 48.3356343,26.1387217 48.4521728,29.241173 L48.45625,29.4586236 L48.45625,38.2645958 C48.45625,38.6788094 48.1204636,39.0145958 47.70625,39.0145958 C47.3265542,39.0145958 47.012759,38.732442 46.9630966,38.3663664 L46.95625,38.2645958 L46.95625,29.4586236 C46.95625,27.1607099 45.102716,25.2807726 42.7650725,25.1721759 L42.5512639,25.1672208 L36.4610027,25.1668693 C36.6323472,25.7264748 36.733547,26.3159369 36.7545604,26.9255017 L36.7586681,27.164175 L36.7586681,40.3803139 C36.7586681,40.7945275 36.4228816,41.1303139 36.0086681,41.1303139 C35.6289723,41.1303139 35.3151771,40.84816 35.2655147,40.4820844 L35.2586681,40.3803139 L35.2586681,27.164175 C35.2586681,24.2389638 32.8861428,21.8476831 29.9065277,21.7327754 L29.6819458,21.7284528 L20.3198069,21.7284528 C17.3123016,21.7284528 14.8657162,24.0489121 14.7481597,26.9458509 L14.7437375,27.164175 L14.7437375,40.3803139 C14.7437375,40.7945275 14.4079511,41.1303139 13.9937375,41.1303139 C13.6140417,41.1303139 13.3002465,40.84816 13.2505841,40.4820844 L13.2437375,40.3803139 L13.2437375,27.164175 C13.2437375,26.469762 13.3478138,25.7993634 13.5414607,25.1670614 L6.64391667,25.1670903 C4.2783394,25.1670903 2.35570018,26.9792988 2.24465011,29.2507683 L2.23958333,29.4584931 L2.23958333,38.2644653 C2.23958333,38.6786788 1.9037969,39.0144653 1.48958333,39.0144653 C1.10988757,39.0144653 0.796092372,38.7323114 0.746429949,38.3662358 L0.739583333,38.2644653 L0.739583333,29.4584931 C0.739583333,26.3276011 3.26671284,23.7850312 6.42273273,23.671077 L6.64391667,23.6670903 L14.2078252,23.6670536 C15.3978993,21.6735334 17.5739687,20.315345 20.0768022,20.2324702 L20.3198069,20.2284528 L29.6819458,20.2284528 Z M18.8379361,26.3872806 C19.2176319,26.3872806 19.5314271,26.6694344 19.5810895,27.03551 L19.5879361,27.1372806 L19.5879361,40.3801833 C19.5879361,40.7943969 19.2521497,41.1301833 18.8379361,41.1301833 C18.4582403,41.1301833 18.1444452,40.8480295 18.0947827,40.4819539 L18.0879361,40.3801833 L18.0879361,27.1372806 C18.0879361,26.723067 18.4237225,26.3872806 18.8379361,26.3872806 Z M5.4362125,28.6841444 C5.81590827,28.6841444 6.12970346,28.9662983 6.17936588,29.3323739 L6.1862125,29.4341444 L6.1862125,38.2642694 C6.1862125,38.678483 5.85042606,39.0142694 5.4362125,39.0142694 C5.05651673,39.0142694 4.74272154,38.7321156 4.69305912,38.36604 L4.6862125,38.2642694 L4.6862125,29.4341444 C4.6862125,29.0199309 5.02199894,28.6841444 5.4362125,28.6841444 Z M43.3132514,26.7022458 C43.6929472,26.7022458 44.0067423,26.9843997 44.0564048,27.3504753 L44.0632514,27.4522458 L44.0632514,35.8313014 C44.0632514,36.245515 43.727465,36.5813014 43.3132514,36.5813014 C42.9335556,36.5813014 42.6197604,36.2991475 42.570098,35.9330719 L42.5632514,35.8313014 L42.5632514,27.4522458 C42.5632514,27.0380323 42.8990378,26.7022458 43.3132514,26.7022458 Z M38.8678347,12.6729417 C41.7377078,12.6729417 44.0632514,14.998957 44.0632514,17.8690111 C44.0632514,20.7393285 41.7380973,23.063775 38.8678347,23.063775 C35.9980164,23.063775 33.6724181,20.7391202 33.6724181,17.8690111 C33.6724181,14.9991655 35.998406,12.6729417 38.8678347,12.6729417 Z M10.5893056,12.6729417 C13.4589153,12.6729417 15.7860278,14.9993463 15.7860278,17.8690111 C15.7860278,20.7389395 13.4593051,23.063775 10.5893056,23.063775 C7.7209107,23.063775 5.39454167,20.7385857 5.39454167,17.8690111 C5.39454167,14.9997003 7.72130033,12.6729417 10.5893056,12.6729417 Z M38.8678347,14.1729417 C36.8268672,14.1729417 35.1724181,15.8275586 35.1724181,17.8690111 C35.1724181,19.9105568 36.8263073,21.563775 38.8678347,21.563775 C40.9097724,21.563775 42.5632514,19.9107992 42.5632514,17.8690111 C42.5632514,15.8273161 40.9092126,14.1729417 38.8678347,14.1729417 Z M10.5893056,14.1729417 C8.54972745,14.1729417 6.89454167,15.8281275 6.89454167,17.8690111 C6.89454167,19.9099882 8.54916755,21.563775 10.5893056,21.563775 C12.6311503,21.563775 14.2860278,19.9102398 14.2860278,17.8690111 C14.2860278,15.8278756 12.6305903,14.1729417 10.5893056,14.1729417 Z M25.1626347,6.73984444 C28.5892243,6.73984444 31.3678986,9.51943738 31.3678986,12.9464139 C31.3678986,16.3731002 28.5895145,19.151025 25.1626347,19.151025 C21.735217,19.151025 18.9567181,16.373215 18.9567181,12.9464139 C18.9567181,9.51932253 21.7355072,6.73984444 25.1626347,6.73984444 Z M25.1626347,8.23984444 C22.5640176,8.23984444 20.4567181,10.3476664 20.4567181,12.9464139 C20.4567181,15.5447046 22.5635609,17.651025 25.1626347,17.651025 C27.7611429,17.651025 29.8678986,15.5446175 29.8678986,12.9464139 C29.8678986,10.3477535 27.7606862,8.23984444 25.1626347,8.23984444 Z" id="path-1"></path>
    </defs>
    <g id="Asset-Artboard-Page" stroke="none" stroke-width="1" fill="none" fill-rule="evenodd">
        <g id="icons/products/red/H-others-GFrance/h08-collectivities">
            <mask id="mask-2" fill="white">
                <use xlink:href="#path-1"></use>
            </mask>
            <use id="Shape" fill="#C21B17" fill-rule="nonzero" xlink:href="#path-1"></use>
            <polygon id="Color-Style" fill="#C5281C" mask="url(#mask-2)" points="0 0 48 0 48 48 0 48"></polygon>
        </g>
    </g>
</svg>