<?xml version="1.0" encoding="UTF-8"?>
<svg width="38px" height="49px" viewBox="0 0 38 49" version="1.1" xmlns="http://www.w3.org/2000/svg" xmlns:xlink="http://www.w3.org/1999/xlink">
    <!-- Generator: sketchtool 62 (101010) - https://sketch.com -->
    <title>957185C8-01D6-49BD-9666-F4DFFD23003F</title>
    <desc>Created with sketchtool.</desc>
    <defs>
        <path d="M23.0512714,25.6149503 C23.4470544,25.3603322 23.9576846,25.3599733 24.3491664,25.61061 L24.6872808,25.8635249 L24.6872808,25.8635249 L24.7915254,25.9380629 L25.044966,26.1121176 C25.5195083,26.4301666 26.0602508,26.748709 26.6564981,27.046117 C28.3651663,27.8984001 30.1753027,28.4077627 31.998708,28.4077627 C32.663731,28.4077627 33.203668,28.9492379 33.203668,29.6146027 C33.203668,36.1562382 29.0902983,45.1651625 24.3130096,48.0281754 C24.1276599,48.1352308 23.9184706,48.1932693 23.704148,48.1932693 C23.5101549,48.1932693 23.3193507,48.1469494 23.1497419,48.0580947 C18.333743,45.567926 14.2021213,36.5154466 14.2021213,29.6146027 C14.2021213,28.9494945 14.7418012,28.4077627 15.4064547,28.4077627 C17.2351485,28.4077627 19.0458572,27.8985888 20.7523692,27.0465636 C21.228689,26.8087472 21.669265,26.5574419 22.0689524,26.303572 L22.4642499,26.0431637 L22.4642499,26.0431637 L22.7604812,25.8331651 L22.9536268,25.6850388 L23.0512714,25.6149503 Z M23.7954538,27.0721787 L23.702,27.001 L23.5783186,27.0941069 L23.5783186,27.0941069 L23.4132464,27.2112567 L23.1972371,27.3581139 C22.6724867,27.7105166 22.0780624,28.0612405 21.4224152,28.3885913 C19.6497035,29.2736686 17.7630577,29.8299687 15.8229811,29.9002083 L15.7040007,29.9016867 L15.7163371,30.2949428 C15.9661347,36.367704 19.4721994,44.026837 23.3963437,46.4731968 L23.6188925,46.6060572 L23.693,46.647 L23.7805082,46.5927903 C27.8042561,43.9742707 31.4305513,36.1587448 31.6889612,30.2723615 L31.6999714,29.9412782 L31.699,29.902 L31.5831718,29.9002066 C29.9239833,29.8399877 28.3013497,29.4225871 26.7541189,28.7471589 L26.3689046,28.5729837 L25.986967,28.3884016 C25.150592,27.9712181 24.4745906,27.5553176 23.9746486,27.2017328 L23.7954538,27.0721787 Z M38.993742,23.1671709 L39.223897,23.3353304 C41.5326564,25.0735899 42.8619653,28.1564519 42.9508966,30.7741927 L42.9556667,31.0528027 L42.9556667,44.9278293 C42.9556667,45.3420429 42.6198802,45.6778293 42.2056667,45.6778293 C41.8259709,45.6778293 41.5121757,45.3956755 41.4625133,45.0295999 L41.4556667,44.9278293 L41.4556667,31.0528027 C41.4556667,28.8167554 40.3011118,26.0239739 38.321797,24.5337524 L38.1261779,24.3908263 C36.4575099,23.2077511 34.9811845,22.8777459 32.8414764,22.8699351 L26.2776931,22.9069886 L16.2477088,22.9091996 C13.9136514,22.9208621 12.3332751,23.2427203 10.5155237,24.5234587 C10.3751795,24.6223414 10.2364044,24.7261929 10.0990457,24.8352836 C8.62206334,26.0075561 7.37140315,28.4484526 7.25772571,30.0786021 L7.24896365,30.3419925 L7.22000067,45.0854989 C7.21944544,45.4997121 6.88321029,45.8350492 6.4689971,45.8345028 C6.08930167,45.8339876 5.77588405,45.5514144 5.72671119,45.1852727 L5.72000067,45.0834931 L5.74947987,30.2731868 C5.76697788,28.1932062 7.27333685,25.1629898 9.16634412,23.6605208 C9.32601874,23.5337066 9.48778157,23.4126524 9.65157094,23.2972508 C11.6819739,21.866684 13.4577259,21.4588059 15.8884185,21.4133221 L17.4907695,21.4039378 L27.3543864,21.4020959 L32.4812858,21.3713949 C35.0980483,21.3422522 36.9192902,21.6963975 38.993742,23.1671709 Z M23.0355213,28.8883652 C23.4388537,28.6201528 23.9664627,28.6205608 24.37671,28.893703 L24.6035629,29.0654134 C24.6441188,29.0952929 24.6927869,29.1304151 24.7466973,29.1682265 L25.062832,29.3792317 C25.3022337,29.5314696 25.5643917,29.6819693 25.8460633,29.8246032 C26.9044488,30.3605523 28.020948,30.6795547 29.1366587,30.6795547 C29.8031385,30.6795547 30.340992,31.2199743 30.340992,31.8851413 C30.340992,36.3708425 27.5768437,42.5252497 24.3300559,44.5063054 C24.1397116,44.6218135 23.9232421,44.680928 23.7040853,44.680928 C23.5077473,44.680928 23.31214,44.6347013 23.1421104,44.5431115 C19.8478235,42.8078492 17.0634187,36.6166709 17.0634187,31.8851413 C17.0634187,31.2195773 17.6029285,30.6795547 18.2690053,30.6795547 C19.3844549,30.6795547 20.5010478,30.3605409 21.5597475,29.8245686 C21.9354324,29.6343761 22.276447,29.4301972 22.575088,29.22656 L22.7362064,29.1137373 L23.0355213,28.8883652 Z M23.702,30.268 L23.5973329,30.3458861 C23.2675935,30.5828619 22.7856753,30.8852042 22.2372565,31.1628441 C21.088578,31.7443687 19.8684171,32.1140842 18.6124136,32.171665 L18.5660007,32.1716867 L18.5783125,32.4567556 C18.7801988,36.4094489 21.0054459,41.345599 23.4747592,42.9964876 L23.693,43.132 L23.7417681,43.101471 C26.222072,41.4171034 28.4872342,36.5744426 28.8034033,32.7608656 L28.8247335,32.4539944 L28.836,32.172 L28.7931851,32.1716648 C27.7780585,32.1251335 26.7865057,31.8747739 25.8373048,31.4735242 L25.4833763,31.3160859 L25.1684174,31.1628095 C24.6984522,30.9248267 24.2776269,30.6688686 23.9615829,30.4532026 L23.702,30.268 Z M23.9447253,0.719686667 C29.0952068,0.719686667 33.2744187,4.83542379 33.2744187,9.91652667 C33.2744187,14.9953306 29.0943592,19.1121133 23.9447253,19.1121133 C18.7935274,19.1121133 14.613152,14.9956426 14.613152,9.91652667 C14.613152,4.83511179 18.7926797,0.719686667 23.9447253,0.719686667 Z M23.9447253,2.21968667 C19.6159616,2.21968667 16.113152,5.66877277 16.113152,9.91652667 C16.113152,14.1619991 19.6168262,17.6121133 23.9447253,17.6121133 C28.2710104,17.6121133 31.7744187,14.1617388 31.7744187,9.91652667 C31.7744187,5.66903309 28.2718749,2.21968667 23.9447253,2.21968667 Z" id="path-1"></path>
    </defs>
    <g id="Page-1" stroke="none" stroke-width="1" fill="none" fill-rule="evenodd">
        <g id="Generali-Group-GDF---Warranty-Icons" transform="translate(-996.000000, -901.000000)">
            <g id="RC-Vie-Privee" transform="translate(731.000000, 901.000000)">
                <g id="icons/products/red/H-others-GFrance/h09-professionnal-liability" transform="translate(259.500000, 0.000000)">
                    <mask id="mask-2" fill="white">
                        <use xlink:href="#path-1"></use>
                    </mask>
                    <use id="Shape" fill="#000000" fill-rule="nonzero" xlink:href="#path-1"></use>
                    <polygon id="Color-Style" fill="#C5281C" mask="url(#mask-2)" points="0 0 48 0 48 48 0 48"></polygon>
                    <g id="Group-9" transform="translate(5.000000, 0.000000)"></g>
                </g>
            </g>
        </g>
    </g>
</svg>