<?xml version="1.0" encoding="UTF-8"?>
<svg width="48px" height="48px" viewBox="0 0 48 48" version="1.1" xmlns="http://www.w3.org/2000/svg" xmlns:xlink="http://www.w3.org/1999/xlink">
    <!-- Generator: sketchtool 62 (101010) - https://sketch.com -->
    <title>D8B4C83D-79E5-4E9E-904D-A5EDEA3ABF0F</title>
    <desc>Created with sketchtool.</desc>
    <defs>
        <path d="M40.5190498,8.17405625 C40.7246288,8.39200362 40.7102603,8.73510888 40.4869972,8.93579309 L36.256619,12.7332584 L37.8350868,14.36348 L35.271,17.011 L35.4860677,17.2873609 C37.8179678,20.3533752 39.1816467,24.0519286 39.3645605,27.9653674 L39.3804137,28.4178478 L39.3857143,28.872093 C39.3857143,39.4661314 30.7809564,48.0534884 20.1666667,48.0534884 C9.55237693,48.0534884 0.947619048,39.4661314 0.947619048,28.872093 C0.947619048,18.2780546 9.55237693,9.69069767 20.1666667,9.69069767 C23.7927147,9.69069767 27.268358,10.6957709 30.2727501,12.5534319 L30.6619285,12.8005581 L30.967,13.004 L33.7445457,10.1374462 L35.497619,11.9492584 L39.738734,8.14168783 C39.9619972,7.94100362 40.3134709,7.95502993 40.5190498,8.17405625 Z M20.1666667,10.8906977 C10.2145755,10.8906977 2.14761905,18.9413407 2.14761905,28.872093 C2.14761905,38.8028453 10.2145755,46.8534884 20.1666667,46.8534884 C30.1187579,46.8534884 38.1857143,38.8028453 38.1857143,28.872093 C38.1857143,24.7524784 36.7936659,20.8481839 34.2833884,17.695737 L34.0101636,17.3608762 L33.6638685,16.9466196 L36.164,14.363 L33.744,11.862 L31.1135449,14.5786878 L30.692779,14.2759701 C27.6501717,12.086983 23.9995019,10.8906977 20.1666667,10.8906977 Z M21.7304986,12.8567686 L4.17610413,30.3756638 L4.24897133,28.4502568 C4.39795635,25.9095953 5.14641726,22.9593412 6.86516614,20.2220608 C9.41795711,16.1564845 13.5982337,13.5457121 19.6859219,13.0062855 L20.1240044,12.9712861 L21.7304986,12.8567686 Z M18.538,14.346 L18.5263291,14.3488646 C13.5078183,15.0788086 10.0579923,17.3937948 7.88143556,20.8601803 C6.62194996,22.8660377 5.9198886,25.0105045 5.61240895,26.9778882 L5.567,27.291 L18.538,14.346 Z M44.5523,8.16793721 L46.7767286,10.5802395 C46.9587815,10.7774695 46.9668944,11.0740162 46.8110671,11.2802662 L46.7449667,11.353007 C46.5237286,11.5563093 46.1754429,11.5421 45.9717286,11.3202163 L43.7462048,8.90791395 C43.5424905,8.68603023 43.5567286,8.33844884 43.7790619,8.13514651 C44.0003,7.93184419 44.3485857,7.94605349 44.5523,8.16793721 Z M47.4146526,6.36409474 C47.7186,6.35330526 47.9772316,6.58635789 47.9882842,6.88306842 C48.0004421,7.17977895 47.7606,7.43117368 47.4566526,7.44196316 L45.2284421,7.52504211 C44.9548895,7.53475263 44.7180426,7.34695105 44.6653514,7.09299166 L44.6548105,7.00606842 C44.6437579,6.70935789 44.8824947,6.45796316 45.1864421,6.44609474 L47.4146526,6.36409474 Z M46.3503947,2.5129 C46.5736579,2.71574211 46.5869211,3.05776842 46.3802368,3.27571579 L44.8638158,4.87255789 C44.6800965,5.06628889 44.3819756,5.09804457 44.1611898,4.96100494 L44.0823947,4.90168947 C43.8591316,4.69992632 43.8458684,4.35682105 44.0525526,4.13887368 L45.5689737,2.54203158 C45.7756579,2.32516316 46.1271316,2.31221579 46.3503947,2.5129 Z M37.9808714,1.60979767 L40.2053,4.0221 C40.3873529,4.21932997 40.3954658,4.51587663 40.2396385,4.72212667 L40.1735381,4.79486744 C39.9523,4.99816977 39.6040143,4.98396047 39.4003,4.76207674 L37.1747762,2.34977442 C36.9710619,2.1278907 36.9853,1.7803093 37.2076333,1.57700698 C37.4288714,1.37370465 37.7771571,1.38791395 37.9808714,1.60979767 Z M41.8377158,1.00161842 C42.1405579,0.990828947 42.3991895,1.22388158 42.4102421,1.52059211 L42.4953474,3.69575 C42.5052947,3.96278947 42.3129126,4.19399711 42.0527591,4.24543376 L41.9637158,4.25572368 C41.6597684,4.26651316 41.4022421,4.03346053 41.3900842,3.73675 L41.3060842,1.56159211 C41.2950316,1.26488158 41.5337684,1.01240789 41.8377158,1.00161842 Z" id="path-1"></path>
    </defs>
    <g id="Page-1" stroke="none" stroke-width="1" fill="none" fill-rule="evenodd">
        <g id="Generali-Group-GDF---Warranty-Icons" transform="translate(-991.000000, -606.000000)">
            <g id="Attentats---Terrorisme" transform="translate(731.000000, 605.000000)">
                <g id="icons/products/red/H-others-GFrance/h14-attacks-terrorism" transform="translate(259.500000, 0.000000)">
                    <mask id="mask-2" fill="white">
                        <use xlink:href="#path-1"></use>
                    </mask>
                    <use id="Combined-Shape" fill="#C4291C" fill-rule="nonzero" xlink:href="#path-1"></use>
                    <polygon id="Color-Style" fill="#C5281C" mask="url(#mask-2)" points="0 0 48 0 48 48 0 48"></polygon>
                </g>
            </g>
        </g>
    </g>
</svg>