<?xml version="1.0" encoding="UTF-8"?>
<svg width="48px" height="47px" viewBox="0 0 48 47" version="1.1" xmlns="http://www.w3.org/2000/svg" xmlns:xlink="http://www.w3.org/1999/xlink">
    <!-- Generator: sketchtool 62 (101010) - https://sketch.com -->
    <title>E7C245A7-3265-4F26-BA9F-9B572ABD6DC9</title>
    <desc>Created with sketchtool.</desc>
    <defs>
        <path d="M11,11 L11,33.292 L22,22.2928932 L22,33.099 L31,22.0992961 L31,33.292 L42,22.2928932 L42,48 L0,48 L0,11 L11,11 Z M10,12 L1,12 L1,47 L41,47 L41,24.706 L30,35.7071068 L30,24.899 L21,35.9007039 L21,24.706 L10,35.7071068 L10,12 Z M18.5,37.5 L18.5,42.5 L13.5,42.5 L13.5,37.5 L18.5,37.5 Z M28.5,37.5 L28.5,42.5 L23.5,42.5 L23.5,37.5 L28.5,37.5 Z M38.5,37.5 L38.5,42.5 L33.5,42.5 L33.5,37.5 L38.5,37.5 Z M17.5,38.5 L14.5,38.5 L14.5,41.5 L17.5,41.5 L17.5,38.5 Z M27.5,38.5 L24.5,38.5 L24.5,41.5 L27.5,41.5 L27.5,38.5 Z M37.5,38.5 L34.5,38.5 L34.5,41.5 L37.5,41.5 L37.5,38.5 Z M46.6833811,13.6130214 L47.3166189,14.3869786 L36.3166189,23.3869786 L35.6833811,22.6130214 L46.6833811,13.6130214 Z M37.6158894,13.6799078 L38.3841106,14.3200922 L33.3841106,20.3200922 L32.6158894,19.6799078 L37.6158894,13.6799078 Z M8,16.5 L8,17.5 L3,17.5 L3,16.5 L8,16.5 Z M32.5097097,6.90194193 L33.4902903,7.09805807 L31.4902903,17.0980581 L30.5097097,16.9019419 L32.5097097,6.90194193 Z M27.5,1 L27.5,16 L26.5,16 L26.5,1 L27.5,1 Z M10.0219419,4.43770966 C10.7824072,4.28561661 11.4994494,4.30610353 12.1581139,4.52565835 C13.2202981,4.87971977 13.9851976,5.45350967 14.697543,6.3123447 L14.9270687,6.60158162 L15.5771938,7.49368866 L15.7632652,7.7397716 C16.2042603,8.29362342 16.5321731,8.5 17,8.5 C17.8139573,8.5 18.7012169,8.32254809 19.5918861,8.02565835 C19.9062021,7.92088637 20.1980608,7.80863303 20.4592904,7.69667748 L20.6859642,7.59602229 L22.118034,6.88196601 L21.4050505,8.30612803 L21.2904759,8.51916406 L21.2904759,8.51916406 L21.218452,8.64778759 L21.0459001,8.94451744 C20.7281107,9.47840357 20.3695592,10.0124166 19.9762495,10.5129924 C18.2945479,12.65334 16.4855897,13.5913183 14.7226499,12.4160251 C13.5998958,11.6675224 11.3621151,9.7056907 10.6775069,9.14641154 L10.594029,9.07908537 L10.5004277,9.00861774 C10.0428333,8.70355485 9.63489465,8.54294156 9.1921332,8.50755485 L9,8.5 L3.79289322,8.5 L4.70676655,7.58713401 L4.96959712,7.34189541 L5.20933254,7.12913204 C5.64775099,6.74728371 6.13117046,6.36563676 6.6468079,6.00865699 C7.79365888,5.21468324 8.93256095,4.65558586 10.0219419,4.43770966 Z M11.6585066,5.42094982 C11.2239271,5.31213414 10.742651,5.31337176 10.2180581,5.41829034 C9.284723,5.60495735 8.26044263,6.1077859 7.21601788,6.83084918 L6.85927971,7.08587771 L6.85927971,7.08587771 L6.51446715,7.3478386 L6.325,7.499 L9,7.5 C9.57024422,7.5 10.087103,7.6362386 10.6072079,7.90915582 L10.8304738,8.03448971 L11.0551279,8.17656745 L11.1631999,8.25664067 C11.7159378,8.6877913 13.6550618,10.3913823 14.856228,11.2847238 L15.0023766,11.3920208 L15.2773501,11.5839749 C16.4531858,12.3678653 17.7929157,11.6731906 19.1899312,9.89517086 L19.4575771,9.54129516 L19.4575771,9.54129516 L19.7134522,9.17743995 L19.83,8.999 L19.5389376,9.09113206 C18.9237363,9.27514648 18.3098939,9.40488925 17.7108643,9.46400639 L17.3533317,9.49087077 L17,9.5 C16.1621995,9.5 15.5953399,9.13499556 14.9740787,8.35379022 L14.84,8.18 L14.0853239,7.14697031 C13.4872806,6.37805748 12.8910127,5.87683669 12.071187,5.55710595 L11.8418861,5.47434165 L11.6585066,5.42094982 Z" id="path-1"></path>
    </defs>
    <g id="Page-1" stroke="none" stroke-width="1" fill="none" fill-rule="evenodd">
        <g id="Generali-Group-GDF---Warranty-Icons" transform="translate(-990.000000, -532.000000)">
            <g id="Catastrophes-technologiques" transform="translate(731.000000, 531.000000)">
                <g id="icons/products/red/H-others-GFrance/h15-technological-hazards" transform="translate(259.500000, 0.000000)">
                    <mask id="mask-2" fill="white">
                        <use xlink:href="#path-1"></use>
                    </mask>
                    <use id="Shape" fill="#C5281C" fill-rule="nonzero" xlink:href="#path-1"></use>
                    <polygon id="Color-Style" fill="#C5281C" mask="url(#mask-2)" points="0 0 48 0 48 48 0 48"></polygon>
                </g>
            </g>
        </g>
    </g>
</svg>