<?xml version="1.0" encoding="UTF-8"?>
<svg width="48px" height="44px" viewBox="0 0 48 44" version="1.1" xmlns="http://www.w3.org/2000/svg" xmlns:xlink="http://www.w3.org/1999/xlink">
    <!-- Generator: sketchtool 62 (101010) - https://sketch.com -->
    <title>8049BDB2-BBA6-4D9D-ABB4-2BE7F777DA3D</title>
    <desc>Created with sketchtool.</desc>
    <defs>
        <path d="M36.4422709,44.3723827 L36.6530248,44.5557653 C39.2970614,46.9561978 44.6265941,47.0133509 47.3985115,44.7272248 L47.5966942,44.5557653 L48.4033058,45.4442347 C45.3060799,48.2561025 39.2816637,48.3172301 36.0571686,45.6276173 L35.8464132,45.4442347 C33.2023766,43.0438022 27.873915,42.9866491 25.10197,45.2728466 L24.9037832,45.4443115 C21.8054686,48.2560916 15.7821613,48.3172173 12.5577281,45.6276165 L12.3469752,45.4442347 C9.70293862,43.0438022 4.37340587,42.9866491 1.60148849,45.2727752 L1.40330579,45.4442347 L0.596694205,44.5557653 C3.69392012,41.7438975 9.71833631,41.6827699 12.9428314,44.3723827 L13.1535868,44.5557653 C15.7976372,46.9562102 21.1261556,47.0133637 23.8990021,44.7272257 L24.0972563,44.5557653 C27.1944822,41.7438975 33.2178226,41.6827699 36.4422709,44.3723827 Z M36.4422709,37.3723827 L36.6530248,37.5557653 C39.2970614,39.9561978 44.6265941,40.0133509 47.3985115,37.7272248 L47.5966942,37.5557653 L48.4033058,38.4442347 C45.3060799,41.2561025 39.2816637,41.3172301 36.0571686,38.6276173 L35.8464132,38.4442347 C33.2023766,36.0438022 27.873915,35.9866491 25.10197,38.2728466 L24.9037832,38.4443115 C21.8054686,41.2560916 15.7821613,41.3172173 12.5577281,38.6276165 L12.3469752,38.4442347 C9.70293862,36.0438022 4.37340587,35.9866491 1.60148849,38.2727752 L1.40330579,38.4442347 L0.596694205,37.5557653 C3.69392012,34.7438975 9.71833631,34.6827699 12.9428314,37.3723827 L13.1535868,37.5557653 C15.7976372,39.9562102 21.1261556,40.0133637 23.8990021,37.7272257 L24.0972563,37.5557653 C27.1944822,34.7438975 33.2178226,34.6827699 36.4422709,37.3723827 Z M7.4,4.39405315 L8.06181952,4.40058836 L8.3904136,4.41013584 C8.74765256,4.42499497 9.18911002,4.45652719 9.69934022,4.51137584 C10.7332607,4.62252008 11.8151604,4.80683014 12.9086635,5.08052629 C15.8122211,5.80726641 18.3474856,7.03940879 20.25258,8.90125169 L20.5335851,9.18526641 L36.0294962,25.3855371 L36.0716466,25.5177359 C36.0871701,25.5664233 36.1060388,25.6387534 36.1236882,25.7310118 C36.1924442,26.0904179 36.1924442,26.4737113 36.0716466,26.8525766 C35.5840499,28.3818571 33.6700696,28.7081685 30.1115989,27.5219678 L29.8025547,27.4165822 C26.4735561,26.2564766 23.4956116,26.4914431 20.9784597,27.5803677 C20.5152385,27.7807581 20.1093188,27.9947264 19.7646132,28.2074062 L19.5561124,28.3406912 C19.4977637,28.3795165 19.4506497,28.4124175 19.4150197,28.4384304 L19.1669023,28.6315818 L10.0657554,27.2723195 L19.266,17.653 L19.0759357,17.4601708 C14.6926031,13.0678859 11.2789238,11.7966087 8.89943974,12.2553256 L8.73880552,12.2892662 L8.58476911,12.3275628 L8.41357843,12.3785841 C8.36723459,12.3940926 8.33164385,12.4077161 8.30690634,12.4182951 L8.27795253,12.4317353 L7.4,12.890665 L7.4,4.39405315 Z M8.6,5.622 L8.6,11.092 L8.62694775,11.0861056 C11.4282929,10.5255363 15.2512291,11.9338672 19.9255301,16.61303 L20.2315811,16.9228434 L20.9302868,17.65 L12.534,26.427 L18.845,27.37 L18.8723858,27.3511202 C19.1488051,27.1622119 19.5260279,26.9396757 19.9982861,26.7100345 L20.2423081,26.5947446 L20.5020091,26.4790073 C23.1815147,25.3198481 26.3315267,25.0374573 29.8096447,26.1536181 L30.1974453,26.2834178 C33.4014026,27.3999484 34.6994127,27.2060898 34.9283534,26.4880484 C34.9666615,26.3679005 34.9762385,26.2300285 34.9641333,26.0928093 L34.95,25.993 L19.6664149,10.0147336 C18.0913044,8.3680272 15.9602585,7.21499468 13.4822282,6.48061941 L13.0413693,6.35535443 L12.6172997,6.244617 C11.5806027,5.985139 10.5526364,5.81001691 9.57108172,5.70450188 L9.11291157,5.65990507 L8.70362958,5.62865347 L8.6,5.622 Z M35.5,4.4 C38.8745839,4.4 41.6,7.24929869 41.6,10.75 C41.6,14.2507013 38.8745839,17.1 35.5,17.1 C32.1254161,17.1 29.4,14.2507013 29.4,10.75 C29.4,7.24929869 32.1254161,4.4 35.5,4.4 Z M35.5,5.6 C32.8003839,5.6 30.6,7.90040131 30.6,10.75 C30.6,13.5995987 32.8003839,15.9 35.5,15.9 C38.1996161,15.9 40.4,13.5995987 40.4,10.75 C40.4,7.90040131 38.1996161,5.6 35.5,5.6 Z" id="path-1"></path>
    </defs>
    <g id="Page-1" stroke="none" stroke-width="1" fill="none" fill-rule="evenodd">
        <g id="Generali-Group-GDF---Warranty-Icons" transform="translate(-990.000000, -1275.000000)">
            <g id="Piscine" transform="translate(731.000000, 1271.000000)">
                <g id="icons/products/red/H-others-GFrance/h16-swimming-pool" transform="translate(258.500000, 0.000000)">
                    <mask id="mask-2" fill="white">
                        <use xlink:href="#path-1"></use>
                    </mask>
                    <use id="Combined-Shape" fill="#C4291C" fill-rule="nonzero" xlink:href="#path-1"></use>
                    <polygon id="Color-Style" fill="#C5281C" mask="url(#mask-2)" points="1 0 49 0 49 48 1 48"></polygon>
                </g>
            </g>
        </g>
    </g>
</svg>