<?xml version="1.0" encoding="UTF-8"?>
<svg width="30px" height="47px" viewBox="0 0 30 47" version="1.1" xmlns="http://www.w3.org/2000/svg" xmlns:xlink="http://www.w3.org/1999/xlink">
    <!-- Generator: sketchtool 62 (101010) - https://sketch.com -->
    <title>50FA6CCA-BC9A-49E0-9964-DD3FA78DEA06</title>
    <desc>Created with sketchtool.</desc>
    <defs>
        <path d="M35.3134005,1.4 C36.7312883,1.4 37.6901228,2.0676773 38.2053648,3.14403218 C38.4699222,3.69669987 38.5759659,4.2384692 38.596265,4.65576215 L38.6,4.80619035 L38.6,44.1929541 C38.6,45.6500426 37.9675467,46.6412541 36.9345228,47.1809224 C36.3970215,47.4617218 35.869146,47.5744453 35.4607387,47.5960283 L35.3134005,47.6 L13.6857873,47.6 C12.3417863,47.6 11.4043804,46.9970904 10.870182,46.0045277 C10.583709,45.472249 10.451192,44.9205589 10.4118702,44.428138 L10.4005467,44.2209586 L10.4,4.80619035 C10.4,3.42536171 10.9698538,2.45783648 11.920527,1.89910998 C12.4375063,1.59527259 12.9744605,1.45447912 13.4430429,1.41284782 L13.6394204,1.40089075 L35.3134005,1.4 Z M37.399,16.099 L11.599,16.099 L11.6002786,44.2030183 C11.6093496,44.5063953 11.6784986,44.8901341 11.838908,45.2552648 L11.9268622,45.4358212 C12.2348936,46.0081563 12.7231879,46.3489416 13.5010826,46.3947051 L13.6857873,46.4 L35.3134005,46.4 C35.3339747,46.4 35.3644144,46.3986495 35.4032835,46.3953314 L35.4677299,46.3888014 L35.6302475,46.3650354 C35.8878889,46.32017 36.144612,46.2397003 36.3788777,46.1173161 C36.9819051,45.8022848 37.3487923,45.2692856 37.3950305,44.3873328 L37.4,44.1929541 L37.399,16.099 Z M36.1,18 L36.1,44.1 L18,44.1 L18,42.9 L34.899,42.899 L34.9,18 L36.1,18 Z M24.1709,21.7598 L24.17,23.928 L25.7202674,22.8955299 L26.2751326,23.7274701 L24.17,25.131 L24.17,29.025 L27.049,27.307 L27.0498,24.0869 L28.0498,24.0869 L28.049,26.71 L29.7435704,25.6992442 L30.2560296,26.5579558 L28.595,27.548 L30.0994022,28.2936897 L29.6561978,29.1901103 L27.571,28.159 L24.619,29.921 L27.565,31.817 L29.6293493,30.6352965 L30.1262507,31.5031035 L28.513,32.427 L30.1401982,33.4745519 L29.5990018,34.3154481 L28.049,33.317 L28.0498,34.9482 L27.0498,34.9482 L27.049,32.674 L24.17,30.821 L24.17,33.904 L26.2753326,35.3089299 L25.7204674,36.1408701 L24.17,35.106 L24.1709,36.4998 L23.1709,36.4998 L23.17,35.045 L21.5884317,36.1651033 L21.0105944,35.3489513 L23.17,33.819 L23.17,30.786 L20.291,32.504 L20.2918,34.9483 L19.2918,34.9483 L19.29,33.101 L17.5980296,34.1119558 L17.0855704,33.2532442 L19.004,32.108 L17.3068084,31.5436824 L17.6227916,30.5949176 L20.137,31.432 L22.722,29.889 L19.776,27.993 L17.7135311,29.1757574 L17.2164689,28.3080426 L18.829,27.383 L17.2030018,26.3374481 L17.7441982,25.4965519 L19.291,26.492 L19.292,24.0869 L20.292,24.0869 L20.292,27.136 L23.17,28.988 L23.17,25.13 L21.0662674,23.7274701 L21.6211326,22.8955299 L23.17,23.927 L23.1709,21.7598 L24.1709,21.7598 Z M15,17.9 L15,19.1 L13.599,19.099 L13.6,29.75 L12.4,29.75 L12.4,17.9 L15,17.9 Z M35.3134163,2.6 L13.6590164,2.60057118 L13.5318305,2.61010689 C13.2273051,2.6406297 12.8618081,2.73780551 12.5285525,2.93366542 C11.9818577,3.25496705 11.6498136,3.77537741 11.605168,4.60835601 L11.6,4.80618203 L11.599,14.899 L37.399,14.899 L37.4,4.80619035 C37.4,4.75990162 37.3946419,4.67229125 37.37913,4.55531598 L37.3655172,4.46226544 C37.3215555,4.1867534 37.2427318,3.91231184 37.1229853,3.66215817 C36.8202863,3.02981169 36.3189241,2.65258752 35.4949625,2.6051014 L35.3134163,2.6 Z M36.1,3.9 L36.1,11 L34.9,11 L34.899,5.099 L17,5.1 L17,3.9 L36.1,3.9 Z M14.1,6 L14.099,9.799 L16,9.8 L16,11 L12.9,11 L12.9,6 L14.1,6 Z" id="path-1"></path>
    </defs>
    <g id="Page-1" stroke="none" stroke-width="1" fill="none" fill-rule="evenodd">
        <g id="Generali-Group-GDF---Warranty-Icons" transform="translate(-1000.000000, -1642.000000)">
            <g id="Contenu-du-congelateur" transform="translate(731.000000, 1641.000000)">
                <g id="icons/products/red/H-others-GFrance/h17-freezer-content" transform="translate(259.500000, 0.000000)">
                    <mask id="mask-2" fill="white">
                        <use xlink:href="#path-1"></use>
                    </mask>
                    <use id="Shape" fill="#C32D1C" fill-rule="nonzero" xlink:href="#path-1"></use>
                    <polygon id="Color-Style" fill="#C5281C" mask="url(#mask-2)" points="0 0 48 0 48 48 0 48"></polygon>
                </g>
            </g>
        </g>
    </g>
</svg>