<?xml version="1.0" encoding="UTF-8"?>
<svg width="33px" height="49px" viewBox="0 0 33 49" version="1.1" xmlns="http://www.w3.org/2000/svg" xmlns:xlink="http://www.w3.org/1999/xlink">
    <!-- Generator: sketchtool 62 (101010) - https://sketch.com -->
    <title>94676597-D336-462C-B954-3F634E94FA8E</title>
    <desc>Created with sketchtool.</desc>
    <defs>
        <path d="M30,10.4 C32.5403261,10.4 34.6,12.4596739 34.6,15 C34.6,15.933332 34.3193588,16.8146252 33.8278198,17.5517392 C34.2038113,17.4520257 34.5977254,17.4 35,17.4 C37.5403261,17.4 39.6,19.4596739 39.6,22 C39.6,24.5403261 37.5403261,26.6 35,26.6 C33.8803987,26.6 32.8240841,26.197258 31.9996828,25.4869392 C31.1947576,26.1806009 30.1463149,26.6 29,26.6 C26.4596739,26.6 24.4,24.5403261 24.4,22 C24.4,21.8523624 24.4069569,21.7063483 24.4205606,21.5622676 C24.2179336,21.5383727 24.0194656,21.4997309 23.8259805,21.4487999 C24.315208,22.1772332 24.6,23.0553866 24.6,24 C24.6,24.9446134 24.315208,25.8227668 23.8268102,26.5532741 C24.200769,26.4525447 24.5942535,26.4 25,26.4 C26.714353,26.4 28.2098026,27.3380372 29.0010375,28.7288001 C29.7901974,27.3380372 31.285647,26.4 33,26.4 C35.5403261,26.4 37.6,28.4596739 37.6,31 C37.6,32.9278081 36.4087235,34.5945469 34.7041432,35.2742421 C35.2673161,36.0357285 35.6,36.9790462 35.6,38 C35.6,40.5403261 33.5403261,42.6 31,42.6 C30.7866656,42.6 30.5752595,42.5854268 30.3669134,42.5567112 C30.5185738,43.0088137 30.6,43.4949059 30.6,44 C30.6,46.5403261 28.5403261,48.6 26,48.6 C23.4596739,48.6 21.4,46.5403261 21.4,44 C21.4,43.7725863 21.4165064,43.5490246 21.4483864,43.3304478 C19.6528,42.6894288 18.4,40.974198 18.4,39 C18.4,36.7955615 19.9510133,34.9530724 22.0211967,34.504376 C21.7415887,34.2673681 21.4909012,33.9967786 21.2749694,33.6993254 C20.6002543,35.3983625 18.9403361,36.6 17,36.6 C14.4596739,36.6 12.4,34.5403261 12.4,32 C12.4,31.1192024 12.647612,30.2961884 13.0770176,29.5967764 L13,29.6 C10.4596739,29.6 8.4,27.5403261 8.4,25 C8.4,22.4596739 10.4596739,20.4 13,20.4 C13.342891,20.4 13.6795779,20.4378201 14.0052526,20.5104981 L14.0363542,20.5180772 C13.0357018,19.6742351 12.4,18.4112923 12.4,17 C12.4,14.4596739 14.4596739,12.4 17,12.4 C18.714353,12.4 20.2098026,13.3380372 21.0010375,14.7288001 C21.7901974,13.3380372 23.285647,12.4 25,12.4 C25.3848652,12.4 25.7586979,12.4472756 26.1160074,12.5363358 C26.9447277,11.2275456 28.3972931,10.4 30,10.4 Z M26,40.6 C24.1224156,40.6 22.6,42.1224156 22.6,44 C22.6,45.8775844 24.1224156,47.4 26,47.4 C27.8775844,47.4 29.4,45.8775844 29.4,44 C29.4,42.6563784 28.6203705,41.4946389 27.4888668,40.9425365 L27.47471,40.9550499 L27.4507068,40.9242113 C27.0106927,40.7162838 26.5189104,40.6 26,40.6 Z M23,35.6 C21.1224156,35.6 19.6,37.1224156 19.6,39 C19.6,40.4314567 20.4916697,41.6792027 21.7774437,42.1739743 C22.483979,40.5415603 24.1087904,39.4 26,39.4 C26.1262021,39.4 26.2512179,39.4050834 26.3748539,39.4150565 C26.3915916,39.2783658 26.4,39.1397975 26.4,39 C26.4,37.1224156 24.8775844,35.6 23,35.6 Z M31,34.6 C29.1224156,34.6 27.6,36.1224156 27.6,38 C27.6,38.7230986 27.8259483,39.4101872 28.2369373,39.9817162 C28.7666584,40.2754768 29.230045,40.6707072 29.6034519,41.1406407 L29.6185793,41.1077434 C30.0493163,41.2995767 30.5170474,41.4 31,41.4 C32.8775844,41.4 34.4,39.8775844 34.4,38 C34.4,36.1224156 32.8775844,34.6 31,34.6 Z M28.9989132,33.2712637 L28.9719243,33.3216264 C28.3318367,34.4142684 27.2537818,35.2192821 25.9788033,35.495624 C26.2584113,35.7326319 26.5090988,36.0032214 26.7250306,36.3006746 C27.1899594,35.1292026 28.1240014,34.1939552 29.2952605,33.7262814 C29.1871428,33.5807744 29.0883737,33.4286743 28.9989132,33.2712637 Z M17,28.6 C15.1224156,28.6 13.6,30.1224156 13.6,32 C13.6,33.8775844 15.1224156,35.4 17,35.4 C18.8775844,35.4 20.4,33.8775844 20.4,32 C20.4,30.1224156 18.8775844,28.6 17,28.6 Z M25,27.6 C23.1224156,27.6 21.6,29.1224156 21.6,31 C21.6,32.8775844 23.1224156,34.4 25,34.4 C26.8775844,34.4 28.4,32.8775844 28.4,31 C28.4,29.1224156 26.8775844,27.6 25,27.6 Z M33,27.6 C31.1224156,27.6 29.6,29.1224156 29.6,31 C29.6,31.9242326 29.9707623,32.7863957 30.6085679,33.4169027 L30.7894526,33.4047339 L31,33.4 L31,33.4 C32.0325657,33.4 32.9857192,33.7402945 33.7534198,34.3148428 C35.2764998,33.9726033 36.4,32.6091249 36.4,31 C36.4,29.1224156 34.8775844,27.6 33,27.6 Z M21.1731898,28.4467259 L21.0264232,28.4850364 C20.7788865,28.5414606 20.5237548,28.5779155 20.2628127,28.5926165 L20.0952088,28.5971944 C20.3282874,28.8093307 20.5394895,29.0450856 20.7250306,29.3006746 C20.8142017,29.0747186 20.9214782,28.8572629 21.0447138,28.650223 L21.1731898,28.4467259 Z M13,21.6 C11.1224156,21.6 9.6,23.1224156 9.6,25 C9.6,26.8775844 11.1224156,28.4 13,28.4 C14.346856,28.4 15.5432885,27.6093606 16.0898982,26.4211451 C15.6518811,25.7179364 15.4,24.8883581 15.4,24 C15.4,23.574053 15.457907,23.1616193 15.5662772,22.7701427 C14.9270623,22.0341002 13.9999665,21.6 13,21.6 Z M20,20.6 C18.1224156,20.6 16.6,22.1224156 16.6,24 C16.6,25.8775844 18.1224156,27.4 20,27.4 C21.8775844,27.4 23.4,25.8775844 23.4,24 C23.4,22.1224156 21.8775844,20.6 20,20.6 Z M29,18.6 C27.1224156,18.6 25.6,20.1224156 25.6,22 C25.6,23.8775844 27.1224156,25.4 29,25.4 C30.8775844,25.4 32.4,23.8775844 32.4,22 C32.4,20.1224156 30.8775844,18.6 29,18.6 Z M35,18.6 C34.1784548,18.6 33.4053872,18.8927059 32.7998278,19.4076068 C33.3052022,20.1466668 33.6,21.0389359 33.6,22 C33.6,22.9610641 33.3052022,23.8533332 32.8011087,24.5913052 C33.4066097,25.108361 34.1794761,25.4 35,25.4 C36.8775844,25.4 38.4,23.8775844 38.4,22 C38.4,20.1224156 36.8775844,18.6 35,18.6 Z M17,13.6 C15.1224156,13.6 13.6,15.1224156 13.6,17 C13.6,18.8775844 15.1224156,20.4 17,20.4 L17.1426517,20.394951 C17.7705322,19.896609 18.5315838,19.5588174 19.3637259,19.4436569 L19.5239787,19.2781541 C20.0816836,18.6612521 20.4,17.8568784 20.4,17 C20.4,15.1224156 18.8775844,13.6 17,13.6 Z M25,13.6 C23.1224156,13.6 21.6,15.1224156 21.6,17 C21.6,18.7735009 22.9583045,20.230119 24.6912227,20.3861636 C25.2743688,18.8300917 26.6760591,17.6741563 28.3718047,17.4425462 C28.3904116,17.2971572 28.4,17.1492821 28.4,17 C28.4,15.1224156 26.8775844,13.6 25,13.6 Z M30,11.6 C28.8937732,11.6 27.8844955,12.1331562 27.2557442,12.9917402 C28.6557033,13.7802373 29.6,15.2799366 29.6,17 C29.6,17.1464447 29.5931355,17.2920516 29.5795187,17.4364659 C30.248158,17.5200783 30.87305,17.7480972 31.4212068,18.0881154 L31.2785393,18.151536 C32.550445,17.6348515 33.4,16.3962025 33.4,15 C33.4,13.1224156 31.8775844,11.6 30,11.6 Z M26.58553,1.79339331 C26.670136,2.80653079 26.3808414,4.46948062 25.8104471,6.65173003 C25.6710648,7.18498753 25.5168851,7.7402957 25.3503772,8.31213378 C25.1477628,9.00797223 24.9344188,9.70309 24.7183889,10.3792534 L24.287085,11.6944455 L24.1149155,12.1982199 L22.9822922,11.8017801 L23.2880122,10.8976162 L23.3615072,10.6744988 C23.6468177,9.80446628 23.9321363,8.89048416 24.1982267,7.97665031 C24.3617708,7.41499096 24.5130148,6.87025604 24.649451,6.34826997 C25.1853563,4.29797067 25.4591009,2.72440652 25.3896925,1.8932563 C25.383618,1.82051555 25.3750481,1.75727121 25.3650137,1.70421275 L25.347,1.629 L25.321238,1.64135674 C25.170991,1.71961571 24.9133421,1.91074218 24.5774993,2.23524865 L24.4479499,2.36323083 C21.7137832,5.12299819 21.17716,7.53176163 21.8260902,9.44085502 C21.8801024,9.59975396 21.9320935,9.72221907 21.9728759,9.80555935 L22.0244944,9.90088977 L21.935,9.95601295 L22.0035292,10.0377911 C22.1132805,10.1711883 22.2145417,10.2973069 22.3066894,10.4147142 L22.4817686,10.6423703 L21.5182314,11.3576297 L21.4011173,11.2039268 L21.1408075,10.877963 C21.0721943,10.7939535 20.9966108,10.7026879 20.9144719,10.6050846 C20.4341034,10.0342765 19.9084485,9.46349827 19.3562029,8.93250433 C18.3858513,7.99949413 17.4418018,7.29479186 16.5831809,6.91255485 C16.0881284,6.69216958 15.6386007,6.58745144 15.2413346,6.60123106 L15.0742971,6.61439982 L14.9257029,5.42363545 C15.6026543,5.33915947 16.32044,5.48205143 17.0712162,5.81627865 C18.0790672,6.26494926 19.126063,7.04649755 20.187924,8.06749567 L20.3876883,8.26711497 C20.277655,6.25530196 21.1878754,3.94881046 23.5955279,1.5186145 C25.1435051,-0.0434804018 26.4379148,0.025733098 26.58553,1.79339331 Z" id="path-1"></path>
    </defs>
    <g id="Page-1" stroke="none" stroke-width="1" fill="none" fill-rule="evenodd">
        <g id="Generali-Group-GDF---Warranty-Icons" transform="translate(-998.000000, -1714.000000)">
            <g id="Cave-Vin" transform="translate(731.000000, 1714.000000)">
                <g id="icons/products/red/H-others-GFrance/h18-wine-cellar" transform="translate(259.500000, 0.000000)">
                    <mask id="mask-2" fill="white">
                        <use xlink:href="#path-1"></use>
                    </mask>
                    <use id="Shape" fill="#C32B1C" fill-rule="nonzero" xlink:href="#path-1"></use>
                    <polygon id="Color-Style" fill="#C5281C" mask="url(#mask-2)" points="0 1 48 1 48 49 0 49"></polygon>
                </g>
            </g>
        </g>
    </g>
</svg>